<?xml version="1.0" encoding="UTF-8"?>
<svg id="Warstwa_4" data-name="Warstwa 4" xmlns="http://www.w3.org/2000/svg" viewBox="0 0 1170.88 363.6">
  <defs>
    <style>
      .cls-1 {
        fill: #1d272e;
      }
    </style>
  </defs>
  <path class="cls-1" d="M541.95,123.78c9.35,6.36,16.45,15,21.31,25.94,4.86,10.94,7.29,23.14,7.29,36.6s-2.38,25.71-7.15,36.74c-4.77,11.03-11.83,19.73-21.17,26.08-9.35,6.36-20.57,9.53-33.65,9.53-8.97,0-16.69-1.12-23.14-3.37-6.45-2.24-12.29-5.79-17.53-10.66v79.08h-31.41V116.77h24.96l3.37,14.86c5.98-5.61,12.48-9.91,19.49-12.9,7.01-2.99,15.1-4.49,24.26-4.49,12.9,0,24.02,3.18,33.37,9.53ZM529.05,219.97c6.17-8.22,9.25-19.44,9.25-33.65s-3.08-25.14-9.25-33.37c-6.17-8.22-14.77-12.34-25.8-12.34-11.78,0-20.89,4.02-27.34,12.06-6.45,8.04-9.68,19.26-9.68,33.65s3.23,25.9,9.68,33.93c6.45,8.04,15.56,12.06,27.34,12.06,11.03,0,19.63-4.11,25.8-12.34Z"/>
  <path class="cls-1" d="M630.19,248.99c-10.66-6.45-18.84-15.19-24.54-26.22-5.71-11.03-8.55-23.18-8.55-36.46s2.85-25.42,8.55-36.46c5.7-11.03,13.88-19.77,24.54-26.22,10.66-6.45,23.18-9.68,37.58-9.68s27.2,3.23,37.86,9.68c10.66,6.45,18.79,15.19,24.4,26.22,5.61,11.03,8.41,23.18,8.41,36.46s-2.81,25.43-8.41,36.46c-5.61,11.03-13.74,19.77-24.4,26.22-10.66,6.45-23.28,9.68-37.86,9.68s-26.92-3.23-37.58-9.68ZM696.23,219.97c6.82-8.22,10.24-19.44,10.24-33.65s-3.41-25.19-10.24-33.51c-6.83-8.32-16.31-12.48-28.46-12.48s-21.59,4.16-28.32,12.48c-6.73,8.32-10.09,19.49-10.09,33.51s3.36,25.43,10.09,33.65c6.73,8.23,16.17,12.34,28.32,12.34s21.64-4.11,28.46-12.34Z"/>
  <path class="cls-1" d="M772.19,116.77h28.32l1.68,17.67c5.05-6.17,10.84-11.12,17.39-14.86,6.54-3.74,13.36-5.61,20.47-5.61,1.87,0,3.93.19,6.17.56l-2.52,31.97c-2.99-.93-6.55-1.4-10.66-1.4-6.17,0-11.97,1.45-17.39,4.35-5.42,2.9-9.25,6.31-11.5,10.24v96.19h-31.97V116.77Z"/>
  <path class="cls-1" d="M888.93,248.29c-6.27-6.91-9.39-15.23-9.39-24.96v-81.32h-21.03l2.8-25.24h18.23v-31.97l31.41-3.37v35.33h32.81v25.24h-32.81v66.74c0,8.23.47,13.88,1.4,16.97.93,3.08,2.94,5.1,6.03,6.03,3.08.94,8.65,1.4,16.69,1.4h8.41l-2.8,25.52h-24.12c-12.15,0-21.36-3.46-27.62-10.38Z"/>
  <path class="cls-1" d="M976.07,247.31c-7.76-7.57-11.64-17.53-11.64-29.87s4.3-21.87,12.9-29.16c8.6-7.29,18.93-12.48,30.99-15.56,12.06-3.08,24.07-4.81,36.04-5.19-.19-9.72-2.34-16.5-6.45-20.33-4.11-3.83-10.94-5.75-20.47-5.75-5.99,0-11.92.89-17.81,2.66-5.89,1.78-12.48,4.63-19.77,8.55l-3.37-25.52c15.7-8.6,32.25-12.9,49.64-12.9s29.35,4.63,37.58,13.88c8.23,9.25,12.34,24.54,12.34,45.85v34.49c0,7.29.32,12.58.98,15.84.65,3.27,1.87,5.57,3.65,6.87,1.77,1.31,4.72,1.96,8.83,1.96h3.93l-3.65,25.52h-8.69c-8.97,0-15.94-1.5-20.89-4.49-4.96-2.99-8.93-7.38-11.92-13.18-4.86,5.42-11.03,9.72-18.51,12.9-7.48,3.18-15.52,4.77-24.12,4.77-11.97,0-21.83-3.79-29.59-11.36ZM1031.59,230.77c5.14-2.34,9.49-5.56,13.04-9.68v-32.25c-14.4.56-25.94,3.08-34.63,7.57-8.69,4.49-13.04,11.03-13.04,19.63,0,12.15,6.63,18.23,19.91,18.23,4.67,0,9.58-1.17,14.72-3.51Z"/>
  <path class="cls-1" d="M1129.79,248.71c-5.89-6.63-8.83-15.09-8.83-25.38V45.54h31.13v163.21c0,7.85.46,13.42,1.4,16.69.93,3.27,2.62,5.38,5.05,6.31,2.43.94,6.54,1.4,12.34,1.4l-3.08,25.52h-11.22c-11.97,0-20.89-3.32-26.78-9.96Z"/>
  <g>
    <path class="cls-1" d="M200.8,342.79c-90.21,0-163.33-71.63-163.33-159.99S110.59,22.81,200.8,22.81c80.15,0,146.81,56.55,160.68,131.15C348.08,66.77,272.74,0,181.8,0,81.39,0,0,81.39,0,181.8s81.39,181.8,181.8,181.8c86,0,158.05-59.72,176.95-139.95-18.43,68.57-82.16,119.14-157.95,119.14Z"/>
    <path class="cls-1" d="M230.06,311.65c-73.74,0-133.53-57.24-133.53-127.85s59.78-127.85,133.53-127.85c29.69,0,57.11,9.28,79.28,24.97-27.49-27.33-65.85-44.31-108.29-44.31-83.64,0-151.44,65.9-151.44,147.18s67.8,147.18,151.44,147.18c42.44,0,80.79-16.97,108.29-44.31-22.17,15.69-49.59,24.97-79.28,24.97Z"/>
    <path class="cls-1" d="M229.1,64.77c-67.95,0-123.03,53.29-123.03,119.03s55.08,119.03,123.03,119.03,123.03-53.29,123.03-119.03-55.08-119.03-123.03-119.03ZM244.08,276.87c-53.15,0-96.25-42.12-96.25-94.07s43.09-94.07,96.25-94.07,96.25,42.12,96.25,94.07-43.09,94.07-96.25,94.07Z"/>
  </g>
</svg>