<?xml version="1.0" encoding="utf-8"?>
<!-- Generator: Adobe Illustrator 29.1.0, SVG Export Plug-In . SVG Version: 9.03 Build 55587)  -->
<!DOCTYPE svg PUBLIC "-//W3C//DTD SVG 1.0//EN" "http://www.w3.org/TR/2001/REC-SVG-20010904/DTD/svg10.dtd" [
	<!ENTITY ns_extend "http://ns.adobe.com/Extensibility/1.0/">
	<!ENTITY ns_ai "http://ns.adobe.com/AdobeIllustrator/10.0/">
	<!ENTITY ns_graphs "http://ns.adobe.com/Graphs/1.0/">
	<!ENTITY ns_vars "http://ns.adobe.com/Variables/1.0/">
	<!ENTITY ns_imrep "http://ns.adobe.com/ImageReplacement/1.0/">
	<!ENTITY ns_sfw "http://ns.adobe.com/SaveForWeb/1.0/">
	<!ENTITY ns_custom "http://ns.adobe.com/GenericCustomNamespace/1.0/">
	<!ENTITY ns_adobe_xpath "http://ns.adobe.com/XPath/1.0/">
]>
<svg version="1.0" xmlns:x="&ns_extend;" xmlns:i="&ns_ai;" xmlns:graph="&ns_graphs;"
	 xmlns="http://www.w3.org/2000/svg" xmlns:xlink="http://www.w3.org/1999/xlink" x="0px" y="0px" viewBox="0 0 205 163"
	 enable-background="new 0 0 205 163" xml:space="preserve">
<metadata>
	<sfw  xmlns="&ns_sfw;">
		<slices></slices>
		<sliceSourceBounds  bottomLeftOrigin="true" height="14472.5981" width="15865.2916344" x="-7478.017161" y="-7321">
			</sliceSourceBounds>
	</sfw>
</metadata>
<g id="Layer_2">
</g>
<g id="Layer_3">
</g>
<g id="Layer_4">
</g>
<g id="Layer_5">
</g>
<g id="Layer_6">
</g>
<g id="Layer_1">
	<g>
		<g>
			<polygon fill="#4D4D4D" points="115.8632965,102.6063995 138.2471008,112.6942978 132.2021027,100.0313034 			"/>
			<path fill="#4D4D4D" d="M90.2637024,105c0,1-4.797905,21.4375-3.5889053,21.0342026
				C87.8856964,125.6317978,108.482399,105,108.482399,105H90.2637024z"/>
			<path fill="#767676" d="M169.9481964,88.3896027c-1.2098999-1.6142044-31.1502991-15.7294006-31.1502991-15.7294006
				S120.9531021,72,119.3388977,90c0,0-36.2929993,1-36.2929993,0c0-2-0.5761948-32.4804993,13.5381012-36.9179993
				c0,0-32.4912033,3.3984985-34.9110985,6.2216988c0,0,2.0545998,1.2139015,5.6463966,3.5536995
				c15.5703049,10.1464996,11.9063034,17.0547028,7.6612015,20.5293045
				c-5.5186005,4.5175934-11.5849991,5.5859985-26.5098,10.5234985c-14.9258003,4.9393997,38.6865044,13.625,66.030304,11.2246017
				C150.0458984,102.0117035,169.9481964,88.3896027,169.9481964,88.3896027z"/>
			<path fill="#9A9A9A" d="M130.1376953,83.8212967c1.9824066,2.4101028,3.9873047,4.8047028,6.0293121,7.1641006
				c2.527298,2.9209061,5.1190948,5.7851028,7.7089996,8.6464005c16.9335938-5,26.0721893-11.2421951,26.0721893-11.2421951
				c-1.2098999-1.6142044-31.1502991-16.0302048-31.1502991-16.0302048s-8.0489044-0.4911957-13.824295,4.680603
				C126.1493988,79.5996017,128.3730011,81.6787033,130.1376953,83.8212967z"/>
			<path fill="#9A9A9A" d="M92.0731964,55.4248009c1.3067017-1.1884995,2.7989044-2.1054993,4.5108032-2.642601
				c0,0-11.4169998,1.2461014-21.219696,2.8506012C80.9423981,55.4961014,86.5166016,55.4443016,92.0731964,55.4248009z"/>
			<path fill="#9A9A9A" d="M48.4706993,93.892601c-5.0536995,1.6708984-2.2431984,3.7743988,4.7392998,5.7313995
				c3.4980011-1.5253983,15.1932983-11.1992035,20.5517044-15.3447037
				C68.5302963,88.0419998,62.3096008,89.3134995,48.4706993,93.892601z"/>
			<path fill="#E5E5E5" d="M139.157196,72.5322037c0,0-1.6708984-27.0898018-29.0936966-24.6709023
				c0,0-33.205101-1.1621017-27.017601,41.5370979c0.4033051,1.2099991,36.6963043,1.1669998,36.6963043,1.1669998
				S123.4307022,73.339798,139.157196,72.5322037z"/>
			<path fill="#FFFFFF" d="M110.0634995,47.8613014c0,0-9.7637024-0.3261032-17.7167969,6.1747971
				c10.0048981,1.4561005,19.6776962,5.6182022,26.634697,13.1924019c3.3154984,3.6064987,5.490303,7.6493988,6.5723038,11.9785004
				c2.9726944-3.4140015,7.3281021-6.3525009,13.6034927-6.6747971
				C139.157196,72.5322037,137.4862976,45.4424019,110.0634995,47.8613014z"/>
		</g>
	</g>
</g>
</svg>
