<?xml version="1.0" encoding="utf-8"?>
<!-- Generator: Adobe Illustrator 29.1.0, SVG Export Plug-In . SVG Version: 9.03 Build 55587)  -->
<!DOCTYPE svg PUBLIC "-//W3C//DTD SVG 1.0//EN" "http://www.w3.org/TR/2001/REC-SVG-20010904/DTD/svg10.dtd" [
	<!ENTITY ns_extend "http://ns.adobe.com/Extensibility/1.0/">
	<!ENTITY ns_ai "http://ns.adobe.com/AdobeIllustrator/10.0/">
	<!ENTITY ns_graphs "http://ns.adobe.com/Graphs/1.0/">
	<!ENTITY ns_vars "http://ns.adobe.com/Variables/1.0/">
	<!ENTITY ns_imrep "http://ns.adobe.com/ImageReplacement/1.0/">
	<!ENTITY ns_sfw "http://ns.adobe.com/SaveForWeb/1.0/">
	<!ENTITY ns_custom "http://ns.adobe.com/GenericCustomNamespace/1.0/">
	<!ENTITY ns_adobe_xpath "http://ns.adobe.com/XPath/1.0/">
]>
<svg version="1.0" xmlns:x="&ns_extend;" xmlns:i="&ns_ai;" xmlns:graph="&ns_graphs;"
	 xmlns="http://www.w3.org/2000/svg" xmlns:xlink="http://www.w3.org/1999/xlink" x="0px" y="0px" viewBox="0 0 864 603"
	 enable-background="new 0 0 864 603" xml:space="preserve">
<metadata>
	<sfw  xmlns="&ns_sfw;">
		<slices></slices>
		<sliceSourceBounds  bottomLeftOrigin="true" height="14472.5981" width="15865.2916344" x="-7478.017161" y="-7321">
			</sliceSourceBounds>
	</sfw>
</metadata>
<g id="Layer_2">
</g>
<g id="Layer_3">
</g>
<g id="Layer_4">
</g>
<g id="Layer_5">
</g>
<g id="Layer_6">
</g>
<g id="Layer_1">
	<g>
		<path fill="#3D3D3D" d="M296.8853149,380.2217102c0,0,188.1146851,4.4384766,189.1146851,48.9100952V652h15V429.1318054
			c0,0,1.9443054-26.8535156,44.5-27.8251953c13.0438843-0.2987976,43.5,3.6298828,44.5,27.8251953V640h16V429.1318054
			c0,0-5.0488281-29.8309937,63.5-27.8251953c0,0,63.5-3.3662109,63.5,27.8251953V645h15V429.1318054
			c0,0-1.8394165-24.1953125,35.6646118-29.0350952l123.7528687-14.4414062L296.8853149,380.2217102z"/>
		<path fill="#8D8D8D" d="M480.375,350.4960938c0,0-297.3905945,18.1465149-193.3496094,29.0342102
			c0,0,301.8408203,24.8007812,612.1484375,6.6542969l-8.4677124-9.6787109c0,0-1.2109985-16.3320923-2.4200439-16.3320923
			C887.0761719,360.1737976,480.375,350.4960938,480.375,350.4960938z"/>
		<path fill="#B6B6B6" d="M279.5028992,378.6376953c29.1777954-4.1445007,182.9414062-17.5566101,182.9414062-17.5566101
			s11.2949829-9.6474915,13.8262024-10.4151001C427.3135071,353.8301086,207.8280945,368.9111023,279.5028992,378.6376953z"/>
		<path fill="#8D8D8D" d="M783.3311157,280.2939148c2.8758545,0.6728821,85.5975952-1.1748047,85.5975952-1.1748047
			l16.3319702,28.4296875c0,0-7.2577515,13.3076172-9.0722046,13.3076172s-148.8027954,54.4394836-148.8027954,54.4394836
			l-108.2752686-5.4433899c0,0,34.4785156,2.4199829,74.4002686-12.0975952
			c39.9238892-14.5176086,106.741333-51.054718,110.975647-57.7080078l-4.6513062-4.3359985L783.3311157,280.2939148z"/>
		<path fill="#C1C1C1" d="M848.3837891,279.5517883l20.5449219-0.4326782c0,0-82.7217407,1.8476868-85.5975952,1.1748047
			l14.8037109,13.829071c3,0.8165283,65.3622437-7.2684937,79.0497437-11.789978
			C882.7061157,280.5107117,848.3837891,279.5517883,848.3837891,279.5517883z"/>
		<polygon fill="#606060" points="887.0761719,315.718811 754.0009766,363 889.0479126,363 		"/>
		<g>
			<g>
				<g>
					<path fill="#383838" d="M795.4970703,359.0185852c5.5742188,3.9814148,9.9189453-2.4736938,11.1289062-4.2880859
						c3.0244141-5.444397-1.8144531-9.0733032-1.8144531-9.0733032s5.5722656-5.507782,0-10.8886108
						c-6.5840454-6.3574829-12.703125-0.6044922-12.703125-0.6044922s-6.0839844-3.069397-8.3886719,0.4658203
						c-0.8496094,1.3026733-0.5107422,7.093689-0.5107422,7.093689s-4.7880859,2.217804-5.8964844,4.2958984
						c-0.9970703,1.8681946,0.1533203,4.7060852,0.8837891,6.8955078
						c3.0234375,8.4687805,8.9941406,10.1983032,15.7266235,6.9726868L795.4970703,359.0185852z"/>
				</g>
				<polygon fill="#383838" points="796.3427734,373 791.5029297,373 792.0742188,360 795.772522,360 				"/>
			</g>
			<g>
				<g>
					<path fill="#383838" d="M846.4697266,304.3378906c3.0712891-16.2733765-17.0527344-24.5976868-21.6972046-12.157196
						c-0.9609985,2.5732117,0.6054077,7.523407,1.8143921,9.4042969
						c-9.6777344-0.9404907-25.4053345,20.6855164-10.8876953,29.148407
						c-4.8388062,13.1631165,9.0733032,17.8652039,15.1220703,19.7460938l1.2098999-2.8212891
						c2.4190063,8.4638977,15.3486938,8.5010071,16.9365845-0.8652039
						c-0.3964844-3.1474915-1.3291016-5.6181946-2.4433594-7.1162109c3.5067749-0.8369751,5.5859985-2.9921875,7.2832031-7.7637024
						C860.4608765,313.1914062,846.4697266,305.2782898,846.4697266,304.3378906z"/>
				</g>
				<rect x="832" y="338" fill="#383838" width="6" height="30"/>
			</g>
		</g>
		<g>
			<path fill="#F9F9F9" d="M558.6210938,219.2353973l20.9697266,32.0585022l104.8476562-7.863205
				c0,0-15.6230469-19.3202972-29.640564-22.9863892C631.5341797,214.3583984,558.6210938,219.2353973,558.6210938,219.2353973z"/>
			<g>
				<defs>
					<path id="SVGID_00000129901240976375282470000007187005871195169936_" d="M558.6210938,219.2353973l20.9697266,32.0585022
						l104.8476562-7.863205c0,0-20.7870483-19.8945923-29.640564-22.9863892
						C632.0977173,212.5126953,558.6210938,219.2353973,558.6210938,219.2353973z"/>
				</defs>
				<clipPath id="SVGID_00000087390407608361906590000014216336692418102157_">
					<use xlink:href="#SVGID_00000129901240976375282470000007187005871195169936_"  overflow="visible"/>
				</clipPath>
				
					<line clip-path="url(#SVGID_00000087390407608361906590000014216336692418102157_)" fill="none" stroke="#BCBCBC" stroke-width="1.20978" stroke-miterlimit="10" x1="565.8809204" y1="236.7763977" x2="679.397522" y2="232.9931946"/>
				
					<line clip-path="url(#SVGID_00000087390407608361906590000014216336692418102157_)" fill="none" stroke="#BCBCBC" stroke-width="1.20978" stroke-miterlimit="10" x1="594.3095703" y1="221.0498047" x2="611.2470703" y2="252.8056946"/>
				
					<line clip-path="url(#SVGID_00000087390407608361906590000014216336692418102157_)" fill="none" stroke="#BCBCBC" stroke-width="1.20978" stroke-miterlimit="10" x1="631.5106812" y1="218.4785004" x2="651.7744141" y2="248.8739929"/>
			</g>
			<path fill="#AFAFAF" d="M801.7675781,193.2910004c-6.4736938-0.5205078-66.5498047-2.7012024-132.7470703,2.7001953
				c-85.9296875,7.0108032-182.9717102,22.3242035-194.679718,24.5243988l86.6142883,0.2548981
				c0,0,75.1542969-3.726593,97.8641968,2.1641083c5.2920532,1.371994,23.6797485,19.2928925,23.6797485,19.2928925
				l1.9394531,1.3545074l-104.4716797,7.7686005c0.2393188,0.4844055,1.1221313,1.1298981,1.1221313,1.1298981
				l-17.5450439,2.2870941l0.5215454,13.5009918l195.984375-5.4628906l-4.9296875-7.5567017
				c0,0-28.4912109-21.3622894-15.1835938-28.6210938c11.1366577-6.0742035,61.3291016-17.1992035,82.9452515-20.6347046
				C831.1298828,204.6864929,825.7363281,195.2138977,801.7675781,193.2910004z"/>
			<path fill="#606060" d="M802.3916016,295.4512024c2.1503906-0.3681946,6.0488281,6.6532898,6.0488281,6.6532898
				s-94.3633423,59.2792969-145.1738281,62.9082031l-37.5029297,1.8153992l-152.4325867-7.8641968l15.7275085-32.0585938
				l-8.467804-19.9609985C480.5907898,306.9443054,765.2949219,301.7832031,802.3916016,295.4512024z"/>
			<path fill="#8D8D8D" d="M714,257v-19.2100067c0,0,0.1044922-6.6083984,5.6992188-6.6083984
				c0,0,4.3007812,1.0157013,4.3007812,6.0997009V256"/>
			<path fill="#767676" d="M802.3916016,295.4512024c-1.8145142-0.6054993-41.7373047-44.7617035-43.5526733-44.7617035
				c-1.8145142,0-53.5391235,1.4853058-59.1348267,2.6903992c-14.625,3.1483917-24.0712891,11.8964996-26.4901733,11.2910004
				c-2.4200439-0.6044922-52.2891235-0.0693054-63.1778564-2.4883118
				c-10.8876953-2.4198914-18.0897827-2.843689-25.953064-0.4247742
				c-7.8632812,2.4198914-20.1328125,3.3916016-20.1328125,3.3916016l-0.3272095-8.4179993
				c0,0-21.9384155,2.4257812-28.5927124,4.2402954c-6.6542969,1.8153992-15.7442017,1.3807983-21.1875,5.6152039
				c-5.4443665,4.2333984-24.7841797,27.0487976-24.7841797,27.0487976s-10.2832031,10.8887024-8.467804,13.3085938
				c1.8145142,2.4190063,64.7226868,1.2089844,79.844696,2.4190063c15.1221313,1.2098999,82.881897,0.5361023,94.3624268,0
				C816.1552734,301.8262024,802.3916016,295.4512024,802.3916016,295.4512024z"/>
			<path fill="#878787" d="M498.3008118,283.8544922c12.0018921-8.9512024,12.5731812-15.3623047,27.5096741-17.7666016
				c8.4628906-1.3623047,29.6416016-3.1405945,37.9717407-5.2528992l-0.1592407-4.1035767
				c0,0-21.9384155,2.4257812-28.5927124,4.2402954c-6.6542969,1.8153992-15.7442017,1.3807983-21.1875,5.6152039
				c-3.328186,2.5878906-11.8495789,12.1210938-17.9706726,19.139679
				C496.6806946,285.101593,497.4814148,284.4657898,498.3008118,283.8544922z"/>
			<g>
				<path fill="#4C4C4C" d="M681.414978,265.9296875c0,6.5771179-4.1015015,9.4658203-9.1610718,9.4658203
					c-5.0596313,0-9.1611328-2.8887024-9.1611328-9.4658203c0-6.5780945,4.1015015-14.3525848,9.1611328-14.3525848
					C677.3134766,251.5771027,681.414978,259.351593,681.414978,265.9296875z"/>
				<polygon fill="#4C4C4C" points="672.8643188,272 673.3563843,286 671.1514282,286 671.6436157,272 				"/>
			</g>
			<g>
				<path fill="#4C4C4C" d="M736.2578125,272.8340149c0,5.0682983-3.1592407,7.2938843-7.0576172,7.2938843
					s-7.0585938-2.2255859-7.0585938-7.2938843c0-5.0674133,3.1602173-11.0576172,7.0585938-11.0576172
					S736.2578125,267.7666016,736.2578125,272.8340149z"/>
				<polygon fill="#4C4C4C" points="729.6699219,276 730.0498047,287 728.3505859,287 728.7294922,276 				"/>
			</g>
			<g>
				<path fill="#4C4C4C" d="M766.8770142,272.0566101c0,6.2138977-6.4678345,6.5224915-14.4483032,6.5224915
					c-7.9805298,0-14.4481812-0.3085938-14.4481812-6.5224915c0-6.210907,6.4676514-15.9736023,14.4481812-15.9736023
					C760.4091797,256.0830078,766.8770142,265.8457031,766.8770142,272.0566101z"/>
				<polygon fill="#4C4C4C" points="753.6610718,277 754.6533203,288 750.2041016,288 751.1962891,277 				"/>
			</g>
			<path fill="#4F4F4F" d="M637.3563843,356.3721008c-7.109314-3.6289062-31.4100952-5.7246094-31.4100952-5.7246094
				s-6.1083984-11.7969055-12.1571655-14.8212891c-6.0489502-3.0244141-17.8321533,5.1376953-19.6465454,3.9287109
				c-1.8144531-1.210022-34.9032593-10.2979126-37.8847656-11.0586243
				c-30.9170227-7.8983765-46.6182251,11.2138977-48.4062195,11.5185242
				c-25.7705078,4.3857727-25.4072876,20.866272-25.4072876,20.866272s4.0517883,6.1269226,60.9786072,6.8242188
				c38.4569702,0.4717102,121.8983765-2.0253906,121.8983765-2.0253906S640.1182251,357.7832031,637.3563843,356.3721008z"/>
		</g>
	</g>
</g>
</svg>
