<?xml version="1.0" encoding="utf-8"?>
<!-- Generator: Adobe Illustrator 23.0.6, SVG Export Plug-In . SVG Version: 6.00 Build 0)  -->
<svg version="1.0" xmlns="http://www.w3.org/2000/svg" xmlns:xlink="http://www.w3.org/1999/xlink" x="0px" y="0px"
	 viewBox="0 0 329.2459106 334.9719238" enable-background="new 0 0 329.2459106 334.9719238" xml:space="preserve">
<g id="Layer_1">
	<g>
		<path fill="#828487" d="M178.2567139,77.2796631c0,0-12.2165527,26.1547852-32.284668,51.9179688
			c-11.317627,14.5292969-33.1264572,24.4389648-41.6779709,47.5634766
			c-13.5263672,36.574707,1.3364258,67.0083008,31.0617599,77.4541016
			c37.7268066,13.2578125,82.2387695-13.1318359,82.2375488-61.2915039
			C217.5933838,145.637085,178.2567139,77.2796631,178.2567139,77.2796631"/>
		<path fill="#A5A7A9" d="M180.5899658,81.4876709c2.2915039,4.2219238,6.0588379,11.3815918,10.3330078,20.3764648
			C187.4017334,94.3863525,183.8707275,87.5023193,180.5899658,81.4876709 M178.2567139,77.2796631
			c-0.2785645,0.5808105-0.559082,1.1608887-0.8417969,1.7409668
			C177.9708252,77.8917236,178.2567139,77.2796631,178.2567139,77.2796631L178.2567139,77.2796631L178.2567139,77.2796631"/>
		<path fill="#747678" d="M178.2567139,77.2796631c0,0-0.2858887,0.6120605-0.8417969,1.7409668
			c-4.7529297,9.7507324-10.095459,19.4023438-16.0126953,28.6335449
			c5.5737305-7.9040527,10.4707031-15.2536621,13.4448242-20.1538086
			c7.2780762,11.6452637,13.7126465,27.9240723,17.6960449,45.2714844
			c4.2573242,1.2324219,8.4875488,2.5683594,12.6809082,4.0292969c-4.2519531-12.3417969-9.2683105-24.25-14.3010254-34.9370117
			c-4.2741699-8.994873-8.0415039-16.154541-10.3330078-20.3764648
			C179.7962646,80.0330811,179.0174561,78.6292725,178.2567139,77.2796631L178.2567139,77.2796631"/>
		<path fill="#A5A7A9" d="M158.3114014,111.9969482c-2.864502,3.9875488-5.8400879,8.0273438-8.7736816,11.8869629
			c0.1413574,0.0175781,0.282959,0.0351563,0.4243164,0.0527344
			C152.9527588,119.8875732,155.7425537,115.8717041,158.3114014,111.9969482"/>
		<path fill="#747678" d="M161.4022217,107.6541748c-1.0100098,1.432373-2.0437012,2.8852539-3.0908203,4.3427734
			c-2.5688477,3.8747559-5.3586426,7.890625-8.3493652,11.9396973c0.0080566,0.0009766,0.015625,0.0019531,0.0239258,0.0029297
			C154.0015869,118.7139893,157.8074951,113.2623291,161.4022217,107.6541748"/>
		<path fill="#A5A7A9" d="M133.0670166,253.3597412c6.527832,2.7807617,13.8356934,4.3325195,21.7709961,4.3325195
			c3.2629395,0,6.6274414-0.262207,10.0905762-0.8095703c-3.1420898,0.4936523-6.3293457,0.7460938-9.5302734,0.7460938
			c-6.7055664,0-13.4775391-1.1064453-20.0424805-3.4135742
			C134.5828857,253.9437256,133.8197021,253.6580811,133.0670166,253.3597412 M215.4278564,210.6497803
			c-6.5200195,25.5581055-26.9289551,42.2573242-49.8078613,46.1201172
			c12.0549316-2.0161133,21.5744629-5.8701172,28.972168-11.1518555c-0.1257324-0.0112305-0.2509766-0.0224609-0.3769531-0.0336914
			c1.972168-1.3510742,3.7416992-2.6870117,5.3249512-3.9946289
			C208.3382568,233.4251709,213.2943115,222.7469482,215.4278564,210.6497803 M106.6097488,171.4139404
			c-3.5500488,7.0507813-5.6855469,14.315918-6.5566406,21.5058594c0.7929688-5.2128906,2.190918-10.6157227,4.2409668-16.1586914
			C104.9840164,174.8953857,105.7596512,173.1170654,106.6097488,171.4139404 M131.2315674,143.2479248
			c-3.1298828,2.7954102-6.2665939,5.5825195-9.2705002,8.4780273c3.1601563-2.9775391,6.4201584-5.7485352,9.5851974-8.4580078
			C131.4415283,143.2611084,131.3365479,143.2547607,131.2315674,143.2479248"/>
		<path fill="#66676A" d="M131.5462646,143.2679443c-3.1650391,2.7094727-6.4250412,5.4804688-9.5851974,8.4580078
			c-5.9821777,5.7670898-11.4375,11.9648438-15.2666016,19.5200195c-0.027832,0.0546875-0.0571289,0.112793-0.0847168,0.1679688
			c-0.8500977,1.703125-1.6257324,3.4814453-2.3156738,5.347168c-2.0500488,5.5429688-3.447998,10.9458008-4.2409668,16.1586914
			c-3.1342773,25.8701172,10.1362305,50.6943359,33.0139084,60.4399414
			c0.7526855,0.2983398,1.5158691,0.5839844,2.2888184,0.8554688c6.5649414,2.3071289,13.3369141,3.4135742,20.0424805,3.4135742
			c3.2009277,0,6.3881836-0.2524414,9.5302734-0.7460938c0.1459961-0.0234375,0.2927246-0.046875,0.4389648-0.0708008
			c0.0822754-0.0136719,0.1704102-0.0283203,0.2524414-0.0419922c22.8789063-3.862793,43.2878418-20.5620117,49.8078613-46.1201172
			c2.6298828-14.9135742,0.9760742-31.9897461-3.0351563-49.2226563c-2.6638184-1.0532227-5.3503418-2.0595703-8.0541992-3.0244141
			c-2.6877441-0.9599609-5.4016113-1.8554688-8.128418-2.715332c3.2548828,36.9897461-7.3994141,71.9291992-46.8630371,71.9291992
			c-2.1079102,0-4.2858887-0.0986328-6.5605469-0.3027344c-26.5397873-2.3789063-48.679924-24.0600586-32.5932541-53.1870117
			c6.7731934-12.2626953,12.628418-20.4594727,22.4018478-30.0268555c0.2341309-0.2290039,0.4729004-0.4667969,0.7165527-0.7138672
			C132.7230225,143.3446045,132.1348877,143.3050537,131.5462646,143.2679443"/>
		<path fill="#00B1A9" d="M285.9520264,199.7796631l-0.7124023-2.6694336
			c-0.5888672-1.6884766-1.1679688-3.4238281-1.9401855-4.9628906c-2.9291992-6.3647461-6.9782715-11.4907227-11.2524414-16.0952148
			c-8.6276855-9.1586914-18.5522461-16.0244141-28.7609863-22.0175781
			c-10.2229004-6.0014648-20.9484863-10.8032227-31.8513184-14.9658203
			c-10.9082031-4.1733398-22.1047363-7.4160156-33.4086914-10.1069336c-5.6674805-1.2871094-11.3564453-2.5-17.1010742-3.4482422
			c-5.75-0.9191895-11.5236816-1.7258301-17.340332-2.2836914c-5.8154297-0.5585938-11.6577148-0.947998-17.5302658-1.1101074
			c-5.8776855-0.0974121-11.777832,0.0236816-17.7006836,0.4226074
			c-11.8369141,0.8129883-23.7993164,2.6472168-35.6577148,7.0737305
			c-5.8991699,2.262207-11.8637733,5.0698242-17.3488808,9.5825195c-1.3835449,1.0605469-2.685791,2.3842773-3.9760742,3.6606445
			l-1.8427734,2.1181641c-0.614502,0.6992188-1.1433105,1.5405273-1.7053223,2.3115234
			c-2.1730957,3.1899414-3.8740234,6.9243164-4.7397461,10.8769531c-0.8215332,3.9619141-0.7915039,8.0380859-0.1049805,11.7895508
			c0.1994629,0.9213867,0.3398438,1.8891602,0.6166992,2.7641602l0.8183594,2.6416016
			c0.6606445,1.6650391,1.3041992,3.3662109,2.1342773,4.8666992c3.1652832,6.2055664,7.3901367,11.0932617,11.8081055,15.4472656
			c8.9260292,8.6298828,18.9716835,14.9931641,29.2802773,20.4697266c5.0256348,2.6586914,10.1428223,5.0644531,15.3198242,7.28125
			c-2.4067383-6.0024414-3.5769043-12.1074219-4.0810547-17.4960938c-1.4016113-0.7822266-2.7946777-1.5751953-4.1694336-2.3920898
			c-9.190918-5.4970703-17.9067383-11.8442383-24.7207031-19.2260742c-3.3669434-3.6713867-6.2907753-7.6225586-7.981205-11.5483398
			c-0.4899902-0.9746094-0.7431641-1.9414063-1.088623-2.8891602c-0.1049805-0.4702148-0.21875-0.9355469-0.3388672-1.3989258
			c-0.1352539-0.4643555-0.1254883-0.9052734-0.2111816-1.3525391c-0.2060547-1.7729492-0.1096191-3.387207,0.2788086-4.9082031
			c0.4482422-1.5068359,1.1796875-2.9174805,2.2277832-4.3017578c0.2958984-0.3359375,0.4987793-0.7026367,0.8417969-1.0297852
			c0.3303261-0.3305664,0.6533241-0.6640625,0.9685097-1.0048828c0.7563477-0.6318359,1.4287109-1.3129883,2.315918-1.9018555
			c3.3173828-2.4702148,7.6506348-4.4780273,12.2626953-6.0195313c4.6313477-1.5483398,9.6049805-2.6586914,14.6962891-3.4350586
			c5.0915527-0.800293,10.3117676-1.2949219,15.5793457-1.5297852c10.5380859-0.4589844,21.2497482,0.0087891,31.9230881,1.1015625
			c10.675293,1.1435547,21.3110352,2.9980469,31.848877,5.3266602c5.2556152,1.2246094,10.4899902,2.5405273,15.6618652,4.0532227
			c5.1591797,1.5444336,10.3095703,3.1220703,15.3688965,4.9291992c5.0571289,1.8041992,10.0544434,3.7543945,14.9538574,5.8867188
			c4.8791504,2.1674805,9.6853027,4.4584961,14.348877,6.9477539c9.2907715,4.9814453,18.126709,10.8266602,25.2409668,17.6796875
			c3.5095215,3.4189453,6.6103516,7.1323242,8.5366211,10.9003906c0.5480957,0.9375,0.864502,1.8686523,1.2807617,2.7929688
			c0.1403809,0.4580078,0.2895508,0.9140625,0.4460449,1.3696289c0.1716309,0.4580078,0.199707,0.8955078,0.3217773,1.3417969
			c0.3530273,1.7719727,0.3979492,3.4443359,0.1276855,5.0810547c-0.3312988,1.6206055-0.9802246,3.1972656-1.9853516,4.7607422
			c-0.2832031,0.3789063-0.4804688,0.7929688-0.8151855,1.1640625l-0.9523926,1.1411133
			c-0.7453613,0.7207031-1.420166,1.4985352-2.3059082,2.171875c-3.3217773,2.8447266-7.7365723,5.1313477-12.4152832,6.9677734
			c-9.4450684,3.6787109-20.1118164,5.5268555-30.8181152,6.4116211c-4.2758789,0.34375-8.5849609,0.534668-12.9089355,0.5849609
			c-2.8005371,3.644043-6.9804688,7.7197266-13.1848145,11.9731445c8.8833008,0.796875,17.8422852,1.1269531,26.8669434,0.8232422
			c5.817627-0.2016602,11.6633301-0.6767578,17.5227051-1.5507813c5.8574219-0.8837891,11.7392578-2.1357422,17.5913086-4.0756836
			c5.8337402-1.9672852,11.7158203-4.4975586,17.1987305-8.6352539c1.3847656-0.9741211,2.6835938-2.203125,3.9846191-3.390625
			l1.8598633-1.9819336c0.6210938-0.6552734,1.1584473-1.4472656,1.7312012-2.175293
			c2.2158203-3.0126953,3.9995117-6.5791016,4.9821777-10.4179688c0.9384766-3.8496094,1.0500488-7.8662109,0.5114746-11.6181641
			C286.2950439,201.6322021,286.1922607,200.6624756,285.9520264,199.7796631z"/>
		<path fill="#A7A9AC" d="M152.9117432,149.9051514c0,0-23.090332,25.3911133-25.7289963,35.1611328
			c-2.6577148,9.840332,3.4233322,21.3618164,10.1940842,21.3618164c2.1586914,0,4.3874512-1.1708984,6.4255371-3.9414063
			c3.2680664-4.4423828,0.7077637-12.8364258,3.3613281-22.4423828
			C149.8184814,170.4383545,152.9117432,149.9051514,152.9117432,149.9051514"/>
		<path fill="#66676A" d="M217.2921143,193.3909912c-0.1757813-0.5097656,0.4892578,0.0683594,0.3017578-0.4667969
			c-12.7749023-36.5136719-59.987793-44.5097656-59.987793-44.5097656
			c-28.706543-7.2412109-48.8037033,19.0400391-48.8037033,19.0400391
			c-16.5112305,34.9238281-5.2949219,48.1826172-5.2949219,48.1826172
			c-3.1850586-46.7109375,36.5336838-53.9208984,36.5336838-53.9208984
			c54.0507813,5.5302734,76.0288086,44.5566406,76.0288086,44.5566406S217.2506104,198.0765381,217.2921143,193.3909912z"/>
	</g>
</g>
<g id="Layer_2">
</g>
<g id="Layer_3">
</g>
</svg>
