<?xml version="1.0" encoding="utf-8"?>
<!-- Generator: Adobe Illustrator 23.0.6, SVG Export Plug-In . SVG Version: 6.00 Build 0)  -->
<svg version="1.0" xmlns="http://www.w3.org/2000/svg" xmlns:xlink="http://www.w3.org/1999/xlink" x="0px" y="0px"
	 viewBox="0 0 329.2459106 334.9719238" enable-background="new 0 0 329.2459106 334.9719238" xml:space="preserve">
<g id="Layer_1">
	<path fill="#747678" d="M206.1557159,173.5267639l-21.1058197-51.9427338
		c-0.8782654-2.1614685-2.6651611-3.8255234-4.883606-4.5478897l-53.0078812-17.2602997
		c-3.6682739-1.194458-7.6634216,0.4289017-9.4589157,3.8434525l-25.9454117,49.3412781
		c-1.0858383,2.0649872-1.2056198,4.5037689-0.3273621,6.6652374l21.105835,51.942749l35.5557175,87.504776
		c1.6460266,4.0509949,6.2643738,6.0005798,10.3153534,4.3545532l39.4764709-16.0404358l39.4767914-16.0405579
		c4.0509796-1.6460266,6.0005798-6.2643433,4.3545532-10.3153381L206.1557159,173.5267639z M132.0365753,150.666214
		c-11.2629852-8.1267853-4.4364395-24.2983704,9.2428589-21.8963165c1.060379,0.186203,2.0725708,0.6135254,2.9455872,1.2435455
		c11.2608643,8.1268005,4.4360352,24.2961121-9.2424774,21.8961182
		C133.9220428,151.7234802,132.9097137,151.2962341,132.0365753,150.666214z"/>
	<path fill="#939598" d="M211.2296448,160.6319427l-30.0420074-47.3390198
		c-1.2501221-1.9698944-3.3054504-3.2881241-5.617218-3.6027298l-55.23806-7.5172729
		c-3.8226166-0.5202179-7.4636688,1.7904587-8.6205673,5.4707489l-16.7175369,53.1812973
		c-0.699646,2.2256927-0.3820114,4.6466675,0.868103,6.6165619l30.0420151,47.3390198l50.6099396,79.749176
		c2.3429565,3.691925,7.235199,4.7854919,10.9271393,2.4425354l35.9776459-22.8319092l35.9779358-22.8321075
		c3.6919556-2.3429565,4.7855225-7.235199,2.4425659-10.927124L211.2296448,160.6319427z M134.2195892,151.3742523
		c-12.5331497-5.9849396-8.7040787-23.1156158,5.1842957-23.1948853c1.0765839-0.006134,2.1488037,0.2335663,3.120285,0.6975708
		c12.5310822,5.985321,8.7032928,23.1134644-5.1839447,23.1946106
		C136.2635498,152.0778351,135.1911926,151.8382263,134.2195892,151.3742523z"/>
	<path opacity="0.42" fill="#747678" d="M261.2113953,240.7219238l-50.6100159-79.7489929l-30.0419312-47.3390961
		c-1.2501526-1.9699631-3.3053894-3.288147-5.617218-3.6025925l-55.2379456-7.5175171
		c-0.0850449-0.0115356-0.169548-0.0142059-0.2542572-0.0229187l-5.1917419,1.2780151
		c-1.4659653,0.973732-2.613678,2.4317169-3.1747055,4.2157364l-10.3118896,34.4614105
		c0,0,0.8999634,27.5385284,2.0720444,33.5267944c0.5728302,2.926651,7.1847229,11.3732758,7.1847229,11.3732758
		l104.0511932,92.7113342l44.6892395-28.4082642C262.4608459,249.3062286,263.5542603,244.4138947,261.2113953,240.7219238z
		 M136.7119904,152.4124603c-1.0765533,0.006424-2.14888-0.2333221-3.1205902-0.6972809
		c-0.0563354-0.0269012-0.1064301-0.0580597-0.1620941-0.0853119c-0.0247192-0.0015869-0.0496674,0.0008698-0.074585-0.0009613
		c-15.0847397-1.0409088-18.0672455-19.9171295-4.0385742-25.5582123c1.0876007-0.4371262,2.2690125-0.6237183,3.4383545-0.5430756
		c3.7440186,0.2588043,6.7404175,1.6177673,8.9181976,3.5987244c0.0737915,0.0322266,0.1505585,0.0568085,0.2234497,0.091507
		C154.4271393,135.203064,150.5993347,152.3314056,136.7119904,152.4124603z"/>
	<path fill="#A7A9AC" d="M215.0762787,137.5335846l-43.6126556-35.2340775
		c-1.8148346-1.4661789-4.1839447-2.0572586-6.474823-1.6154327l-54.7384796,10.5570526
		c-3.7880402,0.7305756-6.4980469,4.0850296-6.4162216,7.9420013l1.182457,55.7344437
		c0.0494919,2.33255,1.1252518,4.5245209,2.9400787,5.9906921l43.6126709,35.2341003l73.4716034,59.35672
		c3.4013214,2.7478943,8.3862305,2.2181702,11.1341095-1.1831665l26.7778931-33.1455994l26.7781067-33.1458893
		c2.7478943-3.4013214,2.2181702-8.3862305-1.183136-11.1341095L215.0762787,137.5335846z M139.1539764,153.4098969
		c-13.7893982-1.658905-15.6444016-19.1140137-2.5119171-23.634079c1.0179901-0.3503723,2.1105347-0.4664459,3.1794281-0.3377686
		c13.7875519,1.6599274,15.6429596,19.1122284,2.512146,23.6337128
		C141.3155975,153.4223175,140.2229614,153.5384979,139.1539764,153.4098969z"/>
	<path opacity="0.42" fill="#747678" d="M144.2250214,130.013443c0,0,9.3435516-7.9256287,0.8603668-25.4907303
		l19.9034119-3.8386383c0,0,13.8626556,33.399498-15.1047668,44.118721l6.3306274-6.9331055L144.2250214,130.013443z"/>
	<path fill="#00B1A9" d="M181.8667908,81.2315063c-0.1755371-2.6091309-0.6437988-5.3757324-1.7233887-8.170166
		c-1.0488281-2.7775879-2.6899414-5.545166-4.8681641-7.8891602c-2.1992188-2.323246-4.8791504-4.15308-7.6210938-5.4086952
		c-0.6835938-0.2912598-1.3842773-0.6347656-2.0681152-0.8549805l-2.0695801-0.6677246
		c-1.3520508-0.3325195-2.7419434-0.6811523-4.0532227-0.8320313c-5.3510742-0.7875977-10.1999512-0.2670898-14.7624512,0.5373535
		c-9.1125488,1.7011719-17.1374435,5.0168457-24.6860275,8.9033241c-3.7719727,1.9465332-7.4194336,4.0480957-10.9658203,6.2741699
		c-3.5131836,2.2719727-6.9191895,4.6672363-10.2434082,7.1535645c-3.3249512,2.486084-6.5288086,5.1044922-9.6762695,7.7822266
		c-3.1315918,2.6960449-6.1196289,5.5405273-9.0712891,8.4155273c-5.8364258,5.8144531-11.4230957,11.9111328-16.4563026,18.5058594
		c-5.0397949,6.5820313-9.7600098,13.4812012-13.7050781,20.9790039c-3.9445801,7.4873047-7.4238281,15.4067383-9.25,24.4191895
		c-0.8786621,4.5109863-1.4384766,9.2956543-0.7956543,14.5686035c0.3125,2.6147461,0.939209,5.354248,2.1447754,8.0712891
		c1.1748047,2.7021484,2.9067383,5.3464355,5.1254883,7.53125c2.2399902,2.1652832,4.902832,3.8100586,7.5891113,4.8911133
		c2.7001953,1.1142578,5.3967285,1.6340332,7.9533691,1.8640137c5.1528358,0.470459,9.7863808-0.2451172,14.1389198-1.2668457
		c4.3505859-1.0478516,8.4069824-2.5251465,12.2954102-4.2001953c3.8859863-1.6809082,7.5932617-3.5927734,11.1743164-5.6540527
		c0.0786133-0.0454102,0.1535645-0.0952148,0.2321777-0.1408691l-4.4580078-12.737793
		c-0.6931152,0.3562012-1.387207,0.7092285-2.0842285,1.0515137c-6.6186523,3.2373047-13.5458984,5.8659668-20.2102051,6.9467773
		c-3.2971191,0.5336914-6.5524902,0.6921387-9.1865234,0.2016602c-1.3212929-0.2233887-2.4890175-0.5786133-3.3647499-1.067627
		c-0.8979492-0.4748535-1.5556641-1.0117188-2.0847168-1.6228027c-0.4960938-0.6442871-0.8728027-1.3679199-1.175293-2.2832031
		c-0.057373-0.246582-0.1669922-0.4423828-0.2077637-0.7172852c-0.046875-0.267334-0.1013184-0.5305176-0.1638184-0.7910156
		c-0.0500488-0.5895996-0.1706543-1.1367188-0.1665039-1.7998047c-0.1474609-2.532959,0.3395996-5.6164551,1.1831055-8.7189941
		c1.7341309-6.2563477,4.8154297-12.7370605,8.5036659-18.8823242
		c7.4001465-12.3730469,17.0778809-23.7937012,27.6516113-34.1394043
		c5.3598633-5.1174316,10.9211426-10.0114746,16.7460938-14.5014648c2.9206543-2.2299805,5.8979492-4.3693848,8.9367676-6.3796387
		c3.0246582-2.0249023,6.1027832-3.9372559,9.2329025-5.6804199c3.1274414-1.7453613,6.3117676-3.3151855,9.503418-4.6604004
		c3.1782227-1.3681641,6.3859863-2.4921875,9.4904785-3.2375488c3.0869141-0.7504883,6.1271973-1.104248,8.5629883-0.9309082
		c1.2268066,0.0727539,2.3083496,0.2636719,3.1269531,0.5769043c0.8422852,0.300293,1.4833984,0.6523438,2.0529785,1.1052246
		c0.5366211,0.4851074,1.0041504,1.0854492,1.4326172,1.925293c0.4448242,0.8156738,0.7666016,1.9313965,0.9592285,3.2092285
		c0.4309082,2.5456543,0.2189941,5.7414551-0.3710938,8.9829102c-1.2036133,6.5517578-3.9206543,13.3984375-7.2543945,19.9321289
		c-3.3659668,6.5529785-7.4067383,12.901123-11.8864746,18.9633789c-4.5073242,6.0473633-9.4541016,11.8154297-14.7119141,17.309082
		c-0.1318359,0.1401367-0.2702637,0.2736816-0.4033203,0.4125977c1.9211426,2.4538574,4.8701172,4.1379395,8.2131348,4.7868652
		c1.4650879,0.284668,2.7485352,0.0812988,3.3259277-0.0458984c4.7543945-4.5922852,9.3173828-9.4047852,13.6052246-14.4968262
		c2.6101074-3.1091309,5.1628418-6.2851563,7.5859375-9.5834961c2.4121094-3.307373,4.7163086-6.7189941,6.871582-10.2644043
		c1.4665527-2.4213867,2.8725586-4.9018555,4.1921387-7.4572754c1.2858887-2.8483887,2.5966797-5.7470703,3.8964844-8.6181641
		c0.9077148-2.3483887,1.7275391-4.767334,2.4106445-7.2939453
		C181.391449,91.1638794,182.2264099,86.4920044,181.8667908,81.2315063z"/>
</g>
<g id="Layer_2">
</g>
<g id="Layer_3">
</g>
</svg>
