<?xml version="1.0" encoding="utf-8"?>
<!-- Generator: Adobe Illustrator 23.0.6, SVG Export Plug-In . SVG Version: 6.00 Build 0)  -->
<svg version="1.0" xmlns="http://www.w3.org/2000/svg" xmlns:xlink="http://www.w3.org/1999/xlink" x="0px" y="0px"
	 viewBox="0 0 329.2459106 334.9719238" enable-background="new 0 0 329.2459106 334.9719238" xml:space="preserve">
<g id="Layer_1">
	<g>
		<path fill="#6D6E71" d="M266.1286011,184.9564972c0.1210938-0.40625,0.2294922-0.8139648,0.3452148-1.2216797
			c0.1599121-0.5620117,0.3217773-1.1259766,0.4699707-1.6889648c0.1169434-0.4399414,0.2209473-0.8764648,0.3303223-1.3149414
			c0.1083984-0.4345703,0.2250977-0.8691406,0.3271484-1.3012695l0.0568848-0.2607422
			c0.1555176-0.6689453,0.2958984-1.3349609,0.4365234-2.0024414c0.0771484-0.3632813,0.1608887-0.7294922,0.232666-1.0917969
			c0.1513672-0.7592773,0.2841797-1.515625,0.4150391-2.2705078c0.0473633-0.2705078,0.1030273-0.5405273,0.1469727-0.8100586
			c0.1672363-1.0166016,0.317627-2.0292969,0.4504395-3.0405273c0.0366211-0.2734375,0.0622559-0.5458984,0.0944824-0.8193359
			c0.0910645-0.7402344,0.1801758-1.4814453,0.2519531-2.2172852c0.0375977-0.3793945,0.0634766-0.7583008,0.095459-1.1367188
			c0.0537109-0.6289063,0.1083984-1.2583008,0.1481934-1.8837891c0.0266113-0.409668,0.041748-0.815918,0.0620117-1.2236328
			c0.0300293-0.5932617,0.0600586-1.184082,0.0783691-1.7739258c0.0129395-0.4228516,0.0170898-0.8432617,0.0236816-1.2646484
			c0.0095215-0.5693359,0.0170898-1.1391602,0.0148926-1.706543c-0.0021973-0.4321289-0.0095215-0.8603516-0.0180664-1.2915039
			c-0.0097656-0.5498047-0.0227051-1.0991211-0.0429688-1.6474609c-0.0075684-0.1875-0.0075684-0.3774414-0.0151367-0.5649414
			c-0.0085449-0.1772461-0.027832-0.3496094-0.036377-0.5268555c-0.0537109-1.0595703-0.1245117-2.1162109-0.2177734-3.1650391
			c-0.013916-0.1650391-0.0236816-0.3325195-0.0395508-0.4975586c-0.112793-1.1948242-0.2553711-2.3823242-0.4194336-3.5600586
			c-0.0385742-0.2832031-0.081543-0.5620117-0.1245117-0.8427734c-0.1479492-0.9990234-0.314209-1.9897461-0.4987793-2.9755859
			c-0.0407715-0.215332-0.0761719-0.4331055-0.1179199-0.6489258c-0.2263184-1.1499023-0.4763184-2.2890625-0.7507324-3.4194336
			l-0.0578613-0.2661133c-0.0280762-0.1147461-0.0666504-0.2250977-0.095459-0.3388672
			c-0.3818359-1.5229492-0.8024902-3.0297852-1.2709961-4.5141602c-0.0473633-0.1523438-0.0998535-0.3037109-0.1491699-0.4550781
			c-0.4870605-1.5102539-1.0136719-3.0009766-1.588623-4.4672852l-0.036377-0.1040039
			c-0.0395508-0.0996094-0.0869141-0.1953125-0.1264648-0.2949219c-0.4355469-1.0898514-0.895752-2.1645584-1.3793945-3.2275467
			c-0.0869141-0.1938477-0.1716309-0.3881836-0.2617188-0.5800781c-0.5212402-1.1240234-1.0715332-2.2275391-1.6464844-3.3173828
			c-0.0480957-0.0913086-0.0888672-0.1865234-0.137207-0.277832c-0.0783691-0.1459961-0.1652832-0.2841797-0.2434082-0.4289551
			c-0.4526367-0.8356934-0.9191895-1.6604004-1.4030762-2.4765625c-0.109375-0.1845703-0.2143555-0.3723145-0.3259277-0.5568848
			c-0.5749512-0.9501953-1.1713867-1.8845215-1.7868652-2.8046875l-0.1523438-0.2392578
			c-0.112793-0.1650391-0.2348633-0.3227539-0.3476563-0.4868164c-0.4580078-0.6660156-0.9277496-1.324707-1.4072418-1.9768066
			c-0.1811523-0.2446289-0.3613281-0.4912109-0.5458984-0.7336426c-0.6391602-0.8439941-1.2912598-1.6784668-1.9682617-2.4936523
			l-0.0202637-0.0258789c-0.5544434-0.6660156-1.1208496-1.3234863-1.6999512-1.9714355l-11.1806641-12.4943848
			c0.5793457,0.645752,1.1445313,1.3041992,1.6989746,1.9714355c0.6875,0.8269043,1.3493652,1.6721191,1.998291,2.5290527
			c0.1757813,0.2338867,0.3496094,0.4699707,0.5234375,0.704834c0.496582,0.673584,0.9814453,1.3544922,1.4553223,2.0441895
			c0.1491699,0.2189941,0.3015137,0.4345703,0.4484863,0.6533203c0.6220703,0.9287109,1.2236328,1.8706055,1.8029785,2.8271484
			c0.1125488,0.1877441,0.2209473,0.3786621,0.3325195,0.5673828c0.4794922,0.8088379,0.9416504,1.6271973,1.3898926,2.4541016
			c0.1320801,0.2436523,0.2651367,0.4848633,0.3937988,0.7304688c0.5695801,1.0800781,1.1154785,2.1762695,1.6323242,3.2873535
			c0.098877,0.2114258,0.1921387,0.427002,0.2885742,0.6403809c0.4655762,1.0275879,0.9116211,2.065918,1.3322754,3.1181641
			c0.0664063,0.1640625,0.1362305,0.3259277,0.2004395,0.4912109c0.5695801,1.4533691,1.0917969,2.9311523,1.5744629,4.4287109
			c0.0515137,0.159668,0.1062012,0.3164063,0.1567383,0.4760742c0.4675293,1.4833984,0.8879547,2.9902344,1.2697906,4.5146484
			c0.0495605,0.1982422,0.1030273,0.3945313,0.1503906,0.5927734c0.2734375,1.1274414,0.5231934,2.2622147,0.7485352,3.408699
			c0.0461426,0.2348633,0.0847168,0.4731445,0.1298828,0.7089844c0.1779785,0.9570313,0.3398438,1.9208984,0.4846191,2.8896484
			c0.045166,0.3037109,0.0922852,0.605957,0.1352539,0.9106445c0.1608887,1.1669922,0.3012695,2.3383789,0.4140625,3.5214844
			c0.0170898,0.1801758,0.027832,0.3623047,0.0427246,0.543457c0.0922852,1.0439453,0.1630859,2.0957031,0.2158203,3.1523438
			c0.0180664,0.3505859,0.036377,0.7016602,0.0493164,1.0522461c0.0212402,0.5576172,0.0341797,1.1176758,0.0449219,1.6787109
			c0.0075684,0.4267578,0.0161133,0.8525391,0.0183105,1.2807617c0.0009766,0.5629883-0.0065918,1.1269531-0.0151367,1.6923828
			c-0.0063477,0.4277344-0.0117188,0.855957-0.0246582,1.284668c-0.0170898,0.578125-0.0471191,1.159668-0.0761719,1.7412109
			c-0.0202637,0.4169922-0.036377,0.8354492-0.064209,1.2558594c-0.0397949,0.6157227-0.0932617,1.234375-0.1459961,1.8544922
			c-0.0332031,0.387207-0.0588379,0.7734375-0.0964355,1.1616211c-0.072998,0.7358398-0.1608887,1.4736328-0.2509766,2.2124023
			c-0.0344238,0.2739258-0.059082,0.5458984-0.095459,0.8208008c-0.1330566,1.0102539-0.2832031,2.0249023-0.4516602,3.0415039
			c-0.0461426,0.2832031-0.1040039,0.5678711-0.1533203,0.8520508c-0.1286621,0.737793-0.2585449,1.4755859-0.4055176,2.2148438
			c-0.0793457,0.3999023-0.1704102,0.7988281-0.2541504,1.1977539c-0.1330566,0.6289063-0.2648926,1.2573242-0.4118652,1.8867188
			c-0.1318359,0.5683594-0.2756348,1.1381836-0.4194336,1.7084961c-0.0974274,0.3896484-0.1897125,0.777832-0.2927399,1.168457
			c-0.1640625,0.6220703-0.3432617,1.2441406-0.5202637,1.8671875c-0.0996094,0.3486328-0.1918945,0.6972656-0.2958984,1.046875
			c-0.2070313,0.6992188-0.4291992,1.3984375-0.6533203,2.0976563c-0.0878906,0.2768555-0.1682129,0.5527344-0.2595215,0.828125
			c-0.3217773,0.9785156-0.6584473,1.9575195-1.0124512,2.9370117c-0.651123,1.7983398-1.3623047,3.5693359-2.1032715,5.3232422
			c-0.2531738,0.597168-0.5224609,1.1826172-0.7841797,1.7749023c-0.4709473,1.0585938-0.951416,2.1118164-1.4555664,3.1533203
			c-0.3066406,0.6347656-0.6230469,1.2666016-0.942627,1.8964844c-0.5095215,1.0058594-1.0361328,2.0024414-1.5766602,2.9902344
			c-0.3498535,0.6401367-0.6982422,1.2817383-1.0598145,1.9145508c-0.395752,0.690918-0.8022461,1.3740234-1.2119141,2.0551758
			c-0.427002,0.7099609-0.855957,1.4189453-1.2978516,2.1171875c-0.4226074,0.6679688-0.8549805,1.3300781-1.2902832,1.9882813
			c-0.4731445,0.7167969-0.9504395,1.4311523-1.4384766,2.1357422c-0.3764648,0.5415039-0.7583008,1.0800781-1.1442871,1.6142578
			c-0.5234375,0.7280273-1.0566406,1.4501953-1.5959473,2.1645508c-0.4055176,0.5361328-0.8132324,1.0703125-1.2282715,1.6000977
			c-0.5737305,0.7324219-1.1594238,1.456543-1.7514648,2.175293c-0.3657227,0.4462891-0.7304688,0.8945313-1.1037598,1.3339844
			c-0.7067871,0.8334961-1.4284668,1.6508789-2.157959,2.4638672c-0.2800293,0.3134766-0.5544434,0.6337891-0.838623,0.9428711
			c-1.0288086,1.1240234-2.0766602,2.2265625-3.1459961,3.3066406c-0.1340332,0.1352539-0.2746582,0.2651367-0.4086914,0.4003906
			c-0.9265137,0.925293-1.8662109,1.8369141-2.8208008,2.7304688c-0.3818359,0.3583984-0.7722168,0.7045898-1.1584473,1.0566406
			c-0.7368164,0.6713867-1.4780273,1.3374023-2.2297363,1.9897461c-0.4226074,0.3676758-0.8505859,0.7270508-1.2785645,1.0874023
			c-0.7348633,0.6186523-1.4748535,1.2280273-2.2233887,1.8286133c-0.4709473,0.3774414-0.9438477,0.7529297-1.4211426,1.1240234
			c-0.7402344,0.5751953-1.487793,1.1381836-2.2407227,1.6948242c-0.4750977,0.3520508-0.9492188,0.7055664-1.4287109,1.050293
			c-0.7324219,0.5253906-1.4748535,1.0336914-2.2180176,1.5410156c-0.5610352,0.3837891-1.1186523,0.7700195-1.6850586,1.1435547
			c-0.7431641,0.4887695-1.4963379,0.9589844-2.2480469,1.4306641c-0.5727539,0.359375-1.142334,0.7250977-1.7214355,1.074707
			c-0.6049805,0.3637695-1.2197266,0.7089844-1.829834,1.0620117c-0.8334961,0.4814453-1.6657715,0.9638672-2.5078125,1.4243164
			c-0.6359863,0.3461914-1.2785645,0.6767578-1.9199219,1.0102539c-0.8193359,0.4282227-1.6398926,0.8540039-2.4680176,1.2602539
			c-0.5673828,0.2797852-1.1401367,0.5449219-1.7106934,0.8139648c-1.2141113,0.5717773-2.435791,1.1210938-3.6650391,1.6474609
			c-0.5395508,0.2319336-1.0769043,0.4658203-1.6184082,0.6875c-1.5810547,0.6479492-3.1716309,1.2646484-4.7741699,1.8364258
			c-0.1555176,0.0556641-0.3078613,0.1191406-0.4633789,0.1738281l-0.2475586,0.0844727
			c-1.2443848,0.4335938-2.494873,0.8398438-3.7497559,1.2260742c-0.3432617,0.1074219-0.6875,0.2104492-1.0319824,0.3134766
			c-1.2451172,0.3710938-2.4958496,0.7236328-3.7507324,1.0478516c-0.0976563,0.0244141-0.1940918,0.0537109-0.2927246,0.078125
			c-1.3449707,0.3442383-2.6975098,0.6523438-4.0522461,0.940918c-0.3378906,0.0717773-0.6757813,0.1381836-1.0146484,0.2070313
			c-1.1594238,0.2348633-2.3210449,0.4492188-3.4858398,0.6411133c-0.2285156,0.0385742-0.4558105,0.0825195-0.6843262,0.1191406
			c-1.3525391,0.2143555-2.708252,0.3969727-4.0651855,0.5556641c-0.3217773,0.0361328-0.6435547,0.0673828-0.965332,0.1005859
			c-1.1228027,0.1201172-2.2480469,0.2202148-3.3730469,0.2993164c-0.3056641,0.0214844-0.6115723,0.0483398-0.9172363,0.0664063
			c-1.3557129,0.0825195-2.7114258,0.137207-4.0671387,0.1621094c-0.1672363,0.003418-0.3334961,0.003418-0.5009766,0.003418
			c-0.1103516,0-0.2219238,0-0.3322754,0c-1.1296387,0.0092773-2.2578125-0.0014648-3.3852539-0.0332031
			c-0.3505859-0.0097656-0.701416-0.0185547-1.0510254-0.03125c-1.3535156-0.0537109-2.7060547-0.1318359-4.0563965-0.2480469
			c-0.190918-0.0146484-0.3818359-0.0395508-0.5727539-0.0566406c-1.1862793-0.109375-2.371582-0.2446289-3.5546875-0.4023438
			c-0.3635254-0.046875-0.7260742-0.0961914-1.0895996-0.1489258c-1.3557129-0.1972656-2.7094727-0.4150391-4.0576172-0.6767578
			c-17.3747482-3.3789063-31.6923752-11.7211914-42.0825119-23.3330078l11.1804199,12.4956055
			c10.3901367,11.6118164,24.7080078,19.9540863,42.0837326,23.3315277
			c1.3513184,0.2631836,2.7092285,0.4819336,4.0683594,0.6791992c0.3549805,0.0512695,0.7099609,0.0986328,1.0649414,0.1459961
			c1.1970215,0.159668,2.3962402,0.296875,3.5974121,0.40625c0.1791992,0.0161133,0.3571777,0.0385742,0.5351563,0.0546875
			c1.3569336,0.1147461,2.7158203,0.1933594,4.0759277,0.246582c0.3410645,0.0141602,0.6831055,0.0214844,1.0253906,0.03125
			c1.1369629,0.0322266,2.2749023,0.0439453,3.4128418,0.0332031c0.0986328,0,0.1972656,0,0.2961426,0
			c0.173584,0.0009766,0.3464355,0.0009766,0.5200195-0.0019531c1.3569336-0.0249023,2.7148438-0.0795898,4.0715332-0.1621094
			c0.3056641-0.019043,0.6113281-0.0439453,0.9169922-0.0664063c1.1242676-0.0795898,2.248291-0.1791992,3.3713379-0.2983398
			c0.3227539-0.0341797,0.6455078-0.0654297,0.9685059-0.1030273c1.3535156-0.15625,2.7060547-0.3398438,4.0554199-0.5532227
			c0.2402344-0.0375977,0.479248-0.0834961,0.7185059-0.1245117c1.1508789-0.1899414,2.298584-0.4033203,3.4440918-0.6337891
			c0.3474121-0.0698242,0.6950684-0.140625,1.0424805-0.2133789c1.3481445-0.2875977,2.6933594-0.5932617,4.032959-0.934082
			c0.1103516-0.0292969,0.2209473-0.0625,0.3312988-0.090332c1.2421875-0.3217773,2.4787598-0.6704102,3.7121582-1.0371094
			c0.3476563-0.1030273,0.6962891-0.2089844,1.0437012-0.3164063c1.2570801-0.387207,2.5109863-0.7939453,3.7561035-1.2294922
			l0.2338867-0.078125l0.0878906-0.0288086c0.1289063-0.0463867,0.2553711-0.1030273,0.3840332-0.1479492
			c1.6025391-0.5717773,3.1921387-1.1884766,4.7719727-1.8364258c0.5361328-0.2197266,1.0671387-0.4506836,1.6003418-0.6787109
			c1.2463379-0.5341797,2.4829102-1.0908203,3.7131348-1.6713715c0.3186035-0.1499023,0.6445313-0.2788086,0.9609375-0.4321289
			c0.2338867-0.1113281,0.4602051-0.2392578,0.6928711-0.3540039c0.8410645-0.4130859,1.6755371-0.8452148,2.5078125-1.2792969
			c0.6359863-0.331543,1.2741699-0.6586914,1.9060059-1.0053711c0.8300781-0.4526367,1.6506348-0.9287109,2.4711914-1.402832
			c0.4794922-0.277832,0.9685059-0.5351563,1.4448242-0.8193359c0.1447754-0.0869141,0.2851563-0.1811523,0.4299316-0.2680664
			c0.5812988-0.3510742,1.1530762-0.71875,1.7302246-1.0800781c0.737793-0.4633789,1.4768066-0.9257813,2.2062988-1.4052734
			c0.5854492-0.3852539,1.1625977-0.7851563,1.7416992-1.1806641c0.513916-0.3520508,1.0351563-0.6875,1.543457-1.046875
			c0.2124023-0.1513672,0.4194336-0.3125,0.6306152-0.4643555c0.4902344-0.3520508,0.9729004-0.7124023,1.4577637-1.0717773
			c0.7368164-0.5458984,1.4694824-1.097168,2.1945801-1.6591797c0.5007324-0.390625,0.9985352-0.7851563,1.4929199-1.1821289
			c0.3356934-0.269043,0.6789551-0.527832,1.0114746-0.8012695c0.3786621-0.3100586,0.7443848-0.6347656,1.1186523-0.9501953
			c0.4504395-0.378418,0.8999023-0.7563477,1.3439941-1.1435547c0.7399902-0.6401367,1.4682617-1.2954102,2.1923828-1.9550781
			c0.3945313-0.3603516,0.7924805-0.7143555,1.1818848-1.0791016c0.1223145-0.1137695,0.25-0.2231445,0.3710938-0.3388672
			c0.7905273-0.7456055,1.5637207-1.5112305,2.3339844-2.2802734c0.177002-0.1757813,0.3603516-0.3442383,0.5351563-0.5234375
			c0.9858398-0.9941406,1.9562988-2.0078125,2.9077148-3.0395508l0.1984863-0.222168
			c0.3173828-0.3461914,0.623291-0.7036133,0.9353027-1.0532227c0.7045898-0.7871094,1.4050293-1.5776367,2.0893555-2.3842773
			c0.3625488-0.4282227,0.7165527-0.8647461,1.074707-1.2978516c0.3840332-0.4677734,0.7788086-0.9248047,1.15625-1.3974609
			c0.2199707-0.2768555,0.4279785-0.5644531,0.645752-0.8422852c0.3999023-0.5102539,0.7924805-1.0253906,1.1831055-1.543457
			c0.546875-0.7226563,1.0864258-1.453125,1.6174316-2.190918c0.3903809-0.5439453,0.7775879-1.0888672,1.1582031-1.6381836
			c0.2038574-0.293457,0.4194336-0.5800781,0.6201172-0.875c0.2680664-0.3935547,0.5158691-0.8032227,0.7797852-1.2011719
			c0.4450684-0.6738281,0.8869629-1.3481445,1.3181152-2.0307617c0.440918-0.6982422,0.8686523-1.4038086,1.293457-2.1118164
			c0.409668-0.6811523,0.8161621-1.3632813,1.2109528-2.0527344c0.1577148-0.2758789,0.3283691-0.5429688,0.4838867-0.8193359
			c0.2004395-0.3574219,0.3764648-0.7294922,0.5727539-1.0878906c0.5446777-0.9975586,1.0766602-2.0043945,1.5915527-3.0200195
			c0.3122559-0.6157227,0.6210938-1.2338867,0.9213867-1.8544922c0.5126953-1.0610352,1.0029297-2.1323242,1.4824219-3.2114258
			c0.1811523-0.409668,0.3850098-0.8076172,0.5620117-1.2207031c0.0717773-0.1640625,0.1296387-0.3378906,0.1994629-0.5039063
			c0.7443848-1.7568359,1.456543-3.5322266,2.1086426-5.3349609c0.3540039-0.9770508,0.6896973-1.9511719,1.0092773-2.9262695
			c0.1115723-0.3388672,0.2111816-0.6743164,0.3186035-1.0136719
			C265.7369995,186.2255402,265.9408569,185.5893097,266.1286011,184.9564972"/>
		<path fill="#A7A9AC" d="M197.9051971,70.9203568c48.482666,9.4248047,73.1667633,57.4975662,55.1240234,107.3833084
			c-18.0429688,49.8852539-71.9816895,82.6899261-120.465332,73.2675781
			c-48.4836349-9.4257813-73.1625977-57.5117188-55.117424-107.3969727
			C95.4891891,94.2875443,149.4215546,61.4955559,197.9051971,70.9203568"/>
		<path fill="#E6E7E8" d="M93.1581345,170.801712c-1.0322266,29.3457031,17.0925293,54.1669922,46.929924,59.9677734
			c4.3139648,0.8383789,8.6782227,1.2421875,13.0551758,1.2421875c28.0996094,0,56.4916992-16.6738281,72.1542969-42.1030273
			C180.6737518,174.5761261,123.6825485,171.3471222,93.1581345,170.801712 M177.3209686,90.4791946
			c-33.4848633,0.0002441-67.3752365,23.6674805-79.6577072,57.6257401c-0.1694336,0.46875-0.3344727,0.9384766-0.4941406,1.4067383
			c7.0146484-0.7104492,14.0844727-1.0317383,21.1462402-1.0317383c45.792717,0,91.0373459,13.5395508,115.6791916,22.3725586
			c11.5219727-37.1118164-7.4387207-72.0988846-43.6135254-79.1306229
			C186.0673065,90.8834915,181.6979218,90.4789505,177.3209686,90.4791946"/>
		<path fill="#C3C5C7" d="M71.8971481,168.7909698l-0.3586426,2.0454102c0,0,0.067627-0.0024414,0.1987305-0.0063477
			C71.7826462,170.1527863,71.836113,169.4716339,71.8971481,168.7909698"/>
		<path fill="#858789" d="M233.9945526,170.8524933c-0.3642578,1.1733398-0.7578125,2.3457031-1.1833496,3.5219727
			c-1.9758301,5.4633789-4.5107422,10.6591797-7.5136719,15.5341797c6.5036621,2.234375,12.7399902,4.7246094,18.5976563,7.5029297
			l9.1340332-19.1079102C253.0292206,178.3036652,245.9271698,175.129837,233.9945526,170.8524933 M97.1691208,149.511673
			c-7.621582,0.7719727-15.1691895,2.0024414-22.5544434,3.7783203l-2.7175293,15.5009766
			c-0.0610352,0.6806641-0.114502,1.3618164-0.1599121,2.0390625c0.8859863-0.0258789,4.7145996-0.1259766,10.7541504-0.1259766
			c3.0275879,0,6.6159668,0.0249023,10.666748,0.0976563C93.4010544,163.8930206,94.7054977,156.7323761,97.1691208,149.511673"/>
		<path fill="#95979A" d="M118.315361,148.4799347c-7.0617676,0-14.1315918,0.3212891-21.1462402,1.0317383
			c-2.463623,7.2207031-3.7680664,14.3813477-4.0109863,21.2900391
			c30.5244141,0.5454102,87.5156174,3.7744141,132.1394043,19.1069336c3.0029297-4.875,5.5378418-10.0708008,7.5136719-15.5341797
			c0.4255371-1.1762695,0.8190918-2.3486328,1.1833496-3.5219727
			C209.3527069,162.0194855,164.108078,148.4799347,118.315361,148.4799347"/>
		<polygon points="158.7826385,159.9247589 164.3871307,166.3847198 159.8221893,168.761673 154.2176971,162.2997589 		"/>
		<g>
			<defs>
				<path id="SVGID_54_" d="M169.0753632,165.5893097c-1.4543457-0.2919922-3.1157227-0.0517578-4.6882324,0.7958984
					l-5.604248-6.4604492c1.5725098-0.847168,3.2338867-1.0874023,4.6894531-0.7978516
					c0.1962891,0.2260742,0.4589844,0.5288086,0.6552734,0.7548828c0.2080078,0.2402344,0.4848633,0.5610352,0.6928711,0.800293
					c0.2155762,0.2490234,0.5041504,0.581543,0.7197266,0.8300781c0.2209473,0.2543945,0.5136719,0.5913086,0.7346191,0.8452148
					c0.2189941,0.2543945,0.5117188,0.5932617,0.732666,0.8461914c0.2155762,0.2490234,0.5041504,0.581543,0.7197266,0.8305664
					c0.2080078,0.2402344,0.4870605,0.5605469,0.6950684,0.8007813
					C168.6173553,165.0614777,168.8790741,165.3617706,169.0753632,165.5893097"/>
			</defs>
			<clipPath id="SVGID_6_">
				<use xlink:href="#SVGID_54_"  overflow="visible"/>
			</clipPath>
			<path clip-path="url(#SVGID_6_)" d="M166.4022675,160.7880402l5.6030273,6.4619141
				c-0.7492676-0.8632813-1.7734375-1.4306641-2.9299316-1.6611328c-1.0773926-0.2148438-2.2687988-0.1386719-3.4526367,0.2597656
				l-5.6030273-6.4619141c1.1838379-0.3984375,2.3752441-0.4736328,3.4526367-0.2597656
				C164.6273651,159.3583527,165.6529999,159.9247589,166.4022675,160.7880402"/>
			<path clip-path="url(#SVGID_6_)" d="M160.0196991,159.386673l5.6030273,6.4619141
				c-0.2675781,0.0898438-0.536377,0.1962891-0.8024902,0.3193359l-5.6030273-6.4609375
				C159.4833221,159.582962,159.7506561,159.4765167,160.0196991,159.386673"/>
			<path clip-path="url(#SVGID_6_)" d="M159.2172089,159.7069855l5.6030273,6.4609375
				c-0.1442871,0.0683594-0.2902832,0.1396484-0.4331055,0.2167969l-5.6044922-6.4599609
				C158.9271698,159.8476105,159.0714569,159.7743683,159.2172089,159.7069855"/>
		</g>
		<g>
			<defs>
				<path id="SVGID_56_" d="M172.0057831,167.2494659c-0.7497559-0.8623047-1.7741699-1.4296875-2.9304199-1.6601563
					c-1.8671875-2.1538086-3.7355957-4.3076172-5.6030273-6.4624023c1.1550293,0.2314453,2.1804199,0.7978516,2.9301758,1.6616211
					C168.0834198,162.7255402,170.3248749,165.3105011,172.0057831,167.2494659"/>
			</defs>
			<clipPath id="SVGID_8_">
				<use xlink:href="#SVGID_56_"  overflow="visible"/>
			</clipPath>
			<g clip-path="url(#SVGID_8_)">
				<defs>
					<polyline id="SVGID_58_" points="160.0196991,167.2494659 172.0057831,167.2494659 172.0057831,159.0102081 
						160.0196991,159.0102081 160.0196991,167.2494659 					"/>
				</defs>
				<clipPath id="SVGID_10_">
					<use xlink:href="#SVGID_58_"  overflow="visible"/>
				</clipPath>
				<path clip-path="url(#SVGID_10_)" d="M166.4022675,160.7880402l5.6030273,6.4619141
					c-0.7492676-0.8632813-1.7734375-1.4306641-2.9299316-1.6611328c-1.0773926-0.2148438-2.2687988-0.1386719-3.4526367,0.2597656
					l-5.6030273-6.4619141c1.1838379-0.3984375,2.3752441-0.4736328,3.4526367-0.2597656
					C164.6273651,159.3583527,165.6529999,159.9247589,166.4022675,160.7880402"/>
			</g>
		</g>
		<path fill="#6D6E71" d="M187.2733612,92.0399857c3.3630371,0.671875,5.0361328,4.0195313,3.7336426,7.4707031
			l-23.6975098,62.8193436l-0.0942383-0.2363281c-0.6867676-1.6064453-2.0803223-2.6337891-3.7429199-2.9667969
			c-1.4558105-0.2890625-3.1166992-0.0488281-4.6896973,0.7978516l-4.5649414,2.375l24.6047363-65.2236404
			C180.1249237,93.62397,183.9103241,91.3681107,187.2733612,92.0399857z"/>
		<path fill="#58595B" d="M196.9886932,104.4667435l0.0195313-0.1083984
			c0.0358887-0.3037109,0.0454102-0.6005859,0.0371094-0.8935547l0.0024414-0.0605469l-0.0187988-0.1425781
			c-0.0168457-0.2617188-0.0510254-0.5175781-0.1020508-0.7675781l-0.019043-0.1416016l-0.0444336-0.1474609
			c-0.0292969-0.1113281-0.0632324-0.2207031-0.0993652-0.3291016l-0.0598145-0.1982422l-0.0820313-0.1855469l-0.0930176-0.2099609
			l-0.0605469-0.1367188c-0.0563965-0.1083984-0.1210938-0.2119141-0.1848145-0.3164063l-0.067627-0.1152344l-0.0102539-0.0175781
			l-0.2888184-0.3984375l-0.1125488-0.1357422l-5.6044922-6.4609375c0.152832,0.1757813,0.2915039,0.3632813,0.4179688,0.5595703
			l0.0471191,0.0810547c0.095459,0.1542969,0.1811523,0.3144531,0.2597656,0.4794922l0.0927734,0.2099609
			c0.0537109,0.1259766,0.1003418,0.2568359,0.144043,0.3886719c0.0339355,0.1025391,0.0664063,0.2060547,0.0944824,0.3105469
			c0.0275879,0.1044922,0.0480957,0.2119141,0.0695801,0.3183594c0.0473633,0.2363281,0.0793457,0.4794922,0.0969238,0.7275391
			l0.019043,0.2363281c0.0078125,0.2880859-0.001709,0.5810547-0.0366211,0.8789063l-0.0246582,0.1367188
			c-0.0361328,0.2597656-0.0874023,0.5224609-0.1577148,0.7861328c-0.0610352,0.2314453-0.1279297,0.4628906-0.2158203,0.6962891
			l-23.6975098,62.8193436l5.6030273,6.4619141l23.6975098-62.8193436c0.0761719-0.2021484,0.1428223-0.4042969,0.1992188-0.6054688
			l0.0197754-0.0986328C196.899826,104.99897,196.9528046,104.7313919,196.9886932,104.4667435z"/>
		<path fill="#58595B" d="M173.0067596,172.4569855l0.0102539-0.0517578c0.0761719-0.28125,0.1313477-0.5644531,0.170166-0.8476563
			l0.0195313-0.1708984c0.0317383-0.2910156,0.0495605-0.5820313,0.0395508-0.8710938l0.0004883-0.0126953l-0.0043945-0.0341797
			c-0.013916-0.3232422-0.0576172-0.6435547-0.1259766-0.9580078l-0.0092773-0.0703125l-0.0114746-0.0380859
			c-0.0493164-0.2060547-0.1088867-0.4101563-0.1831055-0.6103516l-0.0136719-0.0380859l-0.0805664-0.1992188l-0.1535645-0.328125
			c-0.0507813-0.0986328-0.1088867-0.1904297-0.1650391-0.2841797l-0.0661621-0.1142578l-0.0300293-0.0517578l-0.2856445-0.3935547
			l-0.1125488-0.1337891l-5.6030273-6.4609375c0.1569824,0.1806641,0.3000488,0.3769531,0.4313965,0.5839844l0.0559082,0.0966797
			c0.1196289,0.1982422,0.2314453,0.4042969,0.3256836,0.6240234l0.0942383,0.2373047
			c0.0742188,0.1992188,0.1325684,0.4033203,0.182373,0.6083984l0.0219727,0.1152344
			c0.0671387,0.3095703,0.109375,0.6230469,0.1237793,0.9404297l0.0053711,0.0654297
			c0.0092773,0.2841797-0.0078125,0.5712891-0.0390625,0.8583984l-0.0209961,0.1826172
			c-0.0390625,0.2841797-0.0949707,0.5683594-0.171875,0.8505859l-0.0358887,0.1181641
			c-0.0979004,0.3388672-0.2194824,0.6738281-0.369873,1.0029297l-0.0908203,0.1806641
			c-0.0761719,0.1542969-0.1555176,0.3076172-0.2421875,0.4580078l-0.1550293,0.2539063
			c-0.0637207,0.1015625-0.1281738,0.2021484-0.1967773,0.3007813l-0.1906738,0.2626953l-0.1799316,0.2324219
			c-0.0759277,0.09375-0.1555176,0.1845703-0.236084,0.2753906l-0.1755371,0.1953125
			c-0.1057129,0.1123047-0.2163086,0.2197266-0.3291016,0.3271484l-0.1052246,0.1015625
			c-0.1523438,0.1396484-0.3112793,0.2724609-0.4753418,0.4013672l-0.1787109,0.1308594
			c-0.1098633,0.0810547-0.220459,0.1621094-0.3352051,0.2382813c-0.0898438,0.0605469-0.1833496,0.1162109-0.2763672,0.1728516
			c-0.1291504,0.0791016-0.2570801,0.1601563-0.3918457,0.2324219l-57.2607346,29.8037109
			c-0.1665039,0.0898438-0.3347168,0.1689453-0.5029297,0.2451172c-0.2407227,0.1074219-0.4814453,0.2060547-0.722168,0.2871094
			l-0.0473633,0.0136719c-0.2526855,0.0839844-0.5056152,0.1494141-0.7575684,0.2041016l-0.175293,0.0361328
			c-0.2666016,0.0507813-0.5324707,0.0898438-0.7946777,0.109375h-0.0117188
			c-0.2556152,0.0185547-0.5075684,0.0166016-0.7565918,0.0058594l-0.1789551-0.0107422
			c-0.2512207-0.0185547-0.4995117-0.046875-0.7407227-0.0947266c-1.1564941-0.2304688-2.182373-0.7978516-2.9299316-1.6611328
			l5.6030273,6.4619141c0.7490234,0.8632813,1.7749023,1.4296875,2.9296875,1.6611328
			c0.3254395,0.0644531,0.6635742,0.09375,1.0065918,0.1044922c0.1022949,0.0029297,0.2050781-0.0009766,0.3085938-0.0019531
			c0.260498-0.0048828,0.5234375-0.0244141,0.7893066-0.0605469c0.1003418-0.0136719,0.1989746-0.0234375,0.2995605-0.0410156
			c0.3483887-0.0625,0.6984863-0.1435547,1.0488281-0.2607422l0.0280762-0.0117188l0.0791016-0.03125
			c0.2319336-0.0820313,0.4645996-0.1699219,0.6950684-0.2783203c0.1442871-0.0664063,0.2902832-0.1396484,0.4345703-0.2167969
			l57.2592697-29.8017578l0.1945801-0.109375l0.2080078-0.1298828l0.2570801-0.1601563l0.0744629-0.0458984
			c0.0981445-0.0683594,0.1918945-0.140625,0.2873535-0.2119141l0.1604004-0.1171875l0.027832-0.0205078
			c0.1503906-0.1191406,0.2949219-0.2421875,0.4345703-0.3681641l0.012207-0.0117188l0.0949707-0.0917969
			c0.1018066-0.0957031,0.2038574-0.1914063,0.3000488-0.2910156l0.0505371-0.0566406l0.1538086-0.171875l0.1816406-0.203125
			l0.065918-0.0859375l0.1833496-0.2373047l0.121582-0.1572266l0.0625-0.0957031
			c0.0720215-0.1035156,0.1398926-0.2089844,0.2062988-0.3154297l0.1020508-0.15625l0.0432129-0.0820313
			c0.0922852-0.1591797,0.1765137-0.3212891,0.2563477-0.484375l0.0698242-0.1318359l0.0090332-0.0253906
			c0.1494141-0.3251953,0.2695313-0.6582031,0.3681641-0.9941406L173.0067596,172.4569855z"/>
		<path fill="#6D6E71" d="M163.4723358,159.1269073c1.6625977,0.3330078,3.0561523,1.3603516,3.7429199,2.9667969
			l0.0942383,0.2363281c1.1032715,2.9804688-0.5805664,6.7382813-3.8630371,8.5058594l-57.2607346,29.8037109
			c-1.5727539,0.8466797-3.2338867,1.0869141-4.6879883,0.7958984c-1.6640625-0.3330078-3.0576172-1.3583984-3.7431641-2.9658203
			c-0.6472168-1.515625-0.5407715-3.2558594,0.1352539-4.8417969c0.684082-1.5712891,1.9558105-2.9980469,3.6335449-3.9013672
			l52.6943283-27.4267578l4.5649414-2.375C160.3556366,159.0780792,162.0165253,158.8378448,163.4723358,159.1269073z"/>
		<path fill="#00B1A9" d="M277.8532104,220.2284698l1.1279297-0.7460938
			c3.0131836-1.9277344,5.9399414-4.3828125,8.4736328-7.4453125c2.5341797-3.0390625,4.6362305-6.765625,5.7954102-10.8486328
			c1.1313477-4.0888672,1.2802734-8.4003906,0.6943359-12.3671875c-0.5751953-3.9853516-1.7998047-7.6787109-3.3916016-10.953125
			l-0.5834961-1.2509766l-0.6450195-1.1777344c-0.4355469-0.7792969-0.8642578-1.5742188-1.3168945-2.3359375
			c-0.9555664-1.4511719-1.8676758-2.9863281-2.9086914-4.3261719l-1.5322266-2.0625l-1.6069336-1.9482422
			c-1.0571289-1.3291016-2.203125-2.5029297-3.3178711-3.7412109c-4.5302734-4.8212891-9.4121094-9.0390625-14.4902344-12.8759766
			c-5.0727539-3.8447266-10.3291168-7.3154297-15.6972809-10.5302734
			c-10.7216797-6.4609375-21.9575195-11.7666092-33.3969727-16.4130936
			c-11.4370117-4.6708984-23.1918945-8.4072266-35.0681152-11.6064453
			c-5.9555664-1.5371094-11.9331055-3.0097656-17.9780273-4.2089844
			c-6.0495605-1.1708984-12.1225586-2.2480469-18.2514648-3.0517578
			c-6.1262207-0.8134766-12.2817383-1.4804688-18.4814377-1.8857422c-6.203125-0.3603516-12.4377441-0.5039063-18.7043457-0.3720703
			c-12.5292969,0.28125-25.217041,1.5830078-37.9311523,5.4697266c-1.5898438,0.5283203-3.1750488,0.9863281-4.7619667,1.625
			l-2.3757324,0.9072266l-2.3703613,1.0458984c-1.578125,0.6572266-3.1474609,1.5478516-4.7072754,2.3496094
			c-0.7766113,0.4482422-1.5483398,0.9365234-2.3183594,1.4072266l-1.1518555,0.7197266l-1.1357422,0.8144531
			c-3.026123,2.1035156-5.958252,4.7490234-8.4624023,7.9960938c-2.5053711,3.2236328-4.5385742,7.1318436-5.5856934,11.3388748
			c-1.019043,4.2148438-1.0253906,8.5888672-0.2927246,12.5556641c0.7236328,3.9873047,2.0966797,7.6191406,3.8024902,10.8164063
			l0.6262207,1.2207031l0.6870117,1.1464844c0.463623,0.7558594,0.918457,1.5273438,1.3967285,2.265625
			c1.0080566,1.4023438,1.9675293,2.8828125,3.0551758,4.1679688l1.5981445,1.9775391l1.670166,1.8603516
			c1.0966797,1.2685547,2.282959,2.3828125,3.4333496,3.5566406c4.6726074,4.5761719,9.6838379,8.5097656,14.8366737,12.1074219
			c1.2202148,0.8510742,2.4516602,1.6777344,3.6904297,2.487793c-0.4567871-6.1689453-0.901123-13.4643555-1.0708008-20.2358398
			c-2.0578613-1.84375-4.0161133-3.7519531-5.8342323-5.7285156c-0.8796387-1.0039063-1.8266602-1.9736328-2.6201172-3.0097656
			l-1.2412109-1.5253906l-1.1269531-1.5615234c-0.7961426-1.0263672-1.3793945-2.1025391-2.0710449-3.1435547l-0.8605957-1.5869141
			l-0.4272461-0.7890625l-0.34375-0.7919922c-1.0009766-2.1015625-1.5881348-4.1738281-1.8129883-6.0625
			c-0.2348633-1.8964844-0.1154785-3.5917969,0.3383789-5.1621094c0.5046387-1.5566406,1.3371582-3,2.5498047-4.4140625
			c1.2021484-1.4082031,2.7746582-2.7744141,4.7055664-3.9638672l0.6958008-0.4628906l0.7678223-0.4208984l1.5378418-0.8457031
			c1.1196327-0.4941483,2.1481972-1.0761795,3.3447304-1.5097733l1.739502-0.703125l1.8222656-0.6171875
			c1.1899414-0.4433594,2.4858398-0.7558594,3.7329102-1.1308594c5.074707-1.390625,10.4853516-2.2734375,15.9785156-2.8369141
			c5.4953613-0.5917969,11.1052246-0.8544922,16.7470703-0.8525391c5.6433105-0.0009766,11.3205566,0.2539063,17.0004883,0.6943359
			c5.6840744,0.4082031,11.3718185,1.0654297,17.0461349,1.8554688c11.3491211,1.625,22.6281738,3.9785156,33.7949219,6.7978592
			c5.5666504,1.4746094,11.1125488,3.0302734,16.5871582,4.7949219c5.4614258,1.7929688,10.9194336,3.6054688,16.2705078,5.6699219
			c5.3525391,2.0546875,10.6533203,4.2333984,15.8330078,6.6289063c5.1689453,2.4140625,10.2646484,4.9472656,15.2138672,7.6835938
			c4.9458008,2.7402344,9.7446289,5.6875,14.2753906,8.890625c4.5185699,3.2089844,8.8496246,6.6074219,12.6338043,10.3203125
			c0.9155273,0.9404297,1.902832,1.8505859,2.7358398,2.8261719l1.3046875,1.4384766l1.1928711,1.4755859
			c0.8427734,0.9716797,1.4731445,1.9931641,2.2172852,2.9863281l0.9399414,1.5166016l0.4697266,0.7568359l0.3867188,0.7607422
			c1.1142578,2.0253906,1.8505859,4.0361328,2.2236328,5.9267578c0.3813477,1.8964844,0.4042969,3.6552734,0.0629883,5.3515625
			c-0.3925781,1.6806641-1.1557617,3.3046875-2.3393555,4.9033203c-1.1728516,1.59375-2.7514648,3.1494141-4.6948242,4.5146484
			l-0.7036133,0.53125l-0.7734375,0.4863281l-1.5566406,0.9746094c-1.1289063,0.5751953-2.184082,1.234375-3.3945313,1.7431641
			l-1.769043,0.8144531l-1.8496094,0.7265625c-1.2124023,0.5166016-2.5234375,0.8994141-3.793457,1.3447266
			c-1.3283844,0.4301758-2.6804352,0.8237305-4.0495758,1.1884766c-3.4458008,5.1401367-7.8310547,11.2558594-12.5073242,16.7109375
			c0.6694336-0.0576172,1.3378906-0.1020508,2.0080566-0.1689453c6.2270508-0.6279297,12.4941406-1.5917969,18.7656403-3.2861328
			c1.5664063-0.4580078,3.1367188-0.8466797,4.7011719-1.4111328l2.3486328-0.7978516l2.340332-0.9345703
			c1.5639648-0.5820313,3.1069336-1.3945313,4.6577148-2.1171875c0.7695313-0.4042969,1.5341797-0.8486328,2.2998047-1.2763672
			L277.8532104,220.2284698z"/>
	</g>
</g>
<g id="Layer_2">
</g>
<g id="Layer_3">
</g>
</svg>
