<?xml version="1.0" encoding="utf-8"?>
<!-- Generator: Adobe Illustrator 23.0.6, SVG Export Plug-In . SVG Version: 6.00 Build 0)  -->
<svg version="1.0" xmlns="http://www.w3.org/2000/svg" xmlns:xlink="http://www.w3.org/1999/xlink" x="0px" y="0px"
	 viewBox="0 0 329.2459106 334.9719238" enable-background="new 0 0 329.2459106 334.9719238" xml:space="preserve">
<g id="Layer_1">
	<g>
		<path fill="#939598" d="M208.9602509,217.3398132l-11.2072754-5.0722656c0,0-31.829834,26.8925781-60.0727539,23.3798828
			c0,0-60.9748459-19.6733398-35.4850998-90.9331055c17.0678711-47.7102051,73.1667404-43.0842285,73.1667404-43.0842285
			s25.9777832,1.8405762,39.4267578,56.5344238c0,0,9.4152832,0,16.1391602,2.6889648l23.3112793,7.9433594l8.9668121,7.6474609
			c0,0,10.310791,8.7177734,6.2768555,26.8242188c0,0-2.6901855,21.2446289-30.9331207,21.2446289L208.9602509,217.3398132"/>
		<path fill="#A5A7A9" d="M208.9602509,217.3398132l9.9697266,2.4174805l0,0L208.9602509,217.3398132 M230.792038,160.7997742
			c0.0175781,0.0068359,0.0361328,0.0141602,0.0537109,0.0209961
			C230.8279266,160.8139343,230.8098602,160.8066101,230.792038,160.7997742 M230.7043915,160.7655945
			c0.0202637,0.0078125,0.0397949,0.015625,0.0600586,0.0234375
			C230.7446747,160.7812195,230.7241669,160.773407,230.7043915,160.7655945 M230.6118622,160.72995
			c0.0239258,0.0092773,0.0476074,0.0180664,0.0715332,0.0273438
			C230.6597137,160.7480164,230.6355438,160.738739,230.6118622,160.72995 M219.3967743,158.4086609
			c3.2185059,0.2905273,7.5734863,0.9272461,11.2128906,2.3203125
			C226.9670868,159.3339539,222.6145477,158.6987,219.3967743,158.4086609"/>
		<path fill="#828487" d="M219.0061493,158.3749695c-0.0012207,9.9541016-1.447998,20.3217773-4.5390625,30.7011719
			c-2.7770996,9.3227539-6.651123,17.9228516-11.357666,25.6152344l5.8508301,2.6484375l9.9702148,2.4169922
			c6.9689941-7.4711914,11.1887207-15.4995117,13.96875-24.8330078c3.137207-10.5356445,3.9995117-20.6630859,2.3305664-32.6040039
			l-4.302002-1.4663086l0,0c-0.0273438-0.0107422-0.0546875-0.0219727-0.0820313-0.0327148
			c-0.0175781-0.0068359-0.0361328-0.0141602-0.0537109-0.0209961c-0.0092773-0.0039063-0.0183105-0.0073242-0.0275879-0.0107422
			c-0.0202637-0.0078125-0.0397949-0.015625-0.0600586-0.0234375c-0.0073242-0.0029297-0.0136719-0.0053711-0.0209961-0.0083008
			c-0.0239258-0.0092773-0.0476074-0.0180664-0.0715332-0.0273438c-0.0007324-0.0004883-0.0014648-0.0004883-0.0021973-0.0009766
			c-3.6394043-1.3930664-7.9943848-2.0297852-11.2128906-2.3203125
			C219.2644501,158.3969421,219.1343231,158.3857117,219.0061493,158.3749695"/>
		<path fill="#66676A" d="M135.3484344,234.7607117c5.1396484-0.9052734,10.2207031-2.1103516,15.1777344-3.7890625
			c8.925293-3.0214844,16.7548828-7.9697266,23.4760742-14.5644531
			c13.0219727-12.7773438,21.902832-30.2763672,25.1000977-48.1982422
			c1.5458984-8.6660156,1.7314453-17.8828125-1.0097656-26.3339844
			c-2.5415039-7.8359375-7.9907227-13.8310547-13.9868164-19.2568359c-3.2983398-2.984375-6.8442383-5.71875-9.8417969-9.0166016
			c-2.7216797-2.9951172-5.1479492-6.2421875-7.7675781-9.3242188c-0.7143555-0.8398438-1.4472656-1.6738281-2.2026367-2.4873047
			c-17.2392578,1.3427734-49.8002853,8.546875-62.0981369,42.9248047
			C79.7263718,207.5282898,124.433403,230.2548523,135.3484344,234.7607117z"/>
		<path fill="#A7A9AC" d="M221.5134735,215.5468445l-15.5698242,0.4277344c0,0,3.0170898,23.78125-6.8457031,50.2314453
			l18.168457-2.6689453C217.2664032,263.5370789,223.1472626,231.6864929,221.5134735,215.5468445z"/>
		<path fill="#939598" d="M217.2664032,263.5370789l18.1445313,7.1513672c0,0,4.9311523-8.6669922,3.1381836-48.4912109
			l-17.0356445-6.6503906L217.2664032,263.5370789z"/>
		<polygon fill="#6D6E71" points="221.8000946,273.3788757 199.0979462,266.2060242 217.2664032,263.5370789 
			235.4109344,270.688446 		"/>
		<path fill="#78797C" d="M192.8220673,156.132782l-45.2944336-11.4179688c0,0-18.3652344,0.6435547-16.1235352,24.0820313
			c0,0,0.8964844,12.4980469,11.6557617,15.2783203l39.4101563,11.4238281
			C182.4700165,195.4989929,195.8220673,173.2909851,192.8220673,156.132782z"/>
		<path fill="#E6E7E8" d="M162.2673798,168.6786804c-2.668457,10.65625-11.8852539,17.5283203-20.5864258,15.3496094
			s-13.5913086-12.5839844-10.9228516-23.2402344s11.8852539-17.5292969,20.5864258-15.3505859
			S164.9358368,158.0214539,162.2673798,168.6786804z"/>
		<path fill="#A7A9AC" d="M167.6819305,98.5097351c-28.9746094-8.6289063-61.4868088,14.671875-72.6176682,52.0458984
			c-11.1303711,37.3730469,3.3349609,74.6660156,32.3095703,83.2958984
			c28.9746017,8.6289063,61.4863205-14.6728516,72.6171799-52.0458984
			C211.1218719,144.4316101,196.6565399,107.1396179,167.6819305,98.5097351z M189.8332977,178.7802429
			c-8.9755859,30.1367188-35.1928711,48.9267578-58.5576172,41.96875
			c-23.3642502-6.9589844-35.028801-37.03125-26.053215-67.1679688c8.9755859-30.1376953,35.1923752-48.9277344,58.5571213-41.96875
			C187.1443329,118.570282,198.8088837,148.6435242,189.8332977,178.7802429z"/>
		<path fill="#00B1A9" d="M173.8093719,64.2968445C130.1853485,51.304657,81.2361374,86.3866882,64.4778366,142.6552429
			s5.0205078,112.4169922,48.644043,125.4091797c43.6240158,12.9921875,92.5732346-22.0908203,109.3315353-78.359375
			C239.2117157,133.4355164,217.4329071,77.289032,173.8093719,64.2968445z M207.1599579,185.1503601
			c-13.5136719,45.3740234-52.9853516,73.6630859-88.16259,63.1875
			C83.8196335,237.860321,66.2576218,192.5849304,79.7712936,147.210907c13.5136719-45.375,52.9853439-73.6640625,88.16259-63.1875
			C203.111618,94.4999695,220.6736298,139.7763367,207.1599579,185.1503601z"/>
	</g>
</g>
<g id="Layer_2">
</g>
<g id="Layer_3">
</g>
</svg>
