<?xml version="1.0" encoding="utf-8"?>
<!-- Generator: Adobe Illustrator 23.0.6, SVG Export Plug-In . SVG Version: 6.00 Build 0)  -->
<svg version="1.0" xmlns="http://www.w3.org/2000/svg" xmlns:xlink="http://www.w3.org/1999/xlink" x="0px" y="0px"
	 viewBox="0 0 329.2459106 334.9719238" enable-background="new 0 0 329.2459106 334.9719238" xml:space="preserve">
<g id="Layer_1">
	<g>
		<path fill="#A7A9AC" d="M60.7731934,154.3714752c7.3105469-36.0803146,59.126709-68.2350998,123.8491211-55.7578049
			c64.7226563,12.4782715,90.451416,71.2363205,83.53125,97.1860275
			c-7.206543,27.027832-47.2382813,62.7597809-111.9609375,50.2822266
			C91.4702148,233.6048737,53.4614258,190.4539948,60.7731934,154.3714752"/>
		<g>
			<defs>
				<path id="SVGID_60_" d="M267.9848633,196.4124908c-4.3325195,15.2739258-19.0275879,33.1660156-42.6416016,43.5478516
					C245.9216309,232.0877838,262.8291016,218.0999908,267.9848633,196.4124908 M60.3632813,156.7147369
					c-5.1679688,33.4990234,20.7255859,58.5039063,50.4526367,73.7426758
					C75.6049805,211.8504791,56.5300293,182.688858,60.3632813,156.7147369 M244.1113281,130.8824615
					c18.3928223,19.6945801,26.3972168,43.536377,24.9741211,59.4836426
					c0.0241699-0.1870117,0.0473633-0.3740234,0.0698242-0.5620117
					C271.802002,167.6229401,260.6621094,146.9969635,244.1113281,130.8824615 M111.6057129,103.7342758
					c-24.763916,8.3481445-45.6867676,24.3107834-50.8325195,50.6371994l0,0l0,0
					C64.980957,133.6048737,83.9360352,114.1383286,111.6057129,103.7342758 M184.6223145,98.6136703L184.6223145,98.6136703
					c0.0791016,0.0151367,0.1621094,0.0314941,0.2409668,0.046875
					C184.7836914,98.6449203,184.7016602,98.6290512,184.6223145,98.6136703L184.6223145,98.6136703"/>
			</defs>
			<clipPath id="SVGID_6_">
				<use xlink:href="#SVGID_60_"  overflow="visible"/>
			</clipPath>
			<rect x="55.1953125" y="98.6136703" clip-path="url(#SVGID_6_)" fill="#A5A7A9" width="216.6066895" height="141.3466797"/>
		</g>
		<path fill="#828487" d="M204.7165527,104.8709946c-1.4245605,0.9082031-5.3808594,3.5810547-10.4960938,8.2915039
			c31.3337402,11.1877441,54.1948242,34.0346603,45.7158203,65.8330002
			c-8.1572266,30.5942383-36.1435547,42.9736328-66.9379883,42.9736328c-6.2836914,0-12.6816406-0.5151367-19.0549316-1.4960938
			c0.2131348,8.0463867,0.9316406,16.5805664,2.2492676,25.6088867l0,0l0,0l0,0
			c7.0378418,1.2822266,14.7731934,1.9638672,22.7822266,1.9638672c15.3754883,0,31.7907715-2.5083008,46.3684082-8.0854492
			c23.6140137-10.3818359,38.309082-28.2739258,42.6416016-43.5478516c0.4641113-1.9521484,0.8330078-3.9682617,1.1005859-6.0463867
			c1.4230957-15.9472656-6.5812988-39.7890625-24.9741211-59.4836426
			C232.6479492,119.7210922,218.5917969,110.7257309,204.7165527,104.8709946 M159.0209961,96.3316879
			c-15.3989258,0-32.1350098,2.2512207-47.4152832,7.4025879c-27.6696777,10.4040527-46.6247559,29.8705978-50.8325195,50.6371994
			l0,0c-0.1538086,0.7866211-0.2900391,1.5654297-0.4099121,2.3432617
			c-3.833252,25.9741211,15.2416992,55.1357422,50.4526367,73.7426758
			c9.5681152,4.9047852,19.5378418,8.800293,28.9914551,11.6396484
			c-2.4765625-3.1181641-8.4995117-12.0576172-11.2443848-28.0483398
			c-36.144043-12.8891602-64.2753906-40.0839844-53.3186035-70.9233398
			c9.2177734-25.9450607,40.2338867-37.7353439,73.029541-37.7380295
			c5.2766113-0.0004883,10.5974121,0.3049316,15.8833008,0.9050293c6.5041504-3.9650879,14.277832-6.5078125,23.4931641-6.5083008
			c0.4460449,0,0.8930664,0.0058594,1.3459473,0.0180664l10.8359375,3.1350098
			c-5.1071777-1.888916-10.1433105-3.3310547-14.9689941-4.2766113c-0.0788574-0.0153809-0.1618652-0.0317383-0.2409668-0.046875
			l0,0C176.9724121,97.139061,168.2331543,96.3316879,159.0209961,96.3316879"/>
		<path fill="#E6E7E8" d="M172.1064453,115.6300278c24.5427246,5.1474609,38.1000977,28.7995529,30.2800293,52.8244553
			c-7.8212891,24.0234375-34.0629883,39.3291016-58.6044922,34.1806641
			c-24.5437012-5.1469727-38.1010742-28.7983398-30.2800293-52.8232422
			C121.3232422,125.788475,147.5637207,110.482811,172.1064453,115.6300278"/>
		<path fill="#C3C5C7" d="M204.6000977,104.3165512c0.2058105,0.0793457,0.4147949,0.1608887,0.6196289,0.2414551
			c0.0463867-0.0280762,0.0700684-0.0419922,0.0700684-0.0419922L204.6000977,104.3165512"/>
		<path fill="#919395" d="M164.1572266,106.2923813c-4.2414551,2.5856934-7.9436035,5.7751465-11.151123,9.2578125
			c3.0998535-0.6025391,6.2587891-0.9165039,9.432373-0.9165039c3.2219238,0,6.4594727,0.3234863,9.6679688,0.9963379
			c5.2595215,1.1030273,10.0151367,3.0563965,14.1633301,5.6806641c2.8139648-3.1975098,5.5146484-5.9050293,7.9506836-8.1481934
			C184.7600098,109.7845688,174.5319824,107.4698715,164.1572266,106.2923813 M199.8322754,102.9371567
			c1.6225586,0.6000977,3.2521973,1.2453613,4.8842773,1.9338379c0.2451172-0.15625,0.4147949-0.2597656,0.5031738-0.3129883
			c-0.204834-0.0805664-0.4138184-0.1621094-0.6196289-0.2414551L199.8322754,102.9371567"/>
		<path fill="#7A7C7F" d="M187.6503906,99.7840805c-9.215332,0.0004883-16.9890137,2.5432129-23.4931641,6.5083008
			c10.3747559,1.1774902,20.6027832,3.4921875,30.0632324,6.8701172c5.1152344-4.7104492,9.0715332-7.3833008,10.4960938-8.2915039
			c-1.6320801-0.6884766-3.2617188-1.3337402-4.8842773-1.9338379l-10.8359375-3.1350098
			C188.543457,99.7899399,188.0964355,99.7840805,187.6503906,99.7840805"/>
		<path fill="#C3C5C7" d="M139.8322754,242.1283112c0.668457,0.8393555,1.0720215,1.246582,1.0720215,1.246582l15.2883301,2.7070313
			c-4.0715332-0.7416992-8.3898926-1.7324219-12.8481445-2.9643555
			C142.1643066,242.798233,140.9914551,242.4681549,139.8322754,242.1283112"/>
		<path fill="#919395" d="M139.807373,242.0970612c0.0083008,0.0107422,0.0168457,0.0209961,0.0249023,0.03125
			c1.1591797,0.3398438,2.3320313,0.6699219,3.512207,0.9892578
			C142.1728516,242.7933502,140.9970703,242.454483,139.807373,242.0970612 M127.1679688,195.2752838
			c-0.0905762,7.1015625,0.4633789,13.3452148,1.3950195,18.7734375c8.170166,2.9135742,16.7502441,5.0961914,25.3803711,6.4243164
			c-0.1555176-5.8696289-0.041748-11.4833984,0.3034668-16.8476563c-0.2644043,0.0043945-0.5310059,0.0063477-0.7956543,0.0063477
			c-3.2231445,0-6.4592285-0.3232422-9.6691895-0.996582C137.4543457,201.3084869,131.8571777,198.751358,127.1679688,195.2752838"
			/>
		<path fill="#8F9194" d="M143.3444824,243.117569c4.458252,1.2319336,8.7766113,2.2226563,12.8481445,2.9643555l0,0
			C151.7841797,245.2323151,147.4992676,244.2401276,143.3444824,243.117569"/>
		<path fill="#7A7C7F" d="M128.5629883,214.0487213c2.744873,15.9907227,8.7678223,24.9301758,11.2443848,28.0483398
			c1.1896973,0.3574219,2.3654785,0.6962891,3.5371094,1.0205078c4.1547852,1.1225586,8.4396973,2.1147461,12.8481445,2.9643555l0,0
			c-1.317627-9.0283203-2.0361328-17.5625-2.2492676-25.6088867
			C145.3132324,219.1449127,136.7331543,216.9622955,128.5629883,214.0487213"/>
		<path fill="#B7B8BB" d="M162.4384766,114.6336899c-3.173584,0-6.3325195,0.3139648-9.432373,0.9165039
			c-7.9614258,8.6445313-12.8852539,19.0937424-15.4836426,26.5800705
			c-7.4284668,21.3955078-10.173584,38.9804688-10.3544922,53.1450195c4.689209,3.4760742,10.286377,6.0332031,16.6140137,7.3598633
			c3.2099609,0.6733398,6.4460449,0.996582,9.6691895,0.996582c0.2646484,0,0.53125-0.0019531,0.7956543-0.0063477
			c2.6220703-40.7231445,18.6240234-67.090332,32.0229492-82.3146896
			c-4.1481934-2.6242676-8.9038086-4.5776367-14.1633301-5.6806641
			C168.8979492,114.9571762,165.6604004,114.6336899,162.4384766,114.6336899"/>
		<path fill="#58595B" d="M190.0339355,155.3514557l-15.1875-5.1103516l5.1103516-15.1875
			c0.6201172-1.8417969-0.3710938-3.8369141-2.2128906-4.4570313l-19.0991211-6.4267502
			c-1.8417969-0.6201172-3.8378906,0.3710938-4.4575195,2.2128906l-5.1103516,15.1865158l-15.1875-5.1103516
			c-1.8417969-0.6201172-3.8378906,0.3710938-4.4575195,2.2128906l-6.4267578,19.0986328
			c-0.6201172,1.8427734,0.3706055,3.8378906,2.2128906,4.4580078l15.1875,5.1103516l-5.1108398,15.1875
			c-0.6196289,1.8417969,0.3710938,3.8378906,2.2128906,4.4580078l19.0991211,6.4267578
			c1.8422852,0.6201172,3.8378906-0.3710938,4.4580078-2.2138672l5.1103516-15.1865234l15.1875,5.1103516
			c1.8417969,0.6201172,3.8378906-0.3710938,4.4575195-2.2128906l6.4267578-19.0996094
			C192.8669434,157.9666901,191.8757324,155.9715729,190.0339355,155.3514557z"/>
		<path fill="#00B1A9" d="M220.6496582,82.4217758c-0.3398438-1.4746094-0.6171875-2.9482422-1.0576172-4.4287109
			l-0.6157227-2.21875l-0.7426758-2.2216797c-0.4580078-1.4824219-1.1313477-2.9609375-1.7207031-4.4404297
			c-0.3359375-0.7373047-0.7089844-1.4726563-1.0664063-2.2080078l-0.5498047-1.1025391l-0.6367188-1.0917969
			c-1.6367188-2.9121132-3.777832-5.7822304-6.5180664-8.3242226c-2.7182617-2.5410156-6.1176758-4.7207031-9.9047852-6.0302734
			c-3.7939453-1.2841797-7.8496094-1.6533203-11.6079102-1.3134766c-3.7758789,0.3291016-7.3012695,1.28125-10.4418945,2.5947266
			l-1.1992188,0.4785156l-1.1328125,0.5390625c-0.7495117,0.3652344-1.5131836,0.7226563-2.2480469,1.1044922
			c-1.4008789,0.8115234-2.8789063,1.5820313-4.1782227,2.4775391l-1.9985352,1.3154297l-1.8930664,1.3886719
			c-1.2900391,0.9121094-2.4384766,1.9111328-3.6445313,2.8798828c-4.7084961,3.9453163-8.8676758,8.2373085-12.6791992,12.729496
			c-3.8193359,4.4873047-7.2988281,9.1582031-10.546875,13.9443359
			c-6.5273438,9.5546875-11.9980469,19.6435547-16.8759766,29.9472656
			c-4.902832,10.3007736-8.9458008,20.9453049-12.5058594,31.7265549
			c-1.7216797,5.4101563-3.3876953,10.8427734-4.8007813,16.3535156
			c-1.3876953,5.5175781-2.6884766,11.0605469-3.7421875,16.6699219c-1.0615234,5.6074219-1.9902344,11.25-2.6796875,16.9482422
			c-0.6455078,5.7041016-1.0917969,11.4492188-1.2861328,17.2412109
			c-0.3730469,11.5810547,0.1884766,23.3662109,3.1533203,35.3515625c0.4101563,1.5019531,0.7558594,2.9941406,1.2685547,4.5019684
			l0.7226563,2.2519531l0.8535156,2.2578125c0.53125,1.5,1.2802734,3.0097656,1.9492188,4.5019531
			c0.3789063,0.7480469,0.7954102,1.4931641,1.1962891,2.2353516l0.6132813,1.1113281l0.7041016,1.1035156
			c1.8125,2.9345703,4.1425781,5.8212891,7.0693359,8.34375c2.9042969,2.5224609,6.487793,4.6435547,10.4052734,5.8466797
			c3.9257813,1.1796875,8.0527344,1.4101563,11.8193359,0.9238281c3.7851563-0.4765625,7.2578125-1.5820313,10.328125-3.0117188
			l1.1708984-0.5234375l1.1030273-0.5830078c0.7290039-0.3935547,1.4702148-0.7802734,2.1816406-1.1884766
			c1.355957-0.8662109,2.7827148-1.6875,4.0297852-2.6318359l1.9169922-1.3857422l1.809082-1.4570313
			c1.2319336-0.9550781,2.3232422-1.9980469,3.4682617-3.0058594c4.4697266-4.1005859,8.3525391-8.5371094,11.9296875-13.1171875
			c2.6381836-3.3828278,5.0844727-6.858902,7.3913574-10.3979645c-4.220459-0.2304688-9.9511719-0.7124023-17.2834473-1.6821289
			c-0.6520996,0.7856445-1.3054199,1.5693359-1.9731445,2.3339844c-3.3876953,3.8808594-6.9755859,7.5244293-10.7734375,10.6308746
			c-0.9604492,0.7460938-1.8935547,1.5585938-2.8759766,2.2226563l-1.4521484,1.046875l-1.4746094,0.9384766
			c-0.9726563,0.6689453-1.9746094,1.1357422-2.9511719,1.7070313l-1.4750977,0.6904297l-0.7324219,0.3427734l-0.7270508,0.2646484
			c-1.9384766,0.7871094-3.8095703,1.1943359-5.4716797,1.2890625c-1.6728516,0.1044922-3.1181641-0.0898438-4.434082-0.5595703
			c-1.3012695-0.515625-2.4907227-1.3017578-3.659668-2.4326172c-1.1630859-1.1210938-2.2905273-2.5791016-3.2514648-4.3691406
			l-0.3774414-0.6445313l-0.3364258-0.7109375l-0.6777344-1.4257813c-0.3862305-1.0351563-0.8579102-1.9882813-1.1875-3.0937653
			l-0.5444336-1.609375l-0.4648438-1.6835938c-0.3398438-1.1005859-0.5566406-2.2958984-0.8320313-3.4472656
			c-0.9990234-4.6826172-1.5224609-9.6621094-1.75-14.7070313c-0.2558594-5.046875-0.2080078-10.1894531,0.0864258-15.3496094
			c0.2905273-5.1611328,0.8168945-10.34375,1.5131836-15.5214844c0.6640625-5.1835938,1.5561523-10.3583984,2.5703125-15.515625
			c2.0693359-10.3125,4.8012695-20.5273438,7.9467773-30.6191406c6.4868164-20.0908203,14.8608398-39.7070236,25.8916016-57.2997971
			c2.75-4.390625,5.6826172-8.6337891,8.8305664-12.6152344c3.1533203-3.9677734,6.4638672-7.7558594,10.0244141-11.0175781
			c0.8984375-0.7861328,1.7744141-1.6416016,2.6982422-2.3496094l1.3686523-1.1142578l1.3925781-1.0097656
			c0.9213867-0.7177734,1.871582-1.2353516,2.8032227-1.8613281l1.4086914-0.7734375l0.7026367-0.3867188l0.6992188-0.3105469
			c1.8671875-0.9042969,3.6855469-1.4628906,5.3574219-1.7060547c1.6806641-0.25,3.1972656-0.1943359,4.6455078,0.1689453
			c1.4316406,0.4111328,2.8056641,1.1376953,4.159668,2.25c1.3500977,1.1015625,2.6665039,2.5771484,3.8032227,4.3886719
			l0.4438477,0.6572266l0.4013672,0.7197266l0.8071289,1.4511719c0.4658203,1.0498047,1.0131836,2.0332031,1.4165039,3.1572266
			l0.6547852,1.6445313l0.5722656,1.7177734c0.4121094,1.1269531,0.6972656,2.3398438,1.0419922,3.5185547
			c1.2724609,4.7822266,2.0668945,9.8642578,2.5351563,15.0195313c0.1293945,1.4211426,0.2285156,2.8505859,0.3093262,4.284668
			c3.5517578,1.3583984,8.6989746,3.5253906,13.8664551,6.3842773c0.137207-3.8381348,0.1542969-7.6975098-0.0112305-11.5839844
			C222.4436035,94.1561508,221.8864746,88.3172836,220.6496582,82.4217758z"/>
	</g>
</g>
<g id="Layer_2">
</g>
<g id="Layer_3">
</g>
</svg>
