<?xml version="1.0" encoding="utf-8"?>
<!-- Generator: Adobe Illustrator 23.0.6, SVG Export Plug-In . SVG Version: 6.00 Build 0)  -->
<svg version="1.0" xmlns="http://www.w3.org/2000/svg" xmlns:xlink="http://www.w3.org/1999/xlink" x="0px" y="0px"
	 viewBox="0 0 329.2459106 334.9719238" enable-background="new 0 0 329.2459106 334.9719238" xml:space="preserve">
<g id="Layer_1">
	<g>
		<path fill="#A7A9AC" d="M174.855835,148.7400513l6.0717773,4.5200195
			c16.6699219,12.4086914,23.371582,33.4160156,18.5708008,52.4619141l34.2546387-46.0219727
			c16.4211426-22.0629883,11.8059082-53.5507889-10.2570801-69.9707108
			c-22.0629883-16.4223633-53.5483398-11.8059082-69.9707031,10.2558594l-34.2548828,46.0234451
			C136.1380615,135.9431763,158.1849365,136.3328247,174.855835,148.7400513"/>
		<path fill="#6D6E71" d="M107.6341553,245.242981c22.0629883,16.4213867,53.5493164,11.8061523,69.9707031-10.2558594
			l21.8935547-29.2651367c4.8007813-19.0458984-1.9008789-40.0532227-18.5708008-52.4619141l-6.0717773-4.5200195
			c-16.6708984-12.4072266-38.7177734-12.796875-55.5854492-2.7314453l-21.8930664,29.2641602
			C80.9559326,197.3352661,85.571167,228.8220825,107.6341553,245.242981"/>
		<path fill="#7D7E81" d="M145.1033936,148.6653442l-18.793457,25.2504883
			c-2.9101563,3.9082031-2.0991211,9.4375,1.8105469,12.3461914c1.5820313,1.1777344,3.4291992,1.7456055,5.2607422,1.7456055
			c0.4311523,0,0.8608398-0.03125,1.2861328-0.09375c2.2353516-0.328125,4.3427734-1.5068359,5.7983398-3.4609375
			l20.7114258-27.8271484C156.1361084,153.0872192,150.71521,150.4421997,145.1033936,148.6653442"/>
		<path fill="#B8BABC" d="M194.911499,87.7119675c-2.6938477,0-5.3525391,1.2285156-7.0849609,3.5554199L158.3905029,130.81427
			c6.0463867,0.8815918,11.9882813,2.8779297,17.5043945,6.0375977l26.0874023-35.0476151
			c2.9086914-3.9094238,2.0991211-9.4375-1.8105469-12.3474121
			C198.5897217,88.2800827,196.7420654,87.7119675,194.911499,87.7119675"/>
		<path fill="#C3C5C7" d="M165.5091553,143.2512817c2.902832,1.3012695,5.7172852,2.8999023,8.4003906,4.8017578
			c0.0053711,0.0039063,0.0097656,0.0068359,0.0146484,0.0102539c0.0751953,0.0532227,0.1503906,0.1069336,0.2255859,0.1606445
			c0.0195313,0.0141602,0.0395508,0.0288086,0.059082,0.0424805
			C171.4359131,146.270813,168.5198975,144.6008911,165.5091553,143.2512817 M164.8895264,142.9783325
			c0.1586914,0.0688477,0.3168945,0.1381836,0.4755859,0.2084961
			C165.2078857,143.1170044,165.0472412,143.0466919,164.8895264,142.9783325 M164.7225342,142.9065552
			c0.0019531,0.0009766,0.0039063,0.0019531,0.0063477,0.0029297
			C164.7264404,142.9085083,164.7244873,142.9075317,164.7225342,142.9065552 M164.5760498,142.8445435
			c0.0380859,0.0161133,0.0761719,0.0322266,0.1142578,0.0483398
			C164.6522217,142.87677,164.6141357,142.8606567,164.5760498,142.8445435 M125.9803467,136.9934692
			c-0.2250977,0.1293945-0.4511719,0.2617188-0.675293,0.3955078l-6.7797852,9.1074219
			c0.1386719-0.019043,0.2783203-0.0307617,0.4169922-0.0488281l0.2392578-0.3198242l0.0888672-0.1206055l0,0
			L125.9803467,136.9934692"/>
		<path fill="#919395" d="M147.9500732,131.0679321c-7.6074219,0-14.9492188,1.8864746-21.9697266,5.9255371l-6.7084961,9.0131836
			c7.8447266-4.6811523,16.8120117-7.1010742,25.8369141-7.1010742c6.5961914,0,13.2236328,1.2929688,19.4672852,3.9389648
			c0.0380859,0.0161133,0.0761719,0.0322266,0.1142578,0.0483398c0.0112305,0.0048828,0.0209961,0.0087891,0.0322266,0.0136719
			c0.0019531,0.0009766,0.0039063,0.0019531,0.0063477,0.0029297c0.0537109,0.0229492,0.1069336,0.0458984,0.1606445,0.0688477
			c0.1577148,0.0683594,0.3183594,0.1386719,0.4755859,0.2084961c0.0478516,0.0214844,0.0961914,0.0429688,0.144043,0.0644531
			c3.0107422,1.3496094,5.9267578,3.0195313,8.699707,5.0151367c0.0673828,0.0488281,0.1352539,0.0976563,0.2026367,0.1469727
			c0.1484375,0.1079102,0.296875,0.2167969,0.4443359,0.3266602l6.0717773,4.5200195
			c0.0654297,0.0483398,0.1293945,0.0966797,0.1948242,0.1455078c0.0039063,0.0029297,0.0078125,0.0063477,0.012207,0.0092773
			c0.0605469,0.0458984,0.1210938,0.0913086,0.1816406,0.1376953c0.0019531,0.0014648,0.0029297,0.0019531,0.0053711,0.0039063
			c0.0625,0.0473633,0.125,0.0952148,0.1875,0.1430664c0.0029297,0.0024414,0.0053711,0.0039063,0.0083008,0.0063477
			c0.0615234,0.0473633,0.1225586,0.0942383,0.1835938,0.1416016c0.0029297,0.0024414,0.0063477,0.0048828,0.0092773,0.0073242
			c0.0615234,0.0473633,0.1206055,0.09375,0.1816406,0.1411133c0.0048828,0.0039063,0.0107422,0.0087891,0.0161133,0.0126953
			c0.0576172,0.0454102,0.1152344,0.0908203,0.1728516,0.1362305c0.0087891,0.0068359,0.0161133,0.0126953,0.0249023,0.0195313
			c0.0546875,0.043457,0.1098633,0.0869141,0.1640625,0.1303711c0.0087891,0.0073242,0.0180664,0.0146484,0.0273438,0.0219727
			c0.0541992,0.043457,0.1064453,0.0854492,0.1606445,0.1289063c0.0097656,0.0078125,0.0195313,0.0161133,0.0292969,0.0239258
			c0.0522461,0.0419922,0.1049805,0.0849609,0.1572266,0.1269531c0.0126953,0.0102539,0.0229492,0.019043,0.0356445,0.0292969
			c0.0507813,0.0415039,0.0991211,0.0810547,0.1499023,0.1225586c0.0126953,0.0107422,0.0258789,0.0214844,0.0385742,0.0322266
			c0.0488281,0.0400391,0.0976563,0.0800781,0.1464844,0.1206055c0.0141602,0.012207,0.027832,0.0234375,0.0424805,0.0351563
			c0.0473633,0.0395508,0.09375,0.0786133,0.1411133,0.1181641c0.0151367,0.0126953,0.0292969,0.0244141,0.0444336,0.0375977
			c0.0463867,0.0385742,0.0922852,0.0776367,0.1386719,0.1166992c0.0161133,0.0136719,0.03125,0.0263672,0.0473633,0.0400391
			c0.0444336,0.0375977,0.0898438,0.0766602,0.1342773,0.1142578c0.0170898,0.0146484,0.034668,0.0297852,0.0517578,0.0444336
			c0.0429688,0.0366211,0.0854492,0.0732422,0.128418,0.1103516c0.019043,0.0166016,0.0371094,0.0322266,0.0561523,0.0488281
			c0.0410156,0.0351563,0.0834961,0.0722656,0.1245117,0.1079102c0.0185547,0.0161133,0.0371094,0.0322266,0.0556641,0.0488281
			c0.0410156,0.0356445,0.081543,0.0712891,0.1220703,0.1069336c0.0219727,0.019043,0.0424805,0.0371094,0.0639648,0.0561523
			c0.0375977,0.0332031,0.0756836,0.0668945,0.1132813,0.1005859c0.0224609,0.0200195,0.0444336,0.0395508,0.0668945,0.059082
			c0.0366211,0.0327148,0.0737305,0.065918,0.1103516,0.0991211c0.0234375,0.0205078,0.046875,0.0419922,0.0703125,0.0629883
			c0.0356445,0.0317383,0.0698242,0.0629883,0.1054688,0.0952148c0.0239258,0.0214844,0.0478516,0.043457,0.0717773,0.0649414
			c0.034668,0.03125,0.0688477,0.0625,0.1030273,0.09375c0.0258789,0.0239258,0.0512695,0.0473633,0.0766602,0.0708008
			c0.0327148,0.0297852,0.0639648,0.0585938,0.0961914,0.0883789c0.0273438,0.0253906,0.0541992,0.0498047,0.081543,0.0751953
			c0.0302734,0.0283203,0.0600586,0.0556641,0.090332,0.0839844c0.0302734,0.027832,0.0581055,0.0546875,0.0883789,0.0825195
			c0.0273438,0.0258789,0.0561523,0.0522461,0.0834961,0.0786133c0.0288086,0.0268555,0.0585938,0.0551758,0.0874023,0.0825195
			c0.027832,0.0258789,0.0566406,0.0532227,0.0839844,0.0791016c0.0307617,0.0292969,0.0615234,0.0585938,0.0917969,0.0878906
			c0.0258789,0.0244141,0.0512695,0.0483398,0.0766602,0.0732422c0.0322266,0.0307617,0.0654297,0.0625,0.0976563,0.09375
			c0.0239258,0.0229492,0.0463867,0.0444336,0.0698242,0.0673828c0.0356445,0.0341797,0.0708008,0.0683594,0.1064453,0.1030273
			c0.0200195,0.0195313,0.0395508,0.0385742,0.0595703,0.0581055c0.0361328,0.0351563,0.0737305,0.0722656,0.1098633,0.1074219
			c0.019043,0.019043,0.0380859,0.0375977,0.0571289,0.0566406c0.0380859,0.0371094,0.0771484,0.0761719,0.1152344,0.1137695
			c0.0161133,0.0161133,0.0317383,0.0317383,0.0483398,0.0478516c0.0410156,0.0410156,0.081543,0.081543,0.1225586,0.1225586
			c0.0136719,0.0136719,0.0263672,0.0263672,0.0400391,0.0405273c0.0439453,0.043457,0.0864258,0.0869141,0.1298828,0.1303711
			c0.0102539,0.0107422,0.0224609,0.0229492,0.0327148,0.0332031c0.0449219,0.0454102,0.0883789,0.0898438,0.1333008,0.1357422
			c0.0102539,0.0107422,0.0180664,0.0185547,0.0283203,0.0292969c0.0473633,0.0483398,0.0942383,0.0961914,0.1411133,0.1450195
			c0.0058594,0.0058594,0.0117188,0.0117188,0.0175781,0.0175781c0.0493164,0.0512695,0.0981445,0.1020508,0.1474609,0.1533203
			c0.0043945,0.0043945,0.0078125,0.0078125,0.012207,0.012207c0.0517578,0.0541992,0.1035156,0.1083984,0.1552734,0.1625977
			l0.0004883,0.0009766c9.0214844,9.4887695,13.737793,21.9936523,13.7270508,34.6108398
			c-0.003418,3.8334961-0.4438477,7.6791992-1.331543,11.4521484l5.8486328-7.855957
			c4.2944336-25.2402344-10.4428711-47.75-24.8066406-55.9736328
			C169.411499,134.6516724,158.4310303,131.0679321,147.9500732,131.0679321"/>
		<path fill="#616264" d="M187.2884521,158.895813c11.765625,12.3764648,16.2011719,29.8847656,12.3823242,46.0805664
			l0.0131836-0.0175781c0.8876953-3.7729492,1.328125-7.6186523,1.331543-11.4521484
			C201.0262451,180.8894653,196.3099365,168.3845825,187.2884521,158.895813 M187.1326904,158.7322388
			c0.0517578,0.0541992,0.1035156,0.1083984,0.1552734,0.1625977
			C187.2362061,158.8406372,187.1844482,158.786438,187.1326904,158.7322388 M186.9730225,158.5667114
			c0.0488281,0.0507813,0.0991211,0.1025391,0.1474609,0.1533203
			C187.071167,158.6687622,187.0223389,158.617981,186.9730225,158.5667114 M186.8143311,158.4041138
			c0.046875,0.0478516,0.0947266,0.0966797,0.1411133,0.1450195
			C186.9085693,158.5003052,186.8616943,158.4524536,186.8143311,158.4041138 M186.65271,158.2390747
			c0.0444336,0.0449219,0.0893555,0.0908203,0.1333008,0.1357422
			C186.7410889,158.3289185,186.6976318,158.2844849,186.65271,158.2390747 M186.4901123,158.0755005
			c0.0439453,0.0439453,0.0864258,0.0864258,0.1298828,0.1303711
			C186.5765381,158.1624146,186.5340576,158.1189575,186.4901123,158.0755005 M186.3275146,157.9124146
			c0.0405273,0.0405273,0.0820313,0.0820313,0.1225586,0.1225586
			C186.4090576,157.9939575,186.3685303,157.9534302,186.3275146,157.9124146 M186.1639404,157.7507935
			c0.0380859,0.0375977,0.0771484,0.0756836,0.1152344,0.1137695
			C186.2410889,157.8269653,186.2020264,157.7879028,186.1639404,157.7507935 M185.9969482,157.586731
			c0.0366211,0.0356445,0.0732422,0.0717773,0.1098633,0.1074219
			C186.0706787,157.6589966,186.0330811,157.6218872,185.9969482,157.586731 M185.8309326,157.4255981
			c0.0351563,0.0336914,0.0712891,0.0688477,0.1064453,0.1030273
			C185.9017334,157.4939575,185.8665771,157.4597778,185.8309326,157.4255981 M185.6634521,157.2644653
			c0.0317383,0.0302734,0.065918,0.0629883,0.0976563,0.09375
			C185.7288818,157.3269653,185.6956787,157.2952271,185.6634521,157.2644653 M185.4949951,157.1033325
			c0.03125,0.0292969,0.0610352,0.0581055,0.0917969,0.0878906
			C185.5565186,157.1619263,185.5257568,157.1326294,185.4949951,157.1033325 M185.3236084,156.9417114
			c0.0292969,0.0273438,0.0581055,0.0546875,0.0874023,0.0825195
			C185.3822021,156.9968872,185.352417,156.9685669,185.3236084,156.9417114 M185.1517334,156.7805786
			c0.0297852,0.027832,0.0585938,0.0546875,0.0883789,0.0825195
			C185.2098389,156.8352661,185.1820068,156.8084106,185.1517334,156.7805786 M184.9798584,156.6213989
			c0.0273438,0.0249023,0.0541992,0.050293,0.081543,0.0751953
			C185.0340576,156.6712036,185.0072021,156.6467896,184.9798584,156.6213989 M184.8070068,156.4622192
			c0.0253906,0.0234375,0.0512695,0.0473633,0.0766602,0.0708008
			C184.8582764,156.5095825,184.8328857,156.486145,184.8070068,156.4622192 M184.6322021,156.3035278
			c0.0234375,0.0214844,0.0483398,0.043457,0.0717773,0.0649414
			C184.6800537,156.3469849,184.6561279,156.3250122,184.6322021,156.3035278 M184.4564209,156.1453247
			c0.0229492,0.0205078,0.0473633,0.0424805,0.0703125,0.0629883
			C184.5032959,156.1873169,184.4798584,156.1658325,184.4564209,156.1453247 M184.2791748,155.9871216
			c0.0234375,0.0205078,0.0439453,0.0385742,0.0668945,0.059082
			C184.3236084,156.0266724,184.3016357,156.0071411,184.2791748,155.9871216 M184.1019287,155.8303833
			c0.0214844,0.0185547,0.0424805,0.0375977,0.0639648,0.0561523
			C184.1444092,155.8674927,184.1239014,155.8494263,184.1019287,155.8303833 M183.9241943,155.6746216
			c0.0185547,0.0161133,0.0371094,0.0327148,0.0556641,0.0488281
			C183.9613037,155.7068481,183.942749,155.6907349,183.9241943,155.6746216 M183.7435303,155.5178833
			c0.0185547,0.0161133,0.0375977,0.0327148,0.0561523,0.0488281
			C183.7806396,155.5501099,183.7625732,155.5344849,183.7435303,155.5178833 M183.5633545,155.3630981
			c0.0175781,0.0151367,0.0336914,0.0292969,0.0517578,0.0444336
			C183.5980225,155.3928833,183.5804443,155.3777466,183.5633545,155.3630981 M183.3817139,155.2088013
			c0.0161133,0.0131836,0.03125,0.0263672,0.0473633,0.0400391
			C183.4129639,155.2351685,183.3978271,155.2224731,183.3817139,155.2088013 M183.1986084,155.0545044
			c0.0141602,0.0117188,0.0302734,0.0253906,0.0444336,0.0375977
			C183.2279053,155.0789185,183.2137451,155.0671997,183.1986084,155.0545044 M183.0150146,154.9011841
			c0.0141602,0.0117188,0.027832,0.0234375,0.0424805,0.0351563
			C183.0428467,154.9246216,183.0291748,154.9133911,183.0150146,154.9011841 M182.8299561,154.7483521
			c0.0126953,0.0102539,0.0263672,0.0219727,0.0385742,0.0322266
			C182.855835,154.7698364,182.8426514,154.7590942,182.8299561,154.7483521 M182.6444092,154.5964966
			c0.0117188,0.0097656,0.0239258,0.0200195,0.0356445,0.0292969
			C182.6673584,154.6155396,182.6571045,154.6067505,182.6444092,154.5964966 M182.4578857,154.4456177
			c0.0097656,0.0078125,0.0195313,0.0161133,0.0292969,0.0239258
			C182.477417,154.461731,182.4676514,154.4534302,182.4578857,154.4456177 M182.2698975,154.2947388
			c0.0087891,0.0073242,0.0185547,0.0146484,0.0273438,0.0219727
			C182.2879639,154.3093872,182.2786865,154.302063,182.2698975,154.2947388 M182.0809326,154.1448364
			c0.0087891,0.0068359,0.0161133,0.0126953,0.0249023,0.0195313
			C182.0970459,154.1575317,182.0897217,154.1516724,182.0809326,154.1448364 M181.8919678,153.9959106
			c0.0048828,0.0039063,0.0107422,0.0087891,0.0161133,0.0126953
			C181.90271,154.0046997,181.8968506,153.9998169,181.8919678,153.9959106 M181.7010498,153.8474731
			c0.0029297,0.0024414,0.0063477,0.0048828,0.0092773,0.0073242
			C181.7073975,153.852356,181.7039795,153.8499146,181.7010498,153.8474731 M181.5091553,153.6995239
			c0.0029297,0.0024414,0.0053711,0.0039063,0.0083008,0.0063477
			C181.5145264,153.7034302,181.512085,153.7019653,181.5091553,153.6995239 M181.3162842,153.5525513
			c0.0009766,0.0004883,0.0039063,0.0029297,0.0053711,0.0039063
			C181.3192139,153.5545044,181.3182373,153.5540161,181.3162842,153.5525513 M181.1224365,153.4055786
			c0.0039063,0.0029297,0.0078125,0.0063477,0.012207,0.0092773
			C181.130249,153.4119263,181.1263428,153.4085083,181.1224365,153.4055786 M174.1497803,148.223938
			c0.0869141,0.0629883,0.1748047,0.1259766,0.2617188,0.1894531c-0.0673828-0.0493164-0.1352539-0.0981445-0.2026367-0.1469727
			C174.1893311,148.2527466,174.1693115,148.2380981,174.1497803,148.223938 M173.9095459,148.0530396
			c0.0053711,0.0039063,0.0097656,0.0068359,0.0146484,0.0102539
			C173.9193115,148.0598755,173.914917,148.0569458,173.9095459,148.0530396 M119.1815186,146.1277466l-0.2392578,0.3198242
			c0.0004883-0.0004883,0.0014648-0.0004883,0.0024414-0.0004883L119.1815186,146.1277466"/>
		<path fill="#00B1A9" d="M248.394165,194.6126099c-0.1303711-5.4150391-0.9760742-10.6875-2.2854004-15.7597656
			c-1.3105469-5.0761719-3.0876465-9.9589844-5.1984863-14.6445313c-2.1442871-4.6689453-4.5944824-9.1601563-7.3515625-13.4238281
			c-2.7861328-4.2412109-5.791748-8.3154297-9.0664063-12.1445313c-3.2919922-3.8085938-6.7287598-7.4892578-10.4362793-10.8623123
			c-3.7058105-3.3740234-7.5722656-6.5527344-11.5722656-9.5439453
			c-8.0922852-5.8515625-16.7392578-10.9873047-25.9736328-14.9853516
			c-9.2124023-4.0224609-18.9658203-6.9814453-29.1196289-8.484375c-5.0737305-0.7626953-10.2592773-1.0712891-15.4960938-0.9121094
			c-5.2333984,0.1689453-10.5351563,0.828125-15.7724609,2.2373047c-5.2304688,1.3955078-10.3896484,3.5556641-15.1357422,6.578125
			c-4.71875,3.0722656-8.9516602,7.0654297-12.2299805,11.6992188c-3.2358398,4.6679688-5.5043945,9.9511719-6.7470703,15.318367
			c-1.1962891,5.3847656-1.4047852,10.8085938-0.9707031,16.0292969c0.890625,10.4833984,4.4580078,20.0917969,8.9912109,28.8554688
			c1.0786133,2.0805664,2.2338867,4.1074219,3.4477539,6.090332l7.7485352-10.409668
			c-0.1552734-0.324707-0.3212891-0.6455078-0.472168-0.9716797c-1.8354492-3.9277344-3.2822266-7.9941406-4.3461914-12.0849609
			c-1.0561523-4.0898438-1.7080078-8.2265625-1.7783203-12.2666016c-0.0854492-4.0380859,0.4165039-7.96875,1.4868164-11.5917969
			c1.1318359-3.6015625,2.8579102-6.8642654,5.1166992-9.6826248c2.3154297-2.7773438,5.1220703-5.0634766,8.3149414-6.8408203
			c3.2304688-1.7333984,6.8291016-2.9394531,10.6176758-3.703125c7.6040039-1.5439453,15.9140625-1.0478516,24.0371094,0.5351563
			c8.1625977,1.5722656,16.1914063,4.4716797,23.8535156,8.1494141c7.6826172,3.65625,14.984375,8.2119217,21.8256836,13.3720779
			c3.4208984,2.5830078,6.7177734,5.3183594,9.8632813,8.2041016c3.1650391,2.8662109,6.1816406,5.8779297,9.012207,9.0390625
			c5.6948242,6.2822266,10.770752,13.1044922,14.7194824,20.4013672c3.9597168,7.2578125,6.8566895,15.0693359,7.6320801,22.8027344
			c0.3737793,3.8554688,0.2519531,7.6640625-0.5026855,11.2617188c-0.8173828,3.5722656-2.2331543,6.9091797-4.253418,9.90625
			c-2.0756836,2.9550781-4.7214355,5.5166016-7.8535156,7.6035156c-3.1630859,2.0429688-6.7700195,3.6484375-10.6516113,4.7412109
			c-7.7792969,2.2216797-16.4902344,2.4345703-25.0878906,1.3525391c-0.5048828-0.0683594-1.0102539-0.1547852-1.5151367-0.230957
			l-7.4799805,10.0493164c2.3222656,0.6381836,4.6728516,1.2041016,7.0532227,1.6855469
			c4.8393555,0.9951172,9.8012695,1.6347656,14.8579102,1.7910156c5.0522461,0.1503906,10.2109375-0.1582031,15.3601074-1.2285156
			c5.137207-1.0664063,10.2883301-2.828125,15.1020508-5.5410156c4.7792969-2.7617188,9.1730957-6.4785156,12.6914063-10.9355469
			c3.473877-4.4882813,6.0529785-9.6972656,7.6101074-15.0957031
			C247.9515381,205.5628052,248.5396729,200.0169067,248.394165,194.6126099z"/>
	</g>
</g>
<g id="Layer_2">
</g>
<g id="Layer_3">
</g>
</svg>
