<?xml version="1.0" encoding="utf-8"?>
<!-- Generator: Adobe Illustrator 23.0.6, SVG Export Plug-In . SVG Version: 6.00 Build 0)  -->
<svg version="1.0" xmlns="http://www.w3.org/2000/svg" xmlns:xlink="http://www.w3.org/1999/xlink" x="0px" y="0px"
	 viewBox="0 0 1176.5201416 909.7285767" enable-background="new 0 0 1176.5201416 909.7285767" xml:space="preserve">
<g id="Layer_1">
</g>
<g id="Layer_2">
</g>
<g id="Layer_3">
	<g>
		<g>
			
				<linearGradient id="SVGID_5_" gradientUnits="userSpaceOnUse" x1="-24.5893211" y1="642.387207" x2="449.3360901" y2="735.8051758">
				<stop  offset="0" style="stop-color:#00B1A9"/>
				<stop  offset="0.9999988" style="stop-color:#00888F"/>
			</linearGradient>
			<path fill="url(#SVGID_5_)" d="M666.8129883,797.8708496c0,6.6950073-5.4273682,12.1223755-12.1223755,12.1223755H327.1655579
				H12.1447229c-10.059021,0-15.7417431-11.5444336-9.6066742-19.5159302l53.9758492-70.1326294
				c3.3543015-4.3583984,3.3543015-10.4287109,0-14.7871094L2.5380483,635.4249268
				c-6.1350679-7.9714966-0.4523468-19.5159302,9.6066742-19.5159302h315.0208435h327.5250549
				c6.6950073,0,12.1223755,5.4273682,12.1223755,12.1223755v84.9197388V797.8708496z"/>
			<g>
				<defs>
					<path id="SVGID_4_" d="M666.8129883,797.8708496c0,6.6950073-5.4273682,12.1223755-12.1223755,12.1223755H327.1655579
						H12.1447229c-10.059021,0-15.7417431-11.5444336-9.6066742-19.5159302l53.9758492-70.1326294
						c3.3543015-4.3583984,3.3543015-10.4287109,0-14.7871094L2.5380483,635.4249268
						c-6.1350679-7.9714966-0.4523468-19.5159302,9.6066742-19.5159302h315.0208435h327.5250549
						c6.6950073,0,12.1223755,5.4273682,12.1223755,12.1223755v84.9197388V797.8708496z"/>
				</defs>
				<clipPath id="SVGID_6_">
					<use xlink:href="#SVGID_4_"  overflow="visible"/>
				</clipPath>
				<path clip-path="url(#SVGID_6_)" fill="#98E2D6" d="M842.3570557,797.7383423h-996.7416992V627.1123657h996.7416992V797.7383423
					z M-149.3846436,792.7383423h986.7416992V632.1123657h-986.7416992V792.7383423z"/>
			</g>
		</g>
		<g>
			
				<linearGradient id="SVGID_7_" gradientUnits="userSpaceOnUse" x1="4385.3208008" y1="642.387207" x2="4859.2460938" y2="735.8051758" gradientTransform="matrix(-1 0 0 1 5586.4301758 0)">
				<stop  offset="0" style="stop-color:#00B1A9"/>
				<stop  offset="0.9999988" style="stop-color:#00888F"/>
			</linearGradient>
			<path fill="url(#SVGID_7_)" d="M509.7070618,797.8708496c0,6.6950073,5.4273987,12.1223755,12.122406,12.1223755h327.5250854
				h315.020813c10.059082,0,15.7416992-11.5444336,9.6066895-19.5159302l-53.9758301-70.1326294
				c-3.3543701-4.3583984-3.3543701-10.4287109,0-14.7871094l53.9758301-70.1326294
				c6.1350098-7.9714966,0.4523926-19.5159302-9.6066895-19.5159302h-315.020813H521.8294678
				c-6.6950073,0-12.122406,5.4273682-12.122406,12.1223755v84.9197388V797.8708496z"/>
			<g>
				<defs>
					<path id="SVGID_2_" d="M509.7070618,797.8708496c0,6.6950073,5.4273987,12.1223755,12.122406,12.1223755h327.5250854
						h315.020813c10.059082,0,15.7416992-11.5444336,9.6066895-19.5159302l-53.9758301-70.1326294
						c-3.3543701-4.3583984-3.3543701-10.4287109,0-14.7871094l53.9758301-70.1326294
						c6.1350098-7.9714966,0.4523926-19.5159302-9.6066895-19.5159302h-315.020813H521.8294678
						c-6.6950073,0-12.122406,5.4273682-12.122406,12.1223755v84.9197388V797.8708496z"/>
				</defs>
				<clipPath id="SVGID_8_">
					<use xlink:href="#SVGID_2_"  overflow="visible"/>
				</clipPath>
				<path clip-path="url(#SVGID_8_)" fill="#98E2D6" d="M1330.9049072,797.7383423H334.1627197V627.1123657h996.7421875V797.7383423
					z M339.1627197,792.7383423h986.7421875V632.1123657H339.1627197V792.7383423z"/>
			</g>
		</g>
		<polygon fill="#007C7C" points="115.3880997,741.6376343 379.9957581,791.9188843 264.3730469,668.0802612 		"/>
		<polygon fill="#007C7C" points="1054.5118408,741.6376343 789.9042358,791.9188843 905.5269165,668.0802612 		"/>
		<g>
			<path fill="#FFFFFF" d="M551.0391235,860.3485107C362.1733093,750.0219727,319.3867798,690.2335815,319.3867798,690.2335815
				c-7.4134216-4.3786621-11.9620667-12.3480835-11.9620667-20.9580078V129.8410645
				c0-11.1092987,7.5219116-20.8089905,18.2814636-23.5744705l254.8631592-65.50634
				c3.9748535-1.0216522,8.1435547-1.0216522,12.1184692,0l254.8630981,65.50634
				c10.7595825,2.76548,18.2814941,12.4651718,18.2814941,23.5744705v539.4345093
				c0,8.6099243-4.548645,16.5793457-11.9620972,20.9580078c0,0-42.786499,59.7883911-231.6522827,170.1149292
				C600.8630981,872.822998,572.3939819,872.822998,551.0391235,860.3485107z"/>
			<path fill="#414042" d="M586.62854,909.7285767c-19.4140625,0-38.8271484-4.9467773-55.7646484-14.840332l-0.0009766-0.0009766
				C366.5865479,798.9248657,307.9107666,738.788147,291.6685791,719.5845337
				c-15.1342773-12.0991211-24.2436523-30.6694336-24.2436523-50.309082V129.8408813
				c0-29.3769531,19.871582-55.0019531,48.3237305-62.3149414L570.6119385,2.0195923
				c10.4785156-2.6928711,21.5537109-2.6923828,32.0302734-0.0009766l254.8662109,65.5073242
				c28.453125,7.3139648,48.3242188,32.9384766,48.3242188,62.3149414v539.4345703
				c0,19.640625-9.1083984,38.2104492-24.2441406,50.3095703c-16.2421875,19.203125-74.9179688,79.3398438-239.1943359,175.3022461
				C625.4556885,904.781311,606.041626,909.7285767,586.62854,909.7285767z M571.2144775,825.8101196
				c8.9326172,5.2163086,21.8984375,5.2158203,30.8291016-0.0004883
				c168.8398438-98.6289063,216.0410156-154.8598633,219.4707031-159.1123047l4.3183594-6.4536133V141.984436L586.62854,80.5029907
				L347.4249268,141.984436v518.3530273l0.1425781,0.0839844l4.1811523,6.2827148
				c3.4780273,4.3095703,50.7211914,60.5327148,219.4658203,159.1054688V825.8101196z M351.9156494,666.9551392c0,0,0,0,0-0.0004883
				V666.9551392z M821.3433838,666.9536743c-0.0009766,0.0009766-0.0009766,0.0009766-0.0009766,0.0009766L821.3433838,666.9536743z
				"/>
		</g>
		<g>
			<path fill="#414042" d="M551.0391235,860.3485107C362.1733093,750.0219727,319.3867798,690.2335815,319.3867798,690.2335815
				c-7.4134216-4.3786621-11.9620667-12.3480835-11.9620667-20.9580078V129.8410645
				c0-11.1092987,7.5219116-20.8089905,18.2814636-23.5744705l254.8631592-65.50634
				c3.9748535-1.0216522,8.1435547-1.0216522,12.1184692,0l254.8630981,65.50634
				c10.7595825,2.76548,18.2814941,12.4651718,18.2814941,23.5744705v539.4345093
				c0,8.6099243-4.548645,16.5793457-11.9620972,20.9580078c0,0-42.786499,59.7883911-231.6522827,170.1149292
				C600.8630981,872.822998,572.3939819,872.822998,551.0391235,860.3485107z"/>
			<path fill="#FFFFFF" d="M586.62854,879.6309204c-14.2412109,0-28.4814453-3.5493164-40.6337891-10.6474609l0,0
				C372.2857666,767.5103149,320.9317627,708.3599243,312.5201416,697.7158813
				c-9.3608398-6.3447266-15.0952148-17.0551758-15.0952148-28.4404297V129.8408813
				c0-15.6791992,10.605957-29.355957,25.7919922-33.2592773l254.862793-65.5063477
				c5.59375-1.4375,11.5048828-1.4370117,17.0966797-0.0004883L850.0406494,96.581604
				c15.1865234,3.9033203,25.7919922,17.5800781,25.7919922,33.2592773v539.4345703
				c0,11.3847656-5.734375,22.0957031-15.0957031,28.4404297c-8.4160156,10.6499023-59.7773438,69.8012695-233.4746094,171.2675781
				C615.1099854,876.081604,600.8687744,879.6309204,586.62854,879.6309204z M556.0826416,851.7139282
				c18.2695313,10.671875,42.8222656,10.671875,61.0917969,0
				c183.6337891-107.2705078,228.1601563-166.7456055,228.5878906-167.3334961l1.2177734-1.6723633l1.8046875-1.0849609
				c4.3476563-2.5673828,7.0478516-7.2988281,7.0478516-12.3476563V129.8408813
				c0-6.5473633-4.4287109-12.2587891-10.7705078-13.8891602L590.1988525,50.4453735
				c-2.3359375-0.5996094-4.8037109-0.6000977-7.1416016,0.0004883l-254.8618164,65.5058594
				c-6.3413086,1.6298828-10.7705078,7.3413086-10.7705078,13.8891602v539.4345703
				c0,5.0488281,2.7001953,9.7802734,7.0473633,12.3476563l1.8178711,1.0737305l1.2290039,1.7167969
				C327.9229736,684.9683228,372.4493408,744.4434204,556.0826416,851.7139282L556.0826416,851.7139282z"/>
		</g>
		<g>
			<path fill="#FFFFFF" d="M389.3814697,353.0889282l36.5996094-36.6005859c15.0009766,15.2998047,30.9003906,24,50.1005859,24
				c16.5009766,0,27.0009766-8.3999023,27.0009766-21.2998047v-0.6005859c0-13.5-12.3007813-21.5996094-34.2011719-21.5996094
				h-24.5996094l-8.4003906-30.3007813l48.3007813-43.5h-80.4013672v-47.1005859h151.8017578v41.7001953l-50.1005859,42.9003906
				c30.0009766,6.6000977,54.3007813,23.4003906,54.3007813,59.1005859v0.6000977
				c0,42.6000977-34.2001953,69.9008789-81.0009766,69.9008789
				C438.2818604,390.2891235,409.7808838,375.5889282,389.3814697,353.0889282z"/>
			<path fill="#FFFFFF" d="M582.5767822,281.687561v-0.5996094c0-59.4003906,37.8007813-109.2011719,97.5009766-109.2011719
				c59.7011719,0,96.9013672,49.2001953,96.9013672,108.6010742v0.6000977c0,59.4003906-37.5,109.2011719-97.5009766,109.2011719
				S582.5767822,341.0884399,582.5767822,281.687561z M718.4781494,281.687561v-0.5996094
				c0-33.3007813-15.8994141-57.6005859-39-57.6005859s-38.4003906,23.4003906-38.4003906,57.0004883v0.6000977
				c0,33.6005859,15.6005859,57.6005859,39,57.6005859C703.4781494,338.6885376,718.4781494,314.9883423,718.4781494,281.687561z"/>
		</g>
		<g>
			<path fill="#FFFFFF" d="M403.5074463,411.1416626h37.7998047c35,0,55.2998047,20.1601563,55.2998047,48.4394531v0.2802734
				c0,28.2797852-20.5800781,49.2797852-55.859375,49.2797852h-37.2402344V411.1416626z M441.7271729,485.0610962
				c16.2402344,0,27.0205078-8.9594727,27.0205078-24.7797852v-0.2802734c0-15.6796875-10.7802734-24.7792969-27.0205078-24.7792969
				h-11.0595703v49.8393555H441.7271729z"/>
			<path fill="#FFFFFF" d="M537.4888916,410.4414673h26.1796875l41.7207031,98.699707H576.269165l-7.140625-17.5h-37.7998047
				l-7,17.5H495.769165L537.4888916,410.4414673z M561.2886963,470.5010376l-10.9199219-27.859375l-11.0595703,27.859375
				H561.2886963z"/>
			<path fill="#FFFFFF" d="M627.7906494,472.4609985l-37.2402344-61.3193359h30.9404297l20.1591797,35.699707l20.3007813-35.699707
				h30.3798828l-37.2402344,60.8994141v37.1000977h-27.2998047V472.4609985z"/>
			<path fill="#FFFFFF" d="M688.4107666,494.5811157l15.1201172-18.0595703
				c9.6601563,7.699707,20.4404297,11.7597656,31.7802734,11.7597656c7.2792969,0,11.1992188-2.5200195,11.1992188-6.7202148
				v-0.2797852c0-4.0600586-3.2197266-6.2998047-16.5195313-9.3798828
				c-20.8603516-4.7597656-36.9599609-10.6401367-36.9599609-30.7998047v-0.2802734
				c0-18.199707,14.4199219-31.3598633,37.9394531-31.3598633c16.6601563,0,29.6806641,4.4799805,40.3203125,13.0200195
				l-13.5800781,19.1796875c-8.9599609-6.2998047-18.7597656-9.659668-27.4394531-9.659668
				c-6.5800781,0-9.7998047,2.800293-9.7998047,6.300293v0.2797852c0,4.4799805,3.359375,6.4399414,16.9394531,9.5200195
				c22.5400391,4.8999023,36.5400391,12.1796875,36.5400391,30.5195313v0.2802734
				c0,20.0200195-15.8203125,31.9199219-39.6201172,31.9199219
				C716.9713135,510.8213501,700.4508057,505.3613892,688.4107666,494.5811157z"/>
		</g>
		<g>
			<path fill="#00B1A9" d="M1063.6196289,740.9866943H102.4583435c-5.4515839,0-9.8709717-4.4194336-9.8709717-9.8709717
				V551.7990112c0-5.4515381,4.4193878-9.8709717,9.8709717-9.8709717h961.1612549
				c5.4515381,0,9.8709717,4.4194336,9.8709717,9.8709717v179.3167114
				C1073.4906006,736.5672607,1069.071167,740.9866943,1063.6196289,740.9866943z"/>
			<g>
				<path fill="#FFFFFF" d="M152.3238525,599.2251587h25.4033203l20.6943359,33.581543l20.6933594-33.581543h25.4033203v86.7416992
					h-23.9160156v-49.8144531l-22.1806641,33.953125h-0.4960938l-22.0576172-33.7055664v49.5668945h-23.5439453V599.2251587z"/>
				<path fill="#FFFFFF" d="M256.9049072,642.843811v-0.2475586c0-24.9072266,20.0742188-45.105957,46.8398438-45.105957
					c26.7666016,0,46.5927734,19.9506836,46.5927734,44.8579102v0.2480469
					c0,24.9072266-20.0742188,45.1054688-46.8398438,45.1054688
					C276.7310791,687.7017212,256.9049072,667.7510376,256.9049072,642.843811z M325.8023682,642.843811v-0.2475586
					c0-12.515625-9.0458984-23.4204102-22.3046875-23.4204102c-13.1357422,0-21.9335938,10.6567383-21.9335938,23.1723633v0.2480469
					c0,12.5151367,9.0458984,23.4199219,22.1806641,23.4199219
					C317.0045166,666.0161743,325.8023682,655.359436,325.8023682,642.843811z"/>
				<path fill="#FFFFFF" d="M362.8482666,599.2251587h22.4287109l35.6884766,45.8491211v-45.8491211h23.7919922v86.7416992
					h-21.0654297l-37.0517578-47.5839844v47.5839844h-23.7919922V599.2251587z"/>
				<path fill="#FFFFFF" d="M460.1177979,599.2251587h69.765625v20.4462891H483.90979v13.1352539h41.6357422v18.9589844H483.90979
					v13.7548828h46.5927734v20.4462891h-70.3847656V599.2251587z"/>
				<path fill="#FFFFFF" d="M567.7974854,653.5005493l-32.9619141-54.2753906h27.3857422l17.84375,31.5986328l17.9677734-31.5986328
					h26.890625l-32.9619141,53.9038086v32.8378906h-24.1640625V653.5005493z"/>
				<path fill="#FFFFFF" d="M666.675415,599.2251587h44.4863281c10.9042969,0,18.5878906,2.7260742,23.6679688,7.8066406
					c3.4697266,3.4697266,5.5761719,8.0546875,5.5761719,14.0029297v0.2475586
					c0,10.0371094-5.7001953,15.9853516-13.3828125,19.3310547c10.5332031,3.4697266,17.2246094,9.4174805,17.2246094,21.1899414
					v0.2475586c0,14.8701172-12.1445313,23.9160156-32.8378906,23.9160156h-44.734375V599.2251587z M705.213501,633.7979126
					c7.3115234,0,11.4003906-2.4785156,11.4003906-7.559082v-0.2475586c0-4.7089844-3.7177734-7.4350586-10.9042969-7.4350586
					h-15.6132813v15.2416992H705.213501z M708.6832275,666.6358032c7.3115234,0,11.5244141-2.8500977,11.5244141-7.9306641
					v-0.2475586c0-4.7089844-3.7177734-7.8071289-11.7724609-7.8071289h-18.3388672v15.9853516H708.6832275z"/>
				<path fill="#FFFFFF" d="M785.260376,598.6055298h23.171875l36.9277344,87.3613281h-25.7753906l-6.3193359-15.4897461
					h-33.4570313l-6.1962891,15.4897461h-25.2792969L785.260376,598.6055298z M806.3258057,651.765686l-9.6650391-24.6591797
					l-9.7900391,24.6591797H806.3258057z"/>
				<path fill="#FFFFFF" d="M845.2320557,642.843811v-0.2475586c0-25.2792969,19.4550781-45.105957,45.7246094-45.105957
					c17.7207031,0,29.1210938,7.4350586,36.8037109,18.0917969l-18.0917969,14.0029297
					c-4.9570313-6.1962891-10.6572266-10.1616211-18.9589844-10.1616211c-12.1445313,0-20.6943359,10.2851563-20.6943359,22.9248047
					v0.2480469c0,13.0112305,8.5498047,23.1723633,20.6943359,23.1723633c9.0458984,0,14.3740234-4.2133789,19.578125-10.5332031
					l18.0917969,12.887207c-8.1777344,11.2768555-19.2070313,19.5791016-38.4140625,19.5791016
					C865.182251,687.7017212,845.2320557,668.7422485,845.2320557,642.843811z"/>
				<path fill="#FFFFFF" d="M938.6607666,599.2251587h24.0400391v35.1923828l29.8642578-35.1923828h28.5l-32.8378906,37.2988281
					l33.953125,49.4428711h-28.8720703l-21.8095703-32.2182617l-8.7978516,9.7895508v22.4287109h-24.0400391V599.2251587z"/>
			</g>
			<g>
				<defs>
					<path id="SVGID_61_" d="M1063.6196289,740.9866943H102.4583435c-5.4515839,0-9.8709717-4.4194336-9.8709717-9.8709717
						V551.7990112c0-5.4515381,4.4193878-9.8709717,9.8709717-9.8709717h961.1612549
						c5.4515381,0,9.8709717,4.4194336,9.8709717,9.8709717v179.3167114
						C1073.4906006,736.5672607,1069.071167,740.9866943,1063.6196289,740.9866943z"/>
				</defs>
				<clipPath id="SVGID_9_">
					<use xlink:href="#SVGID_61_"  overflow="visible"/>
				</clipPath>
				<path clip-path="url(#SVGID_9_)" fill="#CCFFFA" d="M1107.1685791,728.2710571H78.0958252V552.2456665h1029.0727539V728.2710571
					z M83.0958252,723.2710571h1019.0727539V557.2456665H83.0958252V723.2710571z"/>
			</g>
		</g>
	</g>
</g>
</svg>
