<?xml version="1.0" encoding="utf-8"?>
<!-- Generator: Adobe Illustrator 23.0.6, SVG Export Plug-In . SVG Version: 6.00 Build 0)  -->
<svg version="1.0" id="Layer_1" xmlns="http://www.w3.org/2000/svg" xmlns:xlink="http://www.w3.org/1999/xlink" x="0px" y="0px"
	 viewBox="0 0 539.2662354 557.232605" enable-background="new 0 0 539.2662354 557.232605" xml:space="preserve">
<g>
	<path fill="none" d="M20.0972881,53.3727417c-0.0668945-0.2392578-0.137207-0.4790039-0.1962891-0.7172852
		C19.9600811,52.8937378,20.0299053,53.1334839,20.0972881,53.3727417z"/>
	<path fill="none" d="M19.782835,52.1300659c-0.0498047-0.222168-0.1025391-0.4445801-0.1455078-0.6652832
		C19.6802959,51.6854858,19.7330303,51.9078979,19.782835,52.1300659z"/>
	<path fill="none" d="M20.2315655,53.855896c0.1210938,0.4003906,0.253418,0.8022461,0.3974609,1.2053223
		C20.4844952,54.6581421,20.3526592,54.2562866,20.2315655,53.855896z"/>
	<path fill="#848484" d="M474.4483643,464.4752808c-0.0996094,0.0874023-0.2055664,0.168457-0.3100586,0.2507324
		c-0.0493164,0.0390625-0.0957031,0.0812988-0.1459961,0.1191406c0.0756836-0.0568848,0.1591797-0.1057129,0.2324219-0.1652832
		C474.303833,464.6161499,474.3721924,464.5419312,474.4483643,464.4752808z"/>
	<path fill="#848484" d="M471.7740479,466.0038452c-0.3051758,0.1015625-0.6235352,0.1850586-0.9511719,0.2539063
		C471.151001,466.1891479,471.4683838,466.1051636,471.7740479,466.0038452z"/>
	<path fill="#848484" d="M473.1602783,465.3817749c-0.0141602,0.0078125-0.0268555,0.0166016-0.0405273,0.0241699
		c0.1791992-0.0991211,0.3554688-0.201416,0.5239258-0.3132324
		C473.4884033,465.1957397,473.3248291,465.2892456,473.1602783,465.3817749z"/>
	<path fill="#848484" d="M472.2452393,465.8165894c-0.0400391,0.0161133-0.0786133,0.034668-0.1186523,0.050293
		c0.2119141-0.081543,0.4228516-0.1647949,0.6230469-0.2617188
		C472.5875244,465.6835327,472.4151611,465.74823,472.2452393,465.8165894z"/>
	<polygon fill="#AFAFAF" points="214.0308838,516.7130737 214.0318604,516.7130737 253.178833,509.0221558 214.0308838,516.7130737 
			"/>
	<path fill="#B2B2B2" d="M183.5001221,510.3827515c0.8457031,2.3640137,1.9575195,4.6037598,3.2880859,6.689209
		c-1.3305664-2.0854492-2.4423828-4.3254395-3.2880859-6.6896973l-0.0004883,0.0004883H183.5001221z"/>
	<path fill="#FFFFFF" d="M474.8804932,454.1452026L427.5172119,336.510437l-18.2827148-45.4074707
		c-11.0791016-2.7512207-21.4682617-7.2663574-30.8481445-13.2351074
		c-23.5444336-14.9819336-40.7363281-39.0944824-46.5439453-67.315918
		c-1.4067383-6.8337402-2.1459961-13.9082031-2.1459961-21.1518555c0-8.8564453,1.1088867-17.4580078,3.1875-25.6777344
		c2.7304688-10.7988281,7.1425781-20.9338379,12.9389648-30.1125488L303.3443604,28.1071148l-0.3466797-0.8623047
		c-0.4516602-1.1210938-1.1166992-2.1914063-1.9775391-3.1806641c-0.8427734-0.9692383-1.831543-1.8168945-2.9394531-2.5195313
		c-1.1049805-0.7016602-2.269043-1.2216797-3.4599609-1.546875c-1.2050781-0.3295898-2.3823242-0.4404297-3.4970703-0.3320313
		l-1.3203125,0.1293945l-62.9570313,6.1699219l1.8681641,4.7817383c0.9306641,2.3833027,1.3505859,4.7607441,1.2475586,7.0664082
		c-0.1010742,2.2695313-0.699707,4.3676758-1.7797852,6.2368164c-0.4570313,0.791748-1.0058594,1.5100098-1.6113281,2.1796875
		c-0.8305664,0.9189453-1.78125,1.7338867-2.8769531,2.4082031c-0.2524414,0.1552734-0.5244141,0.28125-0.7871094,0.4206543
		c-0.0004883,0.0002441-0.0004883,0.0002441-0.0004883,0.0002441s0,0-0.0004883,0
		c-0.0263672,0.0141602-0.0527344,0.0288086-0.0795898,0.0429688c-0.0991211,0.0515137-0.1943359,0.1079102-0.2944336,0.1572266
		c-0.0004883,0-0.0004883,0.0002441-0.0004883,0.0002441c-1.6577148,0.8181152-3.4985352,1.3513184-5.5097656,1.5583496
		l-1.2856445,0.1320801l-2.2509766,0.2314453l-3.6054688,0.3706055l-69.8486328,7.1794434
		c-0.3891602,0.0395508-0.7841797,0.0466309-1.1777344,0.0634766c-2.159668,0.0927734-4.3779297-0.1362305-6.6201172-0.7280273
		c-2.5390625-0.6694336-4.9995117-1.7460938-7.3120117-3.199707c-2.3125-1.4550781-4.3579102-3.2114258-6.0800781-5.2197266
		c-1.5444336-1.8012695-2.7495117-3.746582-3.6342773-5.7841797c-0.1445313-0.333252-0.3012695-0.6630859-0.4277344-1.0014648
		l-2.1279297-5.7060547l-0.0219727,0.0021973l-69.9785156,6.8566895c-0.4038086,0.0400391-0.7875977,0.1120605-1.1625977,0.1987305
		c-0.7578125,0.1750488-1.4604492,0.4365234-2.0859375,0.7988281c-0.8769531,0.5068359-1.5834961,1.1748047-2.1010742,1.9853516
		c-0.5180664,0.8105469-0.824707,1.7290039-0.9121094,2.7304688c-0.0727539,0.8269043,0.0107422,1.685791,0.2402344,2.5617676
		c0.0678711,0.2592773,0.1455078,0.5195313,0.2397461,0.7814941l4.3671875,12.1306152l159.0292969,441.6940918
		c0.4980469,1.3813477,1.2431641,2.6723633,2.2158203,3.8374023c0.9458008,1.1318359,2.0625,2.0966797,3.3193359,2.8671875
		c1.2470703,0.765625,2.5673828,1.2988281,3.9238281,1.5849609c1.3789063,0.2900391,2.730957,0.3081055,4.0175781,0.0561523
		l240.4399414-47.2353516l8.5375977-1.6772461l7.7080078-1.5141602c1.0927734-0.215332,2.0527344-0.6523438,2.8535156-1.300293
		c0.7695313-0.621582,1.3691406-1.4160156,1.78125-2.3618164c0.4238281-0.9702148,0.6308594-2.0527344,0.6162109-3.2172852
		c-0.0136719-1.0568848-0.222168-2.140625-0.5986328-3.2280273
		C475.0147705,454.5197144,474.9556885,454.3327026,474.8804932,454.1452026z M148.7716064,195.7711792
		c-1.5258789-1.7983398-2.753418-3.8330078-3.5644531-6.0302734c-0.8100586-2.1945801-1.1269531-4.3425293-1.0063477-6.3459473
		c0.1201172-2.0026855,0.6767578-3.8608398,1.612793-5.4797363c0.9355469-1.6179199,2.2504883-2.9963379,3.8886719-4.0400391
		c1.6362305-1.0422363,3.5952148-1.751709,5.8217773-2.0314941l127.8623047-16.0881348
		c2.112793-0.265625,4.2929688-0.0905762,6.4257813,0.4545898c1.5986328,0.4082031,3.1713867,1.0244141,4.6699219,1.8178711
		c0.4995117,0.2644043,0.9907227,0.5483398,1.472168,0.8510742c1.9248047,1.2116699,3.690918,2.7202148,5.184082,4.4545898
		c1.4936523,1.7353516,2.7143555,3.6984863,3.5493164,5.8168945c0.4243164,1.0754395,0.7260742,2.138916,0.9169922,3.1794434
		c0.0068359,0.0378418,0.0083008,0.0742188,0.0151367,0.1120605c0.0795898,0.4521484,0.1435547,0.9013672,0.1806641,1.34375
		c0.0112305,0.1342773,0.0068359,0.2641602,0.0146484,0.3974609c0.0180664,0.3225098,0.0327148,0.644043,0.0283203,0.9597168
		c0,0.0256348,0.0029297,0.0522461,0.0024414,0.0778809c-0.0004883,0.0224609,0.0024414,0.0458984,0.0019531,0.0683594
		c-0.0039063,0.1616211-0.027832,0.3161621-0.0375977,0.4758301c-0.015625,0.2575684-0.0302734,0.5151367-0.0605469,0.7670898
		c-0.0029297,0.0268555-0.0029297,0.0551758-0.0063477,0.0820313c-0.0239258,0.190918-0.0639648,0.3747559-0.0966797,0.5622559
		c-0.0375977,0.2172852-0.0761719,0.4345703-0.125,0.6469727c-0.0092773,0.0410156-0.0141602,0.0839844-0.0239258,0.125
		c-0.0463867,0.1918945-0.105957,0.376709-0.1611328,0.564209c-0.0703125,0.2370605-0.1391602,0.473877-0.2231445,0.7038574
		c-0.0693359,0.1899414-0.1499023,0.3725586-0.2290039,0.5571289c-0.0146484,0.0339355-0.0307617,0.0668945-0.0454102,0.1005859
		c-0.0791016,0.1804199-0.1557617,0.3623047-0.2436523,0.5375977c-0.0332031,0.0654297-0.0571289,0.1362305-0.0913086,0.2011719
		c-0.0600586,0.1137695-0.1362305,0.2172852-0.2006836,0.3286133c-0.0664063,0.1162109-0.1376953,0.2290039-0.2084961,0.3422852
		c-0.0522461,0.083252-0.0991211,0.1696777-0.1533203,0.2514648c-0.1108398,0.166748-0.2280273,0.3278809-0.3481445,0.4880371
		c-0.0131836,0.0178223-0.027832,0.0344238-0.0410156,0.0522461c-0.7202148,0.9516602-1.5854492,1.7961426-2.6098633,2.4833984
		c-1.5253906,1.0241699-3.371582,1.7229004-5.4892578,2.003418l-1.3154297,0.1743164l-126.8378906,16.7946777
		c-2.2314453,0.2958984-4.5244141,0.1318359-6.7602539-0.4179688c-2.237793-0.5498047-4.4160156-1.486084-6.4179688-2.734375
		C152.1207275,199.1305542,150.2969971,197.5702515,148.7716064,195.7711792z M179.0767822,267.7731323
		c-1.0146484-0.2441406-2.0048828-0.6655273-2.9155273-1.2324219c-0.9106445-0.5666504-1.7416992-1.2768555-2.4375-2.0976563
		c-0.6958008-0.8205566-1.2573242-1.7504883-1.6279297-2.7548828l-11.7260742-31.7648926
		c-0.3671875-0.9953613-0.5117188-1.973877-0.4594727-2.8896484c0.0532227-0.9155273,0.3027344-1.7685547,0.7250977-2.5146484
		c0.4213867-0.7453613,1.0146484-1.3830566,1.7529297-1.8688965c0.7387695-0.4853516,1.6230469-0.8188477,2.628418-0.9550781
		l146.0922852-19.8630371c0.2368164-0.0324707,0.4760742-0.052002,0.7163086-0.0593262
		c0.7202148-0.0224609,1.4521484,0.0644531,2.1733398,0.246582c0.9624023,0.2421875,1.9057617,0.6538086,2.777832,1.2019043
		c0.8720703,0.5478516,1.6743164,1.2312012,2.3520508,2.0187988c0.6777344,0.786377,1.2324219,1.677002,1.6113281,2.6374512
		v0.0004883l4.3256836,10.9729004l7.7563477,19.675293l0.0004883,0.0004883
		c0.0029297,0.0083008,0.0048828,0.0166016,0.0083008,0.0249023c0.0791016,0.2033691,0.1396484,0.4047852,0.2001953,0.6062012
		c0.0180664,0.0620117,0.0444336,0.1247559,0.0610352,0.1865234c0.0136719,0.0488281,0.0239258,0.0969238,0.034668,0.1452637
		c0.0092773,0.0390625,0.019043,0.0786133,0.0283203,0.1179199c0.0009766,0.003418,0.0014648,0.0065918,0.0024414,0.0100098
		c0.0429688,0.1813965,0.0805664,0.361084,0.1088867,0.5397949c0.015625,0.0981445,0.0288086,0.1958008,0.0400391,0.2929688
		c0.0107422,0.0927734,0.0141602,0.1838379,0.0209961,0.2756348c0.0058594,0.0830078,0.015625,0.1669922,0.0185547,0.2492676
		c0.003418,0.0881348,0.0092773,0.1767578,0.0087891,0.263916c0,0.0349121,0.0043945,0.0708008,0.003418,0.1054688
		c-0.003418,0.1704102-0.0195313,0.3364258-0.0366211,0.5024414c-0.0048828,0.0476074-0.0043945,0.097168-0.0107422,0.1445313
		c-0.0185547,0.1472168-0.0493164,0.2895508-0.078125,0.432373c-0.0146484,0.0710449-0.0229492,0.1450195-0.0400391,0.2150879
		c-0.0048828,0.0200195-0.0131836,0.0385742-0.0180664,0.0583496c-0.0180664,0.0715332-0.0429688,0.1396484-0.0639648,0.2099609
		c-0.012207,0.0412598-0.0244141,0.0830078-0.0375977,0.1237793c-0.0224609,0.0688477-0.0385742,0.140625-0.0634766,0.2080078
		c-0.0175781,0.0478516-0.0419922,0.0922852-0.0610352,0.1396484c-0.03125,0.0776367-0.0654297,0.1533203-0.1000977,0.2290039
		c-0.0229492,0.0500488-0.0419922,0.1025391-0.0664063,0.1513672c-0.0073242,0.0146484-0.012207,0.0307617-0.0195313,0.0454102
		c0,0.0002441-0.0004883,0.0002441-0.0004883,0.0004883c-0.0019531,0.0039063-0.0048828,0.0078125-0.0068359,0.0119629
		c-0.0371094,0.0720215-0.0825195,0.1384277-0.1225586,0.2084961c-0.0400391,0.0690918-0.078125,0.138916-0.1210938,0.2060547
		c-0.0205078,0.0319824-0.0371094,0.0668945-0.0581055,0.0983887c-0.0019531,0.0031738-0.0043945,0.0058594-0.0063477,0.0090332
		c-0.0786133,0.1169434-0.168457,0.2263184-0.2568359,0.3361816c-0.0302734,0.0375977-0.0566406,0.0786133-0.0878906,0.1152344
		c-0.1772461,0.2075195-0.3759766,0.3969727-0.5874023,0.5744629c-0.050293,0.0422363-0.1020508,0.0825195-0.1542969,0.1230469
		c-0.0195313,0.0151367-0.0380859,0.03125-0.0581055,0.0461426c-0.0009766,0.0007324-0.0019531,0.0014648-0.0029297,0.0021973
		c-0.0454102,0.0341797-0.0859375,0.072998-0.1328125,0.105957c-0.1503906,0.1052246-0.3105469,0.2004395-0.4746094,0.2907715
		c-0.0170898,0.0095215-0.0322266,0.0212402-0.0493164,0.0305176c-0.2514648,0.1350098-0.5229492,0.2463379-0.8046875,0.3444824
		c-0.0717773,0.0251465-0.1450195,0.0483398-0.2192383,0.0708008c-0.2919922,0.0888672-0.5932617,0.1652832-0.9140625,0.2121582
		l-3.059082,0.4455566l-13.8115234,2.0114746l-1.1870117,0.1728516l-128.5083008,18.7155762
		C181.1309814,268.0824585,180.0919189,268.0170288,179.0767822,267.7731323z M208.5513916,332.6505737
		c-2.2670898-0.5263672-4.4794922-1.458252-6.5166016-2.7209473c-2.0366211-1.2636719-3.8955078-2.8574219-5.4570313-4.706543
		c-1.5605469-1.8483887-2.8222656-3.9506836-3.6645508-6.2321777c-0.8417969-2.2814941-1.1850586-4.5244141-1.0839844-6.626709
		c0.1000977-2.1003418,0.6430664-4.0598145,1.5727539-5.7763672c0.9291992-1.7155762,2.2441406-3.1882324,3.8891602-4.3181152
		c1.6435547-1.128418,3.6166992-1.9147949,5.8637695-2.2573242l111.8979492-17.083252l17.1220703-2.6140137h0.0004883
		c2.1308594-0.3254395,4.3344727-0.1899414,6.4941406,0.3320313c2.1586914,0.5227051,4.2744141,1.4321289,6.2319336,2.6572266
		c0.4897461,0.3059082,0.9692383,0.6318359,1.4370117,0.9760742c1.4038086,1.0332031,2.7026367,2.2338867,3.8481445,3.5717773
		c1.5273438,1.7836914,2.7827148,3.8115234,3.6499023,6.0112305c0.1943359,0.4921875,0.3564453,0.9816895,0.5039063,1.4692383
		c0.0322266,0.1071777,0.0644531,0.2141113,0.0947266,0.3210449c0.1347656,0.4782715,0.2524414,0.9536133,0.34375,1.4248047
		c0.0117188,0.059082,0.0185547,0.1174316,0.0292969,0.1765137c0.0786133,0.4294434,0.137207,0.8549805,0.1796875,1.2766113
		c0.0102539,0.0969238,0.0219727,0.1938477,0.0297852,0.2900391c0.0375977,0.4541016,0.0556641,0.902832,0.0527344,1.345459
		c-0.0004883,0.0302734,0.0039063,0.0615234,0.003418,0.0917969c-0.0004883,0.0588379-0.0097656,0.1147461-0.0112305,0.1733398
		c-0.0097656,0.3955078-0.0351563,0.7856445-0.0766602,1.1699219c-0.0078125,0.0727539-0.012207,0.1467285-0.0214844,0.2192383
		c-0.0527344,0.4260254-0.1279297,0.8430176-0.2192383,1.2529297c-0.0214844,0.0952148-0.0454102,0.1889648-0.0688477,0.2832031
		c-0.0952148,0.3857422-0.2036133,0.7648926-0.3320313,1.1337891c-0.0112305,0.0317383-0.0195313,0.0644531-0.0307617,0.0959473
		c-0.140625,0.3913574-0.3051758,0.7695313-0.4824219,1.1398926c-0.0205078,0.0432129-0.0351563,0.090332-0.0561523,0.1333008
		c-0.0209961,0.0419922-0.0483398,0.0800781-0.0698242,0.1220703c-0.1860352,0.3657227-0.3852539,0.7231445-0.6069336,1.0649414
		c-0.0185547,0.0283203-0.0395508,0.0546875-0.0581055,0.0827637c-0.2119141,0.3203125-0.4428711,0.626709-0.6860352,0.923584
		c-0.0551758,0.0678711-0.1098633,0.1364746-0.1669922,0.203125c-0.2714844,0.3166504-0.5576172,0.621582-0.8647461,0.9082031
		c-0.03125,0.0292969-0.065918,0.0551758-0.0976563,0.0839844c-0.2773438,0.2531738-0.5708008,0.4912109-0.875,0.7182617
		c-0.0444336,0.0332031-0.0825195,0.0720215-0.1274414,0.1044922c-0.0512695,0.0373535-0.1103516,0.0666504-0.1625977,0.1032715
		c-0.2832031,0.197998-0.5776367,0.3847656-0.8823242,0.5598145c-0.0751953,0.0429688-0.1459961,0.0898438-0.2226563,0.1315918
		c-0.3764648,0.2055664-0.7700195,0.3920898-1.1772461,0.5610352c-0.1000977,0.0415039-0.2041016,0.0769043-0.3061523,0.1159668
		c-0.3251953,0.1254883-0.659668,0.2390137-1.0029297,0.340332c-0.1274414,0.0375977-0.2539063,0.0756836-0.3837891,0.1098633
		c-0.4487305,0.1184082-0.9067383,0.2233887-1.3837891,0.2995605l-9.6713867,1.5441895l-0.5200195,0.0830078L215.3912354,332.937439
		C213.1383057,333.2970581,210.8175049,333.1759644,208.5513916,332.6505737z M385.7393799,374.2509155
		c0,0.0002441,0,0.0002441,0,0.0004883c0,0.0009766,0,0.001709,0,0.0026855
		c-0.0009766,0.1020508-0.0126953,0.2006836-0.0180664,0.3012695c-0.0068359,0.130127-0.0087891,0.2619629-0.0234375,0.3894043
		c-0.0048828,0.0458984-0.0161133,0.0893555-0.0224609,0.1347656c-0.0029297,0.0251465-0.0083008,0.0493164-0.012207,0.0742188
		c-0.0224609,0.1542969-0.043457,0.3093262-0.0766602,0.4589844c0,0.0004883,0,0.0007324-0.0004883,0.0012207
		c-0.0141602,0.0651855-0.034668,0.1276855-0.0532227,0.1904297c-0.0092773,0.0297852-0.0170898,0.0598145-0.0253906,0.0898438
		c-0.003418,0.0129395-0.0073242,0.0258789-0.0107422,0.0388184c-0.0292969,0.1037598-0.0532227,0.2104492-0.0878906,0.3112793
		c-0.0703125,0.2060547-0.1513672,0.4057617-0.2431641,0.5991211c-0.0004883,0.0009766-0.0009766,0.0019531-0.0014648,0.0029297
		c0,0.0002441-0.0004883,0.0004883-0.0004883,0.0007324c-0.0009766,0.0019531-0.0019531,0.003418-0.0029297,0.0053711
		c-0.0004883,0.0012207-0.0014648,0.0021973-0.0019531,0.0031738c-0.0800781,0.168457-0.1708984,0.3300781-0.2670898,0.4880371
		c-0.0229492,0.0373535-0.0454102,0.0744629-0.0693359,0.1113281c-0.012207,0.0192871-0.0273438,0.0368652-0.0400391,0.0559082
		c-0.0415039,0.0632324-0.0869141,0.123291-0.1313477,0.1845703c-0.0507813,0.0703125-0.097168,0.1445313-0.1513672,0.2121582
		c-0.0146484,0.0185547-0.03125,0.0358887-0.0463867,0.0541992c-0.0493164,0.0600586-0.1054688,0.1149902-0.1577148,0.1728516
		c-0.2197266,0.2436523-0.4555664,0.4736328-0.7207031,0.6748047c-0.2138672,0.1618652-0.4472656,0.3029785-0.6894531,0.4338379
		c-0.5332031,0.2880859-1.1279297,0.5036621-1.7871094,0.6188965l-4.8574219,0.8496094l-13.3603516,2.3361816
		l-129.7167969,22.684082c-1.0185547,0.1787109-2.0703125,0.1337891-3.0991211-0.0976563
		c-1.0297852-0.2321777-2.0356445-0.6518555-2.9633789-1.2250977c-0.9272461-0.572998-1.7753906-1.2993164-2.4887695-2.1442871
		c-0.7128906-0.8447266-1.2905273-1.8078613-1.6767578-2.8547363l-12.2060547-33.0649414
		c-0.3818359-1.0358887-0.5390625-2.059082-0.4956055-3.0214844c0.0439453-0.9624023,0.2871094-1.8637695,0.7055664-2.6564941
		c0.418457-0.791748,1.0117188-1.4753418,1.753418-2.0026855c0.7416992-0.5263672,1.6328125-0.8974609,2.6479492-1.0644531
		l145.6508789-23.9731445l1.8129883-0.298584c0.2387695-0.0393066,0.4799805-0.0651855,0.7226563-0.0786133
		c0.7275391-0.0402832,1.4682617,0.0334473,2.1992188,0.2077637c0.9746094,0.2314453,1.9326172,0.6411133,2.8198242,1.1953125
		c0.8876953,0.5534668,1.7050781,1.2521973,2.3994141,2.0610352c0.4316406,0.503418,0.8076172,1.0532227,1.1308594,1.6342773
		c0.1972656,0.3540039,0.3789063,0.7165527,0.527832,1.0947266l12.5600586,31.8625488c0,0.0002441,0,0.0004883,0.0004883,0.0007324
		c0.0053711,0.0141602,0.0092773,0.0283203,0.0146484,0.0424805c0.1108398,0.2885742,0.203125,0.5759277,0.2807617,0.8618164
		c0.0239258,0.0898438,0.043457,0.1787109,0.0644531,0.2678223c0.0517578,0.2199707,0.0942383,0.4375,0.1259766,0.6538086
		c0.0087891,0.057373,0.0175781,0.114502,0.0244141,0.1713867c0.0097656,0.0773926,0.0263672,0.1560059,0.0332031,0.232666
		c0.012207,0.1291504,0.0117188,0.2548828,0.0166016,0.3820801c0.0043945,0.1101074,0.0151367,0.2219238,0.0146484,0.3308105
		C385.7398682,374.2496948,385.7393799,374.2504272,385.7393799,374.2509155z"/>
	<path fill="#C0C0C0" d="M311.8341064,249.0477905l13.8115234-2.0114746l3.059082-0.4455566
		c0.3212891-0.046875,0.6220703-0.1235352,0.9140625-0.2121582c0.0742188-0.0224609,0.1474609-0.0456543,0.2192383-0.0708008
		c0.2817383-0.0983887,0.5532227-0.2094727,0.8046875-0.3444824c0.0170898-0.0092773,0.0322266-0.0209961,0.0493164-0.0305176
		c0.1640625-0.090332,0.3242188-0.1855469,0.4746094-0.2907715c0.046875-0.032959,0.0874023-0.0717773,0.1328125-0.105957
		c0.0009766-0.0007324,0.0019531-0.0014648,0.0029297-0.0021973c0.0200195-0.0148926,0.0385742-0.0310059,0.0581055-0.0461426
		c0.0522461-0.0405273,0.1040039-0.0808105,0.1542969-0.1230469c0.2114258-0.1774902,0.4101563-0.3671875,0.5874023-0.5744629
		c0.03125-0.0366211,0.0576172-0.0776367,0.0878906-0.1152344c0.0883789-0.1098633,0.1782227-0.2192383,0.2568359-0.3361816
		l0.0063477-0.0090332c0.0209961-0.0314941,0.0375977-0.0664063,0.0581055-0.0983887
		c0.0429688-0.0671387,0.0810547-0.1369629,0.1210938-0.2060547c0.0400391-0.0700684,0.0854492-0.1364746,0.1225586-0.2084961
		c0.0019531-0.0041504,0.0048828-0.0080566,0.0068359-0.0119629c0-0.0002441,0.0004883-0.0002441,0.0004883-0.0004883
		c0.0073242-0.0146484,0.012207-0.0307617,0.0195313-0.0454102c0.0244141-0.0488281,0.043457-0.1013184,0.0664063-0.1513672
		c0.034668-0.0756836,0.0688477-0.1513672,0.1000977-0.2290039c0.019043-0.0473633,0.043457-0.0917969,0.0610352-0.1396484
		c0.0249023-0.0673828,0.0410156-0.1391602,0.0634766-0.2080078c0.0131836-0.0407715,0.0253906-0.0825195,0.0375977-0.1237793
		c0.0209961-0.0703125,0.0458984-0.1384277,0.0639648-0.2099609c0.0048828-0.0197754,0.0131836-0.0383301,0.0180664-0.0583496
		c0.0170898-0.0700684,0.0253906-0.144043,0.0400391-0.2150879c0.0288086-0.1428223,0.0595703-0.2851563,0.078125-0.432373
		c0.0063477-0.0473633,0.0058594-0.0969238,0.0107422-0.1445313c0.0170898-0.1660156,0.0332031-0.3320313,0.0366211-0.5024414
		c0.0009766-0.034668-0.003418-0.0705566-0.003418-0.1054688c0.0004883-0.0888672-0.0053711-0.1794434-0.0087891-0.2692871
		c-0.0068359-0.1716309-0.019043-0.3444824-0.0395508-0.5195313c-0.0112305-0.097168-0.0244141-0.1948242-0.0400391-0.2929688
		c-0.0283203-0.1799316-0.0664063-0.3615723-0.1098633-0.5444336c-0.0214844-0.0895996-0.0395508-0.1789551-0.0644531-0.2692871
		c-0.0727539-0.262207-0.1577148-0.526123-0.2612305-0.7919922c-0.003418-0.0083008-0.0053711-0.0166016-0.0083008-0.0249023
		l-0.0004883-0.0004883l-7.7563477-19.675293l-4.3256836-10.9729004v-0.0004883
		c-0.3789063-0.9604492-0.9335938-1.8510742-1.6113281-2.6374512c-0.6777344-0.7875977-1.4799805-1.4709473-2.3520508-2.0187988
		c-0.8720703-0.5480957-1.8154297-0.9597168-2.777832-1.2019043c-0.7211914-0.1821289-1.453125-0.269043-2.1733398-0.246582
		c-0.2402344,0.0073242-0.4794922,0.0268555-0.7163086,0.0593262l-146.0922852,19.8630371
		c-1.0053711,0.1362305-1.8896484,0.4697266-2.628418,0.9550781c-0.7382813,0.4858398-1.331543,1.1235352-1.7529297,1.8688965
		c-0.4223633,0.7460938-0.671875,1.5991211-0.7250977,2.5146484c-0.0522461,0.9157715,0.0922852,1.8942871,0.4594727,2.8896484
		l11.7260742,31.7648926c0.3706055,1.0043945,0.9321289,1.9343262,1.6279297,2.7548828
		c0.6958008,0.8208008,1.5268555,1.5310059,2.4375,2.0976563c0.9106445,0.5668945,1.9008789,0.9882813,2.9155273,1.2324219
		c1.0151367,0.2438965,2.0541992,0.3093262,3.0620117,0.1630859l128.5083008-18.7155762L311.8341064,249.0477905z"/>
	<path fill="#C0C0C0" d="M385.7252197,373.918396c-0.0048828-0.1271973-0.0043945-0.2531738-0.0166016-0.3820801
		c-0.0043945-0.0480957-0.0151367-0.0974121-0.0205078-0.1459961c-0.003418-0.0285645-0.0087891-0.0578613-0.0126953-0.0866699
		c-0.0068359-0.0568848-0.015625-0.1140137-0.0244141-0.1713867c-0.0317383-0.2160645-0.0742188-0.434082-0.1259766-0.6538086
		c-0.0214844-0.090332-0.0410156-0.1804199-0.0654297-0.2712402c-0.0771484-0.2817383-0.1669922-0.5649414-0.2768555-0.8496094
		c-0.0068359-0.0170898-0.0112305-0.0341797-0.0175781-0.0512695c-0.0004883-0.0002441-0.0004883-0.0004883-0.0004883-0.0007324
		l-12.5600586-31.8625488c-0.1489258-0.3781738-0.3305664-0.7407227-0.527832-1.0947266
		c-0.3232422-0.5810547-0.6992188-1.1308594-1.1308594-1.6342773c-0.6943359-0.8088379-1.5117188-1.5075684-2.3994141-2.0610352
		c-0.887207-0.5541992-1.8452148-0.9638672-2.8198242-1.1953125c-0.730957-0.1743164-1.4716797-0.2480469-2.1992188-0.2077637
		c-0.2426758,0.0134277-0.4838867,0.0393066-0.7226563,0.0786133l-1.8129883,0.298584l-145.6508789,23.9731445
		c-1.0151367,0.1669922-1.90625,0.5380859-2.6479492,1.0644531c-0.7416992,0.5273438-1.3349609,1.2109375-1.753418,2.0026855
		c-0.418457,0.7927246-0.6616211,1.6940918-0.7055664,2.6564941c-0.043457,0.9624023,0.1137695,1.9855957,0.4956055,3.0214844
		l12.2060547,33.0649414c0.3862305,1.046875,0.9638672,2.0100098,1.6767578,2.8547363
		c0.7133789,0.8449707,1.5615234,1.5712891,2.4887695,2.1442871c0.9277344,0.5732422,1.9335938,0.9929199,2.9633789,1.2250977
		c1.0288086,0.2314453,2.0805664,0.2763672,3.0991211,0.0976563l129.7167969-22.684082l13.3603516-2.3361816l4.8574219-0.8496094
		c0.6591797-0.1152344,1.2539063-0.3308105,1.7871094-0.6188965c0.2421875-0.1308594,0.4755859-0.2719727,0.6894531-0.4338379
		c0.2651367-0.2011719,0.5009766-0.4311523,0.7207031-0.6748047c0.0522461-0.0578613,0.1083984-0.112793,0.1577148-0.1728516
		c0.0151367-0.0183105,0.0317383-0.0356445,0.0463867-0.0541992c0.0541992-0.067627,0.1005859-0.1418457,0.1513672-0.2121582
		c0.0444336-0.0612793,0.0898438-0.1213379,0.1313477-0.1845703c0.0126953-0.019043,0.027832-0.0366211,0.0400391-0.0559082
		c0.0239258-0.0368652,0.0463867-0.0739746,0.0693359-0.1113281c0.0942383-0.154541,0.1826172-0.3132324,0.2617188-0.4777832
		c0.0014648-0.003418,0.0039063-0.0063477,0.0053711-0.0097656c0.0004883-0.0014648,0.0014648-0.0024414,0.0019531-0.0036621
		c0.0009766-0.0021973,0.0024414-0.0039063,0.003418-0.0061035c0.0004883-0.0009766,0.0009766-0.0019531,0.0014648-0.0029297
		c0.0917969-0.1933594,0.1728516-0.3930664,0.2431641-0.5991211c0.034668-0.1008301,0.0585938-0.2075195,0.0878906-0.3112793
		c0.003418-0.0129395,0.0073242-0.0258789,0.0107422-0.0388184c0.0258789-0.0942383,0.0576172-0.1853027,0.0791016-0.2814941
		c0.0214844-0.097168,0.0327148-0.1987305,0.0498047-0.2978516c0.0092773-0.0537109,0.019043-0.1069336,0.0268555-0.1611328
		c0.0039063-0.0249023,0.0092773-0.0490723,0.012207-0.0742188c0.0063477-0.0454102,0.0175781-0.0888672,0.0224609-0.1347656
		c0.0146484-0.1271973,0.0166016-0.2592773,0.0234375-0.3894043c0.0053711-0.1005859,0.0170898-0.1992188,0.0180664-0.3012695
		c0-0.0009766,0-0.0019531,0-0.0031738c0-0.0004883,0.0004883-0.0012207,0.0004883-0.001709
		C385.7403564,374.1403198,385.7296143,374.0285034,385.7252197,373.918396z"/>
	<path fill="#333333" d="M19.3004131,45.7255249c-0.0053711,0.0661621-0.0146484,0.1308594-0.0195313,0.1970215
		c-0.0097656,0.137207-0.0112305,0.2768555-0.0180664,0.4147949C19.2730694,46.1327515,19.2838116,45.9281616,19.3004131,45.7255249
		z"/>
	<path fill="#333333" d="M19.5469952,50.9367065c-0.0371094-0.2177734-0.0761719-0.4360352-0.1064453-0.6523438
		c0.0043945,0.0332031,0.0068359,0.065918,0.0117188,0.0991211C19.4786358,50.5668335,19.5157452,50.7523804,19.5469952,50.9367065z
		"/>
	<path fill="#333333" d="M431.8238525,294.1513062c-1.8481445-0.0461426-3.6845703-0.1413574-5.5083008-0.2827148
		l63.5737305,157.0744629c1.425293,3.5219727,2.1293945,7.0107422,2.1821289,10.3037109
		c0.0517578,3.298584-0.5488281,6.4025879-1.7348633,9.1477051c-1.1665039,2.7038574-2.9067383,5.0549316-5.1416016,6.9082031
		c0.2363281-0.1958008,0.4726563-0.3913574,0.6977539-0.5983887l-20.4389648,18.8015137
		c-0.6030273,0.5549316-1.2470703,1.0708008-1.9301758,1.5432129c-0.6835938,0.4736328-1.40625,0.9040527-2.1665039,1.2880859
		c-0.7597656,0.3847656-1.5581055,0.7219238-2.3925781,1.0097656c-0.8344727,0.2868652-1.7055664,0.5246582-2.6103516,0.7084961
		l-254.515625,51.6608887c-3.5922852,0.7299805-7.2939453,0.6635742-10.909668-0.081543
		c-3.6196289-0.7463379-7.1508789-2.1711426-10.3989258-4.1569824c-3.2490234-1.9863281-6.2133789-4.5324707-8.6962891-7.5197754
		c-2.4824219-2.9851074-4.4829102-6.407959-5.8085938-10.1489258v-0.001709l-0.0004883,0.0002441L6.3609605,79.0836792
		l0.0004883-0.0002441H6.3609605c-0.5561523-1.5705566-0.9360352-3.1206055-1.1503906-4.6362305
		s-0.2631836-2.9953613-0.15625-4.4257813c0.1064453-1.4287109,0.3681641-2.8081055,0.7749023-4.1201172
		s0.9580078-2.5578613,1.644043-3.7209473l14.2275391-24.1499023c-0.0175781,0.0307617-0.0307617,0.0644531-0.0483398,0.0952148
		c0.1352539-0.2333984,0.2714844-0.4665527,0.4174805-0.6933594c1.5341797-2.378418,3.6513672-4.3845215,6.2597656-5.8793964
		c2.6049805-1.4924316,5.6997089-2.4746094,9.1918964-2.8071289l248.215332-23.6386719
		c3.159668-0.3005371,6.4204102,0.0419922,9.6123047,0.9174805c3.1889648,0.8745117,6.3110352,2.2814937,9.1943359,4.1127925
		c2.8833008,1.8305664,5.5292969,4.0859375,7.7680664,6.6582031c2.2397461,2.5720215,4.0737305,5.4624023,5.328125,8.5637207
		l38.3364258,94.7194824c1.21875-1.3781738,2.472168-2.7241211,3.7607422-4.036377l-37.4619141-92.5588379
		c-1.4350586-3.5463867-3.5185547-6.9013672-6.1918945-9.9707031c-2.5449219-2.9238281-5.5258789-5.4799805-8.8588867-7.5961909
		c-3.3461914-2.1254885-6.8964844-3.711426-10.5527344-4.7138672c-3.8759766-1.0634766-7.7138672-1.4233398-11.4082031-1.0732422
		L37.0474854,23.7682476c-4.1298828,0.3935547-7.899416,1.5527344-11.2041035,3.4467773
		c-3.2988281,1.890625-5.9814453,4.4165039-7.9746094,7.5068378c-0.0703125,0.1083984-0.2158203,0.3339844-14.7021484,24.918457
		c-0.8828125,1.4960938-1.59375,3.1049805-2.1132813,4.7807617c-0.5200195,1.6782227-0.8515625,3.4370117-0.9853516,5.2280273
		c-0.1342773,1.7993164-0.0693359,3.6489258,0.1918945,5.4985352c0.2631836,1.8613281,0.7299805,3.746582,1.3876953,5.6054688
		l159.6645508,450.7255859c1.4931641,4.215332,3.7397461,8.144043,6.6757813,11.6748047
		c2.8227539,3.3959961,6.1650391,6.2861328,9.934082,8.590332c3.7905273,2.3173828,7.8271484,3.9282227,11.996582,4.7875977
		c2.2675781,0.4672852,4.5214844,0.7011719,6.7470703,0.7011719c2.0859375,0,4.1464844-0.2055664,6.1674805-0.6162109
		l254.5180664-51.6616211c1.1069336-0.2250977,2.1972656-0.5209961,3.2441406-0.8813477
		c1.0444336-0.3608398,2.0605469-0.7895508,3.015625-1.2729492c0.9580078-0.4838867,1.8867188-1.0361328,2.7568359-1.6391602
		c0.8671875-0.6000977,1.6992188-1.2651367,2.4707031-1.9760742l20.4389648-18.8012695l-0.0029297-0.0029297
		c2.418457-2.2246094,4.3198242-4.9165039,5.652832-8.0043945c1.4853516-3.4394531,2.2060547-7.2109375,2.1430664-11.2084961
		v-0.0009766c-0.0639648-4.012207-0.9204102-8.0834961-2.5463867-12.1000977L431.8238525,294.1513062z"/>
	<path fill="#333333" d="M20.0992413,41.6471558c-0.0136719,0.0432129-0.0341797,0.0834961-0.0473633,0.126709
		c-0.0268555,0.0876465-0.0478516,0.1782227-0.0737305,0.2663574C20.0167217,41.9083862,20.0577374,41.777771,20.0992413,41.6471558
		z"/>
	<path fill="#333333" d="M483.6651611,478.4389038c0.09375-0.0622559,0.1928711-0.1188965,0.2851563-0.1828613
		c0.0400391-0.0273438,0.0766602-0.0583496,0.1157227-0.0861816
		C483.9351807,478.262146,483.7994385,478.3497925,483.6651611,478.4389038z"/>
	<path fill="#333333" d="M479.2315674,480.5973511c0.0415039-0.0136719,0.0849609-0.0241699,0.1259766-0.0380859
		c0.112793-0.0385742,0.2192383-0.0854492,0.3310547-0.1259766
		C479.5362549,480.4884644,479.3863525,480.5458374,479.2315674,480.5973511z"/>
	<path fill="#333333" d="M481.5401611,479.6537476c0.0751953-0.0366211,0.1542969-0.0681152,0.2290039-0.1052246
		c0.0800781-0.0405273,0.1552734-0.0871582,0.234375-0.128418
		C481.850708,479.4996948,481.6964111,479.5778198,481.5401611,479.6537476z"/>
	<path fill="#333333" d="M474.8804932,454.1452026c0.0751953,0.1875,0.1342773,0.3745117,0.1992188,0.5620117
		c0.3764648,1.0874023,0.5849609,2.1711426,0.5986328,3.2280273c0.0146484,1.1645508-0.1923828,2.2470703-0.6162109,3.2172852
		c-0.4121094,0.9458008-1.0117188,1.7402344-1.78125,2.3618164c-0.8007813,0.6479492-1.7607422,1.0849609-2.8535156,1.300293
		l-7.7080078,1.5141602l-8.5375977,1.6772461L213.7418213,515.241394c-1.2866211,0.2519531-2.6386719,0.2338867-4.0175781-0.0561523
		c-1.3564453-0.2861328-2.6767578-0.8193359-3.9238281-1.5849609c-1.2568359-0.7705078-2.3735352-1.7353516-3.3193359-2.8671875
		c-0.9726563-1.1650391-1.7177734-2.4560547-2.2158203-3.8374023L41.2359619,65.2015991l-4.3671875-12.1306152
		c-0.0942383-0.2619629-0.171875-0.5222168-0.2397461-0.7814941c-0.2294922-0.8759766-0.3129883-1.7348633-0.2402344-2.5617676
		c0.0874023-1.0014648,0.394043-1.9199219,0.9121094-2.7304688c0.5175781-0.8105469,1.2241211-1.4785156,2.1010742-1.9853516
		c0.6254883-0.3623047,1.328125-0.6237793,2.0859375-0.7988281c0.375-0.0866699,0.7587891-0.1586914,1.1625977-0.1987305
		l69.9785156-6.8566895l0.0219727-0.0021973l2.1279297,5.7060547c0.1264648,0.3383789,0.2832031,0.6682129,0.4277344,1.0014648
		c0.8847656,2.0375977,2.0898438,3.9829102,3.6342773,5.7841797c1.722168,2.0083008,3.7675781,3.7646484,6.0800781,5.2197266
		c2.3125,1.4536133,4.7729492,2.5302734,7.3120117,3.199707c2.2421875,0.5917969,4.4604492,0.8208008,6.6201172,0.7280273
		c0.3935547-0.0168457,0.7885742-0.0239258,1.1777344-0.0634766l69.8486328-7.1794434l3.6054688-0.3706055l2.2509766-0.2314453
		l1.2856445-0.1320801c2.0112305-0.2070313,3.8520508-0.7402344,5.5097656-1.5583496c0,0,0-0.0002441,0.0004883-0.0002441
		c0.1000977-0.0493164,0.1953125-0.1057129,0.2944336-0.1572266c0.0268555-0.0141602,0.0532227-0.0288086,0.0795898-0.0429688
		c0.0004883,0,0.0004883,0,0.0004883,0s0,0,0.0004883-0.0002441c0.2626953-0.1394043,0.534668-0.2653809,0.7871094-0.4206543
		c1.0957031-0.6743164,2.0463867-1.4892578,2.8769531-2.4082031c0.6054688-0.6696777,1.1542969-1.3879395,1.6113281-2.1796875
		c1.0800781-1.8691406,1.6787109-3.9672852,1.7797852-6.2368164c0.1030273-2.3056641-0.3168945-4.6831055-1.2475586-7.0664082
		l-1.8681641-4.7817383l62.9570313-6.1699219l1.3203125-0.1293945c1.1147461-0.1083984,2.2919922,0.0024414,3.4970703,0.3320313
		c1.190918,0.3251953,2.3549805,0.8452148,3.4599609,1.546875c1.1079102,0.7026367,2.0966797,1.550293,2.9394531,2.5195313
		c0.8608398,0.9892578,1.5258789,2.0595703,1.9775391,3.1806641l0.3466797,0.8623047l42.4785156,105.5026855
		c0.3271484-0.5180664,0.659668-1.0324707,0.9956055-1.5441895c0.0004883-0.0004883,0.0004883-0.0004883,0.0004883-0.0009766
		L304.3897705,26.6837749c-0.5258789-1.3046875-1.2954102-2.5217285-2.2373047-3.604248
		c-0.9414063-1.083252-2.0546875-2.0322266-3.2680664-2.8024902c-1.2133789-0.7705078-2.5273438-1.3613281-3.8686523-1.7272949
		c-1.0063477-0.2746582-2.0288086-0.4223633-3.0366211-0.4240723c-0.3354492-0.0007324-0.6699219,0.0148926-1.0009766,0.0473633
		l-66.25,6.4921875l2.5883789,6.6274414c0,0.0002441,0,0.0004883,0,0.0004883
		c0.012207,0.0305176,0.019043,0.0605469,0.0307617,0.0910645c0.1938477,0.5041504,0.362793,1.005373,0.5053711,1.5026875
		c0.027832,0.0961914,0.0483398,0.1914063,0.0703125,0.2866211c0.0166016,0.0725098,0.0351563,0.1455078,0.0532227,0.2182617
		c0.0195313,0.0805664,0.0356445,0.1604004,0.0546875,0.2407227c0.0654297,0.2731934,0.137207,0.5476074,0.1870117,0.8178711
		c0.0112305,0.0600586,0.0175781,0.1188965,0.0263672,0.1782227c0.0209961,0.1376953,0.0410156,0.2749023,0.0610352,0.4125977
		c0.0185547,0.126709,0.0307617,0.251709,0.0458984,0.3774414c0.0224609,0.1870117,0.0527344,0.3757324,0.0678711,0.5610352
		c0.0166016,0.2077637,0.0229492,0.4118652,0.0307617,0.6171875c0.0063477,0.1699219,0.0053711,0.3378906,0.0058594,0.5061035
		c0,0.1237793,0.0073242,0.2497559,0.0043945,0.3725586c-0.0024414,0.0891113,0.0073242,0.1818848,0.0029297,0.270752
		c-0.0048828,0.1157227-0.0263672,0.2258301-0.034668,0.3405762c-0.0146484,0.2077637-0.0380859,0.4123535-0.0625,0.6169434
		c-0.0083008,0.0698242-0.0117188,0.1411133-0.0214844,0.2106934c-0.0268555,0.2016602-0.0571289,0.4016113-0.09375,0.5996094
		c-0.0039063,0.0224609-0.0102539,0.0441895-0.0146484,0.0666504c-0.0415039,0.2189941-0.0913086,0.4345703-0.144043,0.6489258
		c-0.0063477,0.0251465-0.0107422,0.0512695-0.0170898,0.0766602c-0.0478516,0.1904297-0.0947266,0.3808594-0.1518555,0.5668945
		c-0.0053711,0.0185547-0.0126953,0.0366211-0.019043,0.0546875c-0.015625,0.043457-0.0322266,0.0866699-0.0463867,0.1308594
		c-0.0561523,0.1743164-0.1176758,0.3457031-0.1816406,0.5161133c-0.0087891,0.0234375-0.0161133,0.0476074-0.0249023,0.0708008
		c-0.065918,0.171875-0.1264648,0.345459-0.199707,0.5131836c-0.0351563,0.0800781-0.0795898,0.154541-0.1162109,0.2338867
		c-0.0561523,0.1201172-0.1171875,0.2370605-0.1767578,0.3549805c-0.0483398,0.095459-0.0917969,0.1936035-0.1430664,0.2873535
		c-0.0454102,0.0834961-0.0795898,0.1730957-0.1269531,0.2553711c-0.0014648,0.0029297-0.0029297,0.0061035-0.0043945,0.0090332
		c-0.0014648,0.0019531-0.0029297,0.0039063-0.0039063,0.0058594c-0.0097656,0.0170898-0.0229492,0.0319824-0.0327148,0.0488281
		c-0.0825195,0.1411133-0.1821289,0.270752-0.2705078,0.407959c-0.1196289,0.1855469-0.2358398,0.3730469-0.3662109,0.5512695
		c-0.0952148,0.1303711-0.1962891,0.2563477-0.296875,0.3828125c-0.0087891,0.010498-0.0180664,0.0200195-0.0263672,0.0305176
		c-0.0092773,0.0112305-0.0195313,0.0217285-0.0288086,0.0332031c-0.1601563,0.1975098-0.3251953,0.3916016-0.4985352,0.5788574
		c-0.0068359,0.0068359-0.012207,0.0144043-0.0185547,0.0212402c-0.1000977,0.107666-0.2001953,0.2148438-0.3051758,0.3188477
		c-0.0004883,0-0.0004883,0-0.0004883,0c-0.0336914,0.0336914-0.0722656,0.0634766-0.1069336,0.0966797
		c-0.1899414,0.1838379-0.3867188,0.3620605-0.590332,0.5336914c-0.0644531,0.0539551-0.1206055,0.1149902-0.1860352,0.1679688
		c-0.090332,0.0725098-0.1894531,0.1364746-0.2822266,0.2067871c-0.2114258,0.1606445-0.4321289,0.3129883-0.6567383,0.4609375
		c-0.1044922,0.0688477-0.1982422,0.1484375-0.3056641,0.2143555c-0.0683594,0.0419922-0.1455078,0.0739746-0.2143555,0.1147461
		c-0.2373047,0.1398926-0.4848633,0.2675781-0.7353516,0.3935547c-0.1323242,0.0664063-0.2651367,0.1311035-0.3989258,0.1953125
		c-0.0532227,0.0253906-0.1040039,0.0532227-0.1582031,0.0773926c-0.2734375,0.121582-0.5595703,0.2275391-0.8466797,0.3325195
		c-0.1850586,0.0678711-0.3642578,0.1416016-0.5551758,0.2023926c-0.3261719,0.1040039-0.6679688,0.1879883-1.0102539,0.270752
		c-0.1674805,0.0422363-0.3305664,0.0910645-0.5019531,0.1269531c-0.5234375,0.1079102-1.0620117,0.1940918-1.6191406,0.2514648
		l-2.2524414,0.2314453l-5.2973633,0.5444336l-69.4399414,7.1376953c-2.3950195,0.246582-4.8588867,0.0117188-7.262207-0.621582
		c-2.4042969-0.6340332-4.7470703-1.6679688-6.8964844-3.0195313c-2.1499023-1.3525391-4.1064453-3.0214844-5.7397461-4.9262695
		c-1.6328125-1.9040527-2.940918-4.0429688-3.7954102-6.3334961l-2.53125-6.7871094l-71.1474609,6.9719238
		c-0.1142578,0.0112305-0.2207031,0.034668-0.3325195,0.0490723c-0.2548828,0.032959-0.5102539,0.0644531-0.7539063,0.1135254
		c-0.0976563,0.0197754-0.1884766,0.0500488-0.284668,0.0725098c-0.2456055,0.057373-0.4916992,0.1142578-0.7250977,0.1879883
		c-0.1303711,0.0412598-0.2509766,0.0944824-0.3774414,0.140625c-0.0092773,0.003418-0.0185547,0.0070801-0.0283203,0.0107422
		c-0.1479492,0.0546875-0.2958984,0.1091309-0.4404297,0.1679688c-0.03125,0.0126953-0.0644531,0.0229492-0.0952148,0.036377
		c-0.1220703,0.0539551-0.2338867,0.1186523-0.3515625,0.1774902c-0.1557617,0.0776367-0.3173828,0.1489258-0.4658203,0.2346191
		c-0.0175781,0.010498-0.0332031,0.0231934-0.0512695,0.0339355c-0.1123047,0.065918-0.2148438,0.1416016-0.3222656,0.2121582
		c-0.0068359,0.0041504-0.0126953,0.0087891-0.0195313,0.0131836c-0.0366211,0.0241699-0.0717773,0.0498047-0.1083984,0.0737305
		c-0.1123047,0.0732422-0.2260742,0.1452637-0.3320313,0.2255859c-0.1030273,0.0786133-0.1977539,0.1652832-0.2954102,0.2487793
		c-0.0078125,0.0065918-0.015625,0.0131836-0.0234375,0.0197754c-0.1279297,0.1088867-0.2587891,0.2150879-0.378418,0.3310547
		c-0.0380859,0.0368652-0.0717773,0.0771484-0.1079102,0.1157227c-0.0615234,0.065918-0.1235352,0.1313477-0.1845703,0.1975098
		c-0.0654297,0.0712891-0.128418,0.144043-0.1923828,0.2158203c-0.0424805,0.0471191-0.0869141,0.0925293-0.1264648,0.1416016
		c-0.0922852,0.1147461-0.1743164,0.2368164-0.2597656,0.3566895c-0.0693359,0.0979004-0.1474609,0.1901855-0.2124023,0.2915039
		c-0.0175781,0.0280762-0.0307617,0.059082-0.0483398,0.0874023c-0.0830078,0.1340332-0.1557617,0.2741699-0.2299805,0.4135742
		c-0.0004883,0.0002441-0.0004883,0.0002441-0.0004883,0.0002441c-0.0009766,0.0019531-0.0019531,0.0039063-0.0029297,0.0056152
		c-0.0625,0.1181641-0.128418,0.2341309-0.1850586,0.3557129c-0.0004883,0.0007324-0.0004883,0.0014648-0.0009766,0.0021973
		c-0.0014648,0.0031738-0.0024414,0.0065918-0.0039063,0.0100098c-0.0639648,0.1376953-0.1166992,0.28125-0.171875,0.4233398
		c-0.050293,0.1298828-0.1044922,0.2575684-0.1479492,0.3908691c-0.0009766,0.0029297-0.0014648,0.0061035-0.0024414,0.0092773
		c-0.046875,0.1452637-0.0820313,0.2956543-0.1206055,0.4445801c-0.0351563,0.1381836-0.0751953,0.2739258-0.1035156,0.4150391
		c-0.0004883,0.0029297-0.0004883,0.0056152-0.0009766,0.0083008c-0.0302734,0.1530762-0.0473633,0.3110352-0.0688477,0.4677734
		c-0.0166016,0.1247559-0.043457,0.2460938-0.0546875,0.3730469c-0.0014648,0.019043,0,0.0390625-0.0014648,0.0581055
		c0,0.0026855,0,0.0053711-0.0004883,0.0080566c-0.0126953,0.1643066-0.0112305,0.333252-0.0146484,0.5007324
		c0,0.0085449,0,0.0170898-0.0004883,0.0253906c0,0.0080566,0,0.0161133-0.0004883,0.0241699
		c-0.0014648,0.0507813-0.0009766,0.1020508-0.0024414,0.152832c-0.0029297,0.0759277-0.0068359,0.1516113-0.0043945,0.229248
		c0.0004883,0.0007324,0,0.0014648,0,0.0019531c0.0004883,0.0021973,0.0004883,0.0041504,0.0004883,0.0061035
		c0.0058594,0.1762695,0.027832,0.3566895,0.0449219,0.5356445c0.0029297,0.0324707,0.0063477,0.0651855,0.0087891,0.0974121
		c0.0029297,0.0297852,0.0048828,0.0595703,0.0083008,0.0893555c0.0092773,0.0825195,0.0107422,0.1628418,0.0224609,0.2458496
		c0,0.0004883,0.0004883,0.0012207,0.0004883,0.001709s0,0.0009766,0,0.0014648
		c0.0273438,0.1938477,0.0732422,0.3911133,0.1142578,0.5874023c0.0019531,0.0097656,0.003418,0.0192871,0.0053711,0.0288086
		c0.0136719,0.0649414,0.0268555,0.1296387,0.0385742,0.1940918c0.0112305,0.0598145,0.0205078,0.1193848,0.0356445,0.1799316
		c0.0004883,0.0009766,0.0004883,0.0019531,0.0009766,0.0029297c0.0161133,0.0634766,0.0410156,0.1279297,0.0581055,0.1916504
		c0.0742188,0.2714844,0.1503906,0.543457,0.2495117,0.8183594l0.1484375,0.4123535l4.0932617,11.3686523L198.854126,507.4039917
		c0.5693359,1.5800781,1.421875,3.0275879,2.4760742,4.2905273c1.0546875,1.2626953,2.3105469,2.3415527,3.6860352,3.1845703
		c1.3745117,0.8430176,2.8686523,1.4509277,4.3994141,1.7729492c1.0839844,0.2290039,2.1860352,0.3056641,3.277832,0.2294922
		c0.4482422-0.03125,0.8950195-0.081543,1.3374023-0.168457l39.1479492-7.690918l201.5678711-39.5996094l5.9189453-1.1628418
		l10.050293-1.9743652c0.0366211-0.0073242,0.0698242-0.0197754,0.105957-0.0273438
		c0.0004883-0.0002441,0.0004883-0.0002441,0.0009766-0.0002441c0.1640625-0.0344238,0.3168945-0.0847168,0.4755859-0.1269531
		c0.1591797-0.0422363,0.3232422-0.076416,0.4765625-0.1271973c0.1210938-0.0402832,0.2338867-0.0917969,0.3515625-0.1367188
		c0.0400391-0.015625,0.0786133-0.0341797,0.1186523-0.050293c0.1699219-0.0683594,0.3422852-0.1330566,0.5043945-0.2114258
		c0.003418-0.001709,0.0063477-0.0036621,0.0092773-0.005127c0.1240234-0.0603027,0.2416992-0.1281738,0.3608398-0.1940918
		c0.0136719-0.0075684,0.0263672-0.0163574,0.0405273-0.0241699c0.1645508-0.0925293,0.328125-0.1860352,0.4833984-0.2890625
		c0.0039063-0.0024414,0.0073242-0.005127,0.0107422-0.0075684c0.1157227-0.0769043,0.2275391-0.1574707,0.3378906-0.2399902
		c0.050293-0.0378418,0.0966797-0.0800781,0.1459961-0.1191406c0.1044922-0.0822754,0.2104492-0.1633301,0.3100586-0.2507324
		c0.0053711-0.0048828,0.0102539-0.0095215,0.0151367-0.0141602c0.3813477-0.3366699,0.7353516-0.7006836,1.0405273-1.1052246
		c0.3701172-0.4907227,0.6826172-1.027832,0.9335938-1.6032715c0.5024414-1.1496582,0.7587891-2.4519043,0.7412109-3.8356934
		c-0.0180664-1.3837891-0.3095703-2.8500977-0.90625-4.3317871l-65.2456055-162.0483398
		c0-0.0002441-0.0004883-0.0002441-0.0009766-0.0002441c-0.2016602-0.0463867-0.4023438-0.0957031-0.6040039-0.1430664
		c-0.3969727-0.09375-0.7919922-0.1923828-1.1875-0.2905273l18.2827148,45.4074707L474.8804932,454.1452026z"/>
	<path fill="#404040" d="M485.0870361,477.4022827c-0.0244141,0.0200195-0.0507813,0.0380859-0.0756836,0.0581055
		c-0.1064453,0.0859375-0.2182617,0.1662598-0.3271484,0.25c-0.203125,0.15625-0.4072266,0.3112793-0.6181641,0.4594727
		c-0.0390625,0.027832-0.0756836,0.0588379-0.1157227,0.0861816c-0.0922852,0.0639648-0.1914063,0.1206055-0.2851563,0.1828613
		c-0.1977539,0.1311035-0.3964844,0.260498-0.6005859,0.3845215c-0.1455078,0.088623-0.2939453,0.1738281-0.4423828,0.2587891
		c-0.2036133,0.1159668-0.4091797,0.2287598-0.6186523,0.3378906c-0.0791016,0.0412598-0.1542969,0.0878906-0.234375,0.128418
		c-0.074707,0.0371094-0.1538086,0.0686035-0.2290039,0.1052246c-0.2163086,0.1052246-0.4365234,0.2053223-0.6586914,0.3029785
		c-0.15625,0.0688477-0.3125,0.1374512-0.4711914,0.2023926c-0.2368164,0.0966797-0.4790039,0.1862793-0.7216797,0.2741699
		c-0.1118164,0.0405273-0.2182617,0.0874023-0.3310547,0.1259766c-0.0410156,0.013916-0.0844727,0.0244141-0.1259766,0.0380859
		c-0.2719727,0.0913086-0.5507813,0.1728516-0.8305664,0.253418c-0.1333008,0.0383301-0.2641602,0.0810547-0.3994141,0.1171875
		c-0.4179688,0.1108398-0.8422852,0.2119141-1.2763672,0.2988281l-4.0600586,0.8115234l-252.8789063,50.5444336
		c-2.7426758,0.5478516-5.5507813,0.6352539-8.3383789,0.3164063c-0.9003906-0.1030273-1.7988281-0.2473145-2.6918945-0.4338379
		c-2.4306641-0.5070801-4.8208008-1.3225098-7.1171875-2.3991699c-1.1630859-0.5454102-2.3041992-1.1533203-3.4106445-1.8310547
		c-3.2924805-2.0170898-6.2983398-4.5981445-8.8198242-7.6223145c-0.4145508-0.4975586-0.8110352-1.0114746-1.1987305-1.5324707
		c-0.4956055-0.6657715-0.9736328-1.3461914-1.4213867-2.0483398c-1.3305664-2.0854492-2.4423828-4.3251953-3.2880859-6.689209
		h-0.0004883l0.0004883-0.0004883L25.8267803,69.5924683v-0.0002441l-0.8041992-2.2485352l-0.6235352-1.7424316v-0.0009766
		l-3.7700195-10.5390625c-0.144043-0.4030762-0.2763672-0.8049316-0.3974609-1.2053223
		c-0.0493164-0.1616211-0.0888672-0.3220215-0.1342773-0.4831543c-0.0673828-0.2392578-0.137207-0.4790039-0.1962891-0.7172852
		c-0.0439453-0.1757813-0.0786133-0.3500977-0.1181641-0.5253906c-0.0498047-0.222168-0.1025391-0.4445801-0.1455078-0.6652832
		c-0.003418-0.0183105-0.0083008-0.0368652-0.0117188-0.0549316c-0.0302734-0.1584473-0.0517578-0.3151855-0.0786133-0.4731445
		c-0.03125-0.1843262-0.0683594-0.369873-0.0947266-0.5532227c-0.0048828-0.0332031-0.0073242-0.065918-0.0117188-0.0991211
		c-0.0244141-0.1748047-0.0415039-0.3476563-0.0615234-0.5214844c-0.0249023-0.2145996-0.0512695-0.4294434-0.0693359-0.6425781
		c-0.0151367-0.1733398-0.0229492-0.3452148-0.0336914-0.5175781c-0.0126953-0.2114258-0.0263672-0.4226074-0.0327148-0.6323242
		c-0.0053711-0.170166-0.0043945-0.3383789-0.0053711-0.5073242c-0.0014648-0.2089844-0.0024414-0.4179688,0.0029297-0.625
		c0.0039063-0.1679688,0.0136719-0.3339844,0.0219727-0.5007324c0.0068359-0.1379395,0.0083008-0.2775879,0.0180664-0.4147949
		c0.0048828-0.0661621,0.0141602-0.1308594,0.0195313-0.1970215c0.0048828-0.0581055,0.0058594-0.1171875,0.0112305-0.1750488
		c0.0092773-0.1069336,0.0268555-0.2111816,0.0380859-0.3173828c0.0214844-0.1999512,0.0444336-0.3994141,0.0717773-0.597168
		c0.0229492-0.1640625,0.0498047-0.3269043,0.0771484-0.4897461c0.0322266-0.1923828,0.065918-0.3837891,0.1035156-0.5739746
		c0.0332031-0.1650391,0.0693359-0.3286133,0.1064453-0.4919434c0.0419922-0.1831055,0.0854492-0.3652344,0.1328125-0.5458984
		c0.0429688-0.1657715,0.0888672-0.3300781,0.1367188-0.4941406c0.0258789-0.0881348,0.046875-0.1787109,0.0737305-0.2663574
		c0.0131836-0.0432129,0.0336914-0.0834961,0.0473633-0.126709c0.1821289-0.5756836,0.3916016-1.1384277,0.6289063-1.6870117
		c0.0351563-0.0810547,0.0712891-0.1611328,0.1079102-0.2416992c0.2456055-0.5456543,0.5170898-1.0773926,0.8164063-1.5927734
		c0.0175781-0.0307617,0.0307617-0.0644531,0.0483398-0.0952148L7.4732652,62.1803589
		c-0.6860352,1.1630859-1.2373047,2.4089355-1.644043,3.7209473s-0.668457,2.6914063-0.7749023,4.1201172
		c-0.1069336,1.4304199-0.0581055,2.9101563,0.15625,4.4257813s0.5942383,3.0656738,1.1503906,4.6362305h0.0004883
		l-0.0004883,0.0002441l159.6635742,450.723877l0.0004883-0.0002441v0.001709
		c1.3256836,3.7409668,3.3261719,7.1638184,5.8085938,10.1489258c2.4829102,2.9873047,5.4472656,5.5334473,8.6962891,7.5197754
		c3.2480469,1.9858398,6.7792969,3.4106445,10.3989258,4.1569824c3.6157227,0.7451172,7.3173828,0.8115234,10.909668,0.081543
		l254.515625-51.6608887c0.9047852-0.1838379,1.7758789-0.4216309,2.6103516-0.7084961
		c0.8344727-0.2878418,1.6328125-0.625,2.3925781-1.0097656c0.7602539-0.3840332,1.4829102-0.8144531,2.1665039-1.2880859
		c0.6831055-0.4724121,1.3271484-0.9882813,1.9301758-1.5432129l20.4389648-18.8015137
		c-0.2250977,0.2070313-0.4614258,0.4025879-0.6977539,0.5983887
		C485.1573486,477.3341675,485.1251221,477.3712769,485.0870361,477.4022827z"/>
	<path fill="#666666" d="M426.3155518,293.8685913c-1.8930664-0.1467285-3.7705078-0.3469238-5.6342773-0.5932617
		c-2.6601563-0.3515625-5.2885742-0.8039551-7.8823242-1.3518066c-0.5922852-0.1252441-1.1835938-0.251709-1.7719727-0.3867188
		L476.272583,453.585144c0.5966797,1.4816895,0.8881836,2.947998,0.90625,4.3317871
		c0.0175781,1.3837891-0.2387695,2.6860352-0.7412109,3.8356934c-0.2509766,0.5754395-0.5634766,1.1125488-0.9335938,1.6032715
		c-0.3051758,0.404541-0.6591797,0.7685547-1.0405273,1.1052246c-0.0048828,0.0046387-0.0097656,0.0092773-0.0151367,0.0141602
		c-0.0761719,0.0666504-0.1445313,0.1408691-0.2236328,0.2045898c-0.0732422,0.0595703-0.1567383,0.1083984-0.2324219,0.1652832
		c-0.1103516,0.0825195-0.222168,0.1630859-0.3378906,0.2399902c-0.003418,0.0024414-0.0068359,0.005127-0.0107422,0.0075684
		c-0.168457,0.1118164-0.3447266,0.2141113-0.5239258,0.3132324c-0.1191406,0.065918-0.2368164,0.1337891-0.3608398,0.1940918
		c-0.0029297,0.0014648-0.0058594,0.0031738-0.0087891,0.0048828c-0.2026367,0.0983887-0.4160156,0.1831055-0.6313477,0.2651367
		c-0.1147461,0.0441895-0.2255859,0.0939941-0.34375,0.1335449c0,0-0.0004883,0-0.0009766,0.0002441
		c-0.0048828,0.001709-0.0102539,0.0024414-0.0146484,0.0039063c-0.3037109,0.1003418-0.6196289,0.1838379-0.9453125,0.2521973
		c-0.0332031,0.0075684-0.0644531,0.0185547-0.0981445,0.0253906l-10.050293,1.9743652l-5.9189453,1.1628418L253.178833,509.0221558
		l-39.1469727,7.690918c-0.0004883,0-0.0004883,0-0.0009766,0c-0.4423828,0.0869141-0.8891602,0.137207-1.3374023,0.168457
		c-1.0917969,0.0761719-2.1938477-0.0004883-3.277832-0.2294922c-1.5307617-0.3220215-3.0249023-0.9299316-4.3994141-1.7729492
		c-1.3754883-0.8430176-2.6313477-1.921875-3.6860352-3.1845703c-1.0541992-1.2629395-1.9067383-2.7104492-2.4760742-4.2905273
		L39.6988525,65.3590698l-4.0932617-11.3686523l-0.1484375-0.4123535c-0.0991211-0.2749023-0.175293-0.546875-0.2495117-0.8183594
		c-0.0170898-0.0637207-0.0419922-0.1281738-0.0581055-0.1916504c-0.0004883-0.0009766-0.0004883-0.0019531-0.0009766-0.0029297
		c-0.0332031-0.1335449-0.0512695-0.2641602-0.0786133-0.3967285c-0.0410156-0.197998-0.0869141-0.3967285-0.1147461-0.592041
		c-0.0004883-0.0012207-0.0004883-0.0021973-0.0004883-0.003418c-0.0209961-0.1462402-0.0263672-0.2890625-0.0400391-0.4338379
		c-0.0170898-0.1789551-0.0390625-0.359375-0.0449219-0.5356445c0-0.0019531,0-0.0039063-0.0004883-0.0061035
		c-0.0043945-0.1464844,0.0053711-0.2888184,0.0078125-0.4333496v-0.0002441
		c0.003418-0.1674805,0.0019531-0.3364258,0.0146484-0.5007324c0.0004883-0.0026855,0.0004883-0.0053711,0.0004883-0.0080566
		c0.0014648-0.019043,0-0.0390625,0.0014648-0.0581055c0.0112305-0.1269531,0.0380859-0.248291,0.0546875-0.3730469
		c0.0214844-0.1567383,0.0385742-0.3146973,0.0688477-0.4677734c0.0004883-0.0026855,0.0004883-0.0053711,0.0009766-0.0083008
		c0.0283203-0.1411133,0.0683594-0.2768555,0.1035156-0.4150391c0.0385742-0.1489258,0.0737305-0.2993164,0.1206055-0.4445801
		c0.0009766-0.0031738,0.0014648-0.0063477,0.0024414-0.0092773c0.043457-0.1333008,0.0976563-0.2609863,0.1479492-0.3908691
		c0.0551758-0.1420898,0.1079102-0.2856445,0.171875-0.4233398c0.0014648-0.003418,0.0024414-0.0068359,0.0039063-0.0100098
		c0.0576172-0.1242676,0.125-0.2429199,0.1889648-0.3635254c0,0,0,0,0.0004883-0.0002441
		c0.0742188-0.1391602,0.1464844-0.2792969,0.2299805-0.4133301c0.0175781-0.0283203,0.0302734-0.0595703,0.0483398-0.0876465
		c0.0649414-0.1013184,0.1430664-0.1938477,0.2128906-0.2919922c0.0849609-0.1196289,0.1665039-0.2412109,0.2592773-0.355957
		c0.0996094-0.1240234,0.2104492-0.2397461,0.3188477-0.357666c0.0966797-0.1049805,0.1889648-0.2131348,0.2924805-0.3129883
		c0.1206055-0.1174316,0.2529297-0.2248535,0.3828125-0.3349609c0.1044922-0.088623,0.2041016-0.1811523,0.3144531-0.2648926
		c0.1464844-0.111084,0.3041992-0.2104492,0.4599609-0.3125c0.1074219-0.0705566,0.2099609-0.1462402,0.3222656-0.2121582
		c0.0180664-0.0107422,0.0336914-0.0234375,0.0512695-0.0339355c0.1484375-0.0856934,0.3100586-0.1569824,0.4658203-0.2346191
		c0.1176758-0.0588379,0.2294922-0.1235352,0.3515625-0.1774902c0.1811523-0.0800781,0.3740234-0.1459961,0.5639648-0.2150879
		c0.1264648-0.0461426,0.2470703-0.0993652,0.3774414-0.140625c0.2333984-0.0737305,0.4794922-0.1306152,0.7250977-0.1879883
		c0.0966797-0.0224609,0.1865234-0.0527344,0.284668-0.0725098c0.2436523-0.0490723,0.4990234-0.0805664,0.7539063-0.1135254
		c0.1118164-0.0144043,0.2182617-0.0378418,0.3325195-0.0490723l71.1474609-6.9719238l2.53125,6.7871094
		c0.8544922,2.2905273,2.1625977,4.4294434,3.7954102,6.3334961c1.6333008,1.9047852,3.5898438,3.5737305,5.7397461,4.9262695
		c2.1494141,1.3515625,4.4921875,2.385498,6.8964844,3.0195313c2.4033203,0.6333008,4.8671875,0.8681641,7.262207,0.621582
		l69.4399414-7.1376953l5.2973633-0.5444336l2.2524414-0.2314453c0.5571289-0.057373,1.0957031-0.1435547,1.6191406-0.2514648
		c0.1665039-0.0341797,0.3227539-0.0834961,0.4858398-0.1225586c0.3481445-0.0839844,0.6948242-0.1694336,1.0263672-0.2751465
		c0.1904297-0.060791,0.3701172-0.1345215,0.5551758-0.2023926c0.2871094-0.1049805,0.5732422-0.2109375,0.8466797-0.3325195
		c0.1899414-0.0844727,0.3706055-0.1789551,0.5537109-0.2709961c0.2514648-0.1264648,0.5004883-0.2548828,0.7387695-0.3952637
		c0.0688477-0.0407715,0.1459961-0.0727539,0.2143555-0.1147461c0.1074219-0.065918,0.2011719-0.1455078,0.3056641-0.2143555
		c0.2246094-0.1479492,0.4453125-0.300293,0.6567383-0.4609375c0.0927734-0.0703125,0.1918945-0.1342773,0.2822266-0.2067871
		c0.0654297-0.0529785,0.121582-0.1140137,0.1860352-0.1679688c0.2036133-0.1716309,0.4003906-0.3498535,0.590332-0.5336914
		c0.034668-0.0332031,0.0732422-0.0629883,0.1069336-0.0966797c0,0,0,0,0.0004883,0
		c0.1040039-0.1035156,0.2036133-0.2102051,0.3037109-0.3171387c0.1811523-0.1940918,0.3520508-0.3964844,0.5185547-0.6018066
		c0.0092773-0.0114746,0.0195313-0.0219727,0.0288086-0.0332031c0.0083008-0.010498,0.0175781-0.0200195,0.0263672-0.0305176
		c0.1005859-0.1264648,0.2016602-0.2524414,0.296875-0.3828125c0.1303711-0.1782227,0.246582-0.3657227,0.3662109-0.5512695
		c0.0883789-0.137207,0.1879883-0.2668457,0.2705078-0.407959c0.0097656-0.0168457,0.0229492-0.0317383,0.0327148-0.0488281
		c0.0009766-0.0019531,0.0024414-0.0039063,0.0039063-0.0058594c0.0014648-0.0029297,0.0029297-0.0061035,0.0043945-0.0090332
		c0.0473633-0.0822754,0.081543-0.171875,0.1269531-0.2553711c0.0512695-0.09375,0.0947266-0.1918945,0.1430664-0.2873535
		c0.0595703-0.1179199,0.1206055-0.2348633,0.1767578-0.3549805c0.0366211-0.0793457,0.0810547-0.1538086,0.1162109-0.2338867
		c0.0424805-0.097168,0.078125-0.1975098,0.1157227-0.2971191c0.019043-0.0515137,0.0395508-0.1020508,0.0595703-0.1530762
		c0.0078125-0.0209961,0.0161133-0.041748,0.0244141-0.0627441c0.0087891-0.0234375,0.0161133-0.0476074,0.0249023-0.0710449
		c0.0639648-0.1704102,0.1254883-0.3417969,0.1816406-0.5161133c0.0205078-0.0629883,0.0463867-0.1230469,0.065918-0.1865234
		c0.0566406-0.1855469,0.1035156-0.3754883,0.1513672-0.5651855c0.0063477-0.0256348,0.0107422-0.052002,0.0170898-0.0773926
		c0.0527344-0.2143555,0.1025391-0.4299316,0.144043-0.6489258c0.0043945-0.0224609,0.0107422-0.0441895,0.0146484-0.0666504
		c0.0366211-0.197998,0.0668945-0.3979492,0.09375-0.5996094c0.0097656-0.0695801,0.0131836-0.1408691,0.0214844-0.2106934
		c0.0244141-0.2045898,0.0478516-0.4091797,0.0625-0.6169434c0.0083008-0.1147461,0.0297852-0.2248535,0.034668-0.3405762
		c0.0043945-0.0888672-0.0053711-0.1816406-0.0029297-0.270752c0.0029297-0.1228027-0.0043945-0.2487793-0.0043945-0.3725586
		c-0.0004883-0.1689453,0.0004883-0.3374023-0.0058594-0.5080566c-0.0078125-0.2038574-0.0136719-0.4067383-0.0302734-0.612793
		c-0.0151367-0.1860352-0.0458984-0.3757324-0.0683594-0.5634766c-0.0151367-0.1257324-0.0273438-0.2507324-0.0458984-0.3774414
		c-0.0200195-0.1394043-0.0375977-0.2783203-0.0615234-0.4187012c-0.0097656-0.0571289-0.0146484-0.1132813-0.0253906-0.1706543
		c-0.0498047-0.270752-0.1220703-0.5456543-0.1875-0.8193359c-0.0200195-0.0852051-0.0366211-0.1699219-0.0581055-0.2553711
		c-0.0351563-0.1369629-0.0615234-0.2719727-0.1000977-0.409668c-0.0078125-0.0268555-0.012207-0.0534668-0.0200195-0.0805664
		c-0.1425781-0.4973145-0.3115234-0.9985371-0.5053711-1.5026875c-0.0117188-0.0305176-0.0185547-0.0605469-0.0307617-0.0910645
		c0,0,0-0.0002441,0-0.0004883l-2.5883789-6.6274414l66.25-6.4921875c0.3310547-0.0324707,0.6655273-0.0480957,1.0009766-0.0473633
		c1.0078125,0.001709,2.0302734,0.1494141,3.0366211,0.4240723c1.3413086,0.3659668,2.6552734,0.9567871,3.8686523,1.7272949
		c1.2133789,0.7702637,2.3266602,1.7192383,3.2680664,2.8024902c0.9418945,1.0825195,1.7114258,2.2995605,2.2373047,3.604248
		l42.4291992,105.3808594c0.3325195-0.5063477,0.6660156-1.0119629,1.0068359-1.512207
		c1.4311523-2.1005859,2.9370117-4.1464844,4.5126953-6.1342773c1.1733398-1.4799805,2.3876953-2.9255371,3.6376953-4.3393555
		l-38.3364258-94.7194824c-1.2543945-3.1013184-3.0883789-5.9916992-5.328125-8.5637207
		c-2.2387695-2.5722656-4.8847656-4.8276367-7.7680664-6.6582031c-2.8833008-1.8312988-6.0053711-3.2382808-9.1943359-4.1127925
		c-3.1918945-0.8754883-6.4526367-1.2180176-9.6123047-0.9174805L37.5216064,28.7457867
		c-3.4921875,0.3325195-6.586916,1.3146973-9.1918964,2.8071289c-2.6083984,1.494875-4.7255859,3.5009785-6.2597656,5.8793964
		c-0.1459961,0.2268066-0.2822266,0.4599609-0.4174805,0.6933594c-0.2993164,0.5153809-0.5708008,1.0471191-0.8164063,1.5927734
		c-0.0366211,0.0803223-0.0727539,0.1606445-0.1079102,0.2416992c-0.2373047,0.5483398-0.4467773,1.1113281-0.6289063,1.6870117
		c-0.0415039,0.1306152-0.0825195,0.2612305-0.1210938,0.3930664c-0.0478516,0.1638184-0.09375,0.3283691-0.1367188,0.4941406
		c-0.0473633,0.1806641-0.0908203,0.362793-0.1328125,0.5458984c-0.0371094,0.1630859-0.0732422,0.3269043-0.1064453,0.4919434
		c-0.0375977,0.1899414-0.0712891,0.3815918-0.1035156,0.5739746c-0.0273438,0.1625977-0.0537109,0.3256836-0.0771484,0.4897461
		c-0.0273438,0.1977539-0.050293,0.3972168-0.0717773,0.597168c-0.0112305,0.1062012-0.0288086,0.2104492-0.0380859,0.3173828
		c-0.0053711,0.0578613-0.0063477,0.1169434-0.0112305,0.1750488c-0.0166016,0.2026367-0.0273438,0.4072266-0.0375977,0.6118164
		c-0.0083008,0.166748-0.0180664,0.3327637-0.0219727,0.5007324c-0.0053711,0.2070313-0.0043945,0.4160156-0.0029297,0.625
		c0.0009766,0.1689453,0,0.3374023,0.0053711,0.5073242c0.0063477,0.2097168,0.0200195,0.4211426,0.0327148,0.6323242
		c0.0107422,0.1723633,0.0185547,0.3442383,0.0336914,0.5175781c0.0180664,0.2131348,0.0444336,0.4279785,0.0693359,0.6425781
		c0.0200195,0.1738281,0.0371094,0.3469238,0.0615234,0.5214844c0.0302734,0.2163086,0.0693359,0.4345703,0.1064453,0.6523438
		c0.0268555,0.157959,0.0483398,0.3146973,0.0786133,0.4731445c0.003418,0.0180664,0.0083008,0.0366211,0.0117188,0.0549316
		c0.0429688,0.2207031,0.0957031,0.4431152,0.1455078,0.6652832c0.0395508,0.175293,0.0742188,0.3496094,0.1181641,0.5253906
		c0.059082,0.2382813,0.1293945,0.4780273,0.1962891,0.7172852c0.0454102,0.1611328,0.0849609,0.3215332,0.1342773,0.4831543
		c0.1210938,0.4003906,0.2529297,0.8022461,0.3974609,1.2053223l3.7700195,10.5390625v0.0009766l0.6235352,1.7424316
		l0.8041992,2.2485352v0.0002441l157.6733398,440.7897949c0.8457031,2.3642578,1.9575195,4.604248,3.2880859,6.6896973
		c0.4477539,0.7021484,0.9257813,1.3825684,1.4213867,2.0483398c0.3876953,0.5209961,0.7841797,1.0349121,1.1987305,1.5324707
		c2.5214844,3.0241699,5.5273438,5.6052246,8.8198242,7.6223145c1.1064453,0.6777344,2.2475586,1.2856445,3.4106445,1.8310547
		c2.2963867,1.0766602,4.6865234,1.8920898,7.1171875,2.3991699c0.8930664,0.1865234,1.7915039,0.3308105,2.6918945,0.4338379
		c2.7875977,0.3188477,5.5957031,0.2314453,8.3383789-0.3164063l252.8789063-50.5444336l4.0600586-0.8115234
		c0.4335938-0.0869141,0.8583984-0.1879883,1.2763672-0.2988281c0.1352539-0.0358887,0.2661133-0.0788574,0.3994141-0.1171875
		c0.2797852-0.0805664,0.5585938-0.1621094,0.8305664-0.253418c0.1547852-0.0515137,0.3046875-0.1088867,0.4570313-0.1640625
		c0.2426758-0.0878906,0.4848633-0.1774902,0.7216797-0.2741699c0.1586914-0.0646973,0.3149414-0.1335449,0.4711914-0.2023926
		c0.222168-0.0976563,0.4423828-0.197998,0.6586914-0.3029785c0.15625-0.0759277,0.3105469-0.1540527,0.4633789-0.2336426
		c0.2094727-0.1088867,0.4150391-0.2219238,0.6186523-0.3378906c0.1484375-0.0849609,0.296875-0.170166,0.4423828-0.2587891
		c0.2041016-0.1240234,0.402832-0.253418,0.6005859-0.3845215c0.1342773-0.0891113,0.2700195-0.1767578,0.4008789-0.269043
		c0.2109375-0.1481934,0.4150391-0.3032227,0.6181641-0.4594727c0.1088867-0.0834961,0.2207031-0.1640625,0.3271484-0.25
		c0.0249023-0.0200195,0.0512695-0.0380859,0.0756836-0.0581055c0.0380859-0.0310059,0.0703125-0.0681152,0.1079102-0.0996094
		c2.2348633-1.8532715,3.9750977-4.2043457,5.1416016-6.9082031c1.1860352-2.7451172,1.7866211-5.8491211,1.7348633-9.1477051
		c-0.0527344-3.2929688-0.7568359-6.7817383-2.1821289-10.3037109L426.3155518,293.8685913z"/>
	<path fill="#666666" d="M295.4532471,186.562439c2.1176758-0.2805176,3.9638672-0.979248,5.4892578-2.003418
		c1.0244141-0.6872559,1.8896484-1.5317383,2.6098633-2.4833984c0.0131836-0.0178223,0.027832-0.0344238,0.0410156-0.0522461
		c0.1196289-0.1599121,0.2373047-0.3215332,0.3481445-0.4880371c0.0541992-0.0817871,0.1010742-0.1682129,0.1533203-0.2514648
		c0.0708008-0.1132813,0.1420898-0.2260742,0.2084961-0.3422852c0.0644531-0.1113281,0.140625-0.2148438,0.2006836-0.3286133
		c0.0341797-0.0649414,0.0581055-0.1357422,0.0913086-0.2011719c0.0878906-0.175293,0.1645508-0.3571777,0.2436523-0.5375977
		c0.0146484-0.0336914,0.0307617-0.0666504,0.0454102-0.1005859c0.0595703-0.1396484,0.1191406-0.2790527,0.1733398-0.4213867
		c0.0175781-0.0458984,0.0385742-0.0895996,0.0556641-0.1357422c0.0839844-0.2297363,0.1533203-0.4667969,0.2231445-0.7038574
		c0.0551758-0.1875,0.1147461-0.3723145,0.1611328-0.564209c0.0097656-0.0410156,0.0146484-0.0839844,0.0239258-0.125
		c0.0488281-0.2124023,0.0874023-0.4296875,0.125-0.6469727c0.0327148-0.1875,0.0727539-0.371582,0.0966797-0.5622559
		c0.003418-0.0268555,0.003418-0.0551758,0.0063477-0.0820313c0.0302734-0.2519531,0.0449219-0.5095215,0.0605469-0.7670898
		c0.0097656-0.159668,0.0336914-0.314209,0.0375977-0.4758301c0.0004883-0.0224609-0.0024414-0.0458984-0.0019531-0.0683594
		c0.0004883-0.0256348-0.0024414-0.0522461-0.0024414-0.0778809c0.0043945-0.3156738-0.0102539-0.637207-0.0283203-0.9597168
		c-0.0078125-0.1333008-0.003418-0.2631836-0.0146484-0.3974609c-0.0371094-0.4423828-0.1010742-0.8916016-0.1806641-1.34375
		c-0.0068359-0.0378418-0.0083008-0.0742188-0.0151367-0.1120605c-0.190918-1.0405273-0.4926758-2.1040039-0.9169922-3.1794434
		c-0.8349609-2.1184082-2.0556641-4.081543-3.5493164-5.8168945c-1.4931641-1.734375-3.2592773-3.2429199-5.184082-4.4545898
		c-0.4814453-0.3027344-0.9726563-0.5866699-1.472168-0.8510742c-1.4985352-0.793457-3.0712891-1.409668-4.6699219-1.8178711
		c-2.1328125-0.545166-4.3129883-0.7202148-6.4257813-0.4545898L155.5240479,171.843689
		c-2.2265625,0.2797852-4.1855469,0.9892578-5.8217773,2.0314941c-1.6381836,1.0437012-2.953125,2.4221191-3.8886719,4.0400391
		c-0.9360352,1.6188965-1.4926758,3.4770508-1.612793,5.4797363c-0.1206055,2.003418,0.1962891,4.1513672,1.0063477,6.3459473
		c0.8110352,2.1972656,2.0385742,4.2319336,3.5644531,6.0302734c1.5253906,1.7990723,3.3491211,3.359375,5.3500977,4.6079102
		c2.0019531,1.248291,4.1801758,2.1845703,6.4179688,2.734375c2.2358398,0.5498047,4.5288086,0.7138672,6.7602539,0.4179688
		l126.8378906-16.7946777L295.4532471,186.562439z"/>
	<path fill="#666666" d="M196.5777588,325.2230835c1.5615234,1.8491211,3.4204102,3.4428711,5.4570313,4.706543
		c2.0371094,1.2626953,4.2495117,2.1945801,6.5166016,2.7209473c2.2661133,0.5253906,4.5869141,0.6464844,6.8398438,0.2868652
		l119.1181641-19.0168457l0.5200195-0.0830078l9.6713867-1.5441895c0.4770508-0.0761719,0.9350586-0.1811523,1.3837891-0.2995605
		c0.1293945-0.0341797,0.2563477-0.0722656,0.3837891-0.1098633c0.3432617-0.1013184,0.6777344-0.2148438,1.0029297-0.340332
		c0.1015625-0.0390625,0.206543-0.0744629,0.3061523-0.1159668c0.4072266-0.1689453,0.8007813-0.3554688,1.1772461-0.5610352
		c0.0761719-0.041748,0.1474609-0.088623,0.2226563-0.1315918c0.3046875-0.1750488,0.5991211-0.3618164,0.8823242-0.5598145
		c0.0522461-0.0366211,0.1113281-0.065918,0.1625977-0.1032715c0.0449219-0.0324707,0.0830078-0.0712891,0.1274414-0.1044922
		c0.3041992-0.2270508,0.5976563-0.4650879,0.875-0.7182617c0.0317383-0.0288086,0.0664063-0.0546875,0.0976563-0.0839844
		c0.3071289-0.2866211,0.5932617-0.5915527,0.8647461-0.9082031c0.0571289-0.0666504,0.1118164-0.1352539,0.1669922-0.203125
		c0.2431641-0.296875,0.4741211-0.6032715,0.6860352-0.923584c0.0185547-0.0280762,0.0395508-0.0544434,0.0581055-0.0827637
		c0.2216797-0.3417969,0.4208984-0.6992188,0.6069336-1.0649414c0.0214844-0.0419922,0.0488281-0.0800781,0.0698242-0.1220703
		c0.0209961-0.0429688,0.0356445-0.0900879,0.0561523-0.1333008c0.1772461-0.3703613,0.3417969-0.7485352,0.4824219-1.1398926
		c0.0112305-0.0314941,0.0195313-0.064209,0.0307617-0.0959473c0.128418-0.3686523,0.2368164-0.7480469,0.3320313-1.1337891
		c0.0234375-0.0942383,0.0473633-0.1879883,0.0688477-0.2832031c0.0913086-0.4099121,0.1665039-0.8269043,0.2192383-1.2529297
		c0.0092773-0.0722656,0.0136719-0.1464844,0.0214844-0.2192383c0.0419922-0.3842773,0.0668945-0.7744141,0.0766602-1.1699219
		c0.0014648-0.0585938,0.0107422-0.114502,0.0112305-0.1733398c0.0004883-0.0302734-0.0039063-0.0615234-0.003418-0.0917969
		c0.0029297-0.4423828-0.0151367-0.8913574-0.0527344-1.345459c-0.0078125-0.0961914-0.0200195-0.1933594-0.0297852-0.2900391
		c-0.0424805-0.4216309-0.1010742-0.847168-0.1796875-1.2766113c-0.0107422-0.059082-0.0175781-0.1174316-0.0292969-0.1765137
		c-0.0913086-0.4709473-0.2089844-0.9467773-0.34375-1.4248047c-0.0302734-0.1066895-0.0625-0.2138672-0.0947266-0.3210449
		c-0.1474609-0.4875488-0.3095703-0.9770508-0.5039063-1.4692383c-0.8671875-2.199707-2.1225586-4.2275391-3.6499023-6.0112305
		c-1.1455078-1.3378906-2.4443359-2.5385742-3.8481445-3.5717773c-0.4677734-0.3442383-0.9472656-0.670166-1.4370117-0.9760742
		c-1.9575195-1.2250977-4.0732422-2.1345215-6.2319336-2.6572266c-2.159668-0.5219727-4.3632813-0.6574707-6.4941406-0.3320313
		h-0.0004883l-17.1220703,2.6140137l-111.8979492,17.083252c-2.2470703,0.3425293-4.2202148,1.1289063-5.8637695,2.2573242
		c-1.6450195,1.1298828-2.9599609,2.6025391-3.8891602,4.3181152c-0.9296875,1.7165527-1.4726563,3.6760254-1.5727539,5.7763672
		c-0.1010742,2.1022949,0.2421875,4.3452148,1.0839844,6.626709
		C193.7554932,321.2723999,195.0172119,323.3746948,196.5777588,325.2230835z"/>
	<path fill="#00B1A9" d="M502.1177979,123.2221069c-8.7832031-8.7819824-19.0097656-15.6762695-30.402832-20.4958496
		c-11.7983398-4.9865723-24.3237305-7.5180664-37.2338867-7.5180664s-25.4384766,2.5314941-37.2299805,7.5180664
		c-11.3891602,4.8195801-21.6235352,11.7138672-30.4072266,20.4958496c-1.0102539,1.010498-1.9892578,2.0449219-2.9492188,3.0932617
		c-1.2695313,1.3862305-2.4907227,2.8076172-3.6708984,4.2580566c-1.2260742,1.5068359-2.3920898,3.0546875-3.5205078,4.6286621
		c-1.5366211,2.1430664-2.9941406,4.3391113-4.3466797,6.6020508c-0.3266602,0.5456543-0.6342773,1.1032715-0.949707,1.6557617
		c0,0.0002441,0,0.0007324,0,0.0009766c-0.315918,0.5529785-0.6455078,1.0974121-0.9501953,1.6569824
		c-1.5019531,2.7583008-2.8759766,5.5944824-4.1103516,8.5095215c-3.5947266,8.4987793-5.9042969,17.3815918-6.918457,26.5117188
		c-0.3930664,3.5390625-0.5976563,7.1142578-0.5976563,10.7202148c0,4.1643066,0.2670898,8.2878418,0.7910156,12.3608398
		c1.1000977,8.5539551,3.3461914,16.8813477,6.7250977,24.8728027
		c4.8232422,11.3876953,11.7138672,21.6181641,20.4975586,30.4050293c1.9311523,1.9304199,3.9448242,3.753418,6.0131836,5.4997559
		c7.3388672,6.1962891,15.5087891,11.2363281,24.394043,14.9960938c2.7431641,1.1606445,5.527832,2.1821289,8.3461914,3.0754395
		c0.3999023,0.126709,0.800293,0.2512207,1.2016602,0.3725586c0.2138672,0.0646973,0.4277344,0.126709,0.6420898,0.1896973
		c0,0,0.0004883,0.0002441,0.0009766,0.0002441c0.6064453,0.1789551,1.2148438,0.3522949,1.824707,0.5187988
		c2.6577148,0.7255859,5.34375,1.3356934,8.0561523,1.826416c1.9013672,0.3439941,3.8154297,0.6296387,5.7412109,0.8579102
		c1.8544922,0.2197266,3.7197266,0.3837891,5.5947266,0.4956055c1.9316406,0.1149902,3.8720703,0.1799316,5.8222656,0.1799316
		c12.9101563,0,25.4355469-2.5280762,37.2338867-7.5166016c11.3930664-4.8193359,21.6196289-11.7155762,30.402832-20.4958496
		c8.7807617-8.7868652,15.6816406-19.017334,20.4980469-30.4050293c4.9882813-11.7966309,7.5161133-24.3232422,7.5161133-37.2336426
		c0-12.9086914-2.527832-25.4387207-7.5161133-37.2319336C517.7994385,142.2362671,510.8985596,132.0057983,502.1177979,123.2221069
		z M492.0445557,207.2108765c0.0512695,4.2954102-1.5117188,9.0058594-3.9550781,11.7097168
		c-1.9130859,2.1982422-4.1025391,3.7380371-6.8881836,4.5136719c-1.8891602,0.5251465-3.5825195,0.7331543-5.5292969,0.7080078
		c-2-0.0087891-3.8823242-0.2636719-5.8432617-0.6845703c-1.7841797-0.3818359-3.4638672-0.9057617-5.1806641-1.5224609
		c-0.0673828-2.909668-0.5273438-5.9348145-1.4736328-9.190918c-0.2973633-1.0290527-0.6181641-2.0600586-0.9838867-3.0874023
		c0.0478516-0.0305176,0.1186523-0.0388184,0.1791992-0.0117188c0.0205078,0.0068359,0.0478516,0.0168457,0.0678711,0.0251465
		c-0.0063477-0.0031738,0-0.0065918-0.0063477-0.0134277c0.046875-0.0305176,0.1147461-0.0388184,0.175293-0.0117188
		c3.0751953,1.3586426,6.300293,2.4921875,9.6254883,3.0263672c0.956543,0.1523438,1.9262695,0.2519531,2.8959961,0.2583008
		c0.5678711-0.003418,1.1357422-0.0368652,1.7001953-0.1147461c0.4863281-0.0639648,0.9667969-0.1806641,1.4331055-0.3413086
		c0.3007813-0.1030273,0.6152344-0.2314453,0.878418-0.4106445c0.0942383-0.0556641,0.7539063-0.5036621,1.1459961-1.1286621
		c0.3852539-0.6218262,0.574707-1.3435059,0.6860352-2.0649414c0.2636719-1.6882324,0.0371094-3.4509277-0.3041992-5.1137695
		c-0.7739258-3.7463379-2.3388672-7.3254395-4.1230469-10.6894531c-3.6704102-6.9133301-8.4492188-13.2416992-13.6166992-19.0986328
		c-5.2758789-5.9750977-11.0756836-11.4992676-17.4423828-16.3015137c-3.2612305-2.4589844-6.6879883-4.7128906-10.2807617-6.659668
		c-3.5727539-1.9331055-7.4018555-3.6298828-11.4199219-4.3649902c-0.949707-0.1740723-1.9331055-0.2856445-2.9165039-0.2856445
		c-0.6123047,0.0119629-1.2167969,0.0690918-1.8149414,0.1911621c-0.324707,0.0639648-1.2915039,0.2280273-1.9804688,0.942627
		c-0.9838867,1.0241699-1.3354492,2.3000488-1.4770508,3.5622559c-0.2099609,1.8640137-0.003418,3.7600098,0.3618164,5.5917969
		c0.6113281,3.0751953,1.6728516,6.0581055,2.9501953,8.9223633c-0.0878906-0.0341797-0.1791992-0.0644531-0.2700195-0.0981445
		c0.0131836,0.0319824,0.0297852,0.065918,0.043457,0.0981445c-3.1567383-1.1965332-6.2387695-1.9873047-9.2768555-2.3811035
		c-1.0073242-0.1318359-1.9975586-0.2080078-2.9780273-0.2380371c-0.4794922-1.3723145-0.8950195-2.7631836-1.2363281-4.1740723
		c-1.6328125-6.7409668-1.4301758-14.5441895,3.7954102-19.71875c3.5415039-3.5114746,8.3574219-4.746582,13.2070313-4.7011719
		c2.2583008,0.003418,4.5253906,0.2875977,6.675293,0.7556152c7.7226563,1.6811523,14.9648438,5.3481445,21.5454102,9.630127
		c6.6166992,4.3024902,12.7207031,9.3840332,18.2871094,14.9719238
		c5.5151367,5.5427246,10.8999023,11.3911133,14.6640625,18.2553711
		C493.2657471,196.0216675,491.9967041,203.1937866,492.0445557,207.2108765z M423.4669189,242.0680542
		c-1.456543,0.7145996-3.0449219,0.996582-4.6469727,0.9848633c-2.2983398,0.0239258-4.6435547-0.5727539-6.722168-1.3886719
		c-0.6259766-0.2460938-1.2373047-0.5327148-1.8481445-0.8181152c-2.5209961-1.1774902-4.9140625-2.666748-7.1635742-4.3713379
		c-3.0639648-2.3217773-5.8696289-5.0146484-8.3666992-7.8071289c-0.1220703-0.1364746-0.2358398-0.28125-0.3564453-0.4189453
		c-2.3398438-2.6640625-4.465332-5.5537109-6.1557617-8.6726074c-1.7514648-3.2275391-3.1904297-6.8266602-3.1772461-10.5512695
		c0.0009766-0.972168,0.1391602-1.9401855,0.3891602-2.873291c0.5239258-1.956543,1.5864258-3.7470703,3.234375-5.0078125
		c0.0336914-0.0253906,0.0698242-0.0454102,0.1044922-0.0703125c1.4086914-1.0214844,2.9985352-1.5944824,4.6547852-1.8261719
		c0.6699219-0.09375,1.3496094-0.1379395,2.0336914-0.1264648c1.1489258,0.0019531,2.3115234,0.1437988,3.4399414,0.3969727
		c3.7314453,0.8364258,7.1987305,2.6279297,10.3657227,4.7333984c2.9370117,1.9519043,5.6977539,4.2497559,8.1586914,6.78125
		c4.8666992,5.0102539,9.3779297,11.1362305,10.9428711,18.065918c0.4833984,2.1665039,0.6728516,4.4831543,0.1323242,6.657959
		C427.9283447,238.5292358,425.9644775,240.8410034,423.4669189,242.0680542z M433.7310791,223.1940308
		c2.1425781,1.0056152,4.3662109,1.84375,6.6845703,2.3083496c0.7875977,0.1555176,1.6499023,0.2941895,2.5048828,0.3059082
		c0.25-0.001709,0.496582-0.0117188,0.7397461-0.0405273c0.4594727-0.0539551,1.5581055-0.0422363,1.8793945-1.3452148
		c0.1142578-0.4560547,0.0805664-0.9731445,0.0336914-1.3552246c-0.1958008-1.6730957-0.5610352-3.2509766-1.1625977-4.8295898
		c-1.3886719-3.6279297-3.4575195-6.9772949-5.6816406-10.1420898c-3.8896484-5.5292969-8.5263672-10.6359863-13.6064453-15.097168
		c-3.605957-3.1630859-7.5297852-6.0817871-11.7910156-8.302002c-1.8891602-0.9851074-3.9160156-1.6271973-5.918457-2.3691406
		c-2.4501953-0.9077148-4.2172852,0.8227539-4.4199219,1.1508789c-0.3891602,0.4697266-0.4702148,0.6472168-0.5175781,1.2333984
		c-0.0673828,0.9108887,0.0200195,1.5527344,0.1655273,2.4501953c0.456543,2.6987305,1.453125,5.1271973,2.6264648,7.5874023
		c-0.0952148-0.0371094-0.1894531-0.1418457-0.2807617-0.1774902c0.0166016,0.0356445,0.0341797,0.0390625,0.0546875,0.0744629
		c-1.6630859-0.6723633-3.2988281-1.204834-4.9384766-1.5715332c-1.7133789-0.3869629-3.40625-0.5727539-5.0419922-0.5610352
		c-0.5649414,0.0100098-1.1191406,0.0388184-1.6669922,0.0961914c-0.0029297-0.0048828-0.0029297-0.0134277-0.0092773-0.0166016
		c-0.0712891,0.0031738-0.1494141,0.0048828-0.2167969,0.0134277c-0.0810547-0.2163086-0.1547852-0.4309082-0.2329102-0.6489258
		c-0.2739258-0.828125-0.5444336-1.6711426-0.7373047-2.5229492c-0.1586914-0.7131348-0.296875-1.4211426-0.421875-2.1411133
		c-0.3417969-1.9921875-0.4160156-4.1230469-0.0541992-6.1220703c0.3173828-1.7524414,0.8857422-3.4829102,1.8754883-4.9799805
		c0.2944336-0.449707,1.2407227-1.6611328,2.1899414-2.5498047c0.4365234-0.4091797,0.9365234-0.7521973,1.4301758-1.0849609
		c1.2060547-0.8349609,2.6796875-1.4091797,4.0961914-1.7404785c1.4833984-0.3447266,2.9873047-0.4851074,4.5014648-0.4631348
		c0.9458008,0.001709,1.8994141,0.0693359,2.8457031,0.1894531c7.7729492,1.0068359,15.0629883,5.1606445,21.3017578,9.7045898
		c5.4111328,3.9421387,10.2739258,8.5810547,14.5898438,13.6977539c5.1274414,6.076416,9.487793,13.0966797,11.3422852,20.8659668
		c1.6953125,7.1020508,0.2905273,14.5529785-1.9462891,17.0471191c-0.65625,0.7163086-1.2270508,1.7197266-2.027832,2.2724609
		c-1.4296875,0.9802246-2.9643555,1.6882324-4.6103516,2.15625c-0.0136719,0.003418-0.0234375,0.1030273-0.0302734,0.1047363
		c-1.1494141,0.2316895-2.3115234,0.3803711-3.4711914,0.3769531c-2.4868164,0.0187988-4.9746094-0.4343262-7.347168-1.1965332
		c-0.4599609-0.1486816-0.9023438-0.2971191-1.3583984-0.4645996c0.2636719-2.3217773,0.2060547-4.8208008-0.4833984-7.4724121
		c-0.2265625-1.4851074-0.7973633-2.9587402-1.3481445-4.4272461c0.0708008-0.0456543,0.1484375-0.057373,0.2397461-0.0151367
		v0.0031738C433.581665,223.1652222,433.6563721,223.1586304,433.7310791,223.1940308z"/>
	<path fill="#00B1A9" d="M417.4141846,229.7389526c-0.3349609-1.197998-0.9736328-2.3000488-1.6293945-3.3476563
		c-0.7910156-1.2624512-1.6318359-2.5009766-2.534668-3.6855469c-1.2504883-1.6337891-2.5986328-3.171875-4.0385742-4.6367188
		c-2.4506836-2.486084-5.1879883-4.7163086-8.1723633-6.5178223c-0.6416016-0.3850098-1.3007813-0.7331543-1.9731445-1.0510254
		c-0.4267578-0.2001953-0.8764648-0.3964844-1.3334961-0.5803223c-0.8393555-0.3371582-1.7158203-0.6152344-2.6040039-0.675293
		c-0.0576172,1.6069336,0.6118164,3.2785645,1.2607422,4.7182617c0.7666016,1.7199707,1.7470703,3.3422852,2.8188477,4.8886719
		c1.253418,1.8017578,2.6728516,3.4921875,4.1953125,5.0803223c0.7919922,0.8259277,1.6035156,1.6325684,2.4521484,2.3950195
		c2.6323242,2.3693848,5.6132813,4.4919434,8.8984375,5.8571777c0.3076172,0.128418,1.9736328,0.826416,2.7949219,0.8955078
		c0.1147461-0.0117188,0.1967773-0.0539551,0.2163086-0.1335449c0.2675781-0.9377441-0.0366211-2.083252-0.296875-3.0112305
		C418.0631104,232.0285034,417.0186768,228.3209839,417.4141846,229.7389526z"/>
	<path fill="#FFFFFF" d="M434.4815674,84.6154175c-29.2412109,0-55.7182617,12.0446777-74.7446289,31.427002
		c-1.2885742,1.3122559-2.5419922,2.6582031-3.7607422,4.036377c-1.25,1.4138184-2.4643555,2.859375-3.6376953,4.3393555
		c-1.5756836,1.987793-3.081543,4.0336914-4.5126953,6.1342773c-0.3408203,0.5002441-0.6743164,1.0058594-1.0068359,1.512207
		c0,0.0004883,0,0.0004883-0.0004883,0.0009766c-0.3359375,0.5117188-0.668457,1.026123-0.9956055,1.5441895
		c-5.7963867,9.1787109-10.2084961,19.3137207-12.9389648,30.1125488c-2.0786133,8.2197266-3.1875,16.8212891-3.1875,25.6777344
		c0,7.2436523,0.7392578,14.3181152,2.1459961,21.1518555c5.8076172,28.2214355,22.9995117,52.3339844,46.5439453,67.315918
		c9.3798828,5.96875,19.769043,10.4838867,30.8481445,13.2351074c0.3955078,0.0981445,0.7905273,0.1967773,1.1875,0.2905273
		c0.2016602,0.0473633,0.4023438,0.0966797,0.6040039,0.1430664c0.0004883,0,0.0009766,0,0.0009766,0.0002441
		c0.5883789,0.1350098,1.1796875,0.2614746,1.7719727,0.3867188c2.59375,0.5478516,5.222168,1.0002441,7.8823242,1.3518066
		c1.8637695,0.2463379,3.7412109,0.4465332,5.6342773,0.5932617c1.8237305,0.1413574,3.6601563,0.2365723,5.5083008,0.2827148
		c0.8833008,0.0222168,1.769043,0.0336914,2.6577148,0.0336914c57.7783203,0,104.784668-47.0061035,104.784668-104.7849121
		C539.2662354,131.6217651,492.2598877,84.6154175,434.4815674,84.6154175z M530.131958,190.859314
		c0,12.9104004-2.527832,25.4370117-7.5161133,37.2336426c-4.8164063,11.3876953-11.7172852,21.6181641-20.4980469,30.4050293
		c-8.7832031,8.7802734-19.0097656,15.6765137-30.402832,20.4958496
		c-11.7983398,4.9885254-24.3237305,7.5166016-37.2338867,7.5166016c-1.9501953,0-3.890625-0.0649414-5.8222656-0.1799316
		c-1.875-0.1118164-3.7402344-0.2758789-5.5947266-0.4956055c-1.9257813-0.2282715-3.8398438-0.513916-5.7412109-0.8579102
		c-2.7124023-0.4907227-5.3984375-1.1008301-8.0561523-1.826416c-0.6098633-0.1665039-1.2182617-0.3398438-1.824707-0.5187988
		c-0.0004883,0-0.0009766-0.0002441-0.0009766-0.0002441c-0.2143555-0.0629883-0.4282227-0.125-0.6420898-0.1896973
		c-0.4013672-0.1213379-0.8017578-0.2458496-1.2016602-0.3725586c-2.8183594-0.8933105-5.6030273-1.9147949-8.3461914-3.0754395
		c-8.8852539-3.7597656-17.0551758-8.7998047-24.394043-14.9960938c-2.0683594-1.7463379-4.0820313-3.5693359-6.0131836-5.4997559
		c-8.7836914-8.7868652-15.6743164-19.017334-20.4975586-30.4050293c-3.3789063-7.9914551-5.625-16.3188477-6.7250977-24.8728027
		c-0.5239258-4.072998-0.7910156-8.1965332-0.7910156-12.3608398c0-3.605957,0.2045898-7.1811523,0.5976563-10.7202148
		c1.0141602-9.130127,3.3237305-18.0129395,6.918457-26.5117188c1.234375-2.9150391,2.6083984-5.7512207,4.1103516-8.5095215
		c0.3046875-0.5595703,0.6342773-1.1040039,0.9501953-1.6569824c0-0.0002441,0-0.0007324,0-0.0009766
		c0.3154297-0.5524902,0.6230469-1.1101074,0.949707-1.6557617c1.3525391-2.2629395,2.8100586-4.4589844,4.3466797-6.6020508
		c1.128418-1.5739746,2.2944336-3.1218262,3.5205078-4.6286621c1.1801758-1.4504395,2.4013672-2.8718262,3.6708984-4.2580566
		c0.9599609-1.0483398,1.9389648-2.0827637,2.9492188-3.0932617c8.7836914-8.7819824,19.0180664-15.6762695,30.4072266-20.4958496
		c11.7915039-4.9865723,24.3198242-7.5180664,37.2299805-7.5180664s25.4355469,2.5314941,37.2338867,7.5180664
		c11.3930664,4.8195801,21.6196289,11.7138672,30.402832,20.4958496
		c8.7807617,8.7836914,15.6816406,19.0141602,20.4980469,30.4052734
		C527.604126,165.4205933,530.131958,177.9506226,530.131958,190.859314z"/>
	<path fill="#FFFFFF" d="M417.4107666,211.0324097c-2.4609375-2.5314941-5.2216797-4.8293457-8.1586914-6.78125
		c-3.1669922-2.1054688-6.6342773-3.8969727-10.3657227-4.7333984c-1.128418-0.2531738-2.2910156-0.3950195-3.4399414-0.3969727
		c-0.684082-0.0114746-1.3637695,0.0327148-2.0336914,0.1264648c-1.65625,0.2316895-3.2460938,0.8046875-4.6547852,1.8261719
		c-0.034668,0.0249023-0.0708008,0.0449219-0.1044922,0.0703125c-1.6479492,1.2607422-2.7104492,3.0512695-3.234375,5.0078125
		c-0.25,0.9331055-0.3881836,1.901123-0.3891602,2.873291c-0.0131836,3.7246094,1.4257813,7.3237305,3.1772461,10.5512695
		c1.6904297,3.1188965,3.815918,6.0085449,6.1557617,8.6726074c0.1206055,0.1376953,0.234375,0.2824707,0.3564453,0.4189453
		c2.4970703,2.7924805,5.3027344,5.4853516,8.3666992,7.8071289c2.2495117,1.7045898,4.6425781,3.1938477,7.1635742,4.3713379
		c0.6108398,0.2854004,1.222168,0.5720215,1.8481445,0.8181152c2.0786133,0.815918,4.4238281,1.4125977,6.722168,1.3886719
		c1.6020508,0.0117188,3.1904297-0.2702637,4.6469727-0.9848633c2.4975586-1.2270508,4.4614258-3.5388184,5.019043-6.3117676
		c0.5405273-2.1748047,0.3510742-4.4914551-0.1323242-6.657959
		C426.7886963,222.1686401,422.2774658,216.0426636,417.4107666,211.0324097z M417.7652588,232.9459839
		c-0.0195313,0.0795898-0.1015625,0.1218262-0.2163086,0.1335449c-0.8212891-0.0690918-2.4873047-0.7670898-2.7949219-0.8955078
		c-3.2851563-1.3652344-6.2661133-3.487793-8.8984375-5.8571777c-0.8486328-0.7624512-1.6601563-1.5690918-2.4521484-2.3950195
		c-1.5224609-1.5881348-2.9418945-3.2785645-4.1953125-5.0803223c-1.0717773-1.5463867-2.0522461-3.1687012-2.8188477-4.8886719
		c-0.6489258-1.4396973-1.3183594-3.1113281-1.2607422-4.7182617c0.8881836,0.0600586,1.7646484,0.3381348,2.6040039,0.675293
		c0.4570313,0.1838379,0.9067383,0.380127,1.3334961,0.5803223c0.6723633,0.3178711,1.331543,0.6660156,1.9731445,1.0510254
		c2.984375,1.8015137,5.7216797,4.0317383,8.1723633,6.5178223c1.4399414,1.4648438,2.7880859,3.0029297,4.0385742,4.6367188
		c0.902832,1.1845703,1.7436523,2.4230957,2.534668,3.6855469c0.6557617,1.0476074,1.2944336,2.1496582,1.6293945,3.3476563
		c-0.3955078-1.4179688,0.6489258,2.2895508,0.0541992,0.1958008
		C417.7286377,230.8627319,418.0328369,232.0082397,417.7652588,232.9459839z"/>
	<path fill="#FFFFFF" d="M444.5523682,193.9450073c-4.315918-5.1166992-9.1787109-9.7556152-14.5898438-13.6977539
		c-6.2387695-4.5439453-13.5288086-8.6977539-21.3017578-9.7045898c-0.9462891-0.1201172-1.8999023-0.1877441-2.8457031-0.1894531
		c-1.5141602-0.0219727-3.0180664,0.1184082-4.5014648,0.4631348c-1.4165039,0.3312988-2.8901367,0.9055176-4.0961914,1.7404785
		c-0.4936523,0.3327637-0.9936523,0.6757813-1.4301758,1.0849609c-0.9492188,0.8886719-1.8955078,2.1000977-2.1899414,2.5498047
		c-0.9897461,1.4970703-1.5581055,3.2275391-1.8754883,4.9799805c-0.3618164,1.9990234-0.2875977,4.1298828,0.0541992,6.1220703
		c0.125,0.7199707,0.2631836,1.4279785,0.421875,2.1411133c0.1928711,0.8518066,0.4633789,1.6948242,0.7373047,2.5229492
		c0.078125,0.2180176,0.1518555,0.4326172,0.2329102,0.6489258c0.0673828-0.0085449,0.1455078-0.0102539,0.2167969-0.0134277
		c0.0063477,0.0031738,0.0063477,0.0117188,0.0092773,0.0166016c0.5478516-0.057373,1.1020508-0.0861816,1.6669922-0.0961914
		c1.6357422-0.0117188,3.3286133,0.1740723,5.0419922,0.5610352c1.6396484,0.3666992,3.2753906,0.8991699,4.9384766,1.5715332
		c-0.0205078-0.0354004-0.0380859-0.0388184-0.0546875-0.0744629c0.0913086,0.0356445,0.1855469,0.1403809,0.2807617,0.1774902
		c-1.1733398-2.4602051-2.1699219-4.8886719-2.6264648-7.5874023c-0.1455078-0.8974609-0.2329102-1.5393066-0.1655273-2.4501953
		c0.0473633-0.5861816,0.128418-0.7636719,0.5175781-1.2333984c0.2026367-0.328125,1.9697266-2.0585938,4.4199219-1.1508789
		c2.0024414,0.7419434,4.0292969,1.3840332,5.918457,2.3691406c4.2612305,2.2202148,8.1850586,5.138916,11.7910156,8.302002
		c5.0800781,4.4611816,9.7167969,9.5678711,13.6064453,15.097168c2.2241211,3.1647949,4.2929688,6.5141602,5.6816406,10.1420898
		c0.6015625,1.5786133,0.9667969,3.1564941,1.1625977,4.8295898c0.046875,0.3820801,0.0805664,0.8991699-0.0336914,1.3552246
		c-0.3212891,1.3029785-1.4199219,1.2912598-1.8793945,1.3452148c-0.2431641,0.0288086-0.4897461,0.0388184-0.7397461,0.0405273
		c-0.8549805-0.0117188-1.7172852-0.1503906-2.5048828-0.3059082c-2.3183594-0.4645996-4.5419922-1.3027344-6.6845703-2.3083496
		c-0.074707-0.0354004-0.1494141-0.0288086-0.2197266,0.001709v-0.0031738
		c-0.0913086-0.0422363-0.1689453-0.0305176-0.2397461,0.0151367c0.5507813,1.4685059,1.121582,2.9421387,1.3481445,4.4272461
		c0.6894531,2.6516113,0.7470703,5.1506348,0.4833984,7.4724121c0.4560547,0.1674805,0.8984375,0.315918,1.3583984,0.4645996
		c2.3725586,0.762207,4.8603516,1.215332,7.347168,1.1965332c1.159668,0.003418,2.3217773-0.1452637,3.4711914-0.3769531
		c0.0068359-0.001709,0.0166016-0.1013184,0.0302734-0.1047363c1.6459961-0.4680176,3.1806641-1.1760254,4.6103516-2.15625
		c0.8007813-0.5527344,1.371582-1.5561523,2.027832-2.2724609c2.2368164-2.4941406,3.6416016-9.9450684,1.9462891-17.0471191
		C454.0401611,207.041687,449.6798096,200.0214233,444.5523682,193.9450073z"/>
	<path fill="#FFFFFF" d="M483.3643799,177.9660034c-3.7641602-6.8642578-9.1489258-12.7126465-14.6640625-18.2553711
		c-5.5664063-5.5878906-11.6704102-10.6694336-18.2871094-14.9719238
		c-6.5805664-4.2819824-13.8227539-7.9489746-21.5454102-9.630127c-2.1499023-0.4680176-4.4169922-0.7521973-6.675293-0.7556152
		c-4.8496094-0.0454102-9.6655273,1.1896973-13.2070313,4.7011719c-5.2255859,5.1745605-5.4282227,12.9777832-3.7954102,19.71875
		c0.3413086,1.4108887,0.7568359,2.8017578,1.2363281,4.1740723c0.9804688,0.0300293,1.9707031,0.1062012,2.9780273,0.2380371
		c3.0380859,0.3937988,6.1201172,1.1845703,9.2768555,2.3811035c-0.0136719-0.0322266-0.0302734-0.0661621-0.043457-0.0981445
		c0.0908203,0.0336914,0.1821289,0.0639648,0.2700195,0.0981445c-1.2773438-2.8642578-2.3388672-5.847168-2.9501953-8.9223633
		c-0.3652344-1.8317871-0.5717773-3.7277832-0.3618164-5.5917969c0.1416016-1.262207,0.4931641-2.5380859,1.4770508-3.5622559
		c0.6889648-0.7145996,1.6557617-0.8786621,1.9804688-0.942627c0.5981445-0.1220703,1.2026367-0.1791992,1.8149414-0.1911621
		c0.9833984,0,1.9667969,0.1115723,2.9165039,0.2856445c4.0180664,0.7351074,7.847168,2.4318848,11.4199219,4.3649902
		c3.5927734,1.9467773,7.0195313,4.2006836,10.2807617,6.659668c6.3666992,4.8022461,12.1665039,10.326416,17.4423828,16.3015137
		c5.1674805,5.8569336,9.9462891,12.1853027,13.6166992,19.0986328c1.7841797,3.3640137,3.3491211,6.9431152,4.1230469,10.6894531
		c0.3413086,1.6628418,0.5678711,3.4255371,0.3041992,5.1137695c-0.1113281,0.7214355-0.3007813,1.4431152-0.6860352,2.0649414
		c-0.3920898,0.625-1.0517578,1.072998-1.1459961,1.1286621c-0.2631836,0.1791992-0.5776367,0.3076172-0.878418,0.4106445
		c-0.4663086,0.1606445-0.9467773,0.2773438-1.4331055,0.3413086c-0.5644531,0.0778809-1.1323242,0.1113281-1.7001953,0.1147461
		c-0.9697266-0.0063477-1.9394531-0.105957-2.8959961-0.2583008c-3.3251953-0.5341797-6.550293-1.6677246-9.6254883-3.0263672
		c-0.0605469-0.0270996-0.128418-0.0187988-0.175293,0.0117188c0.0063477,0.0068359,0,0.0102539,0.0063477,0.0134277
		c-0.0200195-0.0083008-0.0473633-0.0183105-0.0678711-0.0251465c-0.0605469-0.0270996-0.1313477-0.0187988-0.1791992,0.0117188
		c0.3657227,1.0273438,0.6865234,2.0583496,0.9838867,3.0874023c0.9462891,3.2561035,1.40625,6.28125,1.4736328,9.190918
		c1.7167969,0.6166992,3.3964844,1.140625,5.1806641,1.5224609c1.9609375,0.4208984,3.8432617,0.6757813,5.8432617,0.6845703
		c1.9467773,0.0251465,3.6401367-0.1828613,5.5292969-0.7080078c2.7856445-0.7756348,4.9750977-2.3154297,6.8881836-4.5136719
		c2.4433594-2.7038574,4.0063477-7.4143066,3.9550781-11.7097168
		C491.9967041,203.1937866,493.2657471,196.0216675,483.3643799,177.9660034z"/>
</g>
<g>
	<path opacity="0.25" fill="#666666" d="M416.6676025,306.8244019c-2.0820313-5.1437988-4.1635742-10.2873535-6.2456055-15.4309082
		c-0.3969727-0.09375-0.7919922-0.1923828-1.1875-0.2905273c-11.0791016-2.7512207-21.4682617-7.2663574-30.8481445-13.2351074
		c-23.5444336-14.9819336-40.7363281-39.0944824-46.5439453-67.315918c-2.4287109,2.6108398-4.6948242,5.3881836-6.7763672,8.298584
		l-0.0004883,0.0002441l7.7563477,19.675293l0.0004883,0.0004883c0.0029297,0.0083008,0.0048828,0.0166016,0.0083008,0.0249023
		c0.0791016,0.2033691,0.1396484,0.4047852,0.2001953,0.6062012c0.0180664,0.0620117,0.0444336,0.1247559,0.0610352,0.1865234
		c0.0136719,0.0488281,0.0239258,0.0969238,0.034668,0.1452637c0.0092773,0.0390625,0.019043,0.0786133,0.0283203,0.1179199
		c0.0009766,0.003418,0.0014648,0.0065918,0.0024414,0.0100098c0.0429688,0.1813965,0.0805664,0.361084,0.1088867,0.5397949
		c0.015625,0.0981445,0.0288086,0.1958008,0.0400391,0.2929688c0.0107422,0.0927734,0.0141602,0.1838379,0.0209961,0.2756348
		c0.0058594,0.0830078,0.015625,0.1669922,0.0185547,0.2492676c0.003418,0.0881348,0.0092773,0.1767578,0.0087891,0.263916
		c0,0.0349121,0.0043945,0.0708008,0.003418,0.1054688c-0.003418,0.1704102-0.0195313,0.3364258-0.0366211,0.5024414
		c-0.0048828,0.0476074-0.0043945,0.097168-0.0107422,0.1445313c-0.0185547,0.1472168-0.0493164,0.2895508-0.078125,0.432373
		c-0.0146484,0.0710449-0.0229492,0.1450195-0.0400391,0.2150879c-0.0048828,0.0200195-0.0131836,0.0385742-0.0180664,0.0583496
		c-0.0180664,0.0715332-0.0429688,0.1396484-0.0639648,0.2099609c-0.012207,0.0412598-0.0244141,0.0830078-0.0375977,0.1237793
		c-0.0224609,0.0688477-0.0385742,0.140625-0.0634766,0.2080078c-0.0175781,0.0478516-0.0419922,0.0922852-0.0610352,0.1396484
		c-0.03125,0.0776367-0.0654297,0.1533203-0.1000977,0.2290039c-0.0229492,0.0500488-0.0419922,0.1025391-0.0664063,0.1513672
		c-0.0073242,0.0146484-0.012207,0.0307617-0.0195313,0.0454102c0,0.0002441-0.0004883,0.0002441-0.0004883,0.0004883
		c-0.0019531,0.0039063-0.0048828,0.0078125-0.0068359,0.0119629c-0.0371094,0.0720215-0.0825195,0.1384277-0.1225586,0.2084961
		c-0.0400391,0.0690918-0.078125,0.138916-0.1210938,0.2060547c-0.0205078,0.0319824-0.0371094,0.0668945-0.0581055,0.0983887
		c-0.0019531,0.0031738-0.0043945,0.0058594-0.0063477,0.0090332c-0.0786133,0.1169434-0.168457,0.2263184-0.2568359,0.3361816
		c-0.0302734,0.0375977-0.0566406,0.0786133-0.0878906,0.1152344c-0.1772461,0.2075195-0.3759766,0.3969727-0.5874023,0.5744629
		c-0.050293,0.0422363-0.1020508,0.0825195-0.1542969,0.1230469c-0.0195313,0.0151367-0.0380859,0.03125-0.0581055,0.0461426
		c-0.0009766,0.0007324-0.0019531,0.0014648-0.0029297,0.0021973c-0.0454102,0.0341797-0.0859375,0.072998-0.1328125,0.105957
		c-0.1503906,0.1052246-0.3105469,0.2004395-0.4746094,0.2907715c-0.0170898,0.0095215-0.0322266,0.0212402-0.0493164,0.0305176
		c-0.2514648,0.1350098-0.5229492,0.2463379-0.8046875,0.3444824c-0.0717773,0.0251465-0.1450195,0.0483398-0.2192383,0.0708008
		c-0.2919922,0.0888672-0.5932617,0.1652832-0.9140625,0.2121582l-3.059082,0.4455566l-13.8115234,2.0114746
		c-0.1391602,0.7399902-0.2753906,1.4797363-0.3881836,2.2207031c-0.7880859,5.189209-0.9272461,10.3952637-0.296875,15.484375
		c0.0219727,0.1774902,0.0507813,0.3535156,0.0742188,0.5305176c0.0209961,0.1599121,0.0444336,0.3193359,0.0664063,0.4790039
		c0.7158203,5.1755371,1.9921875,10.2502441,3.7631836,15.166748l17.1220703-2.6140137h0.0004883
		c2.1308594-0.3254395,4.3344727-0.1899414,6.4941406,0.3320313c2.1586914,0.5227051,4.2744141,1.4321289,6.2319336,2.6572266
		c0.4897461,0.3059082,0.9692383,0.6318359,1.4370117,0.9760742c1.4038086,1.0332031,2.7026367,2.2338867,3.8481445,3.5717773
		c1.5273438,1.7836914,2.7827148,3.8115234,3.6499023,6.0112305c0.1943359,0.4921875,0.3564453,0.9816895,0.5039063,1.4692383
		c0.0322266,0.1071777,0.0644531,0.2141113,0.0947266,0.3210449c0.1347656,0.4782715,0.2524414,0.9536133,0.34375,1.4248047
		c0.0117188,0.059082,0.0185547,0.1174316,0.0292969,0.1765137c0.0786133,0.4294434,0.137207,0.8549805,0.1796875,1.2766113
		c0.0102539,0.0969238,0.0219727,0.1938477,0.0297852,0.2900391c0.0375977,0.4541016,0.0556641,0.902832,0.0527344,1.345459
		c-0.0004883,0.0302734,0.0039063,0.0615234,0.003418,0.0917969c-0.0004883,0.0588379-0.0097656,0.1147461-0.0112305,0.1733398
		c-0.0097656,0.3955078-0.0351563,0.7856445-0.0766602,1.1699219c-0.0078125,0.0727539-0.012207,0.1467285-0.0214844,0.2192383
		c-0.0527344,0.4260254-0.1279297,0.8430176-0.2192383,1.2529297c-0.0214844,0.0952148-0.0454102,0.1889648-0.0688477,0.2832031
		c-0.0952148,0.3857422-0.2036133,0.7648926-0.3320313,1.1337891c-0.0112305,0.0317383-0.0195313,0.0644531-0.0307617,0.0959473
		c-0.140625,0.3913574-0.3051758,0.7695313-0.4824219,1.1398926c-0.0205078,0.0432129-0.0351563,0.090332-0.0561523,0.1333008
		c-0.0209961,0.0419922-0.0483398,0.0800781-0.0698242,0.1220703c-0.1860352,0.3657227-0.3852539,0.7231445-0.6069336,1.0649414
		c-0.0185547,0.0283203-0.0395508,0.0546875-0.0581055,0.0827637c-0.2119141,0.3203125-0.4428711,0.626709-0.6860352,0.923584
		c-0.0551758,0.0678711-0.1098633,0.1364746-0.1669922,0.203125c-0.2714844,0.3166504-0.5576172,0.621582-0.8647461,0.9082031
		c-0.03125,0.0292969-0.065918,0.0551758-0.0976563,0.0839844c-0.2773438,0.2531738-0.5708008,0.4912109-0.875,0.7182617
		c-0.0444336,0.0332031-0.0825195,0.0720215-0.1274414,0.1044922c-0.0512695,0.0373535-0.1103516,0.0666504-0.1625977,0.1032715
		c-0.2832031,0.197998-0.5776367,0.3847656-0.8823242,0.5598145c-0.0751953,0.0429688-0.1459961,0.0898438-0.2226563,0.1315918
		c-0.3764648,0.2055664-0.7700195,0.3920898-1.1772461,0.5610352c-0.1000977,0.0415039-0.2041016,0.0769043-0.3061523,0.1159668
		c-0.3251953,0.1254883-0.659668,0.2390137-1.0029297,0.340332c-0.1274414,0.0375977-0.2539063,0.0756836-0.3837891,0.1098633
		c-0.4487305,0.1184082-0.9067383,0.2233887-1.3837891,0.2995605l-9.6713867,1.5441895l-0.5200195,0.0830078
		c0.328125,0.3442383,0.65625,0.6882324,0.9897461,1.027832c1.1938477,1.2167969,2.4223633,2.401123,3.6801758,3.5551758
		c0.7119141,0.6533203,1.4326172,1.2976074,2.1640625,1.9299316c5.9926758,5.1818848,12.6181641,9.6411133,19.6484375,13.1936035
		l1.8129883-0.298584c0.2387695-0.0393066,0.4799805-0.0651855,0.7226563-0.0786133
		c0.7275391-0.0402832,1.4682617,0.0334473,2.1992188,0.2077637c0.9746094,0.2314453,1.9326172,0.6411133,2.8198242,1.1953125
		c0.8876953,0.5534668,1.7050781,1.2521973,2.3994141,2.0610352c0.4316406,0.503418,0.8076172,1.0532227,1.1308594,1.6342773
		c0.0004883,0,0.0004883,0,0.0004883,0c10.3608398,3.607666,21.2890625,5.2353516,32.15625,4.3596191
		c2.9003906-0.2336426,5.7963867-0.6452637,8.6762695-1.2456055c3.0229492-0.630127,11.9912109-2.3647461,14.6074219-4.9519043
		c0.3730469-0.3693848,0.6171875-0.7561035,0.6962891-1.159668c0.2421875-1.2421875-1.8671875-4.6118164-2.3291016-5.7536621
		C422.8121338,322.0060425,419.7398682,314.4152222,416.6676025,306.8244019z"/>
</g>
</svg>
