<?xml version="1.0" encoding="utf-8"?>
<!-- Generator: Adobe Illustrator 23.0.6, SVG Export Plug-In . SVG Version: 6.00 Build 0)  -->
<svg version="1.0" id="Layer_1" xmlns="http://www.w3.org/2000/svg" xmlns:xlink="http://www.w3.org/1999/xlink" x="0px" y="0px"
	 viewBox="0 0 400.2918396 627.6519775" enable-background="new 0 0 400.2918396 627.6519775" xml:space="preserve">
<g>
	<path fill="#E6E6E6" d="M367.7429199,176.6190033c-0.1755371-3.2019043-1.3461914-6.713623-2.0202637-8.5041504
		c-0.2805176-0.7446289-0.6657715-1.4465332-1.1464844-2.0805664c-0.878418-1.1586914-1.7556152-2.300293-2.6328125-3.4396973
		c-1.1491699-1.4931641-2.2971191-2.9709473-3.4436035-4.4313965c-4.5456543-5.7905273-9.0688477-11.3305664-13.552002-16.6201172
		l-6.3256836,7.5327148l-6.1352539,7.3066406c-0.296875,0.3535156-0.7216797,0.5356445-1.1499023,0.5356445
		c-0.340332,0-0.6826172-0.1152344-0.9638672-0.3510742c-0.6342773-0.5327148-0.7167969-1.4790039-0.184082-2.1132813
		l6.2128906-7.3989258l6.5698242-7.8237305c-10.878418-12.6933594-21.5056152-23.9370117-31.6420898-33.8491211
		c-0.0427246,0.2546387-0.1459961,0.5026855-0.3242188,0.7148438l-8.4909668,10.1118164l-4.3786621,5.2143555
		c-0.296875,0.3535156-0.7216797,0.5356445-1.1499023,0.5356445c-0.340332,0-0.6826172-0.1152344-0.9638672-0.3510742
		c-0.6342773-0.5327148-0.7167969-1.4790039-0.184082-2.1132813l4.4562988-5.3068848l8.4133301-10.0192871
		c0.2299805-0.2736816,0.5378418-0.4379883,0.8632813-0.5012207c-12.236084-11.8476563-23.7226563-21.7421875-34.0305176-29.9038086
		c-0.0583496,0.1652832-0.1420898,0.3244629-0.2614746,0.4665527l-8.1801758,9.7412109l-4.6894531,5.5844727
		c-0.296875,0.3530273-0.7216797,0.5351563-1.1499023,0.5351563c-0.340332,0-0.6826172-0.1152344-0.9638672-0.3510742
		c-0.6342773-0.5332031-0.7167969-1.4790039-0.184082-2.1137695l4.7666016-5.6762695l8.1030273-9.6494141
		c0.0981445-0.1166992,0.2133789-0.2080078,0.3347168-0.2868652c-17.199707-13.4265175-30.9018555-21.8991737-38.9887695-26.4714394
		c-0.045166,0.0803223-0.0964355,0.1586914-0.157959,0.2319336l-3.9135742,4.6606445l-8.9560547,10.6650391
		c-0.296875,0.3530273-0.7216797,0.5351563-1.1499023,0.5351563c-0.340332,0-0.6826172-0.1152344-0.9638672-0.3510742
		c-0.6342773-0.5332031-0.7167969-1.4790039-0.184082-2.1137695l9.0332031-10.7568359l3.6452637-4.3413086
		c-0.6635742-0.3613281-1.2685547-0.6853027-1.8156738-0.9741211c-2.3464355-1.2385254-3.6091309-1.8227539-3.6091309-1.8227539
		c-0.4416504-0.2883301-0.9050293-0.5522461-1.3840332-0.795166c-3.3120117-1.6791992-7.3830566-2.3210449-10.3305664-2.5598145
		c-2.4057617-0.1948242-4.7668457,0.713623-6.4472656,2.4460449l-27.9909668,28.8549843
		c1.4519043,0.8679199,3.0671387,1.8430176,4.8291016,2.9211426c2.1569824,1.3198242,4.5297852,2.7919922,7.0778809,4.4013672
		c-2.2407227-1.5715332-4.5-3.1420898-6.7763672-4.7119141c-1.0229492-0.7055664-2.0380859-1.4111328-3.0683594-2.1162109
		l1.6943359-2.4755859c1.083252,0.7414551,2.151123,1.4833984,3.2263184,2.2250977
		c0.0581055-0.1494141,0.1345215-0.2937012,0.2434082-0.4233398l12.8696289-15.3261757
		c0.5332031-0.6347656,1.4785156-0.7172852,2.1137695-0.1845703c0.1289063,0.1083984,0.2290039,0.2368164,0.3117676,0.3730469
		c0.3244629,0.534668,0.2966309,1.2348633-0.1276855,1.7402344l-12.8696289,15.3261757
		c-0.0456543,0.0544434-0.0993652,0.097168-0.1506348,0.1435547c11.2390137,7.7980957,22.0371094,15.6174316,32.416748,23.4699707
		l12.2773438-14.6203613c0.5327148-0.6333008,1.4785156-0.7167969,2.1137695-0.184082
		c0.6342773,0.5332031,0.7167969,1.4790039,0.184082,2.1137695l-12.1828613,14.5078125
		c13.1828613,10.043457,25.6765137,20.1435547,37.5114746,30.3261719l11.1845703-13.3193359
		c0.5327148-0.6342773,1.4785156-0.7167969,2.1137695-0.1845703c0.6342773,0.5327148,0.7167969,1.4790039,0.184082,2.1132813
		l-11.2075195,13.3466797c11.5739746,10.0400391,22.503418,20.1638184,32.8300781,30.3937988l11.8061523-14.0598145
		c0.5327148-0.6342773,1.4785156-0.7172852,2.1137695-0.1845703c0.6342773,0.5327148,0.7167969,1.4790039,0.184082,2.1132813
		l-11.9697266,14.2543945c12.0415039,12.0444336,23.2443848,24.2397461,33.6518555,36.6276855l12.6381836-15.0505371
		c0.5327148-0.6347656,1.4790039-0.7167969,2.1137695-0.1845703c0.6342773,0.5327148,0.7167969,1.4790039,0.184082,2.1132813
		l-12.8696289,15.3261719c-0.0388184,0.0461426-0.0849609,0.0812988-0.1279297,0.121582
		c1.4519043,1.748291,2.8901367,3.5,4.3105469,5.2558594c1.1779785,1.4560547,2.34375,2.9150391,3.5004883,4.3764648
		l23.380127-27.5600586C367.1411133,180.6651459,367.8549805,178.6624603,367.7429199,176.6190033z"/>
	<path fill="#B8B8B8" d="M305.6108398,237.6485443c-0.5725098,1.7038574-4.401123,0.4465332-10.5524902-3.121582
		c12.4116211,8.402832,21.6887207,13.612793,27.019043,15.6767578l-16.8532715-14.8615723
		C305.6450195,236.3455658,305.7866211,237.1255951,305.6108398,237.6485443z"/>
	<path fill="#B8B8B8" d="M160.5900879,107.8011322l-15.579834-13.7385254
		c2.6967773,4.5952148,8.4008789,12.6542969,20.4804688,26.1542969
		c10.4780273,11.7097168,23.6157227,25.0839844,38.1748047,38.9077148
		C175.2524414,131.5640717,158.2299805,111.0989838,160.5900879,107.8011322z"/>
	<path fill="#B8B8B8" d="M221.1347656,182.7027435c51.9138184,46.4677734,101.5981445,79.7006683,107.4118652,73.2055664
		l-6.4692383-5.7045898c-5.3303223-2.0639648-14.6074219-7.2739258-27.019043-15.6767578
		c-14.6633301-8.5058594-42.6159668-30.232666-71.7734375-56.9282227
		c-7.0090332-6.4174805-13.5661621-12.6025391-19.6193848-18.4741211
		c-14.559082-13.8237305-27.6967773-27.197998-38.1748047-38.9077148c-12.0795898-13.5-17.7836914-21.559082-20.4804688-26.1542969
		l-7.6657715-6.7597656C133.5407715,95.2337494,170.3852539,137.2767181,221.1347656,182.7027435z"/>
	<path fill="#B8B8B8" d="M327.4189453,249.00914c-7.8842773-15.3894043-42.6296387-51.6945801-85.230957-89.8271484
		c-42.2229004-37.7939453-81.0603027-66.2832031-97.2167969-72.1083984l-2.1787109,2.4274902
		c0.2597656,0.8056641,0.8583984,2.2453613,2.2177734,4.5615234l15.579834,13.7385254
		c0.0646973-0.0900879,0.1252441-0.1835938,0.2189941-0.2478027c4.2114258-2.8903809,36.7016602,21.1518555,74.0383301,54.8164063
		c34.1994629,30.8359375,66.2165527,63.0498047,70.376709,72.9724121l16.8532715,14.8615723
		c1.3845215,0.5358887,2.5090332,0.8647461,3.3459473,0.9765625L327.4189453,249.00914z"/>
	<path fill="#B8B8B8" d="M142.7924805,89.5010834l2.1787109-2.4274902c-3.708252-1.3369141-6.2229004-1.4812012-7.3081055-0.2687988
		c-0.1303711,0.1455078-0.2314453,0.315918-0.3186035,0.4980469l7.6657715,6.7597656
		C143.6508789,91.7464447,143.0522461,90.3067474,142.7924805,89.5010834z"/>
	<path fill="#B8B8B8" d="M327.4189453,249.00914l-1.9956055,2.1711426
		c-0.8369141-0.1118164-1.9614258-0.4406738-3.3459473-0.9765625l6.4692383,5.7045898
		C329.5895996,254.7432709,329.1425781,252.3731537,327.4189453,249.00914z M324.4487305,252.2398529
		c0.0214844-0.0239258,0.0429688-0.046875,0.0644531-0.0698242
		C324.4916992,252.1929779,324.4702148,252.2159271,324.4487305,252.2398529z"/>
	<path fill-rule="evenodd" clip-rule="evenodd" fill="#30BCB2" d="M309.7026367,269.4624939
		c-0.1193848-0.7045898-0.3779297-1.3630371-0.8007813-1.9650879c-4.7854004-6.8137207-51.2814941-0.5598145-105.590332,19.1904297
		c-0.5532227,2.1433105-1.1806641,4.2570801-1.8659668,6.3444824c18.213623-6.8066406,34.911377-11.831543,48.6992188-15.0593262
		c21.1413574-4.949707,35.4489746-5.6882324,37.904541-2.1921387c0.3510742,0.4997559,0.572998,1.0358887,0.6850586,1.6018066
		c1.9643555,9.9118652-31.9907227,29.6130371-77.065918,46.8110352
		c-13.8520508,5.2851563-26.9558105,9.5944824-38.703125,12.8625488c-2.666748,2.4414063-5.4621582,4.7431641-8.3737793,6.8974609
		c-1.1945801,0.8840332-2.4060059,1.7463379-3.6394043,2.5793457c8.6450195-2.0563965,17.8925781-4.6049805,27.5258789-7.6386719
		c8.270752-2.6047363,16.8249512-5.5664063,25.53125-8.8881836c44.8188477-17.1000977,82.265625-38.8039551,92.8085938-52.8054199
		C309.0498047,274.2361755,310.0678711,271.6197205,309.7026367,269.4624939z"/>
	<path fill="#FFFFFF" d="M388.9897461,114.920517c-3.6508789-6.4907227-16.7648926-27.6853027-46.4306641-55.9252968
		c-34.7163086-33.0480957-64.6069336-48.4272461-73.7338867-52.6877441
		c-1.8000488-0.840332-3.8271484-1.0324707-5.7543945-0.5505371l-8.333252,2.083252
		c-1.7531738,0.4382324-3.3254395,1.4143066-4.4958496,2.7912598L224.8710938,40.479351
		c0.4790039,0.2429199,0.9423828,0.5068359,1.3840332,0.795166c0,0,1.2626953,0.5842285,3.6091309,1.8227539
		c0.5471191,0.2888184,1.1520996,0.612793,1.8156738,0.9741211l0.1911621-0.2275391
		c0.5332031-0.6333008,1.4785156-0.7163086,2.1137695-0.184082c0.5610352,0.4716797,0.6884766,1.2651367,0.342041,1.8818359
		c8.0869141,4.5722656,21.7890625,13.0449219,38.9887695,26.4714394c0.5388184-0.3500977,1.2607422-0.3317871,1.7790527,0.1027832
		c0.4921875,0.4138184,0.6474609,1.074707,0.4455566,1.6472168c10.3078613,8.1616211,21.7944336,18.0561523,34.0305176,29.9038086
		c0.4289551-0.083252,0.8894043,0.013916,1.2504883,0.3166504c0.4221191,0.3544922,0.59375,0.8913574,0.5083008,1.3984375
		c10.1364746,9.9121094,20.7636719,21.1557617,31.6420898,33.8491211l0.0869141-0.1035156
		c0.5327148-0.6342773,1.4790039-0.7167969,2.1137695-0.1845703c0.6342773,0.5327148,0.7167969,1.4790039,0.184082,2.1132813
		l-0.4086914,0.4868164c4.4831543,5.2895508,9.0063477,10.8295898,13.552002,16.6201172
		c1.1464844,1.4604492,2.2944336,2.9382324,3.4436035,4.4313965l26.0683594-30.3291016
		c1.3496094-1.5700684,2.0915527-3.5715332,2.0915527-5.6418457v-7.4550781
		C390.1032715,117.6778412,389.720459,116.2195892,388.9897461,114.920517z"/>
	<path fill="#FFFFFF" d="M341.4658203,212.8443451l-0.2646484,0.2080078
		c-0.2451172-0.3120117-0.496582-0.6225586-0.7429199-0.9343262c-1.1550293-1.4631348-2.3190918-2.9240723-3.4958496-4.3815918
		c-12.3959961-15.3571777-25.9870605-30.4108887-40.8652344-45.2370605
		c-0.1103516-0.1098633-0.2207031-0.2197266-0.3310547-0.3295898
		c-10.5678711-10.5148926-21.7814941-20.9165039-33.6733398-31.2319336c-0.722168-0.626709-1.4567871-1.251709-2.184082-1.8776855
		c-20.5754395-17.7075195-43.1567383-35.1665039-67.8994141-52.5170898c-2.5480957-1.609375-4.9208984-3.081543-7.0778809-4.4013672
		c-1.7619629-1.078125-3.3771973-2.0532227-4.8291016-2.9211426c-3.0617676-1.8300781-5.3918457-3.1799316-6.7736816-3.9709473
		c-0.9445801-0.5405273-2.0078125-0.8208008-3.0961914-0.8208008h-9.5405273c-1.7441406,0-3.4089355,0.7290039-4.5917969,2.0107422
		l-19.032959,20.6186523l0.2773438,0.2446289c0.0871582-0.1821289,0.1882324-0.3525391,0.3186035-0.4980469
		c1.0852051-1.2124023,3.5998535-1.0681152,7.3081055,0.2687988c16.1564941,5.8251953,54.9938965,34.3144531,97.2167969,72.1083984
		c42.6013184,38.1325684,77.3466797,74.4377441,85.230957,89.8271484c1.7236328,3.3640137,2.1706543,5.7341309,1.1276855,6.8991699
		l17.4995117-19.0361328c1.0600586-1.1533203,1.6484375-2.6625977,1.6484375-4.229248v-8.090332
		c0-1.0869141-0.2722168-2.1555176-0.8149414-3.0974121C345.2470703,218.6212006,343.4287109,215.7437592,341.4658203,212.8443451z"
		/>
	<path fill="#333333" d="M395.1098633,473.4917908l-0.0820313-0.3183594l-68.2929688-175.1850586l-11.7402344-30.0942383
		c-0.3012695-1.2861328-0.8349609-2.4799805-1.5917969-3.5571289c-1.6552734-2.3574219-6.0512695-8.6191254-42.2841797-2.1733398
		c-20.0151367,3.5593262-43.2368164,9.9321289-66.3886719,18.1711426c-0.409668,2.1408691-0.878418,4.2609863-1.418457,6.3530273
		c54.3088379-19.7502441,100.8049316-26.0041504,105.590332-19.1904297c0.4228516,0.6020508,0.6813965,1.260498,0.8007813,1.9650879
		l0.0080566-0.0029297l80.0732422,205.4055176c26.6508789,103.3755188-60.925293,135.7763977-60.925293,135.7763977
		c-97.6923828,41.4472656-142.7392578-41.7773438-142.7392578-41.7773438
		c-6.3371582-12.0300293-30.5439453-74.3530579-51.661377-129.646759
		c-0.0126953-0.0258789-13.8083496-28.5927734-28.8718262-75.0791016c-0.7644043,0.0166016-1.5297852,0.0290527-2.2980957,0.0290527
		c-1.0625,0-2.119873-0.0212402-3.1748047-0.0532227c7.1386719,18.9682617,20.8210449,55.2192383,34.9072266,91.9655762
		l0.8950195,2.3632813l0.0229492,0.0297852c25.2158203,65.7392883,40.4624023,103.7436829,45.34375,113.0093079
		c0.4863281,0.8984375,12.1923828,22.1948242,36.5244141,38.3916016
		c13.8701172,9.2329102,33.5639648,17.7792969,58.9487305,17.7783203
		c15.8432617-0.0009766,33.9072266-3.331543,54.1459961-11.902832c2.0991211-0.7973633,23.8320313-9.40625,42.5371094-30.5898438
		C391.2558594,564.9810791,409.4790039,529.2281494,395.1098633,473.4917908z"/>
	<path fill="#333333" d="M154.6582031,124.5787201c15.8432617,18.0522461,38.1489258,40.1499023,62.8085938,62.222168
		c24.6054688,22.0244141,50.6943359,42.7705078,71.5766602,56.9189453
		c10.1879883,6.902832,18.6816406,11.953125,25.2456055,15.0102386c3.8149414,1.7768555,8.175293,3.4853516,11.9672852,3.4853516
		c2.4511719-0.0004883,4.6655273-0.7143555,6.3398438-2.5849609l17.4980469-19.0356293
		c1.9995117-2.1738281,3.1005859-4.9980469,3.1005859-7.9516602v-8.090332c0-2.0639648-0.5361328-4.0849609-1.5493164-5.8427734
		c-1.2104492-2.1015625-2.5571289-4.2895508-4.0224609-6.5361328l22.3876953-26.3896484
		c2.2675781-2.6723633,3.4121094-6.0341797,3.2236328-9.4658203c-0.2045898-3.7358398-1.3989258-7.5771484-2.3642578-10.1411133
		c-0.4555664-1.2104492-1.0766602-2.347168-1.8476563-3.3813477l23.1601563-26.9453125
		c2.2060547-2.5664063,3.4208984-5.8432617,3.4208984-9.2270508v-7.4550781c0-2.4267578-0.6293945-4.828125-1.8198242-6.9443359
		c-4.390625-7.8056641-17.8017578-29.0068359-47.4326172-57.2124062
		c-35.5454102-33.8378906-66.5449219-49.6484375-75.199707-53.6879883c-2.9301758-1.3681641-6.2744141-1.6879883-9.4145508-0.902832
		l-8.3334961,2.0830078c-2.8842773,0.7216797-5.4267578,2.3002927-7.3525391,4.5654297l-22.8305664,26.8603516
		c-2.4482422-0.7470703-5.2021484-1.246582-8.2358398-1.4921875c-4.0400391-0.3256836-7.9936523,1.1660156-10.8388672,4.0986328
		l-24.9731445,25.7436523c-1.4008789-0.8208008-2.4614258-1.4316406-3.112793-1.8041992
		c-1.7685547-1.012207-3.7836914-1.546875-5.8271484-1.546875h-9.5405273c-3.2700195,0-6.4169922,1.3779297-8.6850586,3.8369141
		l-19.2641602,21.4648476l-0.3408203,0.7104492c-1.9135742,3.9931641-0.5126953,9.1420898,4.684082,17.2163086
		C140.9296875,108.1290131,146.8417969,115.6729584,154.6582031,124.5787201z M137.0671387,87.0582123l19.032959-20.6186523
		c1.1828613-1.2817383,2.8476563-2.0107422,4.5917969-2.0107422h9.5405273c1.0883789,0,2.1516113,0.2802734,3.0961914,0.8208008
		c1.3818359,0.7910156,3.7119141,2.1408691,6.7736816,3.9709473l27.9909668-28.8549843
		c1.6804199-1.7324219,4.0415039-2.6408691,6.4472656-2.4460449c2.9475098,0.2387695,7.0185547,0.8806152,10.3305664,2.5598145
		l25.3706055-29.8479004c1.1704102-1.3769531,2.7426758-2.3530273,4.4958496-2.7912598l8.333252-2.083252
		c1.9272461-0.4819336,3.9543457-0.2897949,5.7543945,0.5505371c9.1269531,4.260498,39.0175781,19.6396484,73.7338867,52.6877441
		c29.6657715,28.239994,42.7797852,49.4345741,46.4306641,55.9252968c0.7307129,1.2990723,1.1135254,2.7573242,1.1135254,4.2480469
		v7.4550781c0,2.0703125-0.7419434,4.0717773-2.0915527,5.6418457l-26.0683594,30.3291016
		c0.8771973,1.1394043,1.7543945,2.2810059,2.6328125,3.4396973c0.4807129,0.6340332,0.8659668,1.3359375,1.1464844,2.0805664
		c0.6740723,1.7905273,1.8447266,5.3022461,2.0202637,8.5041504c0.1120605,2.043457-0.6018066,4.0461426-1.9257813,5.6066895
		l-23.380127,27.5600586c0.3730469,0.4714355,0.7526855,0.940918,1.1235352,1.4130859l-2.0947266,1.6455078
		c1.9628906,2.8994141,3.78125,5.7768555,5.4138184,8.6108398c0.5427246,0.9418945,0.8149414,2.010498,0.8149414,3.0974121v8.090332
		c0,1.5666504-0.5883789,3.0759277-1.6484375,4.229248l-17.4995117,19.0361328
		c-5.8137207,6.4951019-55.4980469-26.737793-107.4118652-73.2055664
		c-50.7495117-45.4260254-87.5939941-87.4689941-83.7902832-95.3999023L137.0671387,87.0582123z"/>
	<path fill="#666666" d="M220.1494141,61.6343803c0.4282227,0,0.8530273-0.1821289,1.1499023-0.5351563l8.9560547-10.6650391
		l3.9135742-4.6606445c0.0615234-0.0732422,0.112793-0.1516113,0.157959-0.2319336
		c0.3464355-0.6166992,0.2189941-1.4101563-0.342041-1.8818359c-0.6352539-0.5322266-1.5805664-0.4492188-2.1137695,0.184082
		l-0.1911621,0.2275391l-3.6452637,4.3413086l-9.0332031,10.7568359c-0.5327148,0.6347656-0.4501953,1.5805664,0.184082,2.1137695
		C219.4667969,61.519146,219.809082,61.6343803,220.1494141,61.6343803z"/>
	<path fill="#666666" d="M261.2592773,90.0904388c0.4282227,0,0.8530273-0.1821289,1.1499023-0.5351563l4.6894531-5.5844727
		l8.1801758-9.7412109c0.1193848-0.1420898,0.203125-0.3012695,0.2614746-0.4665527
		c0.2019043-0.5725098,0.0466309-1.2333984-0.4455566-1.6472168c-0.5183105-0.4345703-1.2402344-0.4528809-1.7790527-0.1027832
		c-0.1213379,0.0788574-0.2365723,0.170166-0.3347168,0.2868652l-8.1030273,9.6494141l-4.7666016,5.6762695
		c-0.5327148,0.6347656-0.4501953,1.5805664,0.184082,2.1137695
		C260.5766602,89.9752045,260.9189453,90.0904388,261.2592773,90.0904388z"/>
	<path fill="#666666" d="M296.9858398,121.9586029c0.4282227,0,0.8530273-0.1821289,1.1499023-0.5356445l4.3786621-5.2143555
		l8.4909668-10.1118164c0.1782227-0.2121582,0.2814941-0.4602051,0.3242188-0.7148438
		c0.0854492-0.5070801-0.0861816-1.0439453-0.5083008-1.3984375c-0.361084-0.3027344-0.8215332-0.3999023-1.2504883-0.3166504
		c-0.3254395,0.0632324-0.6333008,0.2275391-0.8632813,0.5012207l-8.4133301,10.0192871l-4.4562988,5.3068848
		c-0.5327148,0.6342773-0.4501953,1.5805664,0.184082,2.1132813
		C296.3032227,121.8433685,296.6455078,121.9586029,296.9858398,121.9586029z"/>
	<path fill="#666666" d="M331.3369141,156.9180756c0.4282227,0,0.8530273-0.1821289,1.1499023-0.5356445l6.1352539-7.3066406
		l6.3256836-7.5327148l0.4086914-0.4868164c0.5327148-0.6342773,0.4501953-1.5805664-0.184082-2.1132813
		c-0.6347656-0.5322266-1.5810547-0.449707-2.1137695,0.1845703l-0.0869141,0.1035156l-6.5698242,7.8237305l-6.2128906,7.3989258
		c-0.5327148,0.6342773-0.4501953,1.5805664,0.184082,2.1132813
		C330.6542969,156.8028412,330.996582,156.9180756,331.3369141,156.9180756z"/>
	<path fill="#666666" d="M347.6235352,184.7056732c0.5327148-0.6342773,0.4501953-1.5805664-0.184082-2.1132813
		c-0.6347656-0.5322266-1.5810547-0.4501953-2.1137695,0.1845703L332.6875,197.8274994
		c-10.4074707-12.3879395-21.6103516-24.583252-33.6518555-36.6276855l11.9697266-14.2543945
		c0.5327148-0.6342773,0.4501953-1.5805664-0.184082-2.1132813c-0.6352539-0.5327148-1.5810547-0.449707-2.1137695,0.1845703
		l-11.8061523,14.0598145c-10.3266602-10.2299805-21.2561035-20.3537598-32.8300781-30.3937988l11.2075195-13.3466797
		c0.5327148-0.6342773,0.4501953-1.5805664-0.184082-2.1132813c-0.6352539-0.5322266-1.5810547-0.449707-2.1137695,0.1845703
		l-11.1845703,13.3193359c-11.8349609-10.1826172-24.3286133-20.2827148-37.5114746-30.3261719l12.1828613-14.5078125
		c0.5327148-0.6347656,0.4501953-1.5805664-0.184082-2.1137695c-0.6352539-0.5327148-1.5810547-0.4492188-2.1137695,0.184082
		l-12.2773438,14.6203613c-10.3796387-7.8525391-21.1777344-15.671875-32.416748-23.4699707
		c0.0512695-0.0463867,0.1049805-0.0891113,0.1506348-0.1435547l12.8696289-15.3261757
		c0.4243164-0.5053711,0.4521484-1.2055664,0.1276855-1.7402344c-0.0827637-0.1362305-0.1828613-0.2646484-0.3117676-0.3730469
		c-0.6352539-0.5327148-1.5805664-0.4501953-2.1137695,0.1845703l-12.8696289,15.3261757
		c-0.1088867,0.1296387-0.1853027,0.2739258-0.2434082,0.4233398c-1.0751953-0.7416992-2.1430664-1.4836426-3.2263184-2.2250977
		l-1.6943359,2.4755859c1.0302734,0.7050781,2.0454102,1.4106445,3.0683594,2.1162109
		c2.2763672,1.5698242,4.5356445,3.1403809,6.7763672,4.7119141c24.7426758,17.3505859,47.3239746,34.8095703,67.8994141,52.5170898
		c0.7272949,0.6259766,1.4619141,1.2509766,2.184082,1.8776855c11.8918457,10.3154297,23.1054688,20.717041,33.6733398,31.2319336
		c0.1103516,0.1098633,0.2207031,0.2197266,0.3310547,0.3295898c14.8781738,14.8261719,28.4692383,29.8798828,40.8652344,45.2370605
		c1.1767578,1.4575195,2.3408203,2.918457,3.4958496,4.3815918c0.2463379,0.3117676,0.4978027,0.6223145,0.7429199,0.9343262
		l0.2646484-0.2080078l2.0947266-1.6455078c-0.3708496-0.472168-0.7504883-0.9416504-1.1235352-1.4130859
		c-1.1567383-1.4614258-2.3225098-2.9204102-3.5004883-4.3764648c-1.4204102-1.7558594-2.8586426-3.5075684-4.3105469-5.2558594
		c0.0429688-0.0402832,0.0891113-0.0754395,0.1279297-0.121582L347.6235352,184.7056732z"/>
	<path fill="#666666" d="M234.8474121,162.3697357c-37.3366699-33.6645508-69.8269043-57.7067871-74.0383301-54.8164063
		c-0.09375,0.064209-0.1542969,0.1577148-0.2189941,0.2478027c-2.3601074,3.2978516,14.6623535,23.7629395,43.0754395,51.3234863
		c6.0532227,5.871582,12.6103516,12.0566406,19.6193848,18.4741211
		c29.1574707,26.6955566,57.1101074,48.4223633,71.7734375,56.9282227c6.1513672,3.5681152,9.9799805,4.8254395,10.5524902,3.121582
		c0.1757813-0.5229492,0.0341797-1.3029785-0.3867188-2.3063965
		C301.0639648,225.4195404,269.046875,193.2056732,234.8474121,162.3697357z"/>
	<path fill="#008A83" d="M160.9521484,346.5330505c-14.2768555,9.6425781-31.0834961,15.8083496-49.1962891,17.2851563
		c-1.9077148,0.1555176-3.8283691,0.263916-5.7636719,0.3137207c-0.1350098,0.003418-0.2709961,0.003418-0.4060059,0.0063477
		c15.0634766,46.4863281,28.8591309,75.0532227,28.8718262,75.0791016l0.0004883,0.0014648
		c1.3933105-1.6147461,2.7399902-3.2041016,4.0625-4.7802734c7.1142578-8.4775391,13.2260742-16.3979492,18.4643555-23.7526855
		c0.3251953-0.4567871,0.6420898-0.907959,0.9606934-1.3603516c0.3474121-0.4934082,0.6987305-0.9890137,1.0383301-1.4772949
		c4.739502-6.8120117,8.71875-13.1196289,12.0639648-18.9265137c0.3259277-0.5656738,0.6425781-1.1240234,0.956543-1.6801758
		c0.28125-0.498291,0.5585938-0.9931641,0.8303223-1.4836426c17.2314453-31.1020508,15.6499023-46.7929688,15.6428223-46.8635254
		C178.8447266,341.9280701,169.597168,344.4766541,160.9521484,346.5330505z"/>
	<path fill="#008A83" d="M288.734375,277.3826599c-0.1120605-0.565918-0.3339844-1.1020508-0.6850586-1.6018066
		c-2.4555664-3.4960938-16.7631836-2.7575684-37.904541,2.1921387
		c-13.7878418,3.2277832-30.4855957,8.2526855-48.6992188,15.0593262c-0.026123,0.0793457-0.0512695,0.1589355-0.0773926,0.2380371
		c-2.4150391,7.2941895-5.6208496,14.230957-9.5185547,20.7075195c-5.1635742,8.579834-11.5368652,16.3522949-18.8842773,23.0783691
		c11.7473145-3.2680664,24.8510742-7.5773926,38.703125-12.8625488
		C256.7436523,306.995697,290.6987305,287.2945251,288.734375,277.3826599z"/>
	<path fill="#00B1A9" d="M151.0019531,223.7183685c-6.7636719-4.7841797-16.1240234-3.1782227-20.9077148,3.5854492
		l-35.1782227,49.7402191l-23.3022461-25.4433441c-5.5957031-6.109375-15.0844727-6.5253906-21.1928711-0.9311523
		c-6.109375,5.5951996-6.5263672,15.0834808-0.9311523,21.1928558l35.8681641,39.1640625
		c2.8505859,3.112793,6.8691406,4.8691406,11.0610352,4.8691406c0.3139648,0,0.6293945-0.0097656,0.9448242-0.0297852
		c4.527832-0.2856445,8.6831055-2.6049805,11.3027344-6.309082l45.9208984-64.9306488
		C159.3710938,237.8624115,157.765625,228.5015717,151.0019531,223.7183685z"/>
	<path fill="#00A59C" d="M313.2028809,423.4234314l0.8186035-9.8012695
		c-3.9240723,2.1125488-8.2766113,3.184082-12.6376953,3.184082c-3.5969238,0-7.1889648-0.7514648-10.5551758-2.2084961
		c1.3933105,5.8852539,2.2028809,12.9741211,2.6591797,21.2841797
		C298.7568359,429.1763611,305.8618164,424.7564392,313.2028809,423.4234314z"/>
	<path fill="#00A59C" d="M389.7839355,474.8650818l-80.0732422-205.4055176l-0.0080566,0.0029297
		c0.3652344,2.1572266-0.652832,4.7736816-2.8847656,7.7382813c-10.5429688,14.0014648-47.9897461,35.7053223-92.8085938,52.8054199
		c-8.7062988,3.3217773-17.260498,6.2834473-25.53125,8.8881836c0.0070801,0.0705566,1.588623,15.7614746-15.6428223,46.8635254
		c7.0905762-3.2053223,15.822998-4.0437012,24.5964355-1.746582l53.9975586,14.1582031
		c3.6987305-2.9829102,8.3203125-4.6813965,13.8188477-5.065918l-17.6757813-16.2543945
		c-10.7709961-9.9116211-11.4848633-26.730957-1.6015625-37.5166016c0.0214844-0.0273438,0.0444336-0.0561523,0.0595703-0.0727539
		c9.925293-10.784668,26.7729492-11.4897461,37.5556641-1.5722656l35.8447266,32.9599609
		c4.4338379,4.0766602,7.159668,9.3254395,8.1479492,14.8427734c2.3662109-1.0727539,4.9438477-1.6699219,7.6435547-1.6699219
		h0.4189453c6.5961914,0,12.4760742,3.5327148,16.2624512,9.015625c2.0805664,3.0126953,3.5270996,6.6132813,4.1108398,10.545166
		c0.189209,1.2739258,0.2927246,2.5803223,0.2927246,3.9143066l3.7158203,44.3759766
		c0.0024414,0.027832,0.003418,0.0556641,0.003418,0.0834961c0,6.5322266-2.6430664,12.4619141-6.9213867,16.8071289
		l18.7290039,16.8071289c0.0249023,0.0224609,0.0488281,0.0458984,0.0712891,0.0708008
		c11.3999023,12.5141602,10.3837891,31.3799133-2.3139648,42.9502258L369.125,528.8150635
		c-6.0307617,5.496582-13.4575195,8.2163086-20.8144531,8.2163086c-8.1318359,0-16.1787109-3.3222656-22.1660156-9.890625
		c-0.0224609-0.0249023-0.0439453-0.0507813-0.0639648-0.0776367l-7.4177246-9.9951172l-2.9245605,6.7666016
		c-1.0195313,2.3588867-2.2475586,4.5773926-3.6455078,6.6374512c4.354248,4.5695801,6.9873047,10.5036621,7.5014648,17.0783691
		c0.6157227,7.8754883-1.8608398,15.8022461-6.9736328,22.3193359l-0.3935547,0.5009766
		c-6.4375,8.2041016-15.6147461,12.5361328-24.6616211,12.5361328c-6.0166016,0-11.9750977-1.9155273-17.0322266-5.8813477
		l-35.546875-32.5053711c-2.1164551-1.6582031-3.9077148-3.6289063-5.3442383-5.8325195
		c-6.300293,4.2614746-13.482666,6.5595703-20.5639648,6.5595703c-0.5014648,0-1.0019531-0.0112305-1.5019531-0.0341797
		c-8.2871094-0.3828125-15.3442383-3.8999023-19.8710938-9.9038086l-0.3457031-0.4536133
		c-9.3105469-12.3359375-4.8652344-31.4414368,9.9057617-42.592804l44.2353516-33.3820801l-0.1289063-4.8183594
		l-58.2949219-15.2790527c-8.6411133-2.2646484-16.0385742-7.1933594-20.8300781-13.8793945
		c-3.189209-4.4501953-4.9648438-9.3259277-5.2612305-14.2180176c-5.2382813,7.3547363-11.3500977,15.2751465-18.4643555,23.7526855
		c-1.3225098,1.5761719-2.6691895,3.1655273-4.0625,4.7802734c21.1171875,55.2932129,45.3237305,117.6152649,51.6608887,129.6452942
		c0,0,45.046875,83.2246094,142.7392578,41.7773438C328.8586426,610.6414795,416.4348145,578.2406006,389.7839355,474.8650818z"/>
	<path fill="#00B1A9" d="M231.8442383,507.2740173l0.3452148-0.440918
		c4.5395508-5.7880859,10.6347656-9.3793945,16.9916992-10.5856934c-4.6225586-4.8408203-7.3713379-11.4858398-7.1835938-18.7971191
		l-0.4313965-16.1130371l-43.0959473,32.5222168c-13.8911133,10.4863281-18.1606445,28.3354797-9.5170898,39.7876282
		l0.3457031,0.4541016c4.1655273,5.5239258,10.6879883,8.7592773,18.3696289,9.1137695
		c7.1730957,0.3312988,14.5368652-1.8818359,20.9484863-6.2470703c-1.6191406-3.0014648-2.6208496-6.3666992-2.9108887-9.9423828
		C225.140625,520.053833,227.3203125,513.0391846,231.8442383,507.2740173z"/>
	<path fill="#00B1A9" d="M294.5742188,465.6617126c1.1303711-4.4416504,3.4042969-8.3278809,6.7182617-11.3457031
		l0.4057617-0.3740234c2.6826172-2.4448242,5.8662109-4.159668,9.3823242-5.1037598l1.9489746-23.3388672
		c-7.3544922,1.4938965-14.4370117,6.3210449-19.3857422,13.5539551c0.1359863,3.1437988,0.2307129,6.4453125,0.2927246,9.9145508
		l-0.4643555,13.5544434l-0.0910645,2.6538086l-0.1328125,3.8762207l-0.3105469,9.0612793l-0.0666504,1.9450684
		c-0.0236816,0.9118652-0.0961914,1.8122559-0.2104492,2.7006836c-0.2268066,1.7641602-0.6333008,3.4746094-1.2038574,5.1140137
		c-1.3110352,3.7675781-3.4985352,7.1525879-6.4611816,9.8937988c-2.0812988,1.9257813-4.4526367,3.4238281-7.0029297,4.5041504
		c-1.0056152,0.4260254-2.034668,0.7941895-3.0932617,1.0817871c-0.5546875,0.1503906-1.1152344,0.2819824-1.6821289,0.3935547
		l0.6152344,0.4116211l0.8798828,0.5888672l34.3774414,23.0019836c0.0209961,0.0141602,0.0410156,0.0288086,0.0610352,0.0439453
		c0.5144043,0.4033203,1.005127,0.828125,1.4851074,1.262207c1.2456055-1.8737793,2.3452148-3.8828125,3.2663574-6.0141602
		l3.3835449-7.8283691l-12.9812012-17.4914856c-4.8718262-5.3588867-8.2062988-11.5913086-9.6862793-17.9594727
		c-0.1987305-0.8554688-0.3649902-1.7126465-0.4958496-2.5710449c-0.1318359-0.8671875-0.2363281-1.7346191-0.2973633-2.6013184
		c-0.159668-2.2685547-0.0612793-4.4584961,0.2666016-6.5495605
		C294.2185059,467.231781,294.3769531,466.4375916,294.5742188,465.6617126z"/>
	<path fill="#00B1A9" d="M240.6254883,426.1944275c0.4672852-12.0339355,3.5368652-20.8955078,9.034668-26.4211426
		l-52.7353516-13.8273926c-3.2138672-0.8417969-6.4233398-1.2421875-9.534668-1.2421875
		c-6.0273438,0-11.6828613,1.515625-16.3417969,4.2180176c-3.3452148,5.8068848-7.3244629,12.114502-12.0639648,18.9265137
		c-0.3395996,5.4123535,1.3308105,10.9272461,4.8881836,15.890625c4.5200195,6.3076172,11.5205078,10.9633789,19.7109375,13.1098633
		l57.7321777,15.1315918L240.6254883,426.1944275z"/>
	<path fill="#00B1A9" d="M248.9262695,375.3770447l19.1894531,17.6459961
		c0.2744141,0.0031738,0.5449219,0.0002441,0.8232422,0.0092773l0.5600586,0.0239258
		c11.2192383,0.9658203,17.3564453,7.2873535,20.6896973,19.0527344c7.598877,3.8945313,16.7570801,3.546875,24.0339355-0.8979492
		l0.3339844-3.9990234c-0.0024414-8.9907227,4.53125-16.8374023,11.1518555-20.7487793
		c-0.8134766-5.3288574-3.3669434-10.4223633-7.6313477-14.3430176l-35.8447266-32.9604492
		c-9.9609375-9.1621094-25.515625-8.5205078-34.6982422,1.4194336c-0.0209961,0.0273438-0.043457,0.0551758-0.0585938,0.0712891
		C238.3041992,350.6231384,238.9550781,366.2012634,248.9262695,375.3770447z"/>
	<path fill="#00B1A9" d="M316.5532227,407.2955017l-0.2050781,2.4575195l-0.1115723,1.3339844l-0.1057129,1.2670898
		l-0.9003906,10.7822266l-0.0834961,1.0004883l-0.0866699,1.0371094l-1.9389648,23.2182617
		c2.9831543-0.5324707,6.1652832-0.548584,9.4611816-0.0053711c6.5410156,1.0773926,12.9545898,4.2468262,18.4631348,9.060791
		c0.2919922,0.255127,0.5791016,0.5195313,0.8659668,0.7839355c0.2929688,0.2700195,0.5820313,0.5463867,0.8693848,0.8259277
		c0.6347656,0.6176758,1.2597656,1.2512207,1.8649902,1.9138184l6.9707031,6.2553711
		c3.9519043-3.9807129,6.3989258-9.4272461,6.409668-15.4306641l-3.7158203-44.4169922
		c-0.003418-11.9248047-8.3769531-21.5585938-18.6694336-21.5585938h-0.4189453c-2.6115723,0-5.097168,0.625-7.3562012,1.7438965
		c-0.3215332,0.1589355-0.630127,0.34375-0.9421387,0.5227051c-0.331543,0.1904297-0.6586914,0.3869629-0.9790039,0.5991211
		C320.3422852,392.3968201,316.5532227,399.3401794,316.5532227,407.2955017z"/>
	<path fill="#00B1A9" d="M370.4604492,486.823822l-18.8227539-16.8911133l-0.7163086-0.6428223l-0.7836914-0.7033691
		l-6.8647461-6.1601563c-0.0249023-0.0224609-0.0488281-0.0458984-0.0712891-0.0708008
		c-0.3134766-0.3439941-0.6333008-0.6782227-0.9550781-1.0095215c-0.2700195-0.2780762-0.5449219-0.5480957-0.8205566-0.8171387
		c-0.2775879-0.270752-0.5568848-0.5380859-0.8398438-0.7995605c-5.416748-5.0041504-11.8122559-8.2961426-18.3288574-9.3693848
		c-3.2592773-0.5371094-6.3969727-0.4960938-9.3081055,0.0942383c-0.3452148,0.0700684-0.6850586,0.1523438-1.0234375,0.237793
		c-0.345459,0.0871582-0.6860352,0.1845703-1.0241699,0.2878418c-2.9338379,0.894043-5.5939941,2.3786621-7.8522949,4.4367676
		l-0.4057617,0.3740234c-4.9326172,4.4916992-7.3540039,11.1166992-6.8232422,18.6586914
		c0.5405273,7.6806641,4.0908203,15.4804688,9.9970703,21.9624023c0.0224609,0.0244141,0.0439453,0.050293,0.0639648,0.0771484
		l12.3212891,16.6025696l0.6884766,0.9277344l0.6884766,0.9277344l8.0771484,10.8833008
		c10.6513672,11.6474609,28.2651367,12.3120117,40.1210938,1.5063477l0.4667969-0.4248047
		C380.1005859,516.1080322,381.0703125,498.5088806,370.4604492,486.823822z"/>
	<path fill="#00B1A9" d="M283.6376953,496.2989197c2.7402344-2.5358887,4.7526855-5.6777344,5.9541016-9.1748047
		c0.7724609-2.248291,1.2163086-4.6401367,1.2802734-7.1225586c0-0.0024414,0-0.0053711,0-0.0083008l0.5854492-17.0617676
		l0.0708008-2.0690918l0.0629883-1.8364258l0.3457031-10.0742188c-0.0424805-2.362793-0.1030273-4.6257324-0.1811523-6.8027344
		c-0.0231934-0.644043-0.0505371-1.2670898-0.0769043-1.8952637c-0.0246582-0.5859375-0.0471191-1.1821289-0.074707-1.7543945
		c-0.5075684-10.5549316-1.5178223-18.7783203-3.1989746-25.1027832c-0.1230469-0.4631348-0.251709-0.911377-0.3820801-1.354248
		c-0.1506348-0.5109863-0.3054199-1.0102539-0.4658203-1.4946289c-3.2902832-9.9389648-8.6904297-14.3469238-17.1054688-15.3762207
		c-0.3571777-0.0437012-0.7131348-0.0883789-1.0812988-0.1201172l-0.5073242-0.0205078
		c-0.0141602-0.0004883-0.0280762-0.0002441-0.0424805-0.0007324c-0.3974609-0.0126953-0.791748-0.0197754-1.1801758-0.0197754
		c-0.1054688,0-0.2070313,0.0056152-0.3117676,0.0065918c-5.3518066,0.0476074-9.8469238,1.3129883-13.473877,3.7888184
		c-0.354248,0.2419434-0.6992188,0.496582-1.0371094,0.7617188c-0.3210449,0.251709-0.6345215,0.5144043-0.9406738,0.7871094
		c-5.677002,5.0571289-8.779541,13.6894531-9.2531738,25.8520508l0.7045898,26.3012695l0.0275879,1.0358887l0.0275879,1.0290527
		l0.0756836,2.8295898l0.032959,1.2280273l0.032959,1.2282715l0.4711914,17.5905762
		c-0.1870117,7.3217773,2.7861328,13.9111328,7.6875,18.4482422c4.5612793-0.411377,9.1677246,0.4038086,13.3564453,2.5195313
		c0.2978516,0.1503906,0.5952148,0.302002,0.8881836,0.4655762c0.2924805,0.1628418,0.5808105,0.3364258,0.8681641,0.5124512
		c0.8156738,0.4995117,1.6137695,1.0466309,2.3862305,1.6523438l1.5444336,1.0332031
		c2.1828613-0.2231445,4.2905273-0.7524414,6.2807617-1.5722656
		C279.4262695,499.5125427,281.6743164,498.1155701,283.6376953,496.2989197z"/>
	<path fill="#00B1A9" d="M310.9101563,532.1270752c-0.2304688-0.2492676-0.4707031-0.4907227-0.7119141-0.7314453
		c-0.2355957-0.2351074-0.4775391-0.4645996-0.7233887-0.6911621c-0.4919434-0.4538574-0.9973145-0.8959961-1.5290527-1.314209
		l-34.9213867-23.368927l-0.8798828-0.5888672l-0.8798828-0.5888672l-1.0463867-0.6999512l-1.3864746-0.9279785
		l-0.8220215-0.5500488c-0.2131348-0.1669922-0.4360352-0.3105469-0.652832-0.46875
		c-0.4494629-0.328125-0.9042969-0.6416016-1.3681641-0.9318848c-0.286377-0.1791992-0.574707-0.3522949-0.8662109-0.5170898
		c-0.2924805-0.1655273-0.5878906-0.3215332-0.8850098-0.4729004c-3.2175293-1.6376953-6.6970215-2.4555664-10.2026367-2.4675293
		c-0.0266113,0-0.0529785-0.0031738-0.0793457-0.0031738c-0.4838867,0-0.9677734,0.0168457-1.4516602,0.046875
		c-0.4951172,0.0307617-0.9897461,0.0795898-1.4833984,0.1416016c-6.4257813,0.8066406-12.685791,4.2456055-17.2568359,10.074707
		l-0.3457031,0.440918c-4.2124023,5.3681946-6.2431641,11.8867493-5.7182617,18.3554993
		c0.2597656,3.2016602,1.1376953,6.2192383,2.5615234,8.9277344c0.1567383,0.2978516,0.3222656,0.5908203,0.4919434,0.8811035
		c0.1689453,0.2885742,0.345459,0.5722656,0.5273438,0.8530273c1.3349609,2.0625,3.0087891,3.9101563,4.9978027,5.4694824
		l35.546875,32.5053711c11.7211914,9.1884766,28.8017578,6.4145508,38.8291016-6.3652344l0.3935547-0.5009766
		c4.8017578-6.1206055,7.1289063-13.5537109,6.5522461-20.9282227
		C317.1330566,541.7320557,314.7907715,536.3272705,310.9101563,532.1270752z"/>
	<path fill="#00B1A9" d="M178.3901367,319.0618591c5.1513672-6.6345215,9.4436035-13.9660645,12.7104492-21.828125
		c0.0322266-0.0769043,0.0629883-0.154541,0.0949707-0.2316895c0.9035645-2.1911621,1.7272949-4.4228516,2.4680176-6.6923828
		c0.708252-2.1696777,1.340332-4.3730469,1.8933105-6.607666c1.8095703-7.314209,2.7766113-14.9570313,2.7766113-22.8225098
		c0-52.4081879-42.637207-95.0453949-95.0454102-95.0453949s-95.0454102,42.637207-95.0454102,95.0453949
		c0,50.2788086,39.244873,91.557373,88.7102051,94.8291016c1.9680176,0.1303711,3.9511719,0.2033691,5.949707,0.2114258
		c0.1286621,0.0004883,0.2565918,0.0048828,0.385498,0.0048828c1.8251953,0,3.637207-0.0571289,5.4375-0.1591797
		c0.0610352-0.003418,0.1218262-0.0080566,0.1826172-0.0114746c7.1821289-0.4211426,14.1523438-1.6408691,20.8225098-3.5759277
		c2.3459473-0.6806641,4.6538086-1.4506836,6.9216309-2.3037109c5.7094727-2.1474609,11.159668-4.8276367,16.2885742-7.982666
		C162.7373047,335.8655701,171.3618164,328.1133728,178.3901367,319.0618591z M156.0629883,327.4952087
		c-9.3659668,7.4355469-20.3198242,12.9455566-32.2739258,15.9160156
		c-5.2387695,1.3017578-10.6630859,2.1286621-16.2314453,2.4052734c-0.361084,0.0180664-0.7275391,0.0144043-1.0895996,0.027832
		c-1.0571289,0.0390625-2.1135254,0.0805664-3.1799316,0.0805664c-1.0461426,0-2.0822754-0.0415039-3.1193848-0.0791016
		c-1.8813477-0.0683594-3.7526855-0.1765137-5.6013184-0.3657227c-42.8127441-4.3806152-76.324707-40.6503906-76.324707-84.6005859
		c0-46.8940277,38.1513672-85.0453949,85.0454102-85.0453949s85.0454102,38.1513672,85.0454102,85.0453949
		c0,9.6096191-1.6252441,18.8415527-4.576416,27.4638672c-0.8291016,2.4223633-1.7629395,4.7946777-2.7990723,7.1135254
		c-1.1428223,2.5563965-2.4072266,5.045166-3.7875977,7.4616699c-0.036377,0.0637207-0.0732422,0.1271973-0.1098633,0.190918
		C171.65625,312.5127869,164.5126953,320.7869568,156.0629883,327.4952087z"/>
	<path fill="#FFFFFF" d="M371.9052734,485.440033c-0.0224609-0.0249023-0.0463867-0.0483398-0.0712891-0.0708008
		l-18.7290039-16.8071289c4.2783203-4.3452148,6.9213867-10.2749023,6.9213867-16.8071289
		c0-0.027832-0.0009766-0.0556641-0.003418-0.0834961l-3.7158203-44.3759766c0-1.3339844-0.1035156-2.6403809-0.2927246-3.9143066
		c-0.5837402-3.9318848-2.0302734-7.5324707-4.1108398-10.545166c-3.786377-5.4829102-9.6662598-9.015625-16.2624512-9.015625
		h-0.4189453c-2.699707,0-5.2773438,0.597168-7.6435547,1.6699219c-0.9882813-5.517334-3.7141113-10.7661133-8.1479492-14.8427734
		l-35.8447266-32.9599609c-10.7827148-9.9174805-27.6303711-9.2124023-37.5556641,1.5722656
		c-0.0151367,0.0166016-0.0380859,0.0454102-0.0595703,0.0727539c-9.8833008,10.7856445-9.1694336,27.6049805,1.6015625,37.5166016
		l17.6757813,16.2543945c-5.4985352,0.3845215-10.1201172,2.0830078-13.8188477,5.065918l-53.9975586-14.1582031
		c-8.7734375-2.2971191-17.5058594-1.4587402-24.5964355,1.746582c-0.2717285,0.4904785-0.5490723,0.9853516-0.8303223,1.4836426
		c-0.3139648,0.5561523-0.6306152,1.114502-0.956543,1.6801758c4.6589355-2.7023926,10.3144531-4.2180176,16.3417969-4.2180176
		c3.1113281,0,6.3208008,0.4003906,9.534668,1.2421875l52.7353516,13.8273926
		c-5.4978027,5.5256348-8.5673828,14.387207-9.034668,26.4211426l0.6901855,25.7858887l-57.7321777-15.1315918
		c-8.1904297-2.1464844-15.190918-6.8022461-19.7109375-13.1098633c-3.557373-4.9633789-5.2277832-10.4782715-4.8881836-15.890625
		c-0.3395996,0.4882813-0.690918,0.9838867-1.0383301,1.4772949c-0.3186035,0.4523926-0.635498,0.9035645-0.9606934,1.3603516
		c0.2963867,4.8920898,2.0720215,9.7678223,5.2612305,14.2180176c4.7915039,6.6860352,12.1889648,11.6147461,20.8300781,13.8793945
		l58.2949219,15.2790527l0.1289063,4.8183594l-44.2353516,33.3820801
		c-14.7709961,11.1513672-19.2163086,30.2568665-9.9057617,42.592804l0.3457031,0.4536133
		c4.5268555,6.0039063,11.5839844,9.5209961,19.8710938,9.9038086c0.5,0.0229492,1.0004883,0.0341797,1.5019531,0.0341797
		c7.0812988,0,14.2636719-2.2980957,20.5639648-6.5595703c1.4365234,2.2036133,3.2277832,4.1743164,5.3442383,5.8325195
		l35.546875,32.5053711c5.0571289,3.9658203,11.015625,5.8813477,17.0322266,5.8813477
		c9.046875,0,18.2241211-4.3320313,24.6616211-12.5361328l0.3935547-0.5009766
		c5.112793-6.5170898,7.5893555-14.4438477,6.9736328-22.3193359c-0.5141602-6.574707-3.1472168-12.5087891-7.5014648-17.0783691
		c1.3979492-2.0600586,2.6259766-4.2785645,3.6455078-6.6374512l2.9245605-6.7666016l7.4177246,9.9951172
		c0.0200195,0.0268555,0.0415039,0.0527344,0.0639648,0.0776367c5.9873047,6.5683594,14.0341797,9.890625,22.1660156,9.890625
		c7.3569336,0,14.7836914-2.7197266,20.8144531-8.2163086l0.4663086-0.4248047
		C382.2890625,516.8199463,383.3051758,497.9541931,371.9052734,485.440033z M326.9238281,388.0870056
		c0.3120117-0.1789551,0.6206055-0.3637695,0.9421387-0.5227051c2.2590332-1.1188965,4.7446289-1.7438965,7.3562012-1.7438965
		h0.4189453c10.2924805,0,18.6660156,9.6337891,18.6694336,21.5585938l3.7158203,44.4169922
		c-0.0107422,6.003418-2.4577637,11.4499512-6.409668,15.4306641l-6.9707031-6.2553711
		c-0.6052246-0.6625977-1.2302246-1.2961426-1.8649902-1.9138184c-0.2873535-0.279541-0.576416-0.5559082-0.8693848-0.8259277
		c-0.2868652-0.2644043-0.5739746-0.5288086-0.8659668-0.7839355c-5.5085449-4.8139648-11.9221191-7.9833984-18.4631348-9.060791
		c-3.2958984-0.5432129-6.4780273-0.5270996-9.4611816,0.0053711l1.9389648-23.2182617l0.0866699-1.0371094l0.0834961-1.0004883
		l0.9003906-10.7822266l0.1057129-1.2670898l0.1115723-1.3339844l0.2050781-2.4575195
		c0-7.9553223,3.7890625-14.8986816,9.3916016-18.609375C326.2651367,388.4739685,326.5922852,388.2774353,326.9238281,388.0870056z
		 M293.487793,435.8819275c-0.4562988-8.3100586-1.2658691-15.3989258-2.6591797-21.2841797
		c3.3662109,1.4570313,6.958252,2.2084961,10.5551758,2.2084961c4.361084,0,8.713623-1.0715332,12.6376953-3.184082
		l-0.8186035,9.8012695C305.8618164,424.7564392,298.7568359,429.1763611,293.487793,435.8819275z M248.9262695,375.3770447
		c-9.9711914-9.1757813-10.6220703-24.7539063-1.4506836-34.7265625c0.0151367-0.0161133,0.0375977-0.0439453,0.0585938-0.0712891
		c9.1826172-9.9399414,24.7373047-10.581543,34.6982422-1.4194336l35.8447266,32.9604492
		c4.2644043,3.9206543,6.8178711,9.0141602,7.6313477,14.3430176c-6.6206055,3.911377-11.1542969,11.7580566-11.1518555,20.7487793
		l-0.3339844,3.9990234c-7.2768555,4.4448242-16.4350586,4.7924805-24.0339355,0.8979492
		c-3.333252-11.7653809-9.470459-18.0869141-20.6896973-19.0527344l-0.5600586-0.0239258
		c-0.2783203-0.0090332-0.5488281-0.0061035-0.8232422-0.0092773L248.9262695,375.3770447z M251.8771973,400.3545837
		c0.3061523-0.2727051,0.6196289-0.5354004,0.9406738-0.7871094c0.3378906-0.2651367,0.6828613-0.5197754,1.0371094-0.7617188
		c3.6269531-2.4758301,8.1220703-3.7412109,13.473877-3.7888184c0.1047363-0.0009766,0.2062988-0.0065918,0.3117676-0.0065918
		c0.3884277,0,0.7827148,0.0070801,1.1801758,0.0197754c0.0144043,0.0004883,0.0283203,0.0002441,0.0424805,0.0007324
		l0.5073242,0.0205078c0.3681641,0.0317383,0.7241211,0.076416,1.0812988,0.1201172
		c8.4150391,1.0292969,13.8151855,5.4372559,17.1054688,15.3762207c0.1604004,0.484375,0.3151855,0.9836426,0.4658203,1.4946289
		c0.1303711,0.4428711,0.2590332,0.8911133,0.3820801,1.354248c1.6811523,6.3244629,2.6914063,14.5478516,3.1989746,25.1027832
		c0.0275879,0.5722656,0.0500488,1.168457,0.074707,1.7543945c0.0263672,0.6281738,0.0537109,1.2512207,0.0769043,1.8952637
		c0.078125,2.177002,0.1386719,4.4399414,0.1811523,6.8027344l-0.3457031,10.0742188l-0.0629883,1.8364258l-0.0708008,2.0690918
		l-0.5854492,17.0617676c0,0.0029297,0,0.0058594,0,0.0083008c-0.0639648,2.4824219-0.5078125,4.8742676-1.2802734,7.1225586
		c-1.201416,3.4970703-3.2138672,6.638916-5.9541016,9.1748047c-1.9633789,1.8166504-4.2114258,3.213623-6.6293945,4.2094727
		c-1.9902344,0.8198242-4.0979004,1.3491211-6.2807617,1.5722656l-1.5444336-1.0332031
		c-0.7724609-0.6057129-1.5705566-1.152832-2.3862305-1.6523438c-0.2873535-0.1760254-0.5756836-0.3496094-0.8681641-0.5124512
		c-0.2929688-0.1635742-0.590332-0.3151855-0.8881836-0.4655762c-4.1887207-2.1157227-8.795166-2.9309082-13.3564453-2.5195313
		c-4.9013672-4.5371094-7.8745117-11.1264648-7.6875-18.4482422l-0.4711914-17.5905762l-0.032959-1.2282715l-0.032959-1.2280273
		l-0.0756836-2.8295898l-0.0275879-1.0290527l-0.0275879-1.0358887l-0.7045898-26.3012695
		C243.0976563,414.0440369,246.2001953,405.4117126,251.8771973,400.3545837z M207.668457,543.2149658
		c-7.6816406-0.3544922-14.2041016-3.5898438-18.3696289-9.1137695l-0.3457031-0.4541016
		c-8.6435547-11.4521484-4.3740234-29.3013,9.5170898-39.7876282l43.0959473-32.5222168l0.4313965,16.1130371
		c-0.1877441,7.3112793,2.5610352,13.9562988,7.1835938,18.7971191
		c-6.3569336,1.2062988-12.4521484,4.7976074-16.9916992,10.5856934l-0.3452148,0.440918
		c-4.5239258,5.7651672-6.7036133,12.7798157-6.1381836,19.7514954c0.2900391,3.5756836,1.291748,6.940918,2.9108887,9.9423828
		C222.2053223,541.3331299,214.8415527,543.5462646,207.668457,543.2149658z M317.6000977,547.7061768
		c0.5766602,7.3745117-1.7504883,14.8076172-6.5522461,20.9282227l-0.3935547,0.5009766
		c-10.0273438,12.7797852-27.1079102,15.5537109-38.8291016,6.3652344l-35.546875-32.5053711
		c-1.9890137-1.5593262-3.6628418-3.4069824-4.9978027-5.4694824c-0.1818848-0.2807617-0.3583984-0.5644531-0.5273438-0.8530273
		c-0.1696777-0.2902832-0.3352051-0.583252-0.4919434-0.8811035c-1.4238281-2.7084961-2.3017578-5.7260742-2.5615234-8.9277344
		c-0.5249023-6.46875,1.5058594-12.9873047,5.7182617-18.3554993l0.3457031-0.440918
		c4.5710449-5.8291016,10.8310547-9.2680664,17.2568359-10.074707c0.4936523-0.0620117,0.9882813-0.1108398,1.4833984-0.1416016
		c0.4838867-0.0300293,0.9677734-0.046875,1.4516602-0.046875c0.0263672,0,0.0527344,0.0031738,0.0793457,0.0031738
		c3.5056152,0.0119629,6.9851074,0.829834,10.2026367,2.4675293c0.2971191,0.1513672,0.5925293,0.307373,0.8850098,0.4729004
		c0.2915039,0.1647949,0.579834,0.3378906,0.8662109,0.5170898c0.4638672,0.2902832,0.9187012,0.6037598,1.3681641,0.9318848
		c0.2167969,0.1582031,0.4396973,0.3017578,0.652832,0.46875l0.8220215,0.5500488l1.3864746,0.9279785l1.0463867,0.6999512
		l0.8798828,0.5888672l0.8798828,0.5888672l34.9213867,23.368927c0.5317383,0.4182129,1.0371094,0.8603516,1.5290527,1.314209
		c0.2458496,0.2265625,0.487793,0.4560547,0.7233887,0.6911621c0.2412109,0.2407227,0.4814453,0.4821777,0.7119141,0.7314453
		C314.7907715,536.3272705,317.1330566,541.7320557,317.6000977,547.7061768z M313.9023438,523.0411377
		c-0.9211426,2.1313477-2.020752,4.1403809-3.2663574,6.0141602c-0.4799805-0.434082-0.9707031-0.8588867-1.4851074-1.262207
		c-0.0200195-0.0151367-0.0400391-0.0297852-0.0610352-0.0439453l-34.3774414-23.0019836l-0.8798828-0.5888672l-0.6152344-0.4116211
		c0.5668945-0.1115723,1.1274414-0.2431641,1.6821289-0.3935547c1.0585938-0.2875977,2.0876465-0.6557617,3.0932617-1.0817871
		c2.550293-1.0803223,4.9216309-2.5783691,7.0029297-4.5041504c2.9626465-2.7412109,5.1501465-6.1262207,6.4611816-9.8937988
		c0.5705566-1.6394043,0.9770508-3.3498535,1.2038574-5.1140137c0.1142578-0.8884277,0.1867676-1.7888184,0.2104492-2.7006836
		l0.0666504-1.9450684l0.3105469-9.0612793l0.1328125-3.8762207l0.0910645-2.6538086l0.4643555-13.5544434
		c-0.0620117-3.4692383-0.1567383-6.770752-0.2927246-9.9145508c4.9487305-7.2329102,12.03125-12.0600586,19.3857422-13.5539551
		l-1.9489746,23.3388672c-3.5161133,0.9440918-6.699707,2.6589355-9.3823242,5.1037598l-0.4057617,0.3740234
		c-3.3139648,3.0178223-5.5878906,6.9040527-6.7182617,11.3457031c-0.1972656,0.7758789-0.3557129,1.5700684-0.4824219,2.3781738
		c-0.3278809,2.0910645-0.4262695,4.2810059-0.2666016,6.5495605c0.0610352,0.8666992,0.1655273,1.7341309,0.2973633,2.6013184
		c0.1308594,0.8583984,0.2971191,1.7155762,0.4958496,2.5710449c1.4799805,6.3681641,4.8144531,12.6005859,9.6862793,17.9594727
		l12.9812012,17.4914856L313.9023438,523.0411377z M368.2446289,526.9117432l-0.4667969,0.4248047
		c-11.855957,10.8056641-29.4697266,10.1411133-40.1210938-1.5063477l-8.0771484-10.8833008l-0.6884766-0.9277344
		l-0.6884766-0.9277344l-12.3212891-16.6025696c-0.0200195-0.0268555-0.0415039-0.0527344-0.0639648-0.0771484
		c-5.90625-6.4819336-9.456543-14.2817383-9.9970703-21.9624023c-0.5307617-7.5419922,1.890625-14.1669922,6.8232422-18.6586914
		l0.4057617-0.3740234c2.2583008-2.0581055,4.918457-3.5427246,7.8522949-4.4367676
		c0.3381348-0.1032715,0.6787109-0.2006836,1.0241699-0.2878418c0.3383789-0.0854492,0.6782227-0.1677246,1.0234375-0.237793
		c2.9111328-0.590332,6.0488281-0.6313477,9.3081055-0.0942383c6.5166016,1.0732422,12.9121094,4.3652344,18.3288574,9.3693848
		c0.282959,0.2614746,0.5622559,0.5288086,0.8398438,0.7995605c0.2756348,0.269043,0.5505371,0.5390625,0.8205566,0.8171387
		c0.3217773,0.3312988,0.6416016,0.6655273,0.9550781,1.0095215c0.0224609,0.0249023,0.0463867,0.0483398,0.0712891,0.0708008
		l6.8647461,6.1601563l0.7836914,0.7033691l0.7163086,0.6428223l18.8227539,16.8911133
		C381.0703125,498.5088806,380.1005859,516.1080322,368.2446289,526.9117432z"/>
	<path fill="#FFFFFF" d="M164.5915527,343.9537048c2.9116211-2.1542969,5.7070313-4.4560547,8.3737793-6.8974609
		c7.3474121-6.7260742,13.7207031-14.4985352,18.8842773-23.0783691c3.8977051-6.4765625,7.1035156-13.4133301,9.5185547-20.7075195
		c0.026123-0.0791016,0.0512695-0.1586914,0.0773926-0.2380371c0.6853027-2.0874023,1.3127441-4.2011719,1.8659668-6.3444824
		c0.5400391-2.092041,1.0087891-4.2121582,1.418457-6.3530273c1.206543-6.3034668,1.8459473-12.8056641,1.8459473-19.4553223
		c0-56.9531097-46.3347168-103.2875824-103.2878418-103.2875824S0,203.9263763,0,260.8794861
		c0,55.890625,44.6235352,101.550293,100.1132813,103.2346191c1.0549316,0.0319824,2.1123047,0.0532227,3.1748047,0.0532227
		c0.7683105,0,1.5336914-0.0124512,2.2980957-0.0290527c0.1350098-0.0029297,0.2709961-0.0029297,0.4060059-0.0063477
		c1.9353027-0.0498047,3.855957-0.1582031,5.7636719-0.3137207c18.112793-1.4768066,34.9194336-7.6425781,49.1962891-17.2851563
		C162.1855469,345.7000427,163.3969727,344.837738,164.5915527,343.9537048z M136.6523438,349.8746033
		c-2.2678223,0.8530273-4.5756836,1.6230469-6.9216309,2.3037109c-6.670166,1.9350586-13.6403809,3.1547852-20.8225098,3.5759277
		c-0.060791,0.003418-0.121582,0.0080566-0.1826172,0.0114746c-1.800293,0.1020508-3.6123047,0.1591797-5.4375,0.1591797
		c-0.1289063,0-0.2568359-0.0043945-0.385498-0.0048828c-1.9985352-0.0080566-3.9816895-0.0810547-5.949707-0.2114258
		c-49.465332-3.2717285-88.7102051-44.550293-88.7102051-94.8291016c0-52.4081879,42.637207-95.0453949,95.0454102-95.0453949
		s95.0454102,42.637207,95.0454102,95.0453949c0,7.8654785-0.967041,15.5083008-2.7766113,22.8225098
		c-0.5529785,2.2346191-1.1850586,4.4379883-1.8933105,6.607666c-0.7407227,2.2695313-1.5644531,4.5012207-2.4680176,6.6923828
		c-0.0319824,0.0771484-0.0627441,0.1547852-0.0949707,0.2316895c-3.2668457,7.8620605-7.559082,15.1936035-12.7104492,21.828125
		c-7.0283203,9.0515137-15.652832,16.8037109-25.4492188,22.8300781
		C147.8120117,345.0469666,142.3618164,347.7271423,136.6523438,349.8746033z"/>
	<path fill="#FFFFFF" d="M177.1704102,302.9185486c1.3803711-2.4165039,2.6447754-4.9052734,3.7875977-7.4616699
		c1.0361328-2.3188477,1.9699707-4.6911621,2.7990723-7.1135254c2.9511719-8.6223145,4.576416-17.854248,4.576416-27.4638672
		c0-46.8940277-38.1513672-85.0453949-85.0454102-85.0453949s-85.0454102,38.1513672-85.0454102,85.0453949
		c0,43.9501953,33.5119629,80.2199707,76.324707,84.6005859c1.8486328,0.189209,3.7199707,0.2973633,5.6013184,0.3657227
		c1.0371094,0.0375977,2.0732422,0.0791016,3.1193848,0.0791016c1.0664063,0,2.1228027-0.0415039,3.1799316-0.0805664
		c0.3620605-0.0134277,0.7285156-0.0097656,1.0895996-0.027832c5.5683594-0.2766113,10.9926758-1.1035156,16.2314453-2.4052734
		c11.9541016-2.970459,22.907959-8.4804688,32.2739258-15.9160156c8.449707-6.708252,15.5932617-14.9824219,20.9975586-24.3857422
		C177.097168,303.0457458,177.1340332,302.9822693,177.1704102,302.9185486z M154.5874023,244.6260834l-45.9208984,64.9306488
		c-2.6196289,3.7041016-6.7749023,6.0234375-11.3027344,6.309082c-0.3154297,0.0200195-0.6308594,0.0297852-0.9448242,0.0297852
		c-4.1918945,0-8.2104492-1.7563477-11.0610352-4.8691406l-35.8681641-39.1640625
		c-5.5952148-6.109375-5.1782227-15.5976563,0.9311523-21.1928558c6.1083984-5.5942383,15.597168-5.1782227,21.1928711,0.9311523
		l23.3022461,25.4433441l35.1782227-49.7402191c4.7836914-6.7636719,14.144043-8.3696289,20.9077148-3.5854492
		C157.765625,228.5015717,159.3710938,237.8624115,154.5874023,244.6260834z"/>
</g>
</svg>
