<?xml version="1.0" encoding="utf-8"?>
<!-- Generator: Adobe Illustrator 23.0.6, SVG Export Plug-In . SVG Version: 6.00 Build 0)  -->
<svg version="1.0" id="Layer_7" xmlns="http://www.w3.org/2000/svg" xmlns:xlink="http://www.w3.org/1999/xlink" x="0px" y="0px"
	 viewBox="0 0 735 1266" enable-background="new 0 0 735 1266" xml:space="preserve">
<g>
	<defs>
		<rect id="SVGID_148_" width="735" height="1266"/>
	</defs>
	<clipPath id="SVGID_2_">
		<use xlink:href="#SVGID_148_"  overflow="visible"/>
	</clipPath>
	<g clip-path="url(#SVGID_2_)">
		<path fill="#F7F7F7" d="M264,809.6055298c-4,14,0,0,0-2c-10-36-42-40-42-40s-25.5767059-89.9229126-100-52c-16-44-92-66-128-38
			c-32,28-48,108-36,148c18,56,86,48,130,52c48,6,122,22,156-22c4-4,6-6,6-12"/>
	</g>
	<g clip-path="url(#SVGID_2_)">
		<path fill="#EFEFEF" d="M763.8505859,632.6055298C727.5507813,584.8574219,580.0380859,661.3164063,611,678.8701172
			c-89-11.2645874-104.4463196,14.8330078-101.6177063,39.8095703
			c-147.1849976,13.7792969-168.7632141,66.2089844-168.7632141,66.2089844s-72.9359741-37.444397-103.7743835,5.3086548
			c-12.3579102,17.1327515,1.6850891,37.9335938,22.4277954,39.2479858c-12.256897,0-82.3213043,5.3535156-90.8067017,23.7587891
			c-8.4852905,21.0332031,19.7993011,49.9541016,31.1132965,53.8994141
			c31.1128082,14.4589844,66.9409027,2.6270142,98.9955902-1.3164063
			c16.9707031-2.6289063,13.2002258,10.5175781,25.4561157,27.6073608
			c32.9995117,40.7520142,89.5687866,48.6407471,130.1087952,56.5274048
			c77.3115845,17.0898438,155.5645142,18.4042969,232.8759766,18.4042969c16.9707031,0,49.968811,3.9432983,60.3408203-22.3476563
			c10.3710938-23.6621094-6.5996094-67.0449219-8.4852905-92.0223999c-2.828064-42.0654907,0-84.1337891,0-124.8858032"/>
	</g>
	<g clip-path="url(#SVGID_2_)">
		<path fill="#D2D2D2" d="M689,920.6055298c-94-70.5-252-14-252-14s-118-87.5176392-243-18c-34-46-86-51-127-16
			c-45-37.7227173-82-6-82-6s-4,29-7,43c-7,36-11,70-11,107c0,9.999939-5,32.999939-1,41.999939c4,8,25,12,34,17c37,18,71,36,112,45
			c78,18,163,6,242-2c75-8,152-10,226-25c34-7,66-14,100-16c8,0,29,2,32-5"/>
	</g>
	<g clip-path="url(#SVGID_2_)">
		<path fill="#B0B0B0" d="M756,870.6055298c-115.5,16-133,54-161,81c-12-21-35-21-52-4
			c-135-93-211.272522,14.7264404-211.272522,14.7264404S292,949.6055298,258,960.6055298c-45.4805145,14.7137451-30,40-30,40
			s-129.8862-132.8223267-309-36c-8.7085037,4.7069702,64,47,63,56c-3,16.999939-4,33.999939-5,50.999939c0,15-1,32,0,47
			c2,18,8,19,26,21c45,4,88-2,132-4c65-3,131-6,197-6c62,0,123,0,184,6c41,3,84,10,125,8c16-1,90,3,97-9"/>
	</g>
	<path clip-path="url(#SVGID_2_)" fill="#3D3D3D" d="M263.414093,854.1768188c0,0,155.2176819,3.6688843,155.585907,40.4287109V1079
		h13V894.6055298c0,0,1.3231812-22.1963501,36.5-23c10.782196-0.2471313,35.5,3,36.5,23V1069h13V894.6055298
		c0,0-4.1621094-24.6582031,52.5-23c0,0,52.8319702-2.7823486,52.5,23V1073h13V894.6055298c0,0-1-20,30-24l102.1864624-11.9375
		L263.414093,854.1768188z"/>
	<path clip-path="url(#SVGID_2_)" fill="#8D8D8D" d="M415.8222961,829.6055298c0,0-245.8222961,15-159.8222961,24
		c0,0,249.5,20.5,506,5.5l-7-8c0,0-1-13.5-2-13.5S415.8222961,829.6055298,415.8222961,829.6055298z"/>
	<path clip-path="url(#SVGID_2_)" fill="#B6B6B6" d="M249.7816925,852.8671875
		c24.1186981-3.4257813,151.2193146-14.5116577,151.2193146-14.5116577s9.3353882-7.9746094,11.4276733-8.609436
		C371.9613953,832.3613281,190.5355988,844.8270874,249.7816925,852.8671875z"/>
	<path clip-path="url(#SVGID_2_)" fill="#8D8D8D" d="M666.2440796,771.5770874
		C668.6220703,772.1328125,737,770.6055298,737,770.6055298l13.5,23.5c0,0-6,11-7.5,11s-123,45-123,45l-89.5-4.5c0,0,28.5,2,61.5-10
		s88.2313843-42.2012329,91.7313843-47.7012329l-3.8447266-3.5839844L666.2440796,771.5770874z"/>
	<path clip-path="url(#SVGID_2_)" fill="#C1C1C1" d="M720.0166016,770.9628906L737,770.6055298
		c0,0-68.3779297,1.5272827-70.7559204,0.9715576l12.2373047,11.4307251
		c2.4794922,0.6748047,54.0283813-6.0078125,65.3417969-9.7451172
		C748.3876953,771.7559204,720.0166016,770.9628906,720.0166016,770.9628906z"/>
	<polygon clip-path="url(#SVGID_2_)" fill="#606060" points="752,800.9180298 642,840 753.6298828,840 	"/>
	<g clip-path="url(#SVGID_2_)">
		<g>
			<g>
				<path fill="#383838" d="M676.3007813,836.6503906c4.6083984,3.2910156,8.1992188-2.0448608,9.1992188-3.5448608
					c2.5-4.5-1.5-7.5-1.5-7.5s4.6063843-4.5528564,0-9c-5.4424438-5.2549438-10.5-0.5-10.5-0.5
					s-5.0292969-2.5371094-6.9335938,0.3846436c-0.703125,1.0772095-0.4228516,5.8643188-0.4228516,5.8643188
					s-3.9580688,1.8330078-4.8740845,3.5507813c-0.8242188,1.5439453,0.1270142,3.8896484,0.7305298,5.7002563
					c2.5,7,7.4345703,8.4296875,13,5.7635498L676.3007813,836.6503906z"/>
			</g>
			<polygon fill="#383838" points="677,848 673,848 673.4716797,837 676.5282593,837 			"/>
		</g>
		<g>
			<g>
				<path fill="#383838" d="M718.4345703,791.4511719C720.9735718,778,704.3388672,771.1190796,700.5,781.4022827
					c-0.7939453,2.1270142,0.5,6.218811,1.5,7.7734985c-8-0.7774048-21,17.0986328-9,24.093689
					c-4,10.8809204,7.5,14.7676392,12.5,16.3223267l1-2.3319702c2,6.9960938,12.6875,7.0272827,14-0.7149048
					c-0.328125-2.6015015-1.0986328-4.6445313-2.0195313-5.8828125c2.8984375-0.6914063,4.6171875-2.4725952,6.0195313-6.4169922
					C730,798.7694702,718.4345703,792.2285156,718.4345703,791.4511719z"/>
			</g>
			<rect x="705" y="819" fill="#383838" width="5" height="25"/>
		</g>
	</g>
	<g clip-path="url(#SVGID_2_)">
		<path fill="#F9F9F9" d="M480.5,721.1055298l17.3330078,26.5l86.6669922-6.5c0,0-12.9141235-15.9698486-24.5-19
			C540.7700195,717.0742188,480.5,721.1055298,480.5,721.1055298z"/>
		<g>
			<defs>
				<path id="SVGID_150_" d="M480.5,721.1055298l17.3330078,26.5l86.6669922-6.5c0,0-17.1826172-16.444458-24.5-19
					C541.2354126,715.5488281,480.5,721.1055298,480.5,721.1055298z"/>
			</defs>
			<clipPath id="SVGID_4_">
				<use xlink:href="#SVGID_150_"  overflow="visible"/>
			</clipPath>
			
				<rect x="486.4749146" y="733.5411987" transform="matrix(0.9994493 -0.0331848 0.0331848 0.9994493 -24.0652599 18.1056423)" clip-path="url(#SVGID_4_)" fill="#BCBCBC" width="93.8841553" height="1.0005511"/>
			
				<rect x="516.4997559" y="720.8554688" transform="matrix(0.8823529 -0.4705882 0.4705882 0.8823529 -285.4025879 329.850647)" clip-path="url(#SVGID_4_)" fill="#BCBCBC" width="1.0004596" height="29.75"/>
			
				<rect x="548.625" y="717.9447021" transform="matrix(0.8320503 -0.5547002 0.5547002 0.8320503 -314.3937073 427.7141113)" clip-path="url(#SVGID_4_)" fill="#BCBCBC" width="0.9999771" height="30.1964912"/>
		</g>
		<path fill="#AFAFAF" d="M681.484375,699.6602173c-5.3516235-0.4296875-55.0097656-2.2325439-109.7285156,2.2323608
			c-71.0292664,5.7949219-151.2436829,18.453125-160.9218445,20.2715454L482.4291992,722.375
			c0,0,62.1225586-3.0800781,80.8944702,1.7891235c4.3740845,1.1337891,19.5737915,15.9472046,19.5737915,15.9472046
			L584.5,741.2305298l-86.3554993,6.4217529c0.1977844,0.4003906,0.9272766,0.9335938,0.9272766,0.9335938l-14.5019836,1.8907471
			L485,761.6367188l162-4.515625L642.9257813,750.875c0,0-23.5507813-17.6582031-12.5507813-23.6582031
			c9.2050781-5.0214844,50.6942749-14.2167969,68.5625-17.0565796
			C705.7548828,709.0800781,701.296875,701.25,681.484375,699.6602173z"/>
		<path fill="#606060" d="M682,784.1055298c1.7772827-0.3037109,5,5.5,5,5.5s-78,49-120,52l-31,1.5l-126-6.5l13-26.5l-7-16.5
			C416,793.6055298,651.3358765,789.3397827,682,784.1055298z"/>
		<path fill="#8D8D8D" d="M608,752v-15.5565796c0,0-0.046936-5.4628906,4.578064-5.4628906
			c0,0,3.421936,0.8397827,3.421936,5.0419922V751"/>
		<path fill="#767676" d="M682,784.1055298c-1.5-0.5-34.5-37-36-37s-44.2559204,1.2284546-48.8809204,2.2245483
			c-12.0888062,2.6015015-19.8973999,9.8330078-21.8973999,9.3330078S532,758.6055298,523,756.6055298
			s-14.953125-2.350647-21.453125-0.350647s-16.6416016,2.8037109-16.6416016,2.8037109l-0.2704773-6.9589844
			c0,0-18.1347961,2.0059204-23.6347961,3.5059204s-13.0137024,1.140564-17.5137024,4.640564S423,782.6055298,423,782.6055298
			s-8.5,9-7,11s53.5,1,66,2s68.5102539,0.4432983,78,0C693.3770142,789.375,682,784.1055298,682,784.1055298z"/>
		<path fill="#878787" d="M430.6395874,774.5194702c9.9205017-7.3983765,10.3930969-12.6981812,22.7392883-14.6854858
			c6.9956055-1.1259766,24.5020142-2.5957031,31.3876953-4.3417969l-0.1317749-3.3925781
			c0,0-18.1347961,2.0059204-23.6347961,3.5059204s-13.0137024,1.140564-17.5137024,4.640564
			c-2.7514038,2.1395874-9.7944031,10.0195313-14.8545227,15.8212891
			C429.300293,775.5507813,429.9618835,775.0253906,430.6395874,774.5194702z"/>
		<g>
			<path fill="#4C4C4C" d="M582.0009766,759.703125c0,5.4364624-3.3897095,7.8241577-7.5722656,7.8241577
				c-4.1826172,0-7.5723267-2.3876953-7.5723267-7.8241577c0-5.4375,3.3897095-11.8633423,7.5723267-11.8633423
				C578.6112671,747.8397827,582.0009766,754.265625,582.0009766,759.703125z"/>
			<polygon fill="#4C4C4C" points="574.9335938,765 575.3397827,776 573.5175781,776 573.9237671,765 			"/>
		</g>
		<g>
			<path fill="#4C4C4C" d="M627.3339844,765.4102173c0,4.1893921-2.6113281,6.0292969-5.8339844,6.0292969
				c-3.2227173,0-5.8339844-1.8399048-5.8339844-6.0292969c0-4.1885376,2.6112671-9.1397095,5.8339844-9.1397095
				C624.7226563,756.2705078,627.3339844,761.2216797,627.3339844,765.4102173z"/>
			<polygon fill="#4C4C4C" points="621.8886719,768 622.2020874,777 620.7979126,777 621.1112671,768 			"/>
		</g>
		<g>
			<path fill="#4C4C4C" d="M652.6435547,764.7675781c0,5.1367188-5.3457031,5.3916016-11.9423828,5.3916016
				s-11.9433594-0.2548828-11.9433594-5.3916016c0-5.1337891,5.3466797-13.203064,11.9433594-13.203064
				S652.6435547,759.6337891,652.6435547,764.7675781z"/>
			<polygon fill="#4C4C4C" points="641.7196655,769 642.539978,778 638.8623047,778 639.6825562,769 			"/>
		</g>
		<path fill="#4F4F4F" d="M545.5819702,834.4628906c-5.8759155-3-25.9628906-4.7323608-25.9628906-4.7323608
			s-5.0493164-9.7510376-10.0492859-12.2510376c-5-2.5-14.7397156,4.2471313-16.2397156,3.2471313
			s-28.851593-8.5118408-31.3154907-9.1407471c-25.5555725-6.5292969-38.5340881,9.2696533-40.0125732,9.5215454
			c-21.3013306,3.625-21.0010071,17.2481079-21.0010071,17.2481079s3.3485718,5.0643921,50.4042664,5.640564
			c31.7885132,0.3895874,100.7607422-1.6737671,100.7607422-1.6737671S547.8646851,835.6289063,545.5819702,834.4628906z"/>
	</g>
	<path clip-path="url(#SVGID_2_)" fill="#E8E8E8" d="M-19.5995998,892.8046875c0,0,208.5463867-7.1991577,183.6063843,58.3008423
		c-24.9403992,65.5-229.9794464,52.5839844-229.9794464,52.5839844l109.7177582,34.7577515l83.4452972,26.4355469
		c0,0,136.5766907-51.2772827,109.2612991-117.2772827c-27.3150024-66-184.0815887-63-250.1132965-64.8008423
		L-19.5995998,892.8046875z"/>
	<path clip-path="url(#SVGID_2_)" fill="#1D1D1D" d="M741,1024.6054688c0,0-145-80.999939-316,44
		c0,0-72.0625-58.999939-121.0312195,19c-2.9687805,0-35.9687805-32-59.9687805,15c0,0-97-141.999939-251-77V1268h748V1024.6054688z
		"/>
	<path clip-path="url(#SVGID_2_)" fill="#686868" d="M-68.152832,760.1483765c0,0,30.2651329,5.0899048,59.9585342,5.5664063
		c28.5604992,0.4570923,55.4603958,4.1445923,55.4603958,17.4238892V916.968689
		c3.0121994-0.0722046,6.9316978,0.1298828,10,0.5839844V783.1386719c0,0,0.9053001-16.4648438,27-17.0605469
		c7.9990005-0.1836548,26,2.2245483,27,17.0605469v134.7295532c2.9981003,0.2909546,5.8251953,0.9657593,8.8290939,1.164978
		l0.1709061-135.8945313c0,0-0.2412033-19.3163452,56.6835938-27.734375
		c0.0565948-0.0087891,0.1035004-0.0487671,0.155304-0.0723267L-68.152832,760.1483765z"/>
	<path clip-path="url(#SVGID_2_)" fill="#B6B6B6" d="M216.6269989,743.1259766
		c0,8.5859375-61.4414978,19.2295532-137.2383118,19.2295532c-75.7978973,0-193.6103973,0.7245483-193.6103973-7.8614502
		c0-8.5858765,117.8125-15.5791016,193.6103973-15.5791016C155.1855011,738.914978,216.6269989,734.539978,216.6269989,743.1259766z
		"/>
	<path clip-path="url(#SVGID_2_)" fill="#9A9A9A" d="M199.5834961,751.5117188
		c3.5077972-2.3926392-25.5054016-4.0712891-21.8520966-6.2285156c1.1293945-0.6680298,2.2480927-1.3417969,3.3911896-1.9541016
		c-1.7348938-0.7001953-3.3954926-1.3154297-4.8471985-1.8759766c-3.4955902-1.3475952-7.0429993-2.5350952-10.6293945-3.5879517
		c-23.5693054,0.2364502-53.5756989,1.0498047-86.2573013,1.0498047c-75.7978973,0-193.6103973,6.9932251-193.6103973,15.5791016
		c0,8.5859985,117.8125,7.8614502,193.6103973,7.8614502c29.2798004,0,56.408699-1.5899048,78.6893997-4.0352173
		C164.5820007,757.5684204,196.5814972,753.5585938,199.5834961,751.5117188z"/>
	<g clip-path="url(#SVGID_2_)">
		<polygon fill="#4D4D4D" points="326.1264954,830.5233765 344.6288757,838.8623047 339.6322937,828.3944702 		"/>
		<g>
			<path fill="#8D8D8D" d="M358.9550781,839.4042969c-12.0527954,7.3173828-58.7826843,12.9570313-66.1000671,12.0966797
				c-6.0269165-0.8603516-14.6358337-0.4306641-19.3711243-4.3036499c7.3179016-3.875,21.9536133-6.0274048,30.1322937-6.0274048
				C303.6161804,841.1699219,355.9418945,836.8203125,358.9550781,839.4042969z"/>
		</g>
		<path fill="#4D4D4D" d="M304.9657898,832c0,1-3.9657898,17.7197266-2.9657898,17.3867188S320.0253906,832,320.0253906,832
			H304.9657898z"/>
		<path fill="#767676" d="M370.8330078,818.7714844c-1-1.3339844-25.7489929-13.0527954-25.7489929-13.0527954
			S330.3340149,805,329,820c0,0-30,1-30,0c0-2-0.4766235-26.796875,11.1903992-30.4639282
			c0,0-26.8573914,2.8340454-28.8573914,5.1680298c0,0,1.6982727,1.0150757,4.6669922,2.9506836
			c12.8710938,8.3867188,9.8422852,14.1019897,6.3330078,16.9750977c-4.5620117,3.734436-9.5757141,4.6206055-21.9131165,8.7026367
			C258.082489,827.4146118,302.3978882,834.5957031,325,832.6113281
			C354.3817749,830.0302734,370.8330078,818.7714844,370.8330078,818.7714844z"/>
		<path fill="#9A9A9A" d="M337.925293,814.9960938c1.6391907,1.9921875,3.2963867,3.9707031,4.9844055,5.921936
			c2.0892944,2.4139404,4.230896,4.781189,6.3724976,7.1464844c13.996582-4.1329346,21.5508118-9.2930298,21.5508118-9.2930298
			c-1-1.3339844-25.7489929-13.25-25.7489929-13.25s-6.652832-0.406311-11.4268188,3.8691406
			C334.6288757,811.5059204,336.4672852,813.2246094,337.925293,814.9960938z"/>
		<path fill="#9A9A9A" d="M306.4618835,791.5233765c1.0801086-0.9823608,2.3135071-1.7401733,3.7285156-2.1844482
			c0,0-9.4370117,1.0301514-17.5400085,2.3563843C297.2612,791.5819702,301.8690796,791.5391235,306.4618835,791.5233765z"/>
		<path fill="#9A9A9A" d="M270.4198914,823.3203125c-4.1777039,1.3817749-1.8544922,3.1201172,3.9169922,4.7382813
			c2.8921204-1.2617188,12.5596008-9.2578125,16.9888-12.6845703
			C287.0010071,818.484375,281.8594055,819.5352173,270.4198914,823.3203125z"/>
		<path fill="#E5E5E5" d="M345.3817749,805.6641235c0,0-1.3817749-22.3926392-24.0487671-20.3926392
			c0,0-27.4473267-0.9609985-22.3330078,34.3340454c0.3330078,1,30.3330078,0.9647827,30.3330078,0.9647827
			S332.3817749,806.3319702,345.3817749,805.6641235z"/>
		<path fill="#FFFFFF" d="M321.3330078,785.2714844c0,0-8.0713196-0.2694702-14.6450195,5.1035156
			c8.2700195,1.2041016,16.2655945,4.6444702,22.0166016,10.9052734c2.7396851,2.9814453,4.5371094,6.3232422,5.4325867,9.9013062
			c2.4570007-2.8222046,6.0566101-5.2508545,11.2445984-5.5174561C345.3817749,805.6641235,344,783.2714844,321.3330078,785.2714844
			z"/>
	</g>
	<g clip-path="url(#SVGID_2_)">
		<path fill="#E5E5E5" d="M252.3251953,664.7772827c0,0-18.6298981,0.1524048-22.7422028,11.0020142l2.1699066,4.4541016
			l10.7363892,3.3115234l12.9062042-1.9414063l3.5399933-6.7383423l1.0284119-5.8241577
			C259.9638977,669.0410156,262.3895874,664.3983765,252.3251953,664.7772827z"/>
		<path fill="#636363" d="M283.7826843,676.5391235c0,0-11.4848022,0.6102905-15.0249023-2.5879517
			c-3.539978-3.1972656-6.6239929-10.0507813-17.3602905-9.4794922c0,0,10.0506897,2.6268921,4.6825867,10.2792969
			l-4.6825867,5.5967407c0,0-11.1983032,3.8330078-18.503006-1.8282471c-0.878891-0.680542-2.968689-3.3114624-2.968689-3.3114624
			l-26.6123047,7.6524048c0,0,32.8935089,14.8475952,89.2010956,2.1698608L265.25,680.6055298
			c0,0-3.2993164-1.6739502,1.4520874-2.0860596C279.8706055,677.3779297,283.7826843,676.5391235,283.7826843,676.5391235z"/>
	</g>
	<g clip-path="url(#SVGID_2_)">
		<polygon fill="#E0E0E0" points="724.1132813,521.8319702 724.3125,520.2930298 694.2714844,508.4590149 666.218811,520.2930298 
			666.3817749,521.8319702 		"/>
		<path fill="#E0E0E0" d="M732.6894531,521.0302734c0,0.3828125-0.0634766,1.1855469-0.0634766,1.1855469
			s-21.5751953,1.0147095-38.0751953,1.0147095c-17.7675781,0-38.0175781-1.2002563-38.0175781-1.2002563
			s-0.1210938-0.7236938-0.1210938-1c0-1.7666016,17.0751953-4.2001953,38.1386719-4.2001953
			S732.6894531,519.2636719,732.6894531,521.0302734z"/>
		<ellipse fill="#D1D1D1" cx="695.5507813" cy="522.0302734" rx="38.1386986" ry="3.2002001"/>
		<path fill="#E0E0E0" d="M726.765564,550.7235718c0,0.1045532-0.0537109,2.3252563-0.0537109,2.3252563
			s-18.2235718,0.2773438-32.1610718,0.2773438c-15.0077515,0-32.1123047-0.328186-32.1123047-0.328186
			s-0.1026001-2.1991577-0.1026001-2.2744141c0-0.4852905,14.4229126-1.1512451,32.2149048-1.1512451
			S726.765564,550.2382813,726.765564,550.7235718z"/>
		<path fill="#D1D1D1" d="M726.765564,552.9979858c0,0.484436-14.4227905,2.7227173-32.2147827,2.7227173
			s-32.2149048-2.2382813-32.2149048-2.7227173c0-0.484314,14.4229126-0.8778687,32.2149048-0.8778687
			S726.765564,552.5136719,726.765564,552.9979858z"/>
		<path fill="#E0E0E0" d="M666.218811,523.2930298l0.2577515,11.6288452L673.9647827,551H718l5.7567749-14.210022
			l0.5557251-13.3983765C724.3125,523.3916016,684.3417969,520.5625,666.218811,523.2930298z"/>
		<polygon fill="#E0E0E0" points="693.234436,510.1405945 694.2390137,485.25 694.3235474,485.25 695.328186,510.1405945 		"/>
		<polygon fill="#E0E0E0" points="698,598 691,598 691.8955078,554 697.1034546,554 		"/>
		<path fill="#E0E0E0" d="M726.765564,593.0136719c0,0.1307983-0.0537109,2.9082031-0.0537109,2.9082031
			s-18.2235718,0.3475952-32.1610718,0.3475952c-15.0077515,0-32.1123047-0.4110718-32.1123047-0.4110718
			s-0.1026001-2.7509766-0.1026001-2.8447266c0-0.6074829,14.4229126-1.4413452,32.2149048-1.4413452
			S726.765564,592.406189,726.765564,593.0136719z"/>
		<rect x="666" y="596" fill="#E0E0E0" width="57" height="18"/>
		<path fill="#E0E0E0" d="M686.9580078,650.4580078c0,0,5.5556641-5.5371094,9.7060547-7.2705078
			c12.7684937-5.3300781,21.9121094,2.7559204,25.4970093,4.5175781l-7.5507202-35.0995483h-40.2216797l-8.3886719,39
			l2.8964844-2.7149048C678.3173828,643.3125,686.9580078,650.4580078,686.9580078,650.4580078z"/>
		<path fill="#D1D1D1" d="M714.9765625,614.3125l-0.1464844-0.6854858l-40.656311-0.0214844L674,614.4121094
			C687.8925781,614.2069702,701.1532593,615.5878906,714.9765625,614.3125z"/>
	</g>
	<path clip-path="url(#SVGID_2_)" fill="#D7D7D7" d="M45.7030983,623.5078125l-0.6328011,16.5645142l17.2987976,5.4842529
		l10.125-2.8125C72.4940948,642.7440796,69.6679993,622.3496094,45.7030983,623.5078125z"/>
	<path clip-path="url(#SVGID_2_)" fill="#B6B6B6" d="M177.7191925,741.5214844c0,0-9.1737976-20.921875-27.1737976-30.671875
		c-4.351593-2.3563843-23.4253006-45.9393921-25.9613953-49.1171875C120.9394989,657.1669922,117,651.6055298,117,651.6055298
		l-45.3330002-8.4121094l-20.7217026-12.921936L19,576.9384766l-8-44l-15.3330002-22.6669617L-8,739.6055298
		L177.7191925,741.5214844z"/>
	<path clip-path="url(#SVGID_2_)" fill="#A5A5A5" d="M67.0346985,647.4647827
		c-0.6704025,0.2911377-1.3628006,0.5645142-2.0694046,0.8085938c4.0620041-0.5419922,7.8833008-2.1972046,11.6026001-4.1717529
		l-0.7851944-0.1446533c-1.0171051,0.5537109-2.0522003,1.0703125-3.1094055,1.5342407
		c-1.4150009,0.6201172-3.1439972,1.3858032-4.8422012,1.6044922
		C67.5648956,647.218689,67.3031998,647.3477173,67.0346985,647.4647827z"/>
	<path clip-path="url(#SVGID_2_)" fill="#9A9A9A" d="M-2,697.1055298l80.9433975-5.5l20.0576019-1c0,0-28.5009995-3-30.0009995-3
		s-39.3516006-13.7539063-39.3516006-13.7539063s-38.0238953-12.1465454-40.3226967-14.0254517
		C-12.9730997,657.9492188-2,697.1055298-2,697.1055298z"/>
	<polygon clip-path="url(#SVGID_2_)" fill="#9A9A9A" points="118.1688919,653.7324219 105.1894989,652.0410156 
		61.9955978,655.8789063 32.8740005,650.3085938 63.7841949,648.3651733 112.8021927,649.796875 116.737793,651.5858765 	"/>
	<path clip-path="url(#SVGID_2_)" fill="#A5A5A5" d="M64.364296,649.0664063L0,651.6055298
		c0,0,27.5478992-3.0948486,29.9403973-3.0948486c2.3926029,0,7.5215015-1.0252686,7.8632984-2.7352905
		c0.3418007-1.7089844,0.3418007-4.4434204,0.3418007-4.4434204s19.3017998,2.0733032,20.6366997,2.0733032
		c1.3349991,0-7.8368988-13.1337891-7.8368988-13.1337891l23.7812958,14.1367188L64.364296,649.0664063z"/>
	<path clip-path="url(#SVGID_2_)" fill="#9B9B9B" d="M176.3563995,739.5839844l-52.3662033-1.6484985
		c0,0-1.6660004-51.5018921-56.7089005-10.7752686c-1.2734985,0-16.5224991,1.265564-16.5224991,1.265564
		S42,702.0117188-1,708.0565796l-5.0625,43.9864502c0,0,175.5438995-4.921936,186.0556946-9.9434204L176.3563995,739.5839844z"/>
	<path clip-path="url(#SVGID_2_)" fill="#F7F7F7" d="M22.5634995,726.7733765L22.5634995,726.7733765
		c0.0010014,2.1426392,2.575201,17.8321533,3.6445007,17.8321533s37.1435966,0,37.1435966,0
		S65.2812958,725.9882813,22.5634995,726.7733765z"/>
	<g clip-path="url(#SVGID_2_)">
		<defs>
			<path id="SVGID_152_" d="M22.5634995,727.1680298L22.5634995,727.1680298C22.5645008,729.3104858,25.1387005,745,26.2080002,745
				s37.1435966,0,37.1435966,0S65.2812958,726.3828125,22.5634995,727.1680298z"/>
		</defs>
		<clipPath id="SVGID_5_">
			<use xlink:href="#SVGID_152_"  overflow="visible"/>
		</clipPath>
		<g clip-path="url(#SVGID_5_)">
			
				<rect x="43.4155273" y="717.6438599" transform="matrix(0.0633904 -0.9979888 0.9979888 0.0633904 -695.5056152 734.6890259)" fill="#BCBCBC" width="0.4990263" height="40.4857216"/>
			<polygon fill="#BCBCBC" points="38.1147461,745.9355469 32.8422852,726.0546875 33.3256836,725.9257813 38.5981445,745.8066406 
							"/>
			<polygon fill="#BCBCBC" points="50.0410156,746.0146484 46.0644531,727.8310547 46.5527344,727.7236328 50.5292969,745.9072266 
							"/>
		</g>
	</g>
	<path clip-path="url(#SVGID_2_)" fill="#D7D7D7" d="M92.0536957,744.6425781c0,0-2.0477982-31.9238892-82.2880936-19.0859985
		c0,0,37.5156937,3.625,40.7255936,5.4082031c3.2100029,1.7832031,8.8828049,9.6407471,9.2392998,12.6407471H17l-3.2734003,6H94
		L92.0536957,744.6425781z"/>
	<g clip-path="url(#SVGID_2_)">
		<path fill="#616161" d="M77.5351944,740.6055298c0,0,1.9101028-9.1153564,2.2275009-11.9785156
			c0.3173981-2.8643188,4.135704-26.0352173,4.135704-26.0352173l4.136795,19.9608765l3.6562042,18.0528564H77.5351944z"/>
		<polygon fill="#616161" points="83.3075943,736.6621094 82.9442978,749 86,749 84.7167969,737.7001953 		"/>
	</g>
	<path clip-path="url(#SVGID_2_)" fill="#767676" d="M15.4229002,746.4951172l-1.4561005,2.8233032
		c0,0,154.9472961-6.5878906,162.5117035-8.7128906l-0.3437042-2.8789063c0,0,8.8280945,1.1922607,9.1464996,4.4375
		c0,0-26.2237091,8.9901733-194.8526001,12.1717529l-3.5205002-3.890564"/>
	<path clip-path="url(#SVGID_2_)" fill="#F7F7F7" d="M116.389595,637.2050781c0,0-4.4657974,12.4004517-5.4481964,12.4004517
		s-26.9413986,0-26.9413986,0S89.2919998,637.3798828,116.389595,637.2050781z"/>
	<g clip-path="url(#SVGID_2_)">
		<defs>
			<path id="SVGID_154_" d="M116.389595,637.5996094c0,0-4.4657974,12.4003906-5.4481964,12.4003906S84,650,84,650
				S89.2919998,637.7744141,116.389595,637.5996094z"/>
		</defs>
		<clipPath id="SVGID_6_">
			<use xlink:href="#SVGID_154_"  overflow="visible"/>
		</clipPath>
		<g clip-path="url(#SVGID_6_)">
			<g>
				
					<rect x="88.1576614" y="645.0339966" transform="matrix(0.9987131 -0.0507159 0.0507159 0.9987131 -32.589386 5.9710464)" fill="#BCBCBC" width="26.4141712" height="0.2503221"/>
				<polygon fill="#BCBCBC" points="107.2792969,648.8496094 107.0351563,648.796875 109.2685547,638.6074219 
					109.5126953,638.6601563 				"/>
			</g>
			<polygon fill="#BCBCBC" points="98.2792969,648.8496094 98.0351563,648.796875 100.2685547,638.6074219 100.5126953,638.6601563 
							"/>
		</g>
	</g>
	<path clip-path="url(#SVGID_2_)" fill="#D7D7D7" d="M119.7724915,637.593689c0,0-4.5683975-1.828064-11.3154907-1.9354858
		c-15.3925018-0.2421875-41.3945007,2.7362671-45.1484032,15.9473267H113l0.396492-3H86
		C86,648.6055298,89.5468979,639.2324219,119.7724915,637.593689z"/>
	<g clip-path="url(#SVGID_2_)">
		<g>
			<polygon fill="#616161" points="20,647.1055298 15.8711004,673.3330078 9,686.1055298 23.5625,688.484375 
				33.7567978,685.1055298 24.5,671.1055298 			"/>
			<polygon fill="#616161" points="21.3789005,682.5 20.5,696 26,696 			"/>
		</g>
		<g>
			<polygon fill="#616161" points="49,647.3555298 45.5,666.2305298 41,682.6151733 50.5,684 61,684 54,667.3026733 			"/>
			<polygon fill="#616161" points="48,681.6055298 48.5038986,692.9121094 52.5,693.1055298 49.8407974,679.1055298 			"/>
		</g>
	</g>
	<g clip-path="url(#SVGID_2_)">
		<path fill="#616161" d="M101.3983994,742.102478c-1.5918045-0.3182983-4.4550018,1.0967407-5.4091034,0.5030518
			c-0.9541016-0.5957031-5.4092026-0.7422485-5.4092026-0.7422485s5.4092026-25.2753906,5.4092026-24.1777954
			C95.989296,718.7841797,101.3983994,742.102478,101.3983994,742.102478z"/>
		<polygon fill="#616161" points="95.989296,740.343689 95.3524933,748 98,748 96.4628983,739.9014282 		"/>
	</g>
</g>
<g>
	<path fill="#EFEFEF" d="M309.5112,690.5761719c0.8100891,1.1307983,1.7934875,2.0342407,2.9317017,2.7158203
		c8.8710938,5.3135376,14.3182983,0.3848267,14.3182983,0.3848267s5.7792969,1.3231812,6.0673828-4.1983032
		c0.0654297-1.2557983-2.4144897-1.3085938-4.1962891-1.6152344c1.3881836-1.7519531,2.2221985-4.671875,1.9535828-6.9335938
		c-2.9570007-4.6455078-6.3348694-2.2362671-6.3348694-2.2362671s-4.1118164-6.2276001-13.9009094-2.0039063
		c-2.7900085,1.6522827-4.8809204,4.1541748-5.4272156,7.4334717c-3.9560852,0.4786377-7.8603821,0.6622314-12.2797852,1.5195923
		c-0.0005188,0.0039063-0.0014954,0.0097046-0.0030212,0.0136108c4.3326111-0.1776733,9.8736267,0.6387329,15.4185181,0.6387329
		C308.4076843,687.8651733,308.8993835,689.2949219,309.5112,690.5761719z"/>
</g>
<g>
	<path fill="#EFEFEF" d="M354.9208984,685.2636719c-0.397522-0.0567017-0.6396179-0.6904907-0.9862976-1.546875
		c-1.2061157-0.8065796-2.7217102-0.9746094-4.2779236-0.9121094c-0.1586914,0.0068359-0.3651733-0.0957031-0.4315796-0.2470703
		c-0.7607117-1.725647-2.1260071-3.3096313-4.217804-3.1592407c-1.1401062,0.0821533-1.5927124,0.593811-2.5259094,0.9864502
		c-0.6679077,0.281189-1.0888062,0.2421875-1.7871094,0.0350952c-0.3876953-0.1152344-0.757782-0.1650391-1.1112671-0.1621094
		c-2.5727234,2.5957031-1.0762329,6.2724609-0.3999329,7.2216797c-0.7079773,0.1337891-1.5023804,0.6260376-1.9125977,1.3964844
		c-2.7554016,5.1816406,13.7940063,11.3115234,16.0576172-1.1376953c4.8461914-0.5214844,6.6713867-0.3671875,12.5282898-1.6142578
		C360.4950867,686.890625,359.4902039,686.1776733,354.9208984,685.2636719z"/>
</g>
</svg>
