<?xml version="1.0" encoding="utf-8"?>
<!-- Generator: Adobe Illustrator 23.0.6, SVG Export Plug-In . SVG Version: 6.00 Build 0)  -->
<svg version="1.0" id="Layer_7" xmlns="http://www.w3.org/2000/svg" xmlns:xlink="http://www.w3.org/1999/xlink" x="0px" y="0px"
	 viewBox="0 0 1207.7944336 1128" enable-background="new 0 0 1207.7944336 1128" xml:space="preserve">
<g>
	<defs>
		<rect id="SVGID_163_" x="-22" width="1231" height="1128"/>
	</defs>
	<clipPath id="SVGID_2_">
		<use xlink:href="#SVGID_163_"  overflow="visible"/>
	</clipPath>
	<g clip-path="url(#SVGID_2_)">
		<g>
			<path fill="#EFEFEF" d="M1245.7275391,359.3125c-43.9150391-57.7637024-222.3730469,34.7344055-184.9160156,55.9707031
				c-107.6699219-13.6278992-126.3574219,17.9443054-122.9345093,48.1601868
				c-178.0615845,16.6699219-204.1669922,80.0986023-204.1669922,80.0986023s-88.2364502-45.2998047-125.5430298,6.4227905
				c-14.9511719,20.7266235,2.0380859,45.8907471,27.1318359,47.4805298c-14.8271484,0-99.5908203,6.4765625-109.8554077,28.7431641
				c-10.2657471,25.4463501,23.9520874,60.4335938,37.6395874,65.2059937
				c37.6397095,17.4922485,80.984375,3.1787109,119.7636719-1.5917969
				c20.5303345-3.180603,15.96875,12.7237549,30.7949219,33.3984985
				c39.9229126,49.3008423,108.359375,58.8447266,157.4042969,68.3857422
				c93.5292969,20.6748047,188.1982422,22.2647095,281.7285156,22.2647095c20.5302734,0,60.4511719,4.7713623,72.9980469-27.0352173
				c12.546875-28.6259766-7.984375-81.109436-10.265625-111.3270874c-3.4208984-50.8897095,0-101.7832031,0-151.0840454
				L1245.7275391,359.3125z"/>
		</g>
		<g>
			<path fill="#B0B0B0" d="M1259.7861328,604c-58-22-104-50-172-52c-62-2-232.000061,16-250.000061,100c-18-6-58-14-78-8
				c-8,2-22,18-22,18c-10,2-30.3475952-6.5009766-42-10c-100-30.0264282-124,30-124,30
				s-33.8163452-11.8925781-65.3260803,15.4423828c-35.3789063,30.6924438-10.4990845,65.7402344-10.4990845,65.7402344
				s-296.4873047-10.2529297-262.4873047,181.7470703C250.4804993,1040.9648438,491.7861023,952,559.7860718,954
				c262,4,526.000061,56,784.000061-14c98-26,106-174,44-242"/>
		</g>
		<path fill="#3D3D3D" d="M641.0424805,627.3651733c0,0,187.9575195,4.4385376,188.9575195,48.9102173V899h15V676.2753906
			c0,0,1.9442749-26.8535156,44.5-27.8251953c13.0439453-0.2987671,43.5,3.6298828,44.5,27.8251953V887h16V676.2753906
			c0,0-5.0488281-29.8311157,63.5-27.8251953c0,0,63.5-3.3662109,63.5,27.8251953V892h15V676.2753906
			c0,0-1.6821289-24.1953125,35.8217773-29.0352173l123.7529297-14.4413452L641.0424805,627.3651733z"/>
		<path fill="#8D8D8D" d="M824.6895142,597.6395874c0,0-297.390686,18.1464844-193.3497314,29.0342407
			c0,0,301.8409424,24.8007813,612.1484985,6.6542969l-8.4677734-9.6787109c0,0-1.2109375-16.3320313-2.4199219-16.3320313
			C1231.390625,607.3173828,824.6895142,597.6395874,824.6895142,597.6395874z"/>
		<path fill="#B6B6B6" d="M623.8173828,625.781311c29.1777344-4.1445923,182.9414063-17.5567017,182.9414063-17.5567017
			s11.2949219-9.647522,13.8262329-10.4150391C771.6279297,600.9735718,552.1425781,616.0546875,623.8173828,625.781311z"/>
		<path fill="#8D8D8D" d="M1127.6455078,527.4375c2.8759766,0.6729126,85.5976563-1.1748047,85.5976563-1.1748047
			l16.3320313,28.4296875c0,0-7.2578125,13.3076172-9.0722656,13.3076172s-148.8027344,54.4395142-148.8027344,54.4395142
			l-108.2753906-5.4434204c0,0,34.4785156,2.4199219,74.4003906-12.0977173
			c39.9238281-14.5174561,106.7412109-51.0545654,110.9755859-57.7079468l-4.6513672-4.3359375L1127.6455078,527.4375z"/>
		<path fill="#C1C1C1" d="M1192.6982422,526.6953125l20.5449219-0.4326172c0,0-82.7216797,1.8477173-85.5976563,1.1748047
			l14.8037109,13.8291016c3,0.8164063,65.3623047-7.2686157,79.0498047-11.789978
			C1227.0205078,527.6542969,1192.6982422,526.6953125,1192.6982422,526.6953125z"/>
		<polygon fill="#606060" points="1231.390625,562.718811 1098.3154297,610 1233.3623047,610 		"/>
		<g>
			<g>
				<g>
					<path fill="#383838" d="M1139.8115234,606.1621094c5.5742188,3.9815063,9.9189453-2.4736328,11.1289063-4.2880859
						c3.0244141-5.4443359-1.8144531-9.0732422-1.8144531-9.0732422s5.5722656-5.5077515,0-10.8886719
						c-6.5839844-6.3574219-12.703125-0.6044922-12.703125-0.6044922s-6.0839844-3.0693359-8.3886719,0.4657593
						c-0.8496094,1.3027954-0.5107422,7.093811-0.5107422,7.093811s-4.7880859,2.2178345-5.8964844,4.2958984
						c-0.9970703,1.8682251,0.1533203,4.7059937,0.8837891,6.8955078c3.0234375,8.468689,8.9941406,10.1981812,15.7265625,6.9727173
						L1139.8115234,606.1621094z"/>
				</g>
				<polygon fill="#383838" points="1140.6572266,620 1135.8173828,620 1136.3886719,607 1140.0869141,607 				"/>
			</g>
			<g>
				<g>
					<path fill="#383838" d="M1190.7841797,551.4813843c3.0712891-16.2733765-17.0527344-24.5975952-21.6972656-12.1571655
						c-0.9609375,2.5733032,0.6054688,7.5234985,1.8144531,9.4042969
						c-9.6777344-0.9404297-25.4052734,20.6856079-10.8876953,29.1484985
						c-4.8388672,13.1629639,9.0732422,17.8651733,15.1220703,19.7459717l1.2099609-2.821167
						c2.4189453,8.4638062,15.3486328,8.5008545,16.9365234-0.8652954c-0.3964844-3.1473999-1.3291016-5.618103-2.4433594-7.1162109
						c3.5068359-0.8369141,5.5859375-2.9921875,7.2832031-7.7637329
						C1204.7753906,560.335022,1190.7841797,552.421875,1190.7841797,551.4813843z"/>
				</g>
				<rect x="1176" y="585" fill="#383838" width="6" height="30"/>
			</g>
		</g>
		<g>
			<path fill="#F9F9F9" d="M902.9355469,466.3789063L923.9052734,498.4375l104.8476563-7.8633118
				c0,0-15.6230469-19.320282-29.640625-22.9862976C975.8485718,461.5020142,902.9355469,466.3789063,902.9355469,466.3789063z"/>
			<g>
				<defs>
					<path id="SVGID_165_" d="M902.9355469,466.3789063L923.9052734,498.4375l104.8476563-7.8633118
						c0,0-20.7871094-19.8945007-29.640625-22.9862976C976.4121094,459.656311,902.9355469,466.3789063,902.9355469,466.3789063z"/>
				</defs>
				<clipPath id="SVGID_4_">
					<use xlink:href="#SVGID_165_"  overflow="visible"/>
				</clipPath>
				
					<rect x="910.1638184" y="481.4234924" transform="matrix(0.9994521 -0.0330998 0.0330998 0.9994521 -15.4251938 32.2700844)" clip-path="url(#SVGID_4_)" fill="#BCBCBC" width="113.579628" height="1.2096472"/>
				
					<rect x="946.4876709" y="466.0760498" transform="matrix(0.8823409 -0.4706108 0.4706108 0.8823409 -116.3750992 502.66745)" clip-path="url(#SVGID_4_)" fill="#BCBCBC" width="1.210191" height="35.9904633"/>
				
					<rect x="985.3518066" y="462.5543823" transform="matrix(0.8320503 -0.5547002 0.5547002 0.8320503 -101.1196594 627.6641235)" clip-path="url(#SVGID_4_)" fill="#BCBCBC" width="1.2104274" height="36.5308533"/>
			</g>
			<path fill="#AFAFAF" d="M1146.0820313,440.4346008c-6.4736328-0.5205078-66.5498047-2.7012024-132.7470093,2.7001953
				c-85.9297485,7.0107117-182.9717407,22.3242188-194.6797485,24.5244141l86.6142578,0.2548828
				c0,0,75.1542969-3.726593,97.8642578,2.1640015c5.2919922,1.3721008,23.6796875,19.2929993,23.6796875,19.2929993
				l1.9394531,1.3544922l-104.4716187,7.7685242c0.2391968,0.484375,1.1220093,1.1298828,1.1220093,1.1298828l-17.5449219,2.2871094
				l0.5214844,13.5010071l195.984375-5.4629211l-4.9296875-7.5565796c0,0-28.4912109-21.3623047-15.1835938-28.6210938
				c11.1367188-6.0742188,61.3291016-17.1992188,82.9453125-20.6348267
				C1175.4443359,451.8301086,1170.0507813,442.3573914,1146.0820313,440.4346008z"/>
			<path fill="#606060" d="M1146.7060547,542.5947266c2.1503906-0.368103,6.0488281,6.6532593,6.0488281,6.6532593
				s-94.3632813,59.2792969-145.1737671,62.9083252l-37.5029907,1.8153687l-152.4326172-7.8642578l15.727478-32.0585938
				l-8.4677124-19.9609375C824.9052734,554.0878906,1109.609375,548.9268188,1146.7060547,542.5947266z"/>
			<path fill="#8D8D8D" d="M1058,504v-19.0664063c0,0,0.1044922-6.6083984,5.6992188-6.6083984
				c0,0,4.3007813,1.0155945,4.3007813,6.0996094V503"/>
			<path fill="#767676" d="M1146.7060547,542.5947266c-1.8144531-0.6054077-41.7373047-44.7617188-43.5527344-44.7617188
				c-1.8144531,0-53.5390625,1.4853821-59.1347656,2.6903992c-14.625,3.1484985-24.071228,11.8965149-26.4902344,11.2911072
				c-2.4199219-0.6045227-52.2890015-0.0694275-63.1777344-2.4883118
				c-10.8876953-2.4198914-18.0899048-2.843811-25.953064-0.4248047
				c-7.8633423,2.4198914-20.1328735,3.3916321-20.1328735,3.3916321L907.9375,503.875
				c0,0-21.9384766,2.4258118-28.5927734,4.2402039c-6.6542969,1.8154907-15.7441406,1.3808899-21.1875,5.6153259
				c-5.4443359,4.2333984-24.7842407,27.0487671-24.7842407,27.0487671s-10.2832031,10.8887329-8.4677124,13.3085938
				c1.8144531,2.4188843,64.7226563,1.2089844,79.8447266,2.4188843c15.1220703,1.210022,82.8817749,0.5362549,94.3623047,0
				C1160.4697266,548.9697266,1146.7060547,542.5947266,1146.7060547,542.5947266z"/>
			<path fill="#878787" d="M842.6151733,530.9979858c12.0020142-8.9511108,12.5733032-15.3623047,27.5098267-17.7666016
				c8.4628906-1.3622742,29.6416016-3.1405945,37.9716797-5.2528992L907.9375,503.875
				c0,0-21.9384766,2.4258118-28.5927734,4.2402039c-6.6542969,1.8154907-15.7441406,1.3808899-21.1875,5.6153259
				c-3.328125,2.5878906-11.8496094,12.1210938-17.9707031,19.1395874
				C840.9951172,532.2451172,841.7958984,531.609375,842.6151733,530.9979858z"/>
			<g>
				<path fill="#4C4C4C" d="M1025.7294922,513.0731812c0,6.5772095-4.1016235,9.4659424-9.1610718,9.4659424
					c-5.0596313,0-9.1611938-2.8887329-9.1611938-9.4659424c0-6.5780945,4.1015625-14.352478,9.1611938-14.352478
					C1021.6278687,498.7207031,1025.7294922,506.4950867,1025.7294922,513.0731812z"/>
				<polygon fill="#4C4C4C" points="1017.1787109,519 1017.6708984,533 1015.4658203,533 1015.9580078,519 				"/>
			</g>
			<g>
				<path fill="#4C4C4C" d="M1080.5722656,519.977478c0,5.0684204-3.1591797,7.2940063-7.0576172,7.2940063
					s-7.0585938-2.2255859-7.0585938-7.2940063c0-5.0672607,3.1601563-11.0575867,7.0585938-11.0575867
					S1080.5722656,514.9102173,1080.5722656,519.977478z"/>
				<polygon fill="#4C4C4C" points="1073.984375,523 1074.3642578,534 1072.6650391,534 1073.0439453,523 				"/>
			</g>
			<g>
				<path fill="#4C4C4C" d="M1111.1914063,519.2001953c0,6.2139282-6.4677734,6.522522-14.4482422,6.522522
					s-14.4482422-0.3085938-14.4482422-6.522522c0-6.2108765,6.4677734-15.9736023,14.4482422-15.9736023
					S1111.1914063,512.9893188,1111.1914063,519.2001953z"/>
				<polygon fill="#4C4C4C" points="1097.9755859,524 1098.9677734,535 1094.5185547,535 1095.5107422,524 				"/>
			</g>
			<path fill="#4F4F4F" d="M981.6708984,603.515625c-7.109375-3.6289063-31.4102173-5.7246094-31.4102173-5.7246094
				s-6.1083984-11.796936-12.1571655-14.8212891c-6.0488281-3.0244141-17.8320313,5.1376953-19.6465454,3.9286499
				c-1.8143921-1.2098999-34.9032593-10.2977905-37.8846436-11.0585938
				c-30.9170532-7.8983765-46.6182251,11.2139282-48.406311,11.5186157
				c-25.7705078,4.3856812-25.4072266,20.8662109-25.4072266,20.8662109s4.0516968,6.1270142,60.9785156,6.8242188
				c38.4570313,0.4716797,121.8983765-2.0254517,121.8983765-2.0254517S984.4326172,604.9268188,981.6708984,603.515625z"/>
		</g>
		<path fill="#1D1D1D" d="M1219,833.546875c0,0-175.8764648-97.9921875-382.7484741,53.2304077
			c0,0-87.4087524-71.3768921-146.6490479,22.9854126c-3.5917969,0-43.8202515-38.7138672-72.8554077,18.1464844
			c0,0-449.2695923-251.4657593-590.2626953,200.0908203h286.3016968H1219V833.546875z"/>
		<g>
			<polygon fill="#4D4D4D" points="716.1776733,598.75 738.5615234,608.8378906 732.5166016,596.1748047 			"/>
			<g>
				<path fill="#8D8D8D" d="M755.8936157,609.4940796c-14.5820923,8.8516235-71.1152954,15.6748047-79.9667969,14.6338501
					c-7.2911377-1.0400391-17.7070923-0.5205078-23.4356079-5.2060547
					c8.8535156-4.6884766,26.5595703-7.2919922,36.4541016-7.2919922
					C688.9453125,611.6298828,752.2470703,606.3682251,755.8936157,609.4940796z"/>
			</g>
			<path fill="#4D4D4D" d="M690.578125,601c0,1-4.7978516,21.4375-3.5888062,21.0341797
				C688.2001953,621.6317749,708.796875,601,708.796875,601H690.578125z"/>
			<path fill="#767676" d="M770.2626953,584.5332031c-1.210022-1.6143188-31.1503906-15.8007813-31.1503906-15.8007813
				S721.2675781,568,719.6533203,586c0,0-36.2929077,1-36.2929077,0c0-2-0.5762329-32.4091797,13.5379639-36.8457031
				c0,0-32.4911499,3.4335938-34.9110718,6.2567749c0,0,2.0546875,1.2315063,5.6464844,3.5713501
				c15.5703125,10.1464844,11.906189,17.0634766,7.6611328,20.5390625
				c-5.5184937,4.5176392-11.5848999,5.5898438-26.5097046,10.5273438
				c-14.9258423,4.9394531,38.6864624,13.6279907,66.0302124,11.2265625
				C750.3604126,598.1533203,770.2626953,584.5332031,770.2626953,584.5332031z"/>
			<path fill="#9A9A9A" d="M730.4520874,579.9647827c1.9824829,2.4102173,3.9874268,4.8046875,6.0292969,7.1641235
				c2.5274048,2.9208984,5.1192017,5.7852173,7.7090454,8.6464844c16.9335938-5,26.0722656-11.2421875,26.0722656-11.2421875
				c-1.210022-1.6143188-31.1503906-16.0302734-31.1503906-16.0302734s-8.0488281-0.4912109-13.8242188,4.6806641
				C726.4639282,575.7432251,728.6875,577.8223267,730.4520874,579.9647827z"/>
			<path fill="#9A9A9A" d="M692.3876953,551.5684204c1.3065796-1.1885376,2.7988281-2.1055298,4.5106812-2.6426392
				c0,0-11.4169922,1.2460938-21.2196655,2.850647C681.2567749,551.6395874,686.8311157,551.5878906,692.3876953,551.5684204z"/>
			<path fill="#9A9A9A" d="M648.7852173,590.0360718c-5.053833,1.6708984-2.2432251,3.7744141,4.7391968,5.7315063
				c3.4981079-1.5253906,15.1933594-11.1991577,20.5517578-15.3446655
				C668.8447266,584.1854858,662.6240234,585.4569702,648.7852173,590.0360718z"/>
			<path fill="#E5E5E5" d="M739.4716797,568.6757813c0,0-1.6708984-27.0899048-29.09375-24.6708984
				c0,0-33.2050171-1.1621094-27.0175171,41.5371094c0.4032593,1.210022,36.696167,1.1669922,36.696167,1.1669922
				S723.7451172,569.4833984,739.4716797,568.6757813z"/>
			<path fill="#FFFFFF" d="M710.3779297,544.0048828c0,0-9.7636108-0.3261719-17.7168579,6.1748047
				c10.0049438,1.4559937,19.6778564,5.6182251,26.6348267,13.1923828
				c3.3154297,3.6064453,5.4901733,7.6494141,6.5723267,11.9785156c2.9725952-3.4140625,7.328064-6.3526001,13.6034546-6.6748047
				C739.4716797,568.6757813,737.8007813,541.5858765,710.3779297,544.0048828z"/>
		</g>
		<g>
			<polygon fill="#E0E0E0" points="1197.6533203,225.3018036 1197.8945313,223.4394989 1161.5517578,209.1230011 
				1127.6142578,223.4394989 1127.8115234,225.3018036 			"/>
			<path fill="#E0E0E0" d="M1208.0292969,224.3320007c0,0.4629059-0.0771484,1.4335938-0.0771484,1.4335938
				s-26.1015625,1.2276001-46.0625,1.2276001c-21.4941406,0-45.9921875-1.4521942-45.9921875-1.4521942
				s-0.1464844-0.875-0.1464844-1.2089996c0-2.1376953,20.65625-5.0820007,46.1386719-5.0820007
				S1208.0292969,222.1943054,1208.0292969,224.3320007z"/>
			<path fill="#D1D1D1" d="M1209.2392578,225.5410004c0,2.1376953-20.6582031,3.8721008-46.1396484,3.8721008
				c-25.4824219,0-46.1396484-1.7344055-46.1396484-3.8721008c0-2.1367035,20.6572266-3.8710938,46.1396484-3.8710938
				C1188.5810547,221.6699066,1209.2392578,223.4042969,1209.2392578,225.5410004z"/>
			<path fill="#E0E0E0" d="M1200.8623047,260.2539063c0,0.1269836-0.0644531,2.8125-0.0644531,2.8125
				s-22.046875,0.335907-38.9082031,0.335907c-18.15625,0-38.8486328-0.3964233-38.8486328-0.3964233
				s-0.1240234-2.6611938-0.1240234-2.7519836c0-0.5869141,17.4482422-1.3926086,38.9726563-1.3926086
				S1200.8623047,259.6669922,1200.8623047,260.2539063z"/>
			<path fill="#D1D1D1" d="M1200.8623047,263.0058899c0,0.585907-17.4482422,3.2929077-38.9726563,3.2929077
				s-38.9726563-2.7070007-38.9726563-3.2929077c0-0.5859985,17.4482422-1.0625,38.9726563-1.0625
				S1200.8623047,262.4198914,1200.8623047,263.0058899z"/>
			<path fill="#E0E0E0" d="M1127.6142578,227.0693054l0.3125,14.2744904L1136.9853516,261h53.2724609l6.9648438-17.3964996
				l0.671875-16.3125C1197.8945313,227.2910004,1149.5390625,223.7655945,1127.6142578,227.0693054z"/>
			<polygon fill="#E0E0E0" points="1160.2969971,211.1572266 1161.5123291,181.0449219 1161.614624,181.0449219 
				1162.8299561,211.1572266 			"/>
			<polygon fill="#E0E0E0" points="1166.0625,317 1157.59375,317 1158.6767578,264 1164.9775391,264 			"/>
			<path fill="#E0E0E0" d="M1200.8623047,311.4159851c0,0.1582031-0.0644531,3.5176086-0.0644531,3.5176086
				s-22.046875,0.4208984-38.9082031,0.4208984c-18.15625,0-38.8486328-0.4971008-38.8486328-0.4971008
				s-0.1240234-3.3280945-0.1240234-3.4414063c0-0.7352905,17.4482422-1.7440796,38.9726563-1.7440796
				S1200.8623047,310.6806946,1200.8623047,311.4159851z"/>
			<rect x="1129" y="315" fill="#E0E0E0" width="69" height="22"/>
			<path fill="#E0E0E0" d="M1152.7041016,380.9101868c0,0,6.7207031-6.6982727,11.7421875-8.7949829
				c15.4472656-6.4482117,26.5087891,3.3339844,30.8457031,5.4649048l-9.1347656-42.4629211h-48.6591797l-10.1484375,47.1816101
				l3.5039063-3.2842102C1142.2509766,372.2655945,1152.7041016,380.9101868,1152.7041016,380.9101868z"/>
			<path fill="#D1D1D1" d="M1186.6005859,337.1825867l-0.1777344-0.8291016l-49.1845703-0.0263977l-0.2099609,0.9756165
				C1153.8349609,337.0546875,1169.8779297,338.7255859,1186.6005859,337.1825867z"/>
		</g>
	</g>
</g>
</svg>
