<?xml version="1.0" encoding="utf-8"?>
<!-- Generator: Adobe Illustrator 23.0.6, SVG Export Plug-In . SVG Version: 6.00 Build 0)  -->
<svg version="1.0" id="Layer_7" xmlns="http://www.w3.org/2000/svg" xmlns:xlink="http://www.w3.org/1999/xlink" x="0px" y="0px"
	 viewBox="0 0 1041.1044922 1128" enable-background="new 0 0 1041.1044922 1128" xml:space="preserve">
<g>
	<g>
		<defs>
			<rect id="SVGID_156_" x="0.4453" y="92" width="1015" height="1036"/>
		</defs>
		<clipPath id="SVGID_2_">
			<use xlink:href="#SVGID_156_"  overflow="visible"/>
		</clipPath>
		<g clip-path="url(#SVGID_2_)">
			<g>
				<path fill="#F7F7F7" d="M806.4887695,613.5194702C764.1547852,609.5430298,681.5092773,617,675.5546875,652
					c-2-24-57.1933594-15.7246094-50.8378906,11.9979858c-20.1240234-37.3729858-88.9794922-75.2890015-120.757782-27.7225952
					c-41.3692017-50.6698608-100.8487244-64.5791016-100.8487244-64.5791016s2.9717102-128.632782-170.6581879-86.7929993
					C205.1473999,411.4619141,75.4473038,374.7412109,14.0107002,421.476593
					c-54.610302,46.735321-81.9160004,180.2646179-61.4365005,247.0301819
					c30.7178001,93.468811,146.7655945,80.1152954,221.8544922,86.7930298
					C256.344696,765.3145142,307.2352905,868.8789063,365.2587891,795.4375
					c6.8261108-6.6757813,49.5586243,66.8759766,49.5586243,56.8613281l41.9364929-4.3642578
					c-6.3604126,21.7723999,51.8695984-13.1523438,65.9970703-19.4990845l52.4970093,3
					c34,2,72.4952393-23.9989624,106.4952393-23.9989624c24,0,177.87146,140.8310547,224.9032593,102.6972656
					C1062.6621094,769.1201172,884.027771,620.8037109,806.4887695,613.5194702z"/>
			</g>
			<g>
				<path fill="#D2D2D2" d="M530.0786133,692.7930298c0,0-142.7539063-105.8770142-293.9761353-21.7764282
					c-41.1327972-55.6494141-104.0410004-61.6992188-153.6420898-19.3563843
					c-54.4399033-45.6368408-99.2015991-7.2587891-99.2015991-7.2587891s-4.8394012,35.0829468-8.4687996,52.0204468
					c-8.4687004,43.5516968-13.3076019,84.6845093-13.3076019,129.4463501c0,12.0975952-6.0487976,39.9227905-1.2099991,50.8104858
					c4.8394012,9.6787109,30.2447014,14.5175781,41.1329002,20.5664063
					c44.7616997,21.7763672,85.8945007,43.5517578,135.4951019,54.4403687
					c94.362793,21.7753906,197.1938019,7.2579346,292.7666016-2.4198608
					c90.7333984-9.6777344,183.8862305-12.0975952,273.4100952-30.2441406
					c41.1323853-8.468811,79.8453369-16.9375,120.9780884-19.3573608
					C833.7333984,899.6641235,530.0786133,692.7930298,530.0786133,692.7930298z"/>
			</g>
			<g>
				<path fill="#B0B0B0" d="M1027,1165.1601563c-66-183.999939-102.3516235-432.0439453-305.7764282-417.9277344
					c-14.5170898-25.4053345-42.3422852-25.4053345-62.9081421-4.8388062
					c-163.320343-112.5098267-255.5932312,17.8153687-255.5932312,17.8153687s-48.0615845-15.3964844-89.1939087-2.0878906
					c-55.0214844,17.7998047-36.293396,48.390625-36.293396,48.390625S120.1010971,645.8261719-96.5868988,762.9589844
					c-10.535202,5.6953125,77.4257965,56.8602905,76.2157974,67.7479858
					C-24,851.2733765-25.2099991,871.8397827-26.4199009,892.406311c0,18.1463623-1.2099991,38.7127686,0,56.859314
					C-24,971.0410156-56.2206993,1201.5810547-34.4453011,1204c54.4403992,4.8388672,582.203125-21.2587891,656-14
					c49.6005859,3.6289063-37.5365601-52.5800781,12.0643921-55c19.3565063-1.2089844,123.5454102,9.5175781,132.0137329-5
					L1027,1165.1601563z"/>
			</g>
			<g>
				<g>
					<path fill="#E5E5E5" d="M548.6630859,400.2344055c0,0-22.5380859,0.1835938-27.5131836,13.3095093l2.6254883,5.3876953
						l12.9882813,4.006897l15.6137085-2.3486938l4.2827148-8.1523132l1.2437134-7.0458984
						C557.9038086,405.3916016,560.8389282,399.7753906,548.6630859,400.2344055z"/>
					<path fill="#636363" d="M586.7197266,414.4628906c0,0-13.8945313,0.7383118-18.1766968-3.1308899
						c-4.2828369-3.868103-8.0137329-12.1590881-21.0025024-11.4677124c0,0,12.1591797,3.1777039,5.6651001,12.4355164
						l-5.6651001,6.7705078c0,0-13.5473022,4.6366882-22.3843384-2.210907
						c-1.0634155-0.8242188-3.5917969-4.006897-3.5917969-4.006897l-32.1947937,9.2579041
						c0,0,39.7939758,17.9618835,107.9136047,2.625l-32.9838867-5.3526001c0,0-3.9916992-2.0254211,1.7564087-2.523407
						C581.9868164,415.4775085,586.7197266,414.4628906,586.7197266,414.4628906z"/>
				</g>
				<g>
					<path fill="#EFEFEF" d="M617.3999023,431.4453125c0.9799805,1.3671875,2.1699219,2.4599915,3.546875,3.2851868
						c10.7319336,6.4277039,17.3217163,0.4648132,17.3217163,0.4648132s6.9916992,1.601593,7.3403931-5.078125
						c0.0791016-1.5195007-2.9208984-1.5839844-5.0766602-1.9550781c1.6796875-2.1191101,2.6884766-5.6513977,2.3637695-8.3876953
						c-3.5776978-5.6201172-7.6641235-2.7051086-7.6641235-2.7051086s-4.9740601-7.5341187-16.8168945-2.4248047
						c-3.3754883,1.9990845-5.9047852,5.0263977-6.5658569,8.9931946c-4.7856445,0.5791016-9.5093384,0.8018188-14.855896,1.8388977
						c0,0-0.0015259,0.0117188-0.00354,0.0155945c5.2412109-0.2148743,11.9448853,0.773407,18.6528931,0.773407
						C616.0648804,428.1650085,616.6600952,429.8945007,617.3999023,431.4453125z"/>
				</g>
				<g>
					<path fill="#EFEFEF" d="M672.3358765,425.0176086c-0.480896-0.0684204-0.7738647-0.835022-1.1932983-1.8710938
						c-1.4589844-0.9766235-3.2924805-1.179718-5.175293-1.1035156c-0.1918945,0.0078125-0.4418945-0.1152954-0.5219727-0.2988892
						c-0.9204102-2.0877991-2.5723267-4.0039063-5.1025391-3.8222046c-1.3793945,0.0996094-1.9272461,0.718689-3.0561523,1.1932983
						c-0.8081055,0.3399048-1.3168945,0.2929993-2.1616211,0.0429993c-0.4692993-0.1396179-0.9169922-0.2001953-1.3447266-0.1962891
						c-3.1122437,3.139679-1.3017578,7.5878906-0.4838867,8.7362976c-0.8565063,0.1622009-1.8173828,0.7578735-2.3139648,1.6894836
						c-3.3330078,6.2686157,16.6879883,13.6846008,19.4262695-1.3760071
						c5.862793-0.6307983,8.0708008-0.4442749,15.1567383-1.9530945
						C679.0791016,426.9862976,677.8637695,426.1229858,672.3358765,425.0176086z"/>
				</g>
			</g>
			<path fill="#E8E8E8" d="M-22.3057003,676.0966797c0,0,252.2948914-8.7099609,222.1230927,70.5303345
				c-30.1728973,79.2412109-278.2246094,63.6151733-278.2246094,63.6151733l132.7342987,42.0498047l100.9501953,31.9813843
				c0,0,165.2276154-62.0350952,132.1822052-141.8797607c-33.0455017-79.8457031-222.6977997-76.2159424-302.581604-78.3956299
				L-22.3057003,676.0966797z"/>
			<path fill="#686868" d="M-81.4901962,515.6113281c0,0,36.6141968,6.1581421,72.5370941,6.734375
				c34.5517006,0.5526733,67.0947037,5.0136719,67.0947037,21.0791016v161.9052734
				c3.6439972-0.0878906,8.3856964,0.15625,12.0975952,0.7059937V543.4248047c0,0,1.0953064-19.9188843,32.6641006-20.6395874
				c9.6768036-0.2217407,31.4541092,2.6914063,32.6641006,20.6395874v162.9932251
				c3.6269073,0.3514404,7.0467987,1.1678467,10.6811066,1.4090576l0.2065887-164.4022827
				c0,0-0.2914886-23.3682251,68.5752106-33.5527039c0.0682983-0.0108032,0.125-0.0585938,0.1875-0.0869141L-81.4901962,515.6113281
				z"/>
			<path fill="#1D1D1D" d="M851.234375,1048.9238281c0,0-98.9946899-238.4873047-353.9819641-115.4941406
				c0,0-106.4951172-188.9892578-250.1865082-31.6669922c-3.5913086,0-43.222702-38.7138672-72.257309,18.1464844
				c0,0,4.6367035-161.7880859-182.3632965-83.1532593V1130h904.109375L851.234375,1048.9238281z"/>
			<path fill="#B6B6B6" d="M263.4755859,495.0185852c0,10.3867188-74.3300934,23.2627258-166.0273895,23.2627258
				c-91.6991959,0-234.2259979,0.8768921-234.2259979-9.5097961c0-10.3867188,142.5267944-18.8477173,234.2259979-18.8477173
				C189.1454926,489.9237976,263.4755859,484.6308899,263.4755859,495.0185852z"/>
			<path fill="#9A9A9A" d="M242.4120941,505.1630859c4.2432098-2.8945007-30.8563995-4.9247742-26.4364929-7.5351868
				c1.3661957-0.8075867,2.719696-1.6229858,4.1024933-2.3641968c-2.098587-0.8467102-4.1073914-1.5907898-5.8641968-2.2695923
				c-4.2285919-1.6298218-8.5205994-3.0664063-12.858902-4.3398132
				c-28.5137024,0.2852173-64.8150024,1.2695007-104.3520966,1.2695007c-91.6991959,0-234.2261047,8.4609985-234.2261047,18.8477173
				c0,10.3866882,142.5269012,9.5097961,234.2261047,9.5097961c35.4219055,0,68.2416992-1.9229126,95.1963043-4.8809204
				C200.0679016,512.4901733,238.780304,507.6395874,242.4120941,505.1630859z"/>
			<path fill="#D7D7D7" d="M56.6958008,350.3066101l-0.7651024,20.039093l20.9277,6.6347961l12.2490005-3.4024048
				C89.107399,373.5780945,85.6880035,348.906311,56.6958008,350.3066101z"/>
			<path fill="#B6B6B6" d="M216.4062042,493.0770874c0,0-11.0986023-25.3104858-32.8740082-37.1063843
				c-5.2646027-2.8506165-28.339798-55.5762024-31.4082031-59.4208984
				c-4.4091949-5.5224915-9.1747894-12.2510071-9.1747894-12.2510071l-54.842804-10.1766968l-25.0682983-15.6328125
				L24.3906002,293.968811l-9.6777-53.2305145L-3.8369,213.3164063l-4.4361,277.4433899L216.4062042,493.0770874z"/>
			<path fill="#A5A5A5" d="M82.0570984,379.289093c-0.810997,0.3525085-1.6488953,0.6835938-2.5033951,0.9785156
				c4.914093-0.655304,9.5370941-2.6582031,14.0360947-5.0469055l-0.9496994-0.1748047
				c-1.2304001,0.6698914-2.4828949,1.2948914-3.7612,1.8564148c-1.7118988,0.75-3.8036957,1.6757813-5.8583984,1.9404907
				C82.6981964,378.9921875,82.3817978,379.1474915,82.0570984,379.289093z"/>
			<path fill="#9A9A9A" d="M-1.0147001,439.343811l97.9239044-6.6542969l24.2655945-1.2090149
				c0,0-34.4804993-3.6299133-36.294899-3.6299133c-1.8144989,0-47.6064987-16.6386719-47.6064987-16.6386719
				s-46.0009995-14.6943054-48.7817001-16.967804C-14.2896004,391.9736023-1.0147001,439.343811-1.0147001,439.343811z"/>
			<polygon fill="#9A9A9A" points="144.3632965,386.8721008 128.6611023,384.8262024 76.4061966,389.468811 41.1758003,382.7294922 
				78.5702972,380.3789063 137.8710938,382.1112976 142.6318054,384.2753906 			"/>
			<path fill="#A5A5A5" d="M79.2714996,381.226593L1.4053,384.2987976c0,0,33.3265991-3.7441101,36.221199-3.7441101
				c2.8945007,0,9.099102-1.2401733,9.5130997-3.3085938c0.4131012-2.0683899,0.4131012-5.3760071,0.4131012-5.3760071
				s23.3505974,2.5088196,24.9658012,2.5088196c1.6152954,0-9.4804001-15.8896179-9.4804001-15.8896179l28.7695007,17.1025085
				L79.2714996,381.226593z"/>
			<path fill="#9B9B9B" d="M214.7577972,490.7333984l-63.351593-1.9941101c0,0-2.0156097-62.3056946-68.6054077-13.0361938
				c-1.5409927,0-19.9887962,1.531311-19.9887962,1.531311S52.2158012,445.2792969,0.1953,452.5917969l-6.1245003,53.2138977
				c0,0,212.3695984-5.9541016,225.0863953-12.0292969L214.7577972,490.7333984z"/>
			<path fill="#F7F7F7" d="M28.7021008,475.2354126L28.7021008,475.2354126
				c0.0009995,2.5916748,3.1152992,21.5731812,4.4092007,21.5731812c1.293499,0,44.9355965,0,44.9355965,0
				S80.3807983,474.2851868,28.7021008,475.2354126z"/>
			<g>
				<defs>
					<path id="SVGID_158_" d="M28.7021008,475.4277039L28.7021008,475.4277039C28.7031002,478.0195007,31.8174,497,33.1113014,497
						c1.293499,0,44.9355965,0,44.9355965,0S80.3807983,474.4775085,28.7021008,475.4277039z"/>
				</defs>
				<clipPath id="SVGID_4_">
					<use xlink:href="#SVGID_158_"  overflow="visible"/>
				</clipPath>
				<g clip-path="url(#SVGID_4_)">
					
						<rect x="53.9278374" y="464.1907349" transform="matrix(0.0633843 -0.9979892 0.9979892 0.0633843 -436.9046631 511.8266602)" fill="#BCBCBC" width="0.6047471" height="48.9788589"/>
					<polygon fill="#BCBCBC" points="47.5158577,498.4169922 41.1374397,474.3652344 41.7219124,474.2109375 
						48.1003304,498.2626953 					"/>
					
						<rect x="59.5316124" y="476.1902771" transform="matrix(0.9769142 -0.2136322 0.2136322 0.9769142 -102.75354 24.0356369)" fill="#BCBCBC" width="0.6047193" height="22.5178909"/>
				</g>
			</g>
			<path fill="#D7D7D7" d="M112.7695007,496.8534851c0,0-2.4769974-38.6210938-99.5498047-23.0897827
				c0,0,45.3852997,4.3847046,49.2686005,6.5429077c3.8838005,2.1562805,10.7460976,11.6622009,11.1777,15.2919922H21.9717007
				L18.0112,502.8573914h97.1132965L112.7695007,496.8534851z"/>
			<g>
				<path fill="#616161" d="M95.2055969,491.968811c0,0,2.3110046-11.0274048,2.6948013-14.4913025
					c0.3838043-3.4648132,5.0034027-31.4970093,5.0034027-31.4970093l5.0044022,24.148407l4.4232941,21.8399048H95.2055969z"/>
				<polygon fill="#616161" points="102.189003,487.1357117 101.7494965,502 105.4462967,502 103.8935013,488.3604126 				"/>
			</g>
			<path fill="#D7D7D7" d="M146.3036957,367.3476868c0,0-5.527298-2.2119751-13.6894989-2.3417969
				c-18.6214981-0.2929993-50.0780945,3.3105164-54.6195984,19.2929077h60.1157074l0.4794922-3.6289063h-33.1435013
				C105.4462967,380.6698914,109.7372971,369.3301086,146.3036957,367.3476868z"/>
			<g>
				<g>
					<polygon fill="#616161" points="25.6005993,378.8544922 20.6054993,410.5840149 12.2930002,426.0361023 29.9106007,428.914093 
						42.2431984,424.8262024 31.0449009,407.8895874 					"/>
					<polygon fill="#616161" points="27.2689991,421.6679993 26.2056007,438 32.8594017,438 					"/>
				</g>
				<g>
					<polygon fill="#616161" points="60.6846008,379.157196 56.4501991,401.9921875 51.0057983,421.5683899 62.4990005,423 
						75.2015991,423 66.7333984,403.0448914 					"/>
					<polygon fill="#616161" points="59.4746017,420.5917969 60.0839996,434.2705078 64.9188995,434.5049133 
						61.7015991,417.5674133 					"/>
				</g>
			</g>
			<path fill="#767676" d="M-38.9365005,503.093811l-1.7617989,3.4159851c0,0,187.4522095-7.9697876,196.6036072-10.5409851
				l-0.4161072-3.4825134c0,0,10.6802063,1.4424133,11.065506,5.3681946c0,0-31.7246094,10.8760071-235.7285004,14.7255859
				l-4.2593002-4.7070923"/>
			<path fill="#F7F7F7" d="M144.210907,366.8770142c0,0-5.4023132,15.0018921-6.5908051,15.0018921
				c-1.1889954,0-32.5937042,0-32.5937042,0S111.4287033,367.0888977,144.210907,366.8770142z"/>
			<g>
				<defs>
					<path id="SVGID_160_" d="M144.210907,366.9979858c0,0-5.4023132,15.0020142-6.5908051,15.0020142
						c-1.1889954,0-32.5937042,0-32.5937042,0S111.4287033,367.2099915,144.210907,366.9979858z"/>
				</defs>
				<clipPath id="SVGID_5_">
					<use xlink:href="#SVGID_160_"  overflow="visible"/>
				</clipPath>
				<g clip-path="url(#SVGID_5_)">
					<g>
						
							<rect x="110.0564957" y="376.348938" transform="matrix(0.9987524 -0.0499376 0.0499376 0.9987524 -18.644289 6.7635908)" fill="#BCBCBC" width="31.9553452" height="0.3031126"/>
						
							<rect x="128.0829468" y="374.6178589" transform="matrix(0.2131671 -0.9770157 0.9770157 0.2131671 -260.4105835 426.1845093)" fill="#BCBCBC" width="12.619729" height="0.3023597"/>
					</g>
					
						<rect x="117.1947632" y="374.6178589" transform="matrix(0.2131671 -0.9770157 0.9770157 0.2131671 -268.9777527 415.5466003)" fill="#BCBCBC" width="12.619729" height="0.3023597"/>
				</g>
			</g>
			<g>
				<path fill="#616161" d="M65.0752029,497.780304c-1.9258041-0.3858032-5.3897018,1.3270874-6.5440025,0.6083984
					c-1.1543007-0.7207031-6.5438995-0.8984985-6.5438995-0.8984985s6.5438995-30.5771179,6.5438995-29.2489929
					C58.5312004,469.5703125,65.0752029,497.780304,65.0752029,497.780304z"/>
				<polygon fill="#616161" points="58.5312004,495.6953125 57.7607002,505 60.9639015,505 59.1040001,495.1806946 				"/>
			</g>
		</g>
	</g>
</g>
</svg>
