<?xml version="1.0" encoding="utf-8"?>
<!-- Generator: Adobe Illustrator 23.0.6, SVG Export Plug-In . SVG Version: 6.00 Build 0)  -->
<svg version="1.0" id="Layer_1" xmlns="http://www.w3.org/2000/svg" xmlns:xlink="http://www.w3.org/1999/xlink" x="0px" y="0px"
	 viewBox="0 0 525.2626953 225.3378906" enable-background="new 0 0 525.2626953 225.3378906" xml:space="preserve">
<g>
	<path fill="#FFFFFF" d="M164.743042,191.4990234c-5.5996094,0-9.5136719,1.0234375-13.1865234,2.5283203l2.3486328,8.0683594
		c2.8896484-1.1435547,5.5390625-1.8056641,8.9707031-1.8056641c4.3955078,0,6.5029297,1.9267578,6.5029297,5.2978516v0.5419922
		c-1.8662109-0.6621094-4.8164063-1.2646484-7.8271484-1.2646484c-7.6464844,0-12.7646484,3.4921875-12.7646484,10.2363281
		v0.1201172c0,6.5029297,4.7568359,10.0556641,10.9580078,10.0556641c4.2753906,0,7.3457031-1.6259766,9.5742188-4.0947266
		v3.3720703h11.3193359v-18.7255859c0-4.5761719-1.0234375-7.9482422-3.4921875-10.3564453
		C174.5574951,192.8837891,170.5828857,191.4990234,164.743042,191.4990234z M169.4998779,212.7529297
		c0,3.2519531-2.3486328,5.359375-5.6601563,5.359375c-2.3486328,0-4.0341797-1.3251953-4.0341797-3.5527344v-0.1201172
		c0-2.4082031,1.9267578-4.0341797,5.2382813-4.0341797c1.6855469,0,3.3115234,0.3613281,4.4560547,0.8427734V212.7529297z"/>
	<path fill="#FFFFFF" d="M208.8123779,215.7041016c-3.8535156,0-6.5029297-3.1914063-6.5029297-7.40625v-0.1201172
		c0-3.9746094,2.7099609-7.2255859,6.3828125-7.2255859c2.7695313,0,4.515625,1.2646484,6.0810547,3.4316406l7.7675781-5.7802734
		c-2.7695313-4.3955078-7.2255859-7.2851563-13.9091797-7.2851563c-10.2958984,0-17.4609375,7.7666016-17.4609375,16.9794922
		v0.1201172c0,9.2128906,7.2255859,16.9199219,17.0400391,16.9199219c7.1650391,0,11.5-3.0107422,14.5107422-7.4667969
		l-7.6464844-5.5390625C213.2684326,214.4394531,211.5223389,215.7041016,208.8123779,215.7041016z"/>
	<path fill="#FFFFFF" d="M248.1844482,215.7041016c-3.8535156,0-6.5029297-3.1914063-6.5029297-7.40625v-0.1201172
		c0-3.9746094,2.7099609-7.2255859,6.3828125-7.2255859c2.7695313,0,4.515625,1.2646484,6.0810547,3.4316406l7.7675781-5.7802734
		c-2.7695313-4.3955078-7.2255859-7.2851563-13.9091797-7.2851563c-10.2958984,0-17.4609375,7.7666016-17.4609375,16.9794922
		v0.1201172c0,9.2128906,7.2255859,16.9199219,17.0400391,16.9199219c7.1650391,0,11.5-3.0107422,14.5107422-7.4667969
		l-7.6464844-5.5390625C252.6405029,214.4394531,250.8944092,215.7041016,248.1844482,215.7041016z"/>
	<path fill="#FFFFFF" d="M286.3533936,191.2578125c-9.6337891,0-16.4375,7.5263672-16.4375,17.0400391v0.1201172
		c0,10.1152344,7.2255859,16.9199219,17.4609375,16.9199219c6.5029297,0,11.0185547-2.6494141,14.1503906-6.6240234
		l-6.3222656-5.2382813c-2.3486328,2.2880859-4.5166016,3.3115234-7.2255859,3.3115234
		c-3.5527344,0-6.1416016-1.8056641-7.0449219-5.3583984h21.796875c0.0595703-0.7832031,0.0595703-1.6259766,0.0595703-2.3486328
		C302.7908936,199.5068359,297.6131592,191.2578125,286.3533936,191.2578125z M280.7537842,205.5878906
		c0.6025391-3.5517578,2.6494141-5.9003906,5.6601563-5.9003906c3.1308594,0,5.2382813,2.2880859,5.6601563,5.9003906H280.7537842z"
		/>
	<path fill="#FFFFFF" d="M328.3758545,203.9023438c-3.4326172-1.0234375-5.2988281-1.6259766-5.2988281-2.890625v-0.1201172
		c0-0.9033203,0.9033203-1.5654297,2.6494141-1.5654297c2.5888672,0,6.2617188,1.1445313,9.6337891,3.0107422l3.9130859-7.2255859
		c-3.7324219-2.4082031-8.6699219-3.7929688-13.4267578-3.7929688c-7.5263672,0-13.0654297,3.8535156-13.0654297,10.7773438
		v0.1210938c0,6.5625,5.1171875,8.7304688,11.5605469,10.4160156c3.4316406,0.9638672,5.2382813,1.5048828,5.2382813,2.7695313
		v0.1210938c0,1.1435547-0.9033203,1.7460938-2.890625,1.7460938c-3.3720703,0-7.4658203-1.2646484-11.1992188-3.7333984
		l-4.2744141,6.9238281c4.515625,3.2519531,9.9345703,4.8173828,15.4140625,4.8173828
		c7.9472656,0,13.3066406-3.7333984,13.3066406-10.8984375v-0.1201172
		C339.9364014,207.9365234,334.8182373,205.7089844,328.3758545,203.9023438z"/>
	<path fill="#FFFFFF" d="M364.7381592,203.9023438c-3.4326172-1.0234375-5.2988281-1.6259766-5.2988281-2.890625v-0.1201172
		c0-0.9033203,0.9033203-1.5654297,2.6494141-1.5654297c2.5888672,0,6.2617188,1.1445313,9.6337891,3.0107422l3.9130859-7.2255859
		c-3.7324219-2.4082031-8.6699219-3.7929688-13.4267578-3.7929688c-7.5263672,0-13.0654297,3.8535156-13.0654297,10.7773438
		v0.1210938c0,6.5625,5.1171875,8.7304688,11.5605469,10.4160156c3.4316406,0.9638672,5.2382813,1.5048828,5.2382813,2.7695313
		v0.1210938c0,1.1435547-0.9033203,1.7460938-2.890625,1.7460938c-3.3720703,0-7.4658203-1.2646484-11.1992188-3.7333984
		l-4.2744141,6.9238281c4.515625,3.2519531,9.9345703,4.8173828,15.4140625,4.8173828
		c7.9472656,0,13.3066406-3.7333984,13.3066406-10.8984375v-0.1201172
		C376.2987061,207.9365234,371.180542,205.7089844,364.7381592,203.9023438z"/>
	<path fill="#FFFFFF" d="M79.2539063,119.6855469c13.7998047-4.7089844,21.3847656-16.8876953,17.1054688-31.7158203
		c-2.5878906-9.9941406-5.1757813-19.9902344-7.7646484-29.984375c-6.2021484,1.6054688-9.296875,2.4443359-15.4697266,4.1953125
		c2.8623047,10.0869141,5.7236328,20.1728516,8.5849609,30.2597656c2.1347656,7.5253906-0.6142578,12.1074219-6.328125,13.8222656
		c-5.7128906,1.7138672-10.5888672-0.7441406-13.0234375-8.4316406c-3.125-9.8671875-6.2509766-19.7363281-9.3769531-29.6044922
		c-6.1308594,1.9423828-9.1884766,2.9482422-15.2841797,5.0361328c3.3876953,9.8935547,6.7753906,19.7880859,10.1630859,29.6816406
		C52.4912109,116.2841797,65.4091797,124.4101563,79.2539063,119.6855469z"/>
	<path fill="#FFFFFF" d="M131.0556641,74.1103516c3.4453125-0.6914063,6.3037109,1.3671875,7.1894531,5.9941406
		c1.7587891,9.1894531,2.6376953,13.7841797,4.3964844,22.9726563c5.5605469-1.0644531,8.3457031-1.5654297,13.9228516-2.5058594
		C155,91.2832031,153.4345703,81.9941406,151.8691406,72.7060547c-1.6318359-9.6835938-8.0595703-14.7929688-17.0566406-13.078125
		c-6.0244141,1.1484375-9.2470703,5.328125-11.2099609,9.4121094c-0.5-2.375-0.75-3.5625-1.25-5.9375
		c-5.9199219,1.2460938-8.8759766,1.9013672-14.7744141,3.2792969c3.2744141,14.0185547,6.5498047,28.0371094,9.8242188,42.0546875
		c5.5244141-1.2900391,8.2929688-1.9042969,13.8388672-3.0703125c-1.9248047-9.1542969-2.8876953-13.7324219-4.8134766-22.8886719
		C125.4580078,77.8681641,127.5322266,74.8173828,131.0556641,74.1103516z"/>
	<path fill="#FFFFFF" d="M178.3623047,38.5361328c-6.1181641,0.7460938-9.1738281,1.1533203-15.2773438,2.0351563
		c2.7753906,19.2255859,5.5527344,38.4511719,8.328125,57.6777344c5.59375-0.8076172,8.3945313-1.1806641,14.0009766-1.8632813
		C183.0634766,77.1025391,180.7119141,57.8193359,178.3623047,38.5361328z"/>
	<path fill="#FFFFFF" d="M194.9609375,36.7158203c0.4345703,4.4492188,0.6513672,6.6738281,1.0869141,11.1230469
		c6.2851563-0.6132813,9.4306641-0.8837891,15.7255859-1.3515625c-0.3330078-4.4589844-0.4990234-6.6884766-0.8310547-11.1464844
		C204.5458984,35.8173828,201.3486328,36.0917969,194.9609375,36.7158203z"/>
	<path fill="#FFFFFF" d="M200.9208984,94.6855469c5.6181641-0.5458984,8.4296875-0.7880859,14.0546875-1.2109375
		c-1.0751953-14.3544922-2.1513672-28.7089844-3.2285156-43.0634766c-6.0058594,0.4501953-9.0068359,0.7080078-15.0039063,1.2910156
		C198.1357422,66.0302734,199.5292969,80.3574219,200.9208984,94.6855469z"/>
	<path fill="#FFFFFF" d="M294.9716797,92.5029297c0.4765625-9.4335938,0.953125-18.8671875,1.4296875-28.3007813
		c0.5078125-10.0439453-4.7480469-16.1035156-13.8652344-16.3681641
		c-6.2636719-0.1816406-10.6855469,2.4775391-14.4082031,6.7587891c-2.2412109-4.4882813-6.6054688-7.0683594-12.3164063-7.0117188
		c-6.0263672,0.0605469-9.9238281,3.4414063-12.5673828,7.1113281c-0.0683594-2.3623047-0.1025391-3.5429688-0.1699219-5.9042969
		c-6.0175781,0.1728516-9.0253906,0.2929688-15.0380859,0.5986328c0.7324219,14.3759766,1.4648438,28.7509766,2.1972656,43.1279297
		c5.6328125-0.2871094,8.4501953-0.4003906,14.0859375-0.5625c-0.2705078-9.3818359-0.40625-14.0732422-0.6767578-23.4570313
		c-0.1357422-4.7070313,2.2792969-7.2568359,5.7783203-7.3261719c3.4970703-0.0693359,5.7792969,2.3847656,5.8320313,7.09375
		c0.1064453,9.3867188,0.1601563,14.0800781,0.265625,23.4648438c5.6367188-0.0634766,8.4560547-0.0644531,14.09375-0.0039063
		c0.1005859-9.3847656,0.1513672-14.078125,0.2519531-23.4648438c0.0507813-4.7080078,2.6435547-7.1591797,6.140625-7.0898438
		c3.4980469,0.0693359,5.6816406,2.6132813,5.546875,7.3203125c-0.265625,9.3828125-0.3994141,14.0742188-0.6660156,23.4560547
		C286.5214844,92.1064453,289.3388672,92.2177734,294.9716797,92.5029297z"/>
	<path fill="#FFFFFF" d="M323.9912109,94.6357422c1.3808594-14.3300781,2.7617188-28.6582031,4.1425781-42.9873047
		c-5.9980469-0.5771484-9-0.8330078-15.0058594-1.2783203C312.0634766,64.7255859,311,79.0810547,309.9365234,93.4365234
		C315.5615234,93.8535156,318.3730469,94.0927734,323.9912109,94.6357422z"/>
	<path fill="#FFFFFF" d="M329.9033203,36.6601563c-6.3886719-0.6181641-9.5859375-0.8896484-15.984375-1.3613281
		c-0.328125,4.4580078-0.4921875,6.6884766-0.8203125,11.1464844c6.2949219,0.4638672,9.4414063,0.7314453,15.7275391,1.3398438
		C329.2568359,43.3349609,329.4716797,41.1103516,329.9033203,36.6601563z"/>
	<path fill="#FFFFFF" d="M365.0048828,98.3134766c0.7597656-4.6953125,1.1396484-7.0439453,1.9003906-11.7402344
		c-1.8662109,0.5878906-3.7480469,0.8564453-5.6210938,0.5693359c-2.6210938-0.4013672-3.7109375-1.8486328-3.2695313-4.8496094
		c0.8496094-5.78125,1.2753906-8.6708984,2.125-14.453125c3.8876953,0.5712891,5.8310547,0.8720703,9.7128906,1.5009766
		c0.78125-4.8232422,1.171875-7.234375,1.953125-12.0566406c-3.9521484-0.640625-5.9306641-0.9472656-9.8896484-1.5283203
		c0.6367188-4.3291016,0.9550781-6.4931641,1.5908203-10.8212891c-6.0654297-0.8916016-9.1015625-1.3037109-15.1816406-2.0605469
		c-0.5400391,4.3417969-0.8105469,6.5126953-1.3505859,10.8535156c-2.015625-0.25-3.0234375-0.3720703-5.0400391-0.6074219
		c-0.5683594,4.8525391-0.8515625,7.2792969-1.4199219,12.1308594c1.9814453,0.2324219,2.9707031,0.3515625,4.9511719,0.5976563
		c-0.8681641,6.9716797-1.3027344,10.4570313-2.1708984,17.4277344c-1.2724609,10.21875,3.2470703,14.765625,11.6230469,15.9882813
		C358.8125,99.8339844,362.2587891,99.4052734,365.0048828,98.3134766z"/>
	<path fill="#FFFFFF" d="M420.2646484,90.2734375c3.0371094-12.5771484-2.3417969-24.8623047-15.5869141-27.8125
		c-12.1552734-2.7080078-23.2568359,5.9619141-25.3330078,18.0556641l-0.0283203,0.15625
		c-2.3525391,12.1953125,5.0009766,23.7011719,17.2060547,26.2480469c7.828125,1.6337891,14.0820313-0.4335938,19.1474609-4.6230469
		c-2.4277344-3.4492188-3.6601563-5.1699219-6.1611328-8.5966797c-3.5839844,2.2861328-6.5322266,3.015625-9.8662109,2.2958984
		c-4.3720703-0.9433594-7.078125-3.9316406-7.2734375-8.7744141c10.8681641,2.1904297,16.2861328,3.4013672,27.0771484,6.0556641
		C419.7685547,92.2880859,420.0400391,91.2001953,420.2646484,90.2734375z M407.9248047,82.6162109
		c-5.6914063-1.2753906-8.5429688-1.8808594-14.2539063-3.0302734c1.6884766-4.4648438,4.9248047-6.9912109,8.7607422-6.1767578
		C406.4199219,74.2578125,408.4414063,77.8242188,407.9248047,82.6162109z"/>
	<path fill="#FFFFFF" d="M467.5556641,85.5175781c-1.7373047-3.9853516-4.5751953-8.0390625-10.8378906-9.8388672
		c-11.546875-3.3203125-21.5664063,5.7636719-24.1503906,16.6757813l-0.0410156,0.1533203
		c-2.9570313,10.2734375,0.4941406,23.0419922,11.4492188,26.4365234c5.71875,1.7734375,10.0839844-0.1894531,13.8417969-2.7636719
		c-0.6953125,2.1914063-1.0429688,3.2861328-1.7392578,5.4775391c5.4365234,1.7275391,8.1474609,2.6220703,13.5537109,4.4726563
		c6.2929688-18.3779297,12.5839844-36.7568359,18.8769531-55.1337891
		c-5.9003906-2.0195313-8.8583984-2.9960938-14.7910156-4.8808594
		C471.2529297,73.8759766,470.0205078,77.7568359,467.5556641,85.5175781z M462.8730469,101.0341797l-0.0478516,0.1523438
		c-1.7421875,5.4775391-6.5439453,8.2167969-11.0009766,6.8613281c-4.4560547-1.3535156-6.9892578-6.3203125-5.3896484-11.8408203
		l0.0439453-0.1533203c1.5986328-5.5214844,6.4853516-8.2666016,11.0771484-6.8710938
		C462.1474609,90.5771484,464.5908203,95.6318359,462.8730469,101.0341797z"/>
	<path fill="#FFFFFF" d="M262.6308594,0C165.4589844,0,72.1875,20.9121094,0,58.8847656l1.3964844,2.6542969
		C73.1621094,23.7900391,165.9365234,3,262.6308594,3c96.6953125,0,189.4697266,20.7900391,261.2353516,58.5390625
		l1.3964844-2.6542969C453.0751953,20.9121094,359.8037109,0,262.6308594,0z"/>
	<path fill="#FFFFFF" d="M356.0544434,130.9335938c0.048584,0.4882813,0.0766602,0.9775391,0.1057129,1.4667969
		c38.5275879,5.5380859,75.3759766,14.4946289,109.3322754,26.5620117c0.4638672-0.8359375,0.9177246-1.6772461,1.3833008-2.512207
		c0.0275879-0.0498047,0.0556641-0.0986328,0.083252-0.1484375c-34.489502-12.2944336-71.9482422-21.3925781-111.1159668-26.9760742
		C355.925293,129.859375,356.0009766,130.3945313,356.0544434,130.9335938z"/>
	<path fill="#FFFFFF" d="M172.7849121,128.8427734c-36.3054199,4.9770508-71.1916504,12.9580078-103.6445313,23.706543
		c0.4697266,0.8969727,0.9423828,1.7929688,1.4123535,2.6894531c31.9418945-10.5444336,66.2548828-18.394043,101.9587402-23.3271484
		C172.5803223,130.8876953,172.6726074,129.8647461,172.7849121,128.8427734z"/>
	<path fill="#FFFFFF" d="M306.881958,101.3266602c-13.9786377,0-28.5106201,9.6323242-38.2403564,17.7124023l9.0603027,9.2392578
		c11.4304199-9.4931641,21.3012695-12.7944336,29.1800537-12.7944336c14.9432373,0,21.9451904,6.9584961,21.9451904,17.84375
		c0,10.8862305-7.0019531,17.8447266-21.9451904,17.8447266c-14.4171143,0-33.3406982-15.6582031-39.4078369-22.1977539
		c-1.0461426-1.1274414-25.8769531-27.6479492-48.9257813-27.6479492c-22.1435547,0-38.1716309,12.5610352-38.1716309,32.0009766
		c0,19.4404297,16.0280762,32.0019531,38.1716309,32.0019531c14.3413086,0,27.9680176-9.015625,37.9580078-17.4829102
		l-9.4101563-8.9428711c-11.7814941,9.9858398-20.4333496,12.2685547-28.5478516,12.2685547
		c-14.9432373,0-21.0849609-6.9584961-21.0849609-17.8447266c0-10.8852539,6.1417236-17.84375,21.0849609-17.84375
		c14.4169922,0,32.887207,16.3876953,39.4072266,22.1967773c6.059082,5.3989258,25.8775635,27.6489258,48.9263916,27.6489258
		c22.1436768,0,38.1716309-12.5615234,38.1716309-32.0019531
		C345.0535889,113.8876953,329.0256348,101.3266602,306.881958,101.3266602z"/>
</g>
</svg>
